<svg xmlns="http://www.w3.org/2000/svg" xmlns:xlink="http://www.w3.org/1999/xlink" width="1000" height="700" version="1.1">
<style type="text/css">
.l0{
 fill: #000000;
  stroke: #000000;
  stroke-linecap:round;
  stroke-linejoin:round;
  stroke-width: 0.492102;
}
.l1{
 fill: #00ccee;
  stroke: #00ccee;
  stroke-linecap:round;
  stroke-linejoin:round;
  stroke-width: 0.492102;
}
.l2{
  fill: none;
  stroke: #3f3f3f;
  stroke-linecap:round;
  stroke-linejoin:round;
  stroke-width: 0.492102;
}
.l3{
 fill: #cccccc; fill-opacity: 0.5;
  stroke: #cccccc;
  stroke-linecap:round;
  stroke-linejoin:round;
  stroke-width: 0.492102;
}
.l4{
 fill: #88dd00;
  stroke: #88dd00;
  stroke-linecap:round;
  stroke-linejoin:round;
  stroke-width: 0.492102;
}
.l5{
 fill: #bb2200;
  stroke: #bb2200;
  stroke-linecap:round;
  stroke-linejoin:round;
  stroke-width: 0.492102;
}
.l6{
 fill: #00ccee; fill-opacity: 0.5;
  stroke: #00ccee;
  stroke-linecap:round;
  stroke-linejoin:round;
  stroke-width: 0.492102;
}
.l7{
 fill: #ff0000; fill-opacity: 0.5;
  stroke: #ff0000;
  stroke-linecap:round;
  stroke-linejoin:round;
  stroke-width: 0.492102;
}
.l8{
 fill: #ffff00; fill-opacity: 0.5;
  stroke: #ffff00;
  stroke-linecap:round;
  stroke-linejoin:round;
  stroke-width: 0.492102;
}
.l9{
 fill: #ffffff; fill-opacity: 0.5;
  stroke: #ffffff;
  stroke-linecap:round;
  stroke-linejoin:round;
  stroke-width: 0.492102;
}
.l10{
 fill: #ff00ff;
  stroke: #ff00ff;
  stroke-linecap:round;
  stroke-linejoin:round;
  stroke-width: 0.492102;
}
.l11{
 fill: #00ff00; fill-opacity: 0.5;
  stroke: #00ff00;
  stroke-linecap:round;
  stroke-linejoin:round;
  stroke-width: 0.492102;
}
.l12{
 fill: #0044dd; fill-opacity: 0.5;
  stroke: #0044dd;
  stroke-linecap:round;
  stroke-linejoin:round;
  stroke-width: 0.492102;
}
.l13{
 fill: #aaaa00; fill-opacity: 0.5;
  stroke: #aaaa00;
  stroke-linecap:round;
  stroke-linejoin:round;
  stroke-width: 0.492102;
}
.l14{
  fill: none;
  stroke: #aaccaa;
  stroke-linecap:round;
  stroke-linejoin:round;
  stroke-width: 0.492102;
}
.l15{
 fill: #ff7777; fill-opacity: 0.5;
  stroke: #ff7777;
  stroke-linecap:round;
  stroke-linejoin:round;
  stroke-width: 0.492102;
}
.l16{
 fill: #bfff81; fill-opacity: 0.5;
  stroke: #bfff81;
  stroke-linecap:round;
  stroke-linejoin:round;
  stroke-width: 0.492102;
}
.l17{
  fill: none;
  stroke: #00ffcc;
  stroke-linecap:round;
  stroke-linejoin:round;
  stroke-width: 0.492102;
}
.l18{
 fill: #ce0097; fill-opacity: 0.5;
  stroke: #ce0097;
  stroke-linecap:round;
  stroke-linejoin:round;
  stroke-width: 0.492102;
}
.l19{
  fill: none;
  stroke: #d2d46b;
  stroke-linecap:round;
  stroke-linejoin:round;
  stroke-width: 0.492102;
}
.l20{
  fill: none;
  stroke: #ef6158;
  stroke-linecap:round;
  stroke-linejoin:round;
  stroke-width: 0.492102;
}
.l21{
  fill: none;
  stroke: #fdb200;
  stroke-linecap:round;
  stroke-linejoin:round;
  stroke-width: 0.492102;
}
text {font-family: Sans-Serif;}
</style>
<rect class="l0" x="0" y="0" width="1000" height="700"/>
<text fill="#cccccc"  xml:space="preserve" font-size="14.2163" transform="translate(48.492, 2.94459)" >VibroSense PGA OTA v2.1 (Two-Stage Miller)</text>
<text fill="#ffff00"  xml:space="preserve" font-size="8.29284" transform="translate(48.492, 15.7921)" >SKY130A</text>
<text fill="#ffff00"  xml:space="preserve" font-size="7.10815" transform="translate(103.17, 92.177)" >STAGE 1: Diff Pair + Mirror</text>
<text fill="#ffff00"  xml:space="preserve" font-size="7.10815" transform="translate(449.464, 92.177)" >STAGE 2: CS + Sink</text>
<text fill="#ffff00"  xml:space="preserve" font-size="5.92346" transform="translate(326.439, 214.127)" >COMPENSATION</text>
<text fill="#bb2200"  xml:space="preserve" font-size="4.73876" transform="translate(344.665, 240.39)" >Rz = 40k</text>
<text fill="#bb2200"  xml:space="preserve" font-size="4.73876" transform="translate(344.665, 304.181)" >Cc = 3.8pF</text>
<text fill="#bb2200"  xml:space="preserve" font-size="4.73876" transform="translate(94.0571, 176.599)" >M3 diode</text>
<text fill="#bb2200"  xml:space="preserve" font-size="4.26489" transform="translate(94.0571, 185.282)" >gate = drain</text>
<text fill="#bb2200"  xml:space="preserve" font-size="4.26489" transform="translate(89.5006, 403.994)" >M1: 5u/14u</text>
<text fill="#bb2200"  xml:space="preserve" font-size="4.26489" transform="translate(285.43, 403.994)" >M2: 5u/14u</text>
<text fill="#bb2200"  xml:space="preserve" font-size="4.26489" transform="translate(89.5006, 162.499)" >M3: 2u/2u</text>
<text fill="#bb2200"  xml:space="preserve" font-size="4.26489" transform="translate(285.43, 162.499)" >M4: 2u/2u</text>
<text fill="#bb2200"  xml:space="preserve" font-size="4.26489" transform="translate(485.916, 162.499)" >M5: 10u/2u</text>
<text fill="#bb2200"  xml:space="preserve" font-size="4.26489" transform="translate(485.916, 558.915)" >M7: 5.5u/2u</text>
<text fill="#bb2200"  xml:space="preserve" font-size="4.26489" transform="translate(176.074, 558.915)" >M11: 15u/18u</text>
<text fill="#ffff00"  xml:space="preserve" font-size="4.26489" transform="translate(12.04, 586.254)" >(unused)</text>
<text fill="#ffff00"  xml:space="preserve" font-size="4.26489" transform="translate(12.04, 609.037)" >(unused)</text>
<text fill="#ffff00"  xml:space="preserve" font-size="4.26489" transform="translate(12.04, 631.819)" >(unused)</text>
<text fill="#88dd00"  xml:space="preserve" font-size="4.26489" transform="translate(132.787, 276.412)" >v_mir</text>
<text fill="#88dd00"  xml:space="preserve" font-size="4.26489" transform="translate(278.595, 276.412)" >v_s1</text>
<text fill="#88dd00"  xml:space="preserve" font-size="4.26489" transform="translate(203.413, 435.89)" >otail</text>
<text fill="#88dd00"  xml:space="preserve" font-size="4.26489" transform="translate(340.108, 276.412)" >rz_mid</text>
<text fill="#00ccee"  xml:space="preserve" font-size="7.81896" transform="translate(220.5, 116.459)" >v_mir</text>
<text fill="#00ccee"  xml:space="preserve" font-size="7.81896" transform="translate(279.715, 186.591) rotate(270)" >v_s1</text>
<text fill="#00ccee"  xml:space="preserve" font-size="7.81896" transform="translate(141.456, 278.235) rotate(270)" >v_mir</text>
<text fill="#00ccee"  xml:space="preserve" font-size="7.81896" transform="translate(120.073, 371.623)" >gnd</text>
<text fill="#00ccee"  xml:space="preserve" font-size="7.81896" transform="translate(278.151, 278.235) rotate(270)" >v_s1</text>
<text fill="#00ccee"  xml:space="preserve" font-size="7.81896" transform="translate(270.622, 371.623)" >gnd</text>
<text fill="#00ccee"  xml:space="preserve" font-size="7.81896" transform="translate(152.152, 531.101)" >vbn</text>
<text fill="#00ccee"  xml:space="preserve" font-size="7.81896" transform="translate(188.42, 531.101)" >gnd</text>
<text fill="#00ccee"  xml:space="preserve" font-size="7.81896" transform="translate(434.656, 116.459)" >v_s1</text>
<text fill="#00ccee"  xml:space="preserve" font-size="7.81896" transform="translate(480.201, 178.176) rotate(270)" >out</text>
<text fill="#00ccee"  xml:space="preserve" font-size="7.81896" transform="translate(430.099, 531.101)" >vbn</text>
<text fill="#00ccee"  xml:space="preserve" font-size="7.81896" transform="translate(457.254, 531.101)" >gnd</text>
<text fill="#00ccee"  xml:space="preserve" font-size="7.81896" transform="translate(478.637, 487.834) rotate(270)" >out</text>
<text fill="#00ccee"  xml:space="preserve" font-size="7.81896" transform="translate(337.385, 209.888) rotate(270)" >v_s1</text>
<text fill="#00ccee"  xml:space="preserve" font-size="7.81896" transform="translate(338.949, 364.993) rotate(270)" >out</text>
<text fill="#00ccee"  xml:space="preserve" font-size="7.81896" transform="translate(32.4312, 370.629)" >inp</text>
<text fill="#00ccee"  xml:space="preserve" font-size="7.81896" transform="translate(358.263, 371.054)" >inn</text>
<text fill="#00ccee"  xml:space="preserve" font-size="7.81896" transform="translate(540.523, 494.08)" >out</text>
<text fill="#00ccee"  xml:space="preserve" font-size="7.81896" transform="translate(279.145, 22.0029) rotate(270)" >vdd</text>
<text fill="#00ccee"  xml:space="preserve" font-size="7.81896" transform="translate(278.72, 703.242) rotate(270)" >gnd</text>
<text fill="#00ccee"  xml:space="preserve" font-size="7.81896" transform="translate(14.2052, 530.107)" >vbn</text>
<text fill="#00ccee"  xml:space="preserve" font-size="7.81896" transform="translate(5.09219, 593.898)" >vbp</text>
<text fill="#00ccee"  xml:space="preserve" font-size="7.81896" transform="translate(-3.32281, 616.68)" >vbcp</text>
<text fill="#00ccee"  xml:space="preserve" font-size="7.81896" transform="translate(-3.32281, 639.463)" >vbcn</text>
<text fill="#cccccc"  xml:space="preserve" font-size="4.73876" transform="translate(122.587, 103.695)" >M3</text>
<text fill="#ff0000"  xml:space="preserve" font-size="3.55407" transform="translate(140.761, 124.263)" >D</text>
<text fill="#ff0000"  xml:space="preserve" font-size="3.55407" transform="translate(140.761, 104.238)" >S</text>
<text fill="#ff0000"  xml:space="preserve" font-size="3.55407" transform="translate(139.622, 111.732)" >B</text>
<text fill="#ff0000"  xml:space="preserve" font-size="3.55407" transform="translate(122.128, 111.732)" >G</text>
<text fill="#cccccc"  xml:space="preserve" font-size="4.73876" transform="translate(144.179, 107.942)" >pfet_01v8</text>
<text fill="#aaaa00"  xml:space="preserve" font-size="4.73876" transform="translate(144.748, 123.63)" >1 x 2u / 2u</text>
<text fill="#aaaa00"  xml:space="preserve" font-size="4.73876" transform="translate(144.748, 117.934)" >nf=1</text>
<text fill="#cccccc"  xml:space="preserve" font-size="4.73876" transform="translate(259.282, 103.695)" >M4</text>
<text fill="#ff0000"  xml:space="preserve" font-size="3.55407" transform="translate(277.456, 124.263)" >D</text>
<text fill="#ff0000"  xml:space="preserve" font-size="3.55407" transform="translate(277.456, 104.238)" >S</text>
<text fill="#ff0000"  xml:space="preserve" font-size="3.55407" transform="translate(276.317, 111.732)" >B</text>
<text fill="#ff0000"  xml:space="preserve" font-size="3.55407" transform="translate(258.823, 111.732)" >G</text>
<text fill="#cccccc"  xml:space="preserve" font-size="4.73876" transform="translate(280.874, 107.942)" >pfet_01v8</text>
<text fill="#aaaa00"  xml:space="preserve" font-size="4.73876" transform="translate(281.443, 123.63)" >1 x 2u / 2u</text>
<text fill="#aaaa00"  xml:space="preserve" font-size="4.73876" transform="translate(281.443, 117.934)" >nf=1</text>
<text fill="#cccccc"  xml:space="preserve" font-size="4.73876" transform="translate(459.769, 103.695)" >M5</text>
<text fill="#ff0000"  xml:space="preserve" font-size="3.55407" transform="translate(477.943, 124.263)" >D</text>
<text fill="#ff0000"  xml:space="preserve" font-size="3.55407" transform="translate(477.943, 104.238)" >S</text>
<text fill="#ff0000"  xml:space="preserve" font-size="3.55407" transform="translate(476.803, 111.732)" >B</text>
<text fill="#ff0000"  xml:space="preserve" font-size="3.55407" transform="translate(459.309, 111.732)" >G</text>
<text fill="#cccccc"  xml:space="preserve" font-size="4.73876" transform="translate(481.36, 107.942)" >pfet_01v8</text>
<text fill="#aaaa00"  xml:space="preserve" font-size="4.73876" transform="translate(481.929, 123.63)" >1 x 10u / 2u</text>
<text fill="#aaaa00"  xml:space="preserve" font-size="4.73876" transform="translate(481.929, 117.934)" >nf=1</text>
<text fill="#cccccc"  xml:space="preserve" font-size="4.73876" transform="translate(122.587, 358.859)" >M1</text>
<text fill="#ff0000"  xml:space="preserve" font-size="3.55407" transform="translate(140.761, 379.427)" >S</text>
<text fill="#ff0000"  xml:space="preserve" font-size="3.55407" transform="translate(140.761, 359.403)" >D</text>
<text fill="#ff0000"  xml:space="preserve" font-size="3.55407" transform="translate(139.622, 366.897)" >B</text>
<text fill="#ff0000"  xml:space="preserve" font-size="3.55407" transform="translate(122.128, 366.897)" >G</text>
<text fill="#cccccc"  xml:space="preserve" font-size="4.73876" transform="translate(144.179, 363.107)" >nfet_01v8</text>
<text fill="#aaaa00"  xml:space="preserve" font-size="4.73876" transform="translate(144.748, 378.794)" >1 x 5u / 14u</text>
<text fill="#aaaa00"  xml:space="preserve" font-size="4.73876" transform="translate(144.748, 373.098)" >nf=1</text>
<text fill="#cccccc"  xml:space="preserve" font-size="4.73876" transform="translate(283.152, 358.859)" >M2</text>
<text fill="#ff0000"  xml:space="preserve" font-size="3.55407" transform="translate(271.353, 379.427)" >S</text>
<text fill="#ff0000"  xml:space="preserve" font-size="3.55407" transform="translate(271.353, 359.403)" >D</text>
<text fill="#ff0000"  xml:space="preserve" font-size="3.55407" transform="translate(272.492, 366.897)" >B</text>
<text fill="#ff0000"  xml:space="preserve" font-size="3.55407" transform="translate(289.987, 366.897)" >G</text>
<text fill="#cccccc"  xml:space="preserve" font-size="4.73876" transform="translate(225.861, 363.107)" >nfet_01v8</text>
<text fill="#aaaa00"  xml:space="preserve" font-size="4.73876" transform="translate(209.991, 378.794)" >1 x 5u / 14u</text>
<text fill="#aaaa00"  xml:space="preserve" font-size="4.73876" transform="translate(250.791, 373.098)" >nf=1</text>
<text fill="#cccccc"  xml:space="preserve" font-size="4.73876" transform="translate(185.835, 518.337)" >M11</text>
<text fill="#ff0000"  xml:space="preserve" font-size="3.55407" transform="translate(209.109, 538.905)" >S</text>
<text fill="#ff0000"  xml:space="preserve" font-size="3.55407" transform="translate(209.109, 518.88)" >D</text>
<text fill="#ff0000"  xml:space="preserve" font-size="3.55407" transform="translate(207.97, 526.374)" >B</text>
<text fill="#ff0000"  xml:space="preserve" font-size="3.55407" transform="translate(190.475, 526.374)" >G</text>
<text fill="#cccccc"  xml:space="preserve" font-size="4.73876" transform="translate(212.526, 522.584)" >nfet_01v8</text>
<text fill="#aaaa00"  xml:space="preserve" font-size="4.73876" transform="translate(213.096, 538.272)" >1 x 15u / 18u</text>
<text fill="#aaaa00"  xml:space="preserve" font-size="4.73876" transform="translate(213.096, 532.576)" >nf=1</text>
<text fill="#cccccc"  xml:space="preserve" font-size="4.73876" transform="translate(459.769, 518.337)" >M7</text>
<text fill="#ff0000"  xml:space="preserve" font-size="3.55407" transform="translate(477.943, 538.905)" >S</text>
<text fill="#ff0000"  xml:space="preserve" font-size="3.55407" transform="translate(477.943, 518.88)" >D</text>
<text fill="#ff0000"  xml:space="preserve" font-size="3.55407" transform="translate(476.803, 526.374)" >B</text>
<text fill="#ff0000"  xml:space="preserve" font-size="3.55407" transform="translate(459.309, 526.374)" >G</text>
<text fill="#cccccc"  xml:space="preserve" font-size="4.73876" transform="translate(481.36, 522.584)" >nfet_01v8</text>
<text fill="#aaaa00"  xml:space="preserve" font-size="4.73876" transform="translate(481.929, 538.272)" >1 x 5.5u / 2u</text>
<text fill="#aaaa00"  xml:space="preserve" font-size="4.73876" transform="translate(481.929, 532.576)" >nf=1</text>
<text fill="#cccccc"  xml:space="preserve" font-size="4.73876" transform="translate(318.517, 243.238)" >Rz</text>
<text fill="#cccccc"  xml:space="preserve" font-size="4.73876" transform="translate(342.387, 247.795)" >40k</text>
<text fill="#aaaa00"  xml:space="preserve" font-size="4.73876" transform="translate(325.895, 237.542)" >1</text>
<text fill="#aaaa00"  xml:space="preserve" font-size="4.73876" transform="translate(325.895, 256.908)" >2</text>
<text fill="#cccccc"  xml:space="preserve" font-size="4.73876" transform="translate(313.417, 250.073)" >m=1</text>
<text fill="#aaaa00"  xml:space="preserve" font-size="4.73876" transform="translate(328.174, 301.333)" >1</text>
<text fill="#aaaa00"  xml:space="preserve" font-size="4.73876" transform="translate(328.174, 320.699)" >2</text>
<text fill="#cccccc"  xml:space="preserve" font-size="4.73876" transform="translate(342.387, 304.751)" >Cc</text>
<text fill="#cccccc"  xml:space="preserve" font-size="4.73876" transform="translate(342.387, 310.446)" >3.8p</text>
<text fill="#cccccc"  xml:space="preserve" font-size="4.73876" transform="translate(342.387, 316.142)" >m=1</text>
<path class="l4" d="M133.926 102.81L133.926 123.314"/>
<path class="l4" d="M139.622 99.3923L139.622 105.088"/>
<path class="l4" d="M139.622 121.036L139.622 126.731"/>
<path class="l4" d="M131.648 106.227L131.648 119.897"/>
<path class="l4" d="M133.926 121.036L139.622 121.036"/>
<path class="l4" d="M136.205 105.088L139.622 105.088"/>
<path class="l4" d="M121.396 113.062L127.092 113.062"/>
<path class="l4" d="M136.205 103.949L133.926 105.088L136.205 106.227L136.205 103.949"/>
<circle class="l4" cx="129.37" cy="113.062" r="2.27825" style="fill:none;"/>
<path class="l4" d="M270.622 102.81L270.622 123.314"/>
<path class="l4" d="M276.317 99.3923L276.317 105.088"/>
<path class="l4" d="M276.317 121.036L276.317 126.731"/>
<path class="l4" d="M268.343 106.227L268.343 119.897"/>
<path class="l4" d="M270.622 121.036L276.317 121.036"/>
<path class="l4" d="M272.9 105.088L276.317 105.088"/>
<path class="l4" d="M258.091 113.062L263.787 113.062"/>
<path class="l4" d="M272.9 103.949L270.622 105.088L272.9 106.227L272.9 103.949"/>
<circle class="l4" cx="266.065" cy="113.062" r="2.27825" style="fill:none;"/>
<path class="l4" d="M471.108 102.81L471.108 123.314"/>
<path class="l4" d="M476.803 99.3923L476.803 105.088"/>
<path class="l4" d="M476.803 121.036L476.803 126.731"/>
<path class="l4" d="M468.83 106.227L468.83 119.897"/>
<path class="l4" d="M471.108 121.036L476.803 121.036"/>
<path class="l4" d="M473.386 105.088L476.803 105.088"/>
<path class="l4" d="M458.577 113.062L464.273 113.062"/>
<path class="l4" d="M473.386 103.949L471.108 105.088L473.386 106.227L473.386 103.949"/>
<circle class="l4" cx="466.551" cy="113.062" r="2.27825" style="fill:none;"/>
<path class="l4" d="M133.926 357.974L133.926 378.478"/>
<path class="l4" d="M121.396 368.226L131.648 368.226"/>
<path class="l4" d="M139.622 354.557L139.622 360.252"/>
<path class="l4" d="M139.622 376.2L139.622 381.896"/>
<path class="l4" d="M131.648 361.391L131.648 375.061"/>
<path class="l4" d="M133.926 360.252L139.622 360.252"/>
<path class="l4" d="M133.926 376.2L137.344 376.2"/>
<path class="l4" d="M137.344 375.061L139.622 376.2L137.344 377.339L137.344 375.061"/>
<path class="l4" d="M282.013 357.974L282.013 378.478"/>
<path class="l4" d="M284.291 368.226L294.543 368.226"/>
<path class="l4" d="M276.317 354.557L276.317 360.252"/>
<path class="l4" d="M276.317 376.2L276.317 381.896"/>
<path class="l4" d="M284.291 361.391L284.291 375.061"/>
<path class="l4" d="M276.317 360.252L282.013 360.252"/>
<path class="l4" d="M278.595 376.2L282.013 376.2"/>
<path class="l4" d="M278.595 375.061L276.317 376.2L278.595 377.339L278.595 375.061"/>
<path class="l4" d="M202.274 517.452L202.274 537.956"/>
<path class="l4" d="M189.744 527.704L199.996 527.704"/>
<path class="l4" d="M207.97 514.034L207.97 519.73"/>
<path class="l4" d="M207.97 535.678L207.97 541.373"/>
<path class="l4" d="M199.996 520.869L199.996 534.538"/>
<path class="l4" d="M202.274 519.73L207.97 519.73"/>
<path class="l4" d="M202.274 535.678L205.691 535.678"/>
<path class="l4" d="M205.691 534.538L207.97 535.678L205.691 536.817L205.691 534.538"/>
<path class="l4" d="M471.108 517.452L471.108 537.956"/>
<path class="l4" d="M458.577 527.704L468.83 527.704"/>
<path class="l4" d="M476.803 514.034L476.803 519.73"/>
<path class="l4" d="M476.803 535.678L476.803 541.373"/>
<path class="l4" d="M468.83 520.869L468.83 534.538"/>
<path class="l4" d="M471.108 519.73L476.803 519.73"/>
<path class="l4" d="M471.108 535.678L474.525 535.678"/>
<path class="l4" d="M474.525 534.538L476.803 535.678L474.525 536.817L474.525 534.538"/>
<path class="l4" d="M335.552 254.313L335.552 258.87"/>
<path class="l4" d="M335.552 254.313L338.969 253.174"/>
<path class="l4" d="M332.134 250.896L338.969 253.174"/>
<path class="l4" d="M332.134 250.896L338.969 248.618"/>
<path class="l4" d="M332.134 246.34L338.969 248.618"/>
<path class="l4" d="M332.134 246.34L338.969 244.061"/>
<path class="l4" d="M332.134 241.783L338.969 244.061"/>
<path class="l4" d="M332.134 241.783L338.969 239.505"/>
<path class="l4" d="M332.134 237.227L338.969 239.505"/>
<path class="l4" d="M332.134 237.227L335.552 236.087"/>
<path class="l4" d="M335.552 231.531L335.552 236.087"/>
<path class="l4" d="M336.691 234.948L338.969 234.948"/>
<path class="l4" d="M337.83 233.809L337.83 236.087"/>
<path class="l4" d="M335.552 311.27L335.552 322.661"/>
<path class="l4" d="M335.552 295.322L335.552 306.713"/>
<path class="l4" d="M330.995 306.713L340.108 306.713"/>
<path class="l4" d="M330.995 311.27L340.108 311.27"/>
<path class="l4" d="M336.691 298.739L338.969 298.739"/>
<path class="l4" d="M337.83 297.6L337.83 299.878"/>
<path class="l5" d="M137.344 111.923L139.622 113.062L137.344 114.201L137.344 111.923"/>
<path class="l5" d="M138.483 125.592L140.761 125.592L140.761 127.87L138.483 127.87L138.483 125.592z"/>
<path class="l5" d="M120.257 111.923L122.535 111.923L122.535 114.201L120.257 114.201L120.257 111.923z"/>
<path class="l5" d="M138.483 98.2532L140.761 98.2532L140.761 100.531L138.483 100.531L138.483 98.2532z"/>
<path class="l5" d="M139.587 113.026L139.658 113.026L139.658 113.097L139.587 113.097L139.587 113.026z"/>
<path class="l5" d="M274.039 111.923L276.317 113.062L274.039 114.201L274.039 111.923"/>
<path class="l5" d="M275.178 125.592L277.456 125.592L277.456 127.87L275.178 127.87L275.178 125.592z"/>
<path class="l5" d="M256.952 111.923L259.23 111.923L259.23 114.201L256.952 114.201L256.952 111.923z"/>
<path class="l5" d="M275.178 98.2532L277.456 98.2532L277.456 100.531L275.178 100.531L275.178 98.2532z"/>
<path class="l5" d="M276.282 113.026L276.353 113.026L276.353 113.097L276.282 113.097L276.282 113.026z"/>
<path class="l5" d="M474.525 111.923L476.803 113.062L474.525 114.201L474.525 111.923"/>
<path class="l5" d="M475.664 125.592L477.943 125.592L477.943 127.87L475.664 127.87L475.664 125.592z"/>
<path class="l5" d="M457.438 111.923L459.717 111.923L459.717 114.201L457.438 114.201L457.438 111.923z"/>
<path class="l5" d="M475.664 98.2532L477.943 98.2532L477.943 100.531L475.664 100.531L475.664 98.2532z"/>
<path class="l5" d="M476.768 113.026L476.839 113.026L476.839 113.097L476.768 113.097L476.768 113.026z"/>
<path class="l5" d="M139.622 367.087L137.344 368.226L139.622 369.365L139.622 367.087"/>
<path class="l5" d="M138.483 353.417L140.761 353.417L140.761 355.696L138.483 355.696L138.483 353.417z"/>
<path class="l5" d="M120.257 367.087L122.535 367.087L122.535 369.365L120.257 369.365L120.257 367.087z"/>
<path class="l5" d="M138.483 380.756L140.761 380.756L140.761 383.035L138.483 383.035L138.483 380.756z"/>
<path class="l5" d="M139.587 368.19L139.658 368.19L139.658 368.262L139.587 368.262L139.587 368.19z"/>
<path class="l5" d="M276.317 367.087L278.595 368.226L276.317 369.365L276.317 367.087"/>
<path class="l5" d="M275.178 353.417L277.456 353.417L277.456 355.696L275.178 355.696L275.178 353.417z"/>
<path class="l5" d="M293.404 367.087L295.682 367.087L295.682 369.365L293.404 369.365L293.404 367.087z"/>
<path class="l5" d="M275.178 380.756L277.456 380.756L277.456 383.035L275.178 383.035L275.178 380.756z"/>
<path class="l5" d="M276.282 368.19L276.353 368.19L276.353 368.262L276.282 368.262L276.282 368.19z"/>
<path class="l5" d="M207.97 526.565L205.691 527.704L207.97 528.843L207.97 526.565"/>
<path class="l5" d="M206.831 512.895L209.109 512.895L209.109 515.173L206.831 515.173L206.831 512.895z"/>
<path class="l5" d="M188.605 526.565L190.883 526.565L190.883 528.843L188.605 528.843L188.605 526.565z"/>
<path class="l5" d="M206.831 540.234L209.109 540.234L209.109 542.512L206.831 542.512L206.831 540.234z"/>
<path class="l5" d="M207.934 527.668L208.005 527.668L208.005 527.739L207.934 527.739L207.934 527.668z"/>
<path class="l5" d="M476.803 526.565L474.525 527.704L476.803 528.843L476.803 526.565"/>
<path class="l5" d="M475.664 512.895L477.943 512.895L477.943 515.173L475.664 515.173L475.664 512.895z"/>
<path class="l5" d="M457.438 526.565L459.717 526.565L459.717 528.843L457.438 528.843L457.438 526.565z"/>
<path class="l5" d="M475.664 540.234L477.943 540.234L477.943 542.512L475.664 542.512L475.664 540.234z"/>
<path class="l5" d="M476.768 527.668L476.839 527.668L476.839 527.739L476.768 527.739L476.768 527.668z"/>
<path class="l5" d="M334.413 230.392L336.691 230.392L336.691 232.67L334.413 232.67L334.413 230.392z"/>
<path class="l5" d="M334.413 257.731L336.691 257.731L336.691 260.009L334.413 260.009L334.413 257.731z"/>
<path class="l5" d="M334.413 294.183L336.691 294.183L336.691 296.461L334.413 296.461L334.413 294.183z"/>
<path class="l5" d="M334.413 321.522L336.691 321.522L336.691 323.8L334.413 323.8L334.413 321.522z"/>
<path class="l5" d="M216.513 112.492L217.652 112.492L217.652 113.631L216.513 113.631L216.513 112.492z"/>
<path class="l5" d="M275.748 148.944L276.887 148.944L276.887 150.083L275.748 150.083L275.748 148.944z"/>
<path class="l5" d="M139.053 281.083L140.192 281.083L140.192 282.222L139.053 282.222L139.053 281.083z"/>
<path class="l5" d="M148.166 367.656L149.305 367.656L149.305 368.796L148.166 368.796L148.166 367.656z"/>
<path class="l5" d="M275.748 281.083L276.887 281.083L276.887 282.222L275.748 282.222L275.748 281.083z"/>
<path class="l5" d="M266.635 367.656L267.774 367.656L267.774 368.796L266.635 368.796L266.635 367.656z"/>
<path class="l5" d="M148.166 527.134L149.305 527.134L149.305 528.273L148.166 528.273L148.166 527.134z"/>
<path class="l5" d="M216.513 527.134L217.652 527.134L217.652 528.273L216.513 528.273L216.513 527.134z"/>
<path class="l5" d="M430.669 112.492L431.808 112.492L431.808 113.631L430.669 113.631L430.669 112.492z"/>
<path class="l5" d="M476.234 148.944L477.373 148.944L477.373 150.083L476.234 150.083L476.234 148.944z"/>
<path class="l5" d="M426.112 527.134L427.251 527.134L427.251 528.273L426.112 528.273L426.112 527.134z"/>
<path class="l5" d="M485.347 527.134L486.486 527.134L486.486 528.273L485.347 528.273L485.347 527.134z"/>
<path class="l5" d="M476.234 490.682L477.373 490.682L477.373 491.821L476.234 491.821L476.234 490.682z"/>
<path class="l5" d="M334.982 212.735L336.121 212.735L336.121 213.874L334.982 213.874L334.982 212.735z"/>
<path class="l5" d="M334.982 335.761L336.121 335.761L336.121 336.9L334.982 336.9L334.982 335.761z"/>
<path class="l5" d="M65.2941 368.226L66.7181 368.226"/>
<path class="l5" d="M60.4529 365.948L58.7442 368.226L60.4529 370.504L63.5855 370.504L65.2941 368.226L63.5855 365.948L60.4529 365.948"/>
<path class="l5" d="M66.1485 367.656L67.2876 367.656L67.2876 368.796L66.1485 368.796L66.1485 367.656z"/>
<path class="l5" d="M349.221 368.226L350.645 368.226"/>
<path class="l5" d="M355.486 370.504L357.195 368.226L355.486 365.948L352.354 365.948L350.645 368.226L352.354 370.504L355.486 370.504"/>
<path class="l5" d="M348.652 367.656L349.791 367.656L349.791 368.796L348.652 368.796L348.652 367.656z"/>
<path class="l5" d="M531.481 491.252L532.905 491.252"/>
<path class="l5" d="M537.747 493.53L539.455 491.252L537.747 488.973L534.614 488.973L532.905 491.252L534.614 493.53L537.747 493.53"/>
<path class="l5" d="M530.912 490.682L532.051 490.682L532.051 491.821L530.912 491.821L530.912 490.682z"/>
<path class="l5" d="M276.317 29.6208L276.317 31.0447"/>
<path class="l5" d="M278.595 24.7795L276.317 23.0708L274.039 24.7795L274.039 27.9121L276.317 29.6208L278.595 27.9121L278.595 24.7795"/>
<path class="l5" d="M275.748 30.4752L276.887 30.4752L276.887 31.6143L275.748 31.6143L275.748 30.4752z"/>
<path class="l5" d="M276.317 668.955L276.317 670.379"/>
<path class="l5" d="M274.039 675.22L276.317 676.929L278.595 675.22L278.595 672.088L276.317 670.379L274.039 672.088L274.039 675.22"/>
<path class="l5" d="M275.748 668.386L276.887 668.386L276.887 669.525L275.748 669.525L275.748 668.386z"/>
<path class="l5" d="M47.0681 527.704L48.492 527.704"/>
<path class="l5" d="M42.2268 525.425L40.5182 527.704L42.2268 529.982L45.3594 529.982L47.0681 527.704L45.3594 525.425L42.2268 525.425"/>
<path class="l5" d="M47.9225 527.134L49.0616 527.134L49.0616 528.273L47.9225 528.273L47.9225 527.134z"/>
<path class="l5" d="M37.9551 591.495L39.379 591.495"/>
<path class="l5" d="M33.1138 589.216L31.4051 591.495L33.1138 593.773L36.2464 593.773L37.9551 591.495L36.2464 589.216L33.1138 589.216"/>
<path class="l5" d="M38.8095 590.925L39.9486 590.925L39.9486 592.064L38.8095 592.064L38.8095 590.925z"/>
<path class="l5" d="M37.9551 614.277L39.379 614.277"/>
<path class="l5" d="M33.1138 611.999L31.4051 614.277L33.1138 616.555L36.2464 616.555L37.9551 614.277L36.2464 611.999L33.1138 611.999"/>
<path class="l5" d="M38.8095 613.708L39.9486 613.708L39.9486 614.847L38.8095 614.847L38.8095 613.708z"/>
<path class="l5" d="M37.9551 637.06L39.379 637.06"/>
<path class="l5" d="M33.1138 634.781L31.4051 637.06L33.1138 639.338L36.2464 639.338L37.9551 637.06L36.2464 634.781L33.1138 634.781"/>
<path class="l5" d="M38.8095 636.49L39.9486 636.49L39.9486 637.629L38.8095 637.629L38.8095 636.49z"/>
<path class="l1" d="M48.492 49.2707L531.481 49.2707"/>
<path class="l1" d="M48.492 650.729L531.481 650.729"/>
<path class="l1" d="M139.622 49.2707L139.622 99.3923"/>
<path class="l1" d="M276.317 49.2707L276.317 99.3923"/>
<path class="l1" d="M476.803 49.2707L476.803 99.3923"/>
<path class="l1" d="M139.622 113.062L148.735 113.062"/>
<path class="l1" d="M276.317 113.062L285.43 113.062"/>
<path class="l1" d="M476.803 113.062L485.916 113.062"/>
<path class="l1" d="M139.622 126.731L139.622 149.514"/>
<path class="l1" d="M80.3876 113.062L121.396 113.062"/>
<path class="l1" d="M80.3876 113.062L80.3876 149.514"/>
<path class="l1" d="M80.3876 149.514L139.622 149.514"/>
<path class="l1" d="M217.083 113.062L258.091 113.062"/>
<path class="l1" d="M276.317 126.731L276.317 149.514"/>
<path class="l1" d="M139.622 281.652L139.622 354.557"/>
<path class="l1" d="M66.7181 368.226L121.396 368.226"/>
<path class="l1" d="M139.622 368.226L148.735 368.226"/>
<path class="l1" d="M139.622 381.896L139.622 422.904"/>
<path class="l1" d="M276.317 281.652L276.317 354.557"/>
<path class="l1" d="M294.543 368.226L349.221 368.226"/>
<path class="l1" d="M267.204 368.226L276.317 368.226"/>
<path class="l1" d="M276.317 381.896L276.317 422.904"/>
<path class="l1" d="M139.622 422.904L276.317 422.904"/>
<path class="l1" d="M207.97 422.904L207.97 514.034"/>
<path class="l1" d="M207.97 541.373L207.97 650.729"/>
<path class="l1" d="M148.735 527.704L189.744 527.704"/>
<path class="l1" d="M207.97 527.704L217.083 527.704"/>
<path class="l1" d="M431.238 113.062L458.577 113.062"/>
<path class="l1" d="M476.803 126.731L476.803 149.514"/>
<path class="l1" d="M476.803 541.373L476.803 650.729"/>
<path class="l1" d="M426.682 527.704L458.577 527.704"/>
<path class="l1" d="M476.803 527.704L485.916 527.704"/>
<path class="l1" d="M476.803 491.252L476.803 514.034"/>
<path class="l1" d="M476.803 491.252L531.481 491.252"/>
<path class="l1" d="M335.552 213.305L335.552 231.531"/>
<path class="l1" d="M335.552 258.87L335.552 295.322"/>
<path class="l1" d="M335.552 322.661L335.552 336.33"/>
<path class="l1" d="M276.317 31.0447L276.317 49.2707"/>
<path class="l1" d="M276.317 650.729L276.317 668.955"/>
<path class="l1" d="M48.492 527.704L148.735 527.704"/>
<circle class="l1" cx="139.622" cy="49.2707" r="1.8226"/>
<circle class="l1" cx="207.97" cy="422.904" r="1.8226"/>
<circle class="l1" cx="207.97" cy="650.729" r="1.8226"/>
<circle class="l1" cx="276.317" cy="49.2707" r="1.8226"/>
<circle class="l1" cx="276.317" cy="49.2707" r="1.8226"/>
<circle class="l1" cx="276.317" cy="650.729" r="1.8226"/>
<circle class="l1" cx="476.803" cy="49.2707" r="1.8226"/>
<circle class="l1" cx="476.803" cy="650.729" r="1.8226"/>
</svg>
