<svg xmlns="http://www.w3.org/2000/svg" xmlns:xlink="http://www.w3.org/1999/xlink" width="1000" height="700" version="1.1">
<style type="text/css">
.l0{
 fill: #000000;
  stroke: #000000;
  stroke-linecap:round;
  stroke-linejoin:round;
  stroke-width: 0.426305;
}
.l1{
 fill: #00ccee;
  stroke: #00ccee;
  stroke-linecap:round;
  stroke-linejoin:round;
  stroke-width: 0.426305;
}
.l2{
  fill: none;
  stroke: #3f3f3f;
  stroke-linecap:round;
  stroke-linejoin:round;
  stroke-width: 0.426305;
}
.l3{
 fill: #cccccc; fill-opacity: 0.5;
  stroke: #cccccc;
  stroke-linecap:round;
  stroke-linejoin:round;
  stroke-width: 0.426305;
}
.l4{
 fill: #88dd00;
  stroke: #88dd00;
  stroke-linecap:round;
  stroke-linejoin:round;
  stroke-width: 0.426305;
}
.l5{
 fill: #bb2200;
  stroke: #bb2200;
  stroke-linecap:round;
  stroke-linejoin:round;
  stroke-width: 0.426305;
}
.l6{
 fill: #00ccee; fill-opacity: 0.5;
  stroke: #00ccee;
  stroke-linecap:round;
  stroke-linejoin:round;
  stroke-width: 0.426305;
}
.l7{
 fill: #ff0000; fill-opacity: 0.5;
  stroke: #ff0000;
  stroke-linecap:round;
  stroke-linejoin:round;
  stroke-width: 0.426305;
}
.l8{
 fill: #ffff00; fill-opacity: 0.5;
  stroke: #ffff00;
  stroke-linecap:round;
  stroke-linejoin:round;
  stroke-width: 0.426305;
}
.l9{
 fill: #ffffff; fill-opacity: 0.5;
  stroke: #ffffff;
  stroke-linecap:round;
  stroke-linejoin:round;
  stroke-width: 0.426305;
}
.l10{
 fill: #ff00ff;
  stroke: #ff00ff;
  stroke-linecap:round;
  stroke-linejoin:round;
  stroke-width: 0.426305;
}
.l11{
 fill: #00ff00; fill-opacity: 0.5;
  stroke: #00ff00;
  stroke-linecap:round;
  stroke-linejoin:round;
  stroke-width: 0.426305;
}
.l12{
 fill: #0044dd; fill-opacity: 0.5;
  stroke: #0044dd;
  stroke-linecap:round;
  stroke-linejoin:round;
  stroke-width: 0.426305;
}
.l13{
 fill: #aaaa00; fill-opacity: 0.5;
  stroke: #aaaa00;
  stroke-linecap:round;
  stroke-linejoin:round;
  stroke-width: 0.426305;
}
.l14{
  fill: none;
  stroke: #aaccaa;
  stroke-linecap:round;
  stroke-linejoin:round;
  stroke-width: 0.426305;
}
.l15{
 fill: #ff7777; fill-opacity: 0.5;
  stroke: #ff7777;
  stroke-linecap:round;
  stroke-linejoin:round;
  stroke-width: 0.426305;
}
.l16{
 fill: #bfff81; fill-opacity: 0.5;
  stroke: #bfff81;
  stroke-linecap:round;
  stroke-linejoin:round;
  stroke-width: 0.426305;
}
.l17{
  fill: none;
  stroke: #00ffcc;
  stroke-linecap:round;
  stroke-linejoin:round;
  stroke-width: 0.426305;
}
.l18{
 fill: #ce0097; fill-opacity: 0.5;
  stroke: #ce0097;
  stroke-linecap:round;
  stroke-linejoin:round;
  stroke-width: 0.426305;
}
.l19{
  fill: none;
  stroke: #d2d46b;
  stroke-linecap:round;
  stroke-linejoin:round;
  stroke-width: 0.426305;
}
.l20{
  fill: none;
  stroke: #ef6158;
  stroke-linecap:round;
  stroke-linejoin:round;
  stroke-width: 0.426305;
}
.l21{
  fill: none;
  stroke: #fdb200;
  stroke-linecap:round;
  stroke-linejoin:round;
  stroke-width: 0.426305;
}
text {font-family: Sans-Serif;}
</style>
<rect class="l0" x="0" y="0" width="1000" height="700"/>
<text fill="#cccccc"  xml:space="preserve" font-size="12.3155" transform="translate(-3.15743, 3.9548)" >VibroSense PGA OTA v2 (Two-Stage Miller)</text>
<text fill="#ffff00"  xml:space="preserve" font-size="7.18403" transform="translate(-3.15743, 19.0318)" >SKY130A — 7 Transistors + Rz + Cc</text>
<text fill="#ffff00"  xml:space="preserve" font-size="7.18403" transform="translate(312.624, 311.13)" >STAGE 1</text>
<text fill="#ffff00"  xml:space="preserve" font-size="5.13145" transform="translate(292.888, 325.055)" >Diff Pair + Mirror</text>
<text fill="#ffff00"  xml:space="preserve" font-size="7.18403" transform="translate(628.405, 311.13)" >STAGE 2</text>
<text fill="#ffff00"  xml:space="preserve" font-size="5.13145" transform="translate(604.722, 325.055)" >PMOS CS + NMOS Sink</text>
<text fill="#ffff00"  xml:space="preserve" font-size="4.10516" transform="translate(56.0516, 292.545)" >(unused)</text>
<text fill="#ffff00"  xml:space="preserve" font-size="4.10516" transform="translate(56.0516, 332.018)" >(unused)</text>
<text fill="#ffff00"  xml:space="preserve" font-size="4.10516" transform="translate(56.0516, 371.49)" >(unused)</text>
<text fill="#bb2200"  xml:space="preserve" font-size="5.13145" transform="translate(217.89, 250.057)" >M3 diode</text>
<text fill="#bb2200"  xml:space="preserve" font-size="4.10516" transform="translate(213.942, 260.967)" >gate = drain</text>
<text fill="#ffff00"  xml:space="preserve" font-size="6.15774" transform="translate(521.829, 262.83)" >COMPENSATION</text>
<text fill="#bb2200"  xml:space="preserve" font-size="5.13145" transform="translate(561.302, 289.529)" >Rz = 40k</text>
<text fill="#bb2200"  xml:space="preserve" font-size="5.13145" transform="translate(561.302, 348.738)" >Cc = 3.8pF</text>
<text fill="#88dd00"  xml:space="preserve" font-size="4.10516" transform="translate(553.407, 320.176)" >rz_mid</text>
<text fill="#00ccee"  xml:space="preserve" font-size="6.77351" transform="translate(260.735, 193.079)" >vdd</text>
<text fill="#00ccee"  xml:space="preserve" font-size="6.77351" transform="translate(418.626, 193.079)" >vdd</text>
<text fill="#00ccee"  xml:space="preserve" font-size="6.77351" transform="translate(615.989, 193.079)" >vdd</text>
<text fill="#00ccee"  xml:space="preserve" font-size="6.77351" transform="translate(283.989, 294.38) rotate(270)" >v_mir</text>
<text fill="#00ccee"  xml:space="preserve" font-size="6.77351" transform="translate(402.424, 193.079)" >v_mir</text>
<text fill="#00ccee"  xml:space="preserve" font-size="6.77351" transform="translate(274.74, 337.171) rotate(270)" >v_mir</text>
<text fill="#00ccee"  xml:space="preserve" font-size="6.77351" transform="translate(264.27, 370.706)" >gnd</text>
<text fill="#00ccee"  xml:space="preserve" font-size="6.77351" transform="translate(422.573, 370.706)" >gnd</text>
<text fill="#00ccee"  xml:space="preserve" font-size="6.77351" transform="translate(331.786, 528.597)" >gnd</text>
<text fill="#00ccee"  xml:space="preserve" font-size="6.77351" transform="translate(615.989, 528.597)" >gnd</text>
<text fill="#00ccee"  xml:space="preserve" font-size="6.77351" transform="translate(599.788, 528.597)" >vbn</text>
<text fill="#00ccee"  xml:space="preserve" font-size="6.77351" transform="translate(635.725, 410.179)" >out</text>
<text fill="#00ccee"  xml:space="preserve" font-size="6.77351" transform="translate(279.546, 369.844)" >inp</text>
<text fill="#00ccee"  xml:space="preserve" font-size="6.77351" transform="translate(366.386, 369.844)" >inn</text>
<text fill="#00ccee"  xml:space="preserve" font-size="6.77351" transform="translate(675.711, 409.685)" >out</text>
<text fill="#00ccee"  xml:space="preserve" font-size="6.77351" transform="translate(354.546, 20.4649) rotate(270)" >vdd</text>
<text fill="#00ccee"  xml:space="preserve" font-size="6.77351" transform="translate(354.178, 704.78) rotate(270)" >gnd</text>
<text fill="#00ccee"  xml:space="preserve" font-size="6.77351" transform="translate(3.23736, 527.735)" >vbn</text>
<text fill="#00ccee"  xml:space="preserve" font-size="6.77351" transform="translate(3.23736, 290.899)" >vbp</text>
<text fill="#00ccee"  xml:space="preserve" font-size="6.77351" transform="translate(-5.17764, 330.372)" >vbcp</text>
<text fill="#00ccee"  xml:space="preserve" font-size="6.77351" transform="translate(-5.17764, 369.844)" >vbcn</text>
<text fill="#cccccc"  xml:space="preserve" font-size="4.10516" transform="translate(264.925, 182.021)" >M3</text>
<text fill="#ff0000"  xml:space="preserve" font-size="3.07887" transform="translate(282.033, 199.839)" >D</text>
<text fill="#ff0000"  xml:space="preserve" font-size="3.07887" transform="translate(282.033, 182.492)" >S</text>
<text fill="#ff0000"  xml:space="preserve" font-size="3.07887" transform="translate(281.046, 188.984)" >B</text>
<text fill="#ff0000"  xml:space="preserve" font-size="3.07887" transform="translate(265.379, 188.984)" >G</text>
<text fill="#cccccc"  xml:space="preserve" font-size="4.10516" transform="translate(284.993, 185.701)" >pfet_01v8</text>
<text fill="#aaaa00"  xml:space="preserve" font-size="4.10516" transform="translate(285.486, 199.291)" >1 x 2u / 2u</text>
<text fill="#aaaa00"  xml:space="preserve" font-size="4.10516" transform="translate(285.486, 194.357)" >nf=1</text>
<text fill="#cccccc"  xml:space="preserve" font-size="4.10516" transform="translate(422.816, 182.021)" >M4</text>
<text fill="#ff0000"  xml:space="preserve" font-size="3.07887" transform="translate(439.923, 199.839)" >D</text>
<text fill="#ff0000"  xml:space="preserve" font-size="3.07887" transform="translate(439.923, 182.492)" >S</text>
<text fill="#ff0000"  xml:space="preserve" font-size="3.07887" transform="translate(438.936, 188.984)" >B</text>
<text fill="#ff0000"  xml:space="preserve" font-size="3.07887" transform="translate(423.27, 188.984)" >G</text>
<text fill="#cccccc"  xml:space="preserve" font-size="4.10516" transform="translate(442.884, 185.701)" >pfet_01v8</text>
<text fill="#aaaa00"  xml:space="preserve" font-size="4.10516" transform="translate(443.377, 199.291)" >1 x 2u / 2u</text>
<text fill="#aaaa00"  xml:space="preserve" font-size="4.10516" transform="translate(443.377, 194.357)" >nf=1</text>
<text fill="#cccccc"  xml:space="preserve" font-size="4.10516" transform="translate(620.179, 182.021)" >M5</text>
<text fill="#ff0000"  xml:space="preserve" font-size="3.07887" transform="translate(637.287, 199.839)" >D</text>
<text fill="#ff0000"  xml:space="preserve" font-size="3.07887" transform="translate(637.287, 182.492)" >S</text>
<text fill="#ff0000"  xml:space="preserve" font-size="3.07887" transform="translate(636.3, 188.984)" >B</text>
<text fill="#ff0000"  xml:space="preserve" font-size="3.07887" transform="translate(620.633, 188.984)" >G</text>
<text fill="#cccccc"  xml:space="preserve" font-size="4.10516" transform="translate(640.247, 185.701)" >pfet_01v8</text>
<text fill="#aaaa00"  xml:space="preserve" font-size="4.10516" transform="translate(640.74, 199.291)" >1 x 10u / 2u</text>
<text fill="#aaaa00"  xml:space="preserve" font-size="4.10516" transform="translate(640.74, 194.357)" >nf=1</text>
<text fill="#cccccc"  xml:space="preserve" font-size="4.10516" transform="translate(279.072, 359.648)" >M1</text>
<text fill="#ff0000"  xml:space="preserve" font-size="3.07887" transform="translate(268.339, 377.466)" >S</text>
<text fill="#ff0000"  xml:space="preserve" font-size="3.07887" transform="translate(268.339, 360.119)" >D</text>
<text fill="#ff0000"  xml:space="preserve" font-size="3.07887" transform="translate(269.326, 366.611)" >B</text>
<text fill="#ff0000"  xml:space="preserve" font-size="3.07887" transform="translate(284.993, 366.611)" >G</text>
<text fill="#cccccc"  xml:space="preserve" font-size="4.10516" transform="translate(223.304, 363.328)" >nfet_01v8</text>
<text fill="#aaaa00"  xml:space="preserve" font-size="4.10516" transform="translate(207.511, 376.918)" >1 x 5u / 14u</text>
<text fill="#aaaa00"  xml:space="preserve" font-size="4.10516" transform="translate(248.311, 371.984)" >nf=1</text>
<text fill="#cccccc"  xml:space="preserve" font-size="4.10516" transform="translate(422.816, 359.648)" >M2</text>
<text fill="#ff0000"  xml:space="preserve" font-size="3.07887" transform="translate(439.923, 377.466)" >S</text>
<text fill="#ff0000"  xml:space="preserve" font-size="3.07887" transform="translate(439.923, 360.119)" >D</text>
<text fill="#ff0000"  xml:space="preserve" font-size="3.07887" transform="translate(438.936, 366.611)" >B</text>
<text fill="#ff0000"  xml:space="preserve" font-size="3.07887" transform="translate(423.27, 366.611)" >G</text>
<text fill="#cccccc"  xml:space="preserve" font-size="4.10516" transform="translate(442.884, 363.328)" >nfet_01v8</text>
<text fill="#aaaa00"  xml:space="preserve" font-size="4.10516" transform="translate(443.377, 376.918)" >1 x 5u / 14u</text>
<text fill="#aaaa00"  xml:space="preserve" font-size="4.10516" transform="translate(443.377, 371.984)" >nf=1</text>
<text fill="#cccccc"  xml:space="preserve" font-size="4.10516" transform="translate(330.876, 517.539)" >M11</text>
<text fill="#ff0000"  xml:space="preserve" font-size="3.07887" transform="translate(353.083, 535.357)" >S</text>
<text fill="#ff0000"  xml:space="preserve" font-size="3.07887" transform="translate(353.083, 518.01)" >D</text>
<text fill="#ff0000"  xml:space="preserve" font-size="3.07887" transform="translate(352.097, 524.502)" >B</text>
<text fill="#ff0000"  xml:space="preserve" font-size="3.07887" transform="translate(336.43, 524.502)" >G</text>
<text fill="#cccccc"  xml:space="preserve" font-size="4.10516" transform="translate(356.044, 521.218)" >nfet_01v8</text>
<text fill="#aaaa00"  xml:space="preserve" font-size="4.10516" transform="translate(356.537, 534.808)" >1 x 15u / 18u</text>
<text fill="#aaaa00"  xml:space="preserve" font-size="4.10516" transform="translate(356.537, 529.874)" >nf=1</text>
<text fill="#cccccc"  xml:space="preserve" font-size="4.10516" transform="translate(620.179, 517.539)" >M7</text>
<text fill="#ff0000"  xml:space="preserve" font-size="3.07887" transform="translate(637.287, 535.357)" >S</text>
<text fill="#ff0000"  xml:space="preserve" font-size="3.07887" transform="translate(637.287, 518.01)" >D</text>
<text fill="#ff0000"  xml:space="preserve" font-size="3.07887" transform="translate(636.3, 524.502)" >B</text>
<text fill="#ff0000"  xml:space="preserve" font-size="3.07887" transform="translate(620.633, 524.502)" >G</text>
<text fill="#cccccc"  xml:space="preserve" font-size="4.10516" transform="translate(640.247, 521.218)" >nfet_01v8</text>
<text fill="#aaaa00"  xml:space="preserve" font-size="4.10516" transform="translate(640.74, 534.808)" >1 x 5.5u / 2u</text>
<text fill="#aaaa00"  xml:space="preserve" font-size="4.10516" transform="translate(640.74, 529.874)" >nf=1</text>
<text fill="#cccccc"  xml:space="preserve" font-size="4.10516" transform="translate(533.339, 287.117)" >Rz</text>
<text fill="#cccccc"  xml:space="preserve" font-size="4.10516" transform="translate(555.381, 291.065)" >40k</text>
<text fill="#aaaa00"  xml:space="preserve" font-size="4.10516" transform="translate(540.413, 282.183)" >1</text>
<text fill="#aaaa00"  xml:space="preserve" font-size="4.10516" transform="translate(540.413, 298.959)" >2</text>
<text fill="#cccccc"  xml:space="preserve" font-size="4.10516" transform="translate(528.239, 293.038)" >m=1</text>
<text fill="#aaaa00"  xml:space="preserve" font-size="4.10516" transform="translate(542.386, 341.392)" >1</text>
<text fill="#aaaa00"  xml:space="preserve" font-size="4.10516" transform="translate(542.386, 358.168)" >2</text>
<text fill="#cccccc"  xml:space="preserve" font-size="4.10516" transform="translate(555.381, 344.353)" >Cc</text>
<text fill="#cccccc"  xml:space="preserve" font-size="4.10516" transform="translate(555.381, 349.287)" >3.8p</text>
<text fill="#cccccc"  xml:space="preserve" font-size="4.10516" transform="translate(555.381, 354.221)" >m=1</text>
<path class="l4" d="M276.112 181.254L276.112 199.017"/>
<path class="l4" d="M281.046 178.294L281.046 183.228"/>
<path class="l4" d="M281.046 197.043L281.046 201.977"/>
<path class="l4" d="M274.138 184.215L274.138 196.057"/>
<path class="l4" d="M276.112 197.043L281.046 197.043"/>
<path class="l4" d="M278.085 183.228L281.046 183.228"/>
<path class="l4" d="M265.257 190.136L270.191 190.136"/>
<path class="l4" d="M278.085 182.241L276.112 183.228L278.085 184.215L278.085 182.241"/>
<circle class="l4" cx="272.164" cy="190.136" r="1.97363" style="fill:none;"/>
<path class="l4" d="M434.002 181.254L434.002 199.017"/>
<path class="l4" d="M438.936 178.294L438.936 183.228"/>
<path class="l4" d="M438.936 197.043L438.936 201.977"/>
<path class="l4" d="M432.029 184.215L432.029 196.057"/>
<path class="l4" d="M434.002 197.043L438.936 197.043"/>
<path class="l4" d="M435.976 183.228L438.936 183.228"/>
<path class="l4" d="M423.147 190.136L428.081 190.136"/>
<path class="l4" d="M435.976 182.241L434.002 183.228L435.976 184.215L435.976 182.241"/>
<circle class="l4" cx="430.055" cy="190.136" r="1.97363" style="fill:none;"/>
<path class="l4" d="M631.366 181.254L631.366 199.017"/>
<path class="l4" d="M636.3 178.294L636.3 183.228"/>
<path class="l4" d="M636.3 197.043L636.3 201.977"/>
<path class="l4" d="M629.392 184.215L629.392 196.057"/>
<path class="l4" d="M631.366 197.043L636.3 197.043"/>
<path class="l4" d="M633.339 183.228L636.3 183.228"/>
<path class="l4" d="M620.511 190.136L625.445 190.136"/>
<path class="l4" d="M633.339 182.241L631.366 183.228L633.339 184.215L633.339 182.241"/>
<circle class="l4" cx="627.418" cy="190.136" r="1.97363" style="fill:none;"/>
<path class="l4" d="M278.085 358.881L278.085 376.644"/>
<path class="l4" d="M280.059 367.763L288.94 367.763"/>
<path class="l4" d="M273.151 355.921L273.151 360.855"/>
<path class="l4" d="M273.151 374.67L273.151 379.605"/>
<path class="l4" d="M280.059 361.842L280.059 373.684"/>
<path class="l4" d="M273.151 360.855L278.085 360.855"/>
<path class="l4" d="M275.125 374.67L278.085 374.67"/>
<path class="l4" d="M275.125 373.684L273.151 374.67L275.125 375.657L275.125 373.684"/>
<path class="l4" d="M434.002 358.881L434.002 376.644"/>
<path class="l4" d="M423.147 367.763L432.029 367.763"/>
<path class="l4" d="M438.936 355.921L438.936 360.855"/>
<path class="l4" d="M438.936 374.67L438.936 379.605"/>
<path class="l4" d="M432.029 361.842L432.029 373.684"/>
<path class="l4" d="M434.002 360.855L438.936 360.855"/>
<path class="l4" d="M434.002 374.67L436.963 374.67"/>
<path class="l4" d="M436.963 373.684L438.936 374.67L436.963 375.657L436.963 373.684"/>
<path class="l4" d="M347.163 516.772L347.163 534.535"/>
<path class="l4" d="M336.308 525.653L345.189 525.653"/>
<path class="l4" d="M352.097 513.812L352.097 518.746"/>
<path class="l4" d="M352.097 532.561L352.097 537.495"/>
<path class="l4" d="M345.189 519.732L345.189 531.574"/>
<path class="l4" d="M347.163 518.746L352.097 518.746"/>
<path class="l4" d="M347.163 532.561L350.123 532.561"/>
<path class="l4" d="M350.123 531.574L352.097 532.561L350.123 533.548L350.123 531.574"/>
<path class="l4" d="M631.366 516.772L631.366 534.535"/>
<path class="l4" d="M620.511 525.653L629.392 525.653"/>
<path class="l4" d="M636.3 513.812L636.3 518.746"/>
<path class="l4" d="M636.3 532.561L636.3 537.495"/>
<path class="l4" d="M629.392 519.732L629.392 531.574"/>
<path class="l4" d="M631.366 518.746L636.3 518.746"/>
<path class="l4" d="M631.366 532.561L634.326 532.561"/>
<path class="l4" d="M634.326 531.574L636.3 532.561L634.326 533.548L634.326 531.574"/>
<path class="l4" d="M549.46 296.712L549.46 300.659"/>
<path class="l4" d="M549.46 296.712L552.42 295.725"/>
<path class="l4" d="M546.499 293.751L552.42 295.725"/>
<path class="l4" d="M546.499 293.751L552.42 291.778"/>
<path class="l4" d="M546.499 289.804L552.42 291.778"/>
<path class="l4" d="M546.499 289.804L552.42 287.831"/>
<path class="l4" d="M546.499 285.857L552.42 287.831"/>
<path class="l4" d="M546.499 285.857L552.42 283.883"/>
<path class="l4" d="M546.499 281.91L552.42 283.883"/>
<path class="l4" d="M546.499 281.91L549.46 280.923"/>
<path class="l4" d="M549.46 276.976L549.46 280.923"/>
<path class="l4" d="M550.447 279.936L552.42 279.936"/>
<path class="l4" d="M551.434 278.949L551.434 280.923"/>
<path class="l4" d="M549.46 350L549.46 359.868"/>
<path class="l4" d="M549.46 336.185L549.46 346.053"/>
<path class="l4" d="M545.513 346.053L553.407 346.053"/>
<path class="l4" d="M545.513 350L553.407 350"/>
<path class="l4" d="M550.447 339.145L552.42 339.145"/>
<path class="l4" d="M551.434 338.158L551.434 340.132"/>
<path class="l5" d="M279.072 189.149L281.046 190.136L279.072 191.123L279.072 189.149"/>
<path class="l5" d="M280.059 200.991L282.033 200.991L282.033 202.964L280.059 202.964L280.059 200.991z"/>
<path class="l5" d="M264.27 189.149L266.244 189.149L266.244 191.123L264.27 191.123L264.27 189.149z"/>
<path class="l5" d="M280.059 177.307L282.033 177.307L282.033 179.281L280.059 179.281L280.059 177.307z"/>
<path class="l5" d="M281.015 190.105L281.077 190.105L281.077 190.167L281.015 190.167L281.015 190.105z"/>
<path class="l5" d="M436.963 189.149L438.936 190.136L436.963 191.123L436.963 189.149"/>
<path class="l5" d="M437.95 200.991L439.923 200.991L439.923 202.964L437.95 202.964L437.95 200.991z"/>
<path class="l5" d="M422.161 189.149L424.134 189.149L424.134 191.123L422.161 191.123L422.161 189.149z"/>
<path class="l5" d="M437.95 177.307L439.923 177.307L439.923 179.281L437.95 179.281L437.95 177.307z"/>
<path class="l5" d="M438.906 190.105L438.967 190.105L438.967 190.167L438.906 190.167L438.906 190.105z"/>
<path class="l5" d="M634.326 189.149L636.3 190.136L634.326 191.123L634.326 189.149"/>
<path class="l5" d="M635.313 200.991L637.287 200.991L637.287 202.964L635.313 202.964L635.313 200.991z"/>
<path class="l5" d="M619.524 189.149L621.498 189.149L621.498 191.123L619.524 191.123L619.524 189.149z"/>
<path class="l5" d="M635.313 177.307L637.287 177.307L637.287 179.281L635.313 179.281L635.313 177.307z"/>
<path class="l5" d="M636.269 190.105L636.331 190.105L636.331 190.167L636.269 190.167L636.269 190.105z"/>
<path class="l5" d="M273.151 366.776L275.125 367.763L273.151 368.75L273.151 366.776"/>
<path class="l5" d="M272.164 354.934L274.138 354.934L274.138 356.908L272.164 356.908L272.164 354.934z"/>
<path class="l5" d="M287.954 366.776L289.927 366.776L289.927 368.75L287.954 368.75L287.954 366.776z"/>
<path class="l5" d="M272.164 378.618L274.138 378.618L274.138 380.591L272.164 380.591L272.164 378.618z"/>
<path class="l5" d="M273.12 367.732L273.182 367.732L273.182 367.794L273.12 367.794L273.12 367.732z"/>
<path class="l5" d="M438.936 366.776L436.963 367.763L438.936 368.75L438.936 366.776"/>
<path class="l5" d="M437.95 354.934L439.923 354.934L439.923 356.908L437.95 356.908L437.95 354.934z"/>
<path class="l5" d="M422.161 366.776L424.134 366.776L424.134 368.75L422.161 368.75L422.161 366.776z"/>
<path class="l5" d="M437.95 378.618L439.923 378.618L439.923 380.591L437.95 380.591L437.95 378.618z"/>
<path class="l5" d="M438.906 367.732L438.967 367.732L438.967 367.794L438.906 367.794L438.906 367.732z"/>
<path class="l5" d="M352.097 524.667L350.123 525.653L352.097 526.64L352.097 524.667"/>
<path class="l5" d="M351.11 512.825L353.083 512.825L353.083 514.798L351.11 514.798L351.11 512.825z"/>
<path class="l5" d="M335.321 524.667L337.294 524.667L337.294 526.64L335.321 526.64L335.321 524.667z"/>
<path class="l5" d="M351.11 536.508L353.083 536.508L353.083 538.482L351.11 538.482L351.11 536.508z"/>
<path class="l5" d="M352.066 525.623L352.127 525.623L352.127 525.684L352.066 525.684L352.066 525.623z"/>
<path class="l5" d="M636.3 524.667L634.326 525.653L636.3 526.64L636.3 524.667"/>
<path class="l5" d="M635.313 512.825L637.287 512.825L637.287 514.798L635.313 514.798L635.313 512.825z"/>
<path class="l5" d="M619.524 524.667L621.498 524.667L621.498 526.64L619.524 526.64L619.524 524.667z"/>
<path class="l5" d="M635.313 536.508L637.287 536.508L637.287 538.482L635.313 538.482L635.313 536.508z"/>
<path class="l5" d="M636.269 525.623L636.331 525.623L636.331 525.684L636.269 525.684L636.269 525.623z"/>
<path class="l5" d="M548.473 275.989L550.447 275.989L550.447 277.962L548.473 277.962L548.473 275.989z"/>
<path class="l5" d="M548.473 299.672L550.447 299.672L550.447 301.646L548.473 301.646L548.473 299.672z"/>
<path class="l5" d="M548.473 335.198L550.447 335.198L550.447 337.171L548.473 337.171L548.473 335.198z"/>
<path class="l5" d="M548.473 358.881L550.447 358.881L550.447 360.855L548.473 360.855L548.473 358.881z"/>
<path class="l5" d="M288.447 189.642L289.434 189.642L289.434 190.629L288.447 190.629L288.447 189.642z"/>
<path class="l5" d="M446.338 189.642L447.324 189.642L447.324 190.629L446.338 190.629L446.338 189.642z"/>
<path class="l5" d="M643.701 189.642L644.688 189.642L644.688 190.629L643.701 190.629L643.701 189.642z"/>
<path class="l5" d="M280.552 248.851L281.539 248.851L281.539 249.838L280.552 249.838L280.552 248.851z"/>
<path class="l5" d="M398.97 189.642L399.957 189.642L399.957 190.629L398.97 190.629L398.97 189.642z"/>
<path class="l5" d="M272.658 339.638L273.645 339.638L273.645 340.625L272.658 340.625L272.658 339.638z"/>
<path class="l5" d="M260.816 367.269L261.803 367.269L261.803 368.256L260.816 368.256L260.816 367.269z"/>
<path class="l5" d="M450.285 367.269L451.272 367.269L451.272 368.256L450.285 368.256L450.285 367.269z"/>
<path class="l5" d="M359.498 525.16L360.485 525.16L360.485 526.147L359.498 526.147L359.498 525.16z"/>
<path class="l5" d="M643.701 525.16L644.688 525.16L644.688 526.147L643.701 526.147L643.701 525.16z"/>
<path class="l5" d="M596.334 525.16L597.321 525.16L597.321 526.147L596.334 526.147L596.334 525.16z"/>
<path class="l5" d="M663.437 406.742L664.424 406.742L664.424 407.729L663.437 407.729L663.437 406.742z"/>
<path class="l5" d="M311.39 367.763L312.624 367.763"/>
<path class="l5" d="M307.196 365.789L305.716 367.763L307.196 369.736L309.91 369.736L311.39 367.763L309.91 365.789L307.196 365.789"/>
<path class="l5" d="M312.131 367.269L313.117 367.269L313.117 368.256L312.131 368.256L312.131 367.269z"/>
<path class="l5" d="M398.23 367.763L399.464 367.763"/>
<path class="l5" d="M394.036 365.789L392.556 367.763L394.036 369.736L396.75 369.736L398.23 367.763L396.75 365.789L394.036 365.789"/>
<path class="l5" d="M398.97 367.269L399.957 367.269L399.957 368.256L398.97 368.256L398.97 367.269z"/>
<path class="l5" d="M667.878 407.235L669.111 407.235"/>
<path class="l5" d="M673.305 409.209L674.786 407.235L673.305 405.262L670.592 405.262L669.111 407.235L670.592 409.209L673.305 409.209"/>
<path class="l5" d="M667.385 406.742L668.371 406.742L668.371 407.729L667.385 407.729L667.385 406.742z"/>
<path class="l5" d="M352.097 27.0642L352.097 28.2978"/>
<path class="l5" d="M354.07 22.8703L352.097 21.39L350.123 22.8703L350.123 25.584L352.097 27.0642L354.07 25.584L354.07 22.8703"/>
<path class="l5" d="M351.603 27.8043L352.59 27.8043L352.59 28.7912L351.603 28.7912L351.603 27.8043z"/>
<path class="l5" d="M352.097 671.702L352.097 672.936"/>
<path class="l5" d="M350.123 677.13L352.097 678.61L354.07 677.13L354.07 674.416L352.097 672.936L350.123 674.416L350.123 677.13"/>
<path class="l5" d="M351.603 671.209L352.59 671.209L352.59 672.196L351.603 672.196L351.603 671.209z"/>
<path class="l5" d="M35.0817 525.653L36.3152 525.653"/>
<path class="l5" d="M30.8877 523.68L29.4075 525.653L30.8877 527.627L33.6015 527.627L35.0817 525.653L33.6015 523.68L30.8877 523.68"/>
<path class="l5" d="M35.8218 525.16L36.8086 525.16L36.8086 526.147L35.8218 526.147L35.8218 525.16z"/>
<path class="l5" d="M35.0817 288.817L36.3152 288.817"/>
<path class="l5" d="M30.8877 286.844L29.4075 288.817L30.8877 290.791L33.6015 290.791L35.0817 288.817L33.6015 286.844L30.8877 286.844"/>
<path class="l5" d="M35.8218 288.324L36.8086 288.324L36.8086 289.311L35.8218 289.311L35.8218 288.324z"/>
<path class="l5" d="M35.0817 328.29L36.3152 328.29"/>
<path class="l5" d="M30.8877 326.316L29.4075 328.29L30.8877 330.264L33.6015 330.264L35.0817 328.29L33.6015 326.316L30.8877 326.316"/>
<path class="l5" d="M35.8218 327.797L36.8086 327.797L36.8086 328.783L35.8218 328.783L35.8218 327.797z"/>
<path class="l5" d="M35.0817 367.763L36.3152 367.763"/>
<path class="l5" d="M30.8877 365.789L29.4075 367.763L30.8877 369.736L33.6015 369.736L35.0817 367.763L33.6015 365.789L30.8877 365.789"/>
<path class="l5" d="M35.8218 367.269L36.8086 367.269L36.8086 368.256L35.8218 368.256L35.8218 367.269z"/>
<path class="l1" d="M16.5789 51.9814L667.878 51.9814"/>
<path class="l1" d="M16.5789 644.071L667.878 644.071"/>
<path class="l1" d="M352.097 28.2978L352.097 51.9814"/>
<path class="l1" d="M352.097 644.071L352.097 671.702"/>
<path class="l1" d="M281.046 51.9814L281.046 178.294"/>
<path class="l1" d="M438.936 51.9814L438.936 178.294"/>
<path class="l1" d="M636.3 51.9814L636.3 178.294"/>
<path class="l1" d="M281.046 190.136L288.94 190.136"/>
<path class="l1" d="M438.936 190.136L446.831 190.136"/>
<path class="l1" d="M636.3 190.136L644.194 190.136"/>
<path class="l1" d="M281.046 201.977L281.046 249.345"/>
<path class="l1" d="M213.942 190.136L265.257 190.136"/>
<path class="l1" d="M213.942 190.136L213.942 249.345"/>
<path class="l1" d="M213.942 249.345L281.046 249.345"/>
<path class="l1" d="M399.464 190.136L423.147 190.136"/>
<path class="l1" d="M438.936 201.977L438.936 355.921"/>
<path class="l1" d="M438.936 276.976L620.511 276.976"/>
<path class="l1" d="M620.511 190.136L620.511 276.976"/>
<path class="l1" d="M273.151 340.132L273.151 355.921"/>
<path class="l1" d="M273.151 379.605L273.151 407.235"/>
<path class="l1" d="M288.94 367.763L312.624 367.763"/>
<path class="l1" d="M261.309 367.763L273.151 367.763"/>
<path class="l1" d="M438.936 379.605L438.936 407.235"/>
<path class="l1" d="M399.464 367.763L423.147 367.763"/>
<path class="l1" d="M438.936 367.763L450.778 367.763"/>
<path class="l1" d="M273.151 407.235L438.936 407.235"/>
<path class="l1" d="M352.097 407.235L352.097 513.812"/>
<path class="l1" d="M352.097 537.495L352.097 644.071"/>
<path class="l1" d="M36.3152 525.653L336.308 525.653"/>
<path class="l1" d="M352.097 525.653L359.991 525.653"/>
<path class="l1" d="M636.3 201.977L636.3 513.812"/>
<path class="l1" d="M636.3 537.495L636.3 644.071"/>
<path class="l1" d="M596.827 525.653L620.511 525.653"/>
<path class="l1" d="M636.3 525.653L644.194 525.653"/>
<path class="l1" d="M549.46 300.659L549.46 336.185"/>
<path class="l1" d="M549.46 359.868L636.3 359.868"/>
<path class="l1" d="M636.3 407.235L663.931 407.235"/>
<circle class="l1" cx="281.046" cy="51.9814" r="1.57891"/>
<circle class="l1" cx="438.936" cy="51.9814" r="1.57891"/>
<circle class="l1" cx="352.097" cy="51.9814" r="1.57891"/>
<circle class="l1" cx="438.936" cy="276.976" r="1.57891"/>
<circle class="l1" cx="352.097" cy="644.071" r="1.57891"/>
<circle class="l1" cx="352.097" cy="407.235" r="1.57891"/>
<circle class="l1" cx="352.097" cy="644.071" r="1.57891"/>
<circle class="l1" cx="636.3" cy="51.9814" r="1.57891"/>
<circle class="l1" cx="636.3" cy="359.868" r="1.57891"/>
<circle class="l1" cx="636.3" cy="407.235" r="1.57891"/>
<circle class="l1" cx="636.3" cy="644.071" r="1.57891"/>
</svg>
