<svg xmlns="http://www.w3.org/2000/svg" xmlns:xlink="http://www.w3.org/1999/xlink" width="900" height="503" version="1.1">
<style type="text/css">
.l0{
 fill: #000000;
  stroke: #000000;
  stroke-linecap:round;
  stroke-linejoin:round;
  stroke-width: 0.287006;
}
.l1{
 fill: #00ccee;
  stroke: #00ccee;
  stroke-linecap:round;
  stroke-linejoin:round;
  stroke-width: 0.287006;
}
.l2{
  fill: none;
  stroke: #3f3f3f;
  stroke-linecap:round;
  stroke-linejoin:round;
  stroke-width: 0.287006;
}
.l3{
 fill: #cccccc; fill-opacity: 0.5;
  stroke: #cccccc;
  stroke-linecap:round;
  stroke-linejoin:round;
  stroke-width: 0.287006;
}
.l4{
 fill: #88dd00;
  stroke: #88dd00;
  stroke-linecap:round;
  stroke-linejoin:round;
  stroke-width: 0.287006;
}
.l5{
 fill: #bb2200;
  stroke: #bb2200;
  stroke-linecap:round;
  stroke-linejoin:round;
  stroke-width: 0.287006;
}
.l6{
 fill: #00ccee; fill-opacity: 0.5;
  stroke: #00ccee;
  stroke-linecap:round;
  stroke-linejoin:round;
  stroke-width: 0.287006;
}
.l7{
 fill: #ff0000; fill-opacity: 0.5;
  stroke: #ff0000;
  stroke-linecap:round;
  stroke-linejoin:round;
  stroke-width: 0.287006;
}
.l8{
 fill: #ffff00; fill-opacity: 0.5;
  stroke: #ffff00;
  stroke-linecap:round;
  stroke-linejoin:round;
  stroke-width: 0.287006;
}
.l9{
 fill: #ffffff; fill-opacity: 0.5;
  stroke: #ffffff;
  stroke-linecap:round;
  stroke-linejoin:round;
  stroke-width: 0.287006;
}
.l10{
 fill: #ff00ff;
  stroke: #ff00ff;
  stroke-linecap:round;
  stroke-linejoin:round;
  stroke-width: 0.287006;
}
.l11{
 fill: #00ff00; fill-opacity: 0.5;
  stroke: #00ff00;
  stroke-linecap:round;
  stroke-linejoin:round;
  stroke-width: 0.287006;
}
.l12{
 fill: #0044dd; fill-opacity: 0.5;
  stroke: #0044dd;
  stroke-linecap:round;
  stroke-linejoin:round;
  stroke-width: 0.287006;
}
.l13{
 fill: #aaaa00; fill-opacity: 0.5;
  stroke: #aaaa00;
  stroke-linecap:round;
  stroke-linejoin:round;
  stroke-width: 0.287006;
}
.l14{
  fill: none;
  stroke: #aaccaa;
  stroke-linecap:round;
  stroke-linejoin:round;
  stroke-width: 0.287006;
}
.l15{
 fill: #ff7777; fill-opacity: 0.5;
  stroke: #ff7777;
  stroke-linecap:round;
  stroke-linejoin:round;
  stroke-width: 0.287006;
}
.l16{
 fill: #bfff81; fill-opacity: 0.5;
  stroke: #bfff81;
  stroke-linecap:round;
  stroke-linejoin:round;
  stroke-width: 0.287006;
}
.l17{
  fill: none;
  stroke: #00ffcc;
  stroke-linecap:round;
  stroke-linejoin:round;
  stroke-width: 0.287006;
}
.l18{
 fill: #ce0097; fill-opacity: 0.5;
  stroke: #ce0097;
  stroke-linecap:round;
  stroke-linejoin:round;
  stroke-width: 0.287006;
}
.l19{
  fill: none;
  stroke: #d2d46b;
  stroke-linecap:round;
  stroke-linejoin:round;
  stroke-width: 0.287006;
}
.l20{
  fill: none;
  stroke: #ef6158;
  stroke-linecap:round;
  stroke-linejoin:round;
  stroke-width: 0.287006;
}
.l21{
  fill: none;
  stroke: #fdb200;
  stroke-linecap:round;
  stroke-linejoin:round;
  stroke-width: 0.287006;
}
text {font-family: Sans-Serif;}
</style>
<rect class="l0" x="0" y="0" width="900" height="503"/>
<text fill="#88dd00"  xml:space="preserve" font-size="13.8188" transform="translate(56.0194, 20.0925)" >RESISTOR LADDER</text>
<text fill="#ffff00"  xml:space="preserve" font-size="6.21846" transform="translate(56.0194, 31.7936)" >Block 08 — Mode Control — Sub-block 1 of 3</text>
<text fill="#cccccc"  xml:space="preserve" font-size="4.14564" transform="translate(56.0194, 39.2126)" >PVDD 5.0V LDO Regulator  |  SkyWater SKY130A  |  Resistor Divider</text>
<text fill="#aaaa00"  xml:space="preserve" font-size="3.86926" transform="translate(56.0194, 46.934)" >5 resistors: res_xhigh_po  |  Total ~400kOhm  |  Iq ~17.5uA @ 7V</text>
<text fill="#88dd00"  xml:space="preserve" font-size="4.83658" transform="translate(162.318, 11.9366)" >Resistance Values (res_xhigh_po, ~2.08 kOhm/sq):</text>
<text fill="#ff0000"  xml:space="preserve" font-size="4.14564" transform="translate(162.318, 21.9391)" >XRtop:  w=1 l=37  ~77 kOhm</text>
<text fill="#ff0000"  xml:space="preserve" font-size="4.14564" transform="translate(162.318, 29.9115)" >XR12:   w=1 l=62  ~129 kOhm</text>
<text fill="#ff0000"  xml:space="preserve" font-size="4.14564" transform="translate(162.318, 37.8839)" >XR23:   w=1 l=6   ~12.5 kOhm</text>
<text fill="#ff0000"  xml:space="preserve" font-size="4.14564" transform="translate(162.318, 45.8562)" >XR34:   w=1 l=17  ~35 kOhm</text>
<text fill="#ff0000"  xml:space="preserve" font-size="4.14564" transform="translate(162.318, 53.8286)" >XRbot:  w=1 l=69  ~143 kOhm</text>
<text fill="#ff0000"  xml:space="preserve" font-size="4.14564" transform="translate(162.318, 64.4585)" >Total: ~397 kOhm  |  Iq = BVDD/Rtotal</text>
<text fill="#88dd00"  xml:space="preserve" font-size="4.83658" transform="translate(162.318, 75.7157)" >Thresholds (BVDD):</text>
<text fill="#ff0000"  xml:space="preserve" font-size="4.14564" transform="translate(162.318, 85.7182)" >tap1: TH1 = 2.51V  (comp1 trips -&gt; pass_off)</text>
<text fill="#ff0000"  xml:space="preserve" font-size="4.14564" transform="translate(162.318, 93.6906)" >tap2: TH2 = 4.16V  (comp2 trips -&gt; ea_en, bypass_en)</text>
<text fill="#ff0000"  xml:space="preserve" font-size="4.14564" transform="translate(162.318, 101.663)" >tap3: TH3 = 4.47V  (comp3 trips -&gt; ref_sel, ea_en, bypass_en)</text>
<text fill="#ff0000"  xml:space="preserve" font-size="4.14564" transform="translate(162.318, 109.635)" >tap4: TH4 = 5.60V  (comp4 trips -&gt; uvov_en, ilim_en, bypass_en, ea_en)</text>
<text fill="#ffff00"  xml:space="preserve" font-size="4.83658" transform="translate(111.826, 119.564)" >BVDD (battery)</text>
<text fill="#aaaa00"  xml:space="preserve" font-size="4.14564" transform="translate(87.9089, 136.21)" >XRtop</text>
<text fill="#bb2200"  xml:space="preserve" font-size="3.04014" transform="translate(87.9089, 141.85)" >w=1 l=37  (~77 kOhm)</text>
<text fill="#ffff00"  xml:space="preserve" font-size="4.83658" transform="translate(111.826, 170.056)" >tap1  (TH1=2.51V)</text>
<text fill="#aaaa00"  xml:space="preserve" font-size="4.14564" transform="translate(87.9089, 189.359)" >XR12</text>
<text fill="#bb2200"  xml:space="preserve" font-size="3.04014" transform="translate(87.9089, 194.999)" >w=1 l=62  (~129 kOhm)</text>
<text fill="#ffff00"  xml:space="preserve" font-size="4.83658" transform="translate(111.826, 223.205)" >tap2  (TH2=4.16V)</text>
<text fill="#aaaa00"  xml:space="preserve" font-size="4.14564" transform="translate(87.9089, 242.508)" >XR23</text>
<text fill="#bb2200"  xml:space="preserve" font-size="3.04014" transform="translate(87.9089, 248.148)" >w=1 l=6  (~12.5 kOhm)</text>
<text fill="#ffff00"  xml:space="preserve" font-size="4.83658" transform="translate(111.826, 276.354)" >tap3  (TH3=4.47V)</text>
<text fill="#aaaa00"  xml:space="preserve" font-size="4.14564" transform="translate(87.9089, 295.658)" >XR34</text>
<text fill="#bb2200"  xml:space="preserve" font-size="3.04014" transform="translate(87.9089, 301.298)" >w=1 l=17  (~35 kOhm)</text>
<text fill="#ffff00"  xml:space="preserve" font-size="4.83658" transform="translate(111.826, 329.503)" >tap4  (TH4=5.60V)</text>
<text fill="#aaaa00"  xml:space="preserve" font-size="4.14564" transform="translate(87.9089, 348.807)" >XRbot</text>
<text fill="#bb2200"  xml:space="preserve" font-size="3.04014" transform="translate(87.9089, 354.447)" >w=1 l=69  (~143 kOhm)</text>
<text fill="#00ccee"  xml:space="preserve" font-size="4.5602" transform="translate(39.0366, 75.7969)" >bvdd</text>
<text fill="#00ccee"  xml:space="preserve" font-size="4.5602" transform="translate(93.2239, 75.7969)" >tap1</text>
<text fill="#00ccee"  xml:space="preserve" font-size="4.5602" transform="translate(93.2239, 83.7693)" >tap2</text>
<text fill="#00ccee"  xml:space="preserve" font-size="4.5602" transform="translate(93.2239, 91.7417)" >tap3</text>
<text fill="#00ccee"  xml:space="preserve" font-size="4.5602" transform="translate(93.2239, 99.7141)" >tap4</text>
<text fill="#00ccee"  xml:space="preserve" font-size="4.5602" transform="translate(93.1823, 107.52)" >gnd</text>
<text fill="#00ccee"  xml:space="preserve" font-size="4.5602" transform="translate(111.162, 114.913)" >bvdd</text>
<text fill="#00ccee"  xml:space="preserve" font-size="4.5602" transform="translate(121.792, 141.487)" >gnd</text>
<text fill="#00ccee"  xml:space="preserve" font-size="4.5602" transform="translate(137.736, 168.062)" >tap1</text>
<text fill="#00ccee"  xml:space="preserve" font-size="4.5602" transform="translate(121.792, 194.637)" >gnd</text>
<text fill="#00ccee"  xml:space="preserve" font-size="4.5602" transform="translate(137.736, 221.211)" >tap2</text>
<text fill="#00ccee"  xml:space="preserve" font-size="4.5602" transform="translate(121.792, 247.786)" >gnd</text>
<text fill="#00ccee"  xml:space="preserve" font-size="4.5602" transform="translate(137.736, 274.36)" >tap3</text>
<text fill="#00ccee"  xml:space="preserve" font-size="4.5602" transform="translate(121.792, 300.935)" >gnd</text>
<text fill="#00ccee"  xml:space="preserve" font-size="4.5602" transform="translate(137.736, 327.51)" >tap4</text>
<text fill="#00ccee"  xml:space="preserve" font-size="2.76376" transform="translate(111.162, 378.113)" >GND</text>
<text fill="#00ccee"  xml:space="preserve" font-size="4.5602" transform="translate(121.792, 354.084)" >gnd</text>
<text fill="#cccccc"  xml:space="preserve" font-size="5.52752" transform="translate(118.47, 492.236)" >         /home/ubuntu/analog-ai-chips/pvdd_regulator/08_mode_control/mode_control_1_ladder.sch</text>
<text fill="#cccccc"  xml:space="preserve" font-size="5.52752" transform="translate(118.47, 484.263)" >Block 08 Sub-1: Resistor Ladder -- Analog AI Chips PVDD LDO Regulator</text>
<text fill="#cccccc"  xml:space="preserve" font-size="5.52752" transform="translate(259.081, 484.263)" >2026-03-29  23:16:36</text>
<text fill="#cccccc"  xml:space="preserve" font-size="13.8188" transform="translate(57.3481, 491.792)" >SCHEM</text>
<text fill="#cccccc"  xml:space="preserve" font-size="2.76376" transform="translate(113.155, 135.62)" >XRtop</text>
<text fill="#aaaa00"  xml:space="preserve" font-size="2.76376" transform="translate(113.155, 146.582)" >1 * 1 / 37</text>
<text fill="#cccccc"  xml:space="preserve" font-size="2.76376" transform="translate(113.155, 139.274)" >res_xhigh_po</text>
<text fill="#ff0000"  xml:space="preserve" font-size="2.07282" transform="translate(103.182, 138.978)" >B</text>
<text fill="#aaaa00"  xml:space="preserve" font-size="2.76376" transform="translate(113.155, 142.928)" >R=7.4e+04</text>
<text fill="#cccccc"  xml:space="preserve" font-size="2.76376" transform="translate(113.155, 188.769)" >XR12</text>
<text fill="#aaaa00"  xml:space="preserve" font-size="2.76376" transform="translate(113.155, 199.731)" >1 * 1 / 62</text>
<text fill="#cccccc"  xml:space="preserve" font-size="2.76376" transform="translate(113.155, 192.423)" >res_xhigh_po</text>
<text fill="#ff0000"  xml:space="preserve" font-size="2.07282" transform="translate(103.182, 192.128)" >B</text>
<text fill="#aaaa00"  xml:space="preserve" font-size="2.76376" transform="translate(113.155, 196.077)" >R=1.24e+05</text>
<text fill="#cccccc"  xml:space="preserve" font-size="2.76376" transform="translate(113.155, 241.918)" >XR23</text>
<text fill="#aaaa00"  xml:space="preserve" font-size="2.76376" transform="translate(113.155, 252.88)" >1 * 1 / 6</text>
<text fill="#cccccc"  xml:space="preserve" font-size="2.76376" transform="translate(113.155, 245.572)" >res_xhigh_po</text>
<text fill="#ff0000"  xml:space="preserve" font-size="2.07282" transform="translate(103.182, 245.277)" >B</text>
<text fill="#aaaa00"  xml:space="preserve" font-size="2.76376" transform="translate(113.155, 249.226)" >R=1.2e+04</text>
<text fill="#cccccc"  xml:space="preserve" font-size="2.76376" transform="translate(113.155, 295.067)" >XR34</text>
<text fill="#aaaa00"  xml:space="preserve" font-size="2.76376" transform="translate(113.155, 306.029)" >1 * 1 / 17</text>
<text fill="#cccccc"  xml:space="preserve" font-size="2.76376" transform="translate(113.155, 298.721)" >res_xhigh_po</text>
<text fill="#ff0000"  xml:space="preserve" font-size="2.07282" transform="translate(103.182, 298.426)" >B</text>
<text fill="#aaaa00"  xml:space="preserve" font-size="2.76376" transform="translate(113.155, 302.375)" >R=3.4e+04</text>
<text fill="#cccccc"  xml:space="preserve" font-size="2.76376" transform="translate(113.155, 348.217)" >XRbot</text>
<text fill="#aaaa00"  xml:space="preserve" font-size="2.76376" transform="translate(113.155, 359.179)" >1 * 1 / 69</text>
<text fill="#cccccc"  xml:space="preserve" font-size="2.76376" transform="translate(113.155, 351.871)" >res_xhigh_po</text>
<text fill="#ff0000"  xml:space="preserve" font-size="2.07282" transform="translate(103.182, 351.575)" >B</text>
<text fill="#aaaa00"  xml:space="preserve" font-size="2.76376" transform="translate(113.155, 355.525)" >R=1.38e+05</text>
<path class="l4" d="M109.169 145.733L109.169 148.39"/>
<path class="l4" d="M109.169 145.733L111.162 145.069"/>
<path class="l4" d="M107.176 143.74L111.162 145.069"/>
<path class="l4" d="M107.176 143.74L111.162 142.411"/>
<path class="l4" d="M107.176 141.082L111.162 142.411"/>
<path class="l4" d="M107.176 141.082L111.162 139.754"/>
<path class="l4" d="M107.176 138.425L111.162 139.754"/>
<path class="l4" d="M107.176 138.425L111.162 137.096"/>
<path class="l4" d="M107.176 135.768L111.162 137.096"/>
<path class="l4" d="M107.176 135.768L109.169 135.103"/>
<path class="l4" d="M109.169 132.446L109.169 135.103"/>
<path class="l4" d="M109.169 198.882L109.169 201.54"/>
<path class="l4" d="M109.169 198.882L111.162 198.218"/>
<path class="l4" d="M107.176 196.889L111.162 198.218"/>
<path class="l4" d="M107.176 196.889L111.162 195.56"/>
<path class="l4" d="M107.176 194.232L111.162 195.56"/>
<path class="l4" d="M107.176 194.232L111.162 192.903"/>
<path class="l4" d="M107.176 191.574L111.162 192.903"/>
<path class="l4" d="M107.176 191.574L111.162 190.246"/>
<path class="l4" d="M107.176 188.917L111.162 190.246"/>
<path class="l4" d="M107.176 188.917L109.169 188.252"/>
<path class="l4" d="M109.169 185.595L109.169 188.252"/>
<path class="l4" d="M109.169 252.031L109.169 254.689"/>
<path class="l4" d="M109.169 252.031L111.162 251.367"/>
<path class="l4" d="M107.176 250.038L111.162 251.367"/>
<path class="l4" d="M107.176 250.038L111.162 248.71"/>
<path class="l4" d="M107.176 247.381L111.162 248.71"/>
<path class="l4" d="M107.176 247.381L111.162 246.052"/>
<path class="l4" d="M107.176 244.723L111.162 246.052"/>
<path class="l4" d="M107.176 244.723L111.162 243.395"/>
<path class="l4" d="M107.176 242.066L111.162 243.395"/>
<path class="l4" d="M107.176 242.066L109.169 241.402"/>
<path class="l4" d="M109.169 238.744L109.169 241.402"/>
<path class="l4" d="M109.169 305.181L109.169 307.838"/>
<path class="l4" d="M109.169 305.181L111.162 304.516"/>
<path class="l4" d="M107.176 303.188L111.162 304.516"/>
<path class="l4" d="M107.176 303.188L111.162 301.859"/>
<path class="l4" d="M107.176 300.53L111.162 301.859"/>
<path class="l4" d="M107.176 300.53L111.162 299.201"/>
<path class="l4" d="M107.176 297.873L111.162 299.201"/>
<path class="l4" d="M107.176 297.873L111.162 296.544"/>
<path class="l4" d="M107.176 295.215L111.162 296.544"/>
<path class="l4" d="M107.176 295.215L109.169 294.551"/>
<path class="l4" d="M109.169 291.893L109.169 294.551"/>
<path class="l4" d="M109.169 358.33L109.169 360.987"/>
<path class="l4" d="M109.169 358.33L111.162 357.666"/>
<path class="l4" d="M107.176 356.337L111.162 357.666"/>
<path class="l4" d="M107.176 356.337L111.162 355.008"/>
<path class="l4" d="M107.176 353.679L111.162 355.008"/>
<path class="l4" d="M107.176 353.679L111.162 352.351"/>
<path class="l4" d="M107.176 351.022L111.162 352.351"/>
<path class="l4" d="M107.176 351.022L111.162 349.693"/>
<path class="l4" d="M107.176 348.364L111.162 349.693"/>
<path class="l4" d="M107.176 348.364L109.169 347.7"/>
<path class="l4" d="M109.169 345.043L109.169 347.7"/>
<path class="l4" d="M109.169 374.275L109.169 377.597"/>
<path class="l4" d="M107.84 377.597L110.497 377.597"/>
<path class="l4" d="M109.169 378.925L110.497 377.597"/>
<path class="l4" d="M107.84 377.597L109.169 378.925"/>
<path class="l5" d="M54.6907 73.9815L56.0194 73.9815"/>
<path class="l5" d="M54.6907 73.9815L53.6941 72.6528L51.3688 72.6528L52.3654 73.9815L51.3688 75.3103L53.6941 75.3103L54.6907 73.9815"/>
<path class="l5" d="M55.6872 73.6494L56.3516 73.6494L56.3516 74.3137L55.6872 74.3137L55.6872 73.6494z"/>
<path class="l5" d="M87.9089 73.9815L90.2342 73.9815"/>
<path class="l5" d="M92.5595 73.9815L91.5629 72.6528L89.2377 72.6528L90.2342 73.9815L89.2377 75.3103L91.5629 75.3103L92.5595 73.9815"/>
<path class="l5" d="M87.5767 73.6494L88.2411 73.6494L88.2411 74.3137L87.5767 74.3137L87.5767 73.6494z"/>
<path class="l5" d="M87.9089 81.9539L90.2342 81.9539"/>
<path class="l5" d="M92.5595 81.9539L91.5629 80.6252L89.2377 80.6252L90.2342 81.9539L89.2377 83.2827L91.5629 83.2827L92.5595 81.9539"/>
<path class="l5" d="M87.5767 81.6217L88.2411 81.6217L88.2411 82.2861L87.5767 82.2861L87.5767 81.6217z"/>
<path class="l5" d="M87.9089 89.9263L90.2342 89.9263"/>
<path class="l5" d="M92.5595 89.9263L91.5629 88.5976L89.2377 88.5976L90.2342 89.9263L89.2377 91.255L91.5629 91.255L92.5595 89.9263"/>
<path class="l5" d="M87.5767 89.5941L88.2411 89.5941L88.2411 90.2585L87.5767 90.2585L87.5767 89.5941z"/>
<path class="l5" d="M87.9089 97.8987L90.2342 97.8987"/>
<path class="l5" d="M92.5595 97.8987L91.5629 96.57L89.2377 96.57L90.2342 97.8987L89.2377 99.2274L91.5629 99.2274L92.5595 97.8987"/>
<path class="l5" d="M87.5767 97.5665L88.2411 97.5665L88.2411 98.2309L87.5767 98.2309L87.5767 97.5665z"/>
<path class="l5" d="M87.9089 105.871L88.7394 105.871"/>
<path class="l5" d="M91.5629 107.2L92.5595 105.871L91.5629 104.542L89.7359 104.542L88.7394 105.871L89.7359 107.2L91.5629 107.2"/>
<path class="l5" d="M87.5767 105.539L88.2411 105.539L88.2411 106.203L87.5767 106.203L87.5767 105.539z"/>
<path class="l5" d="M57.3481 477.916L49.3757 485.888L57.3481 493.861L52.0332 493.861L46.7183 488.546L41.4033 493.861L36.0884 493.861L44.0608 485.888L36.0884 477.916L41.4033 477.916L46.7183 483.231L52.0332 477.916L57.3481 477.916"/>
<path class="l5" d="M108.836 113.511L109.501 113.511L109.501 114.176L108.836 114.176L108.836 113.511z"/>
<path class="l5" d="M108.504 147.726L109.833 147.726L109.833 149.055L108.504 149.055L108.504 147.726z"/>
<path class="l5" d="M108.504 131.781L109.833 131.781L109.833 133.11L108.504 133.11L108.504 131.781z"/>
<path class="l5" d="M103.189 139.754L104.518 139.754L104.518 141.082L103.189 141.082L103.189 139.754z"/>
<path class="l5" d="M119.466 140.086L120.131 140.086L120.131 140.75L119.466 140.75L119.466 140.086z"/>
<path class="l5" d="M135.411 166.661L136.075 166.661L136.075 167.325L135.411 167.325L135.411 166.661z"/>
<path class="l5" d="M108.504 200.875L109.833 200.875L109.833 202.204L108.504 202.204L108.504 200.875z"/>
<path class="l5" d="M108.504 184.931L109.833 184.931L109.833 186.259L108.504 186.259L108.504 184.931z"/>
<path class="l5" d="M103.189 192.903L104.518 192.903L104.518 194.232L103.189 194.232L103.189 192.903z"/>
<path class="l5" d="M119.466 193.235L120.131 193.235L120.131 193.9L119.466 193.9L119.466 193.235z"/>
<path class="l5" d="M135.411 219.81L136.075 219.81L136.075 220.474L135.411 220.474L135.411 219.81z"/>
<path class="l5" d="M108.504 254.025L109.833 254.025L109.833 255.353L108.504 255.353L108.504 254.025z"/>
<path class="l5" d="M108.504 238.08L109.833 238.08L109.833 239.409L108.504 239.409L108.504 238.08z"/>
<path class="l5" d="M103.189 246.052L104.518 246.052L104.518 247.381L103.189 247.381L103.189 246.052z"/>
<path class="l5" d="M119.466 246.384L120.131 246.384L120.131 247.049L119.466 247.049L119.466 246.384z"/>
<path class="l5" d="M135.411 272.959L136.075 272.959L136.075 273.623L135.411 273.623L135.411 272.959z"/>
<path class="l5" d="M108.504 307.174L109.833 307.174L109.833 308.503L108.504 308.503L108.504 307.174z"/>
<path class="l5" d="M108.504 291.229L109.833 291.229L109.833 292.558L108.504 292.558L108.504 291.229z"/>
<path class="l5" d="M103.189 299.201L104.518 299.201L104.518 300.53L103.189 300.53L103.189 299.201z"/>
<path class="l5" d="M119.466 299.534L120.131 299.534L120.131 300.198L119.466 300.198L119.466 299.534z"/>
<path class="l5" d="M135.411 326.108L136.075 326.108L136.075 326.773L135.411 326.773L135.411 326.108z"/>
<path class="l5" d="M108.504 360.323L109.833 360.323L109.833 361.652L108.504 361.652L108.504 360.323z"/>
<path class="l5" d="M108.504 344.378L109.833 344.378L109.833 345.707L108.504 345.707L108.504 344.378z"/>
<path class="l5" d="M103.189 352.351L104.518 352.351L104.518 353.679L103.189 353.679L103.189 352.351z"/>
<path class="l5" d="M108.504 373.61L109.833 373.61L109.833 374.939L108.504 374.939L108.504 373.61z"/>
<path class="l5" d="M119.466 352.683L120.131 352.683L120.131 353.347L119.466 353.347L119.466 352.683z"/>
<path class="l6" d="M115.812 485.888L327.081 485.888"/>
<path class="l6" d="M13.5 485.888L30.7735 485.888"/>
<path class="l1" d="M109.169 113.843L109.169 121.816"/>
<path class="l1" d="M109.169 121.816L109.169 132.446"/>
<path class="l1" d="M109.169 148.39L109.169 166.993"/>
<path class="l1" d="M114.484 140.418L119.798 140.418"/>
<path class="l1" d="M109.169 166.993L135.743 166.993"/>
<path class="l1" d="M109.169 166.993L109.169 185.595"/>
<path class="l1" d="M109.169 201.54L109.169 220.142"/>
<path class="l1" d="M114.484 193.567L119.798 193.567"/>
<path class="l1" d="M109.169 220.142L135.743 220.142"/>
<path class="l1" d="M109.169 220.142L109.169 238.744"/>
<path class="l1" d="M109.169 254.689L109.169 273.291"/>
<path class="l1" d="M114.484 246.717L119.798 246.717"/>
<path class="l1" d="M109.169 273.291L135.743 273.291"/>
<path class="l1" d="M109.169 273.291L109.169 291.893"/>
<path class="l1" d="M109.169 307.838L109.169 326.44"/>
<path class="l1" d="M114.484 299.866L119.798 299.866"/>
<path class="l1" d="M109.169 326.44L135.743 326.44"/>
<path class="l1" d="M109.169 326.44L109.169 345.043"/>
<path class="l1" d="M109.169 360.987L109.169 374.275"/>
<path class="l1" d="M114.484 353.015L119.798 353.015"/>
<circle class="l1" cx="109.169" cy="220.142" r="1.06298"/>
<circle class="l1" cx="109.169" cy="166.993" r="1.06298"/>
<circle class="l1" cx="109.169" cy="166.993" r="1.06298"/>
<circle class="l1" cx="109.169" cy="166.993" r="1.06298"/>
<circle class="l1" cx="109.169" cy="326.44" r="1.06298"/>
<circle class="l1" cx="109.169" cy="273.291" r="1.06298"/>
<circle class="l1" cx="109.169" cy="273.291" r="1.06298"/>
<circle class="l1" cx="109.169" cy="273.291" r="1.06298"/>
<circle class="l1" cx="109.169" cy="220.142" r="1.06298"/>
<circle class="l1" cx="109.169" cy="220.142" r="1.06298"/>
<circle class="l1" cx="109.169" cy="326.44" r="1.06298"/>
<circle class="l1" cx="109.169" cy="326.44" r="1.06298"/>
</svg>
