<svg xmlns="http://www.w3.org/2000/svg" xmlns:xlink="http://www.w3.org/1999/xlink" width="900" height="503" version="1.1">
<style type="text/css">
.l0{
 fill: #000000;
  stroke: #000000;
  stroke-linecap:round;
  stroke-linejoin:round;
  stroke-width: 0.479123;
}
.l1{
 fill: #00ccee;
  stroke: #00ccee;
  stroke-linecap:round;
  stroke-linejoin:round;
  stroke-width: 0.479123;
}
.l2{
  fill: none;
  stroke: #3f3f3f;
  stroke-linecap:round;
  stroke-linejoin:round;
  stroke-width: 0.479123;
}
.l3{
 fill: #cccccc; fill-opacity: 0.5;
  stroke: #cccccc;
  stroke-linecap:round;
  stroke-linejoin:round;
  stroke-width: 0.479123;
}
.l4{
 fill: #88dd00;
  stroke: #88dd00;
  stroke-linecap:round;
  stroke-linejoin:round;
  stroke-width: 0.479123;
}
.l5{
 fill: #bb2200;
  stroke: #bb2200;
  stroke-linecap:round;
  stroke-linejoin:round;
  stroke-width: 0.479123;
}
.l6{
 fill: #00ccee; fill-opacity: 0.5;
  stroke: #00ccee;
  stroke-linecap:round;
  stroke-linejoin:round;
  stroke-width: 0.479123;
}
.l7{
 fill: #ff0000; fill-opacity: 0.5;
  stroke: #ff0000;
  stroke-linecap:round;
  stroke-linejoin:round;
  stroke-width: 0.479123;
}
.l8{
 fill: #ffff00; fill-opacity: 0.5;
  stroke: #ffff00;
  stroke-linecap:round;
  stroke-linejoin:round;
  stroke-width: 0.479123;
}
.l9{
 fill: #ffffff; fill-opacity: 0.5;
  stroke: #ffffff;
  stroke-linecap:round;
  stroke-linejoin:round;
  stroke-width: 0.479123;
}
.l10{
 fill: #ff00ff;
  stroke: #ff00ff;
  stroke-linecap:round;
  stroke-linejoin:round;
  stroke-width: 0.479123;
}
.l11{
 fill: #00ff00; fill-opacity: 0.5;
  stroke: #00ff00;
  stroke-linecap:round;
  stroke-linejoin:round;
  stroke-width: 0.479123;
}
.l12{
 fill: #0044dd; fill-opacity: 0.5;
  stroke: #0044dd;
  stroke-linecap:round;
  stroke-linejoin:round;
  stroke-width: 0.479123;
}
.l13{
 fill: #aaaa00; fill-opacity: 0.5;
  stroke: #aaaa00;
  stroke-linecap:round;
  stroke-linejoin:round;
  stroke-width: 0.479123;
}
.l14{
  fill: none;
  stroke: #aaccaa;
  stroke-linecap:round;
  stroke-linejoin:round;
  stroke-width: 0.479123;
}
.l15{
 fill: #ff7777; fill-opacity: 0.5;
  stroke: #ff7777;
  stroke-linecap:round;
  stroke-linejoin:round;
  stroke-width: 0.479123;
}
.l16{
 fill: #bfff81; fill-opacity: 0.5;
  stroke: #bfff81;
  stroke-linecap:round;
  stroke-linejoin:round;
  stroke-width: 0.479123;
}
.l17{
  fill: none;
  stroke: #00ffcc;
  stroke-linecap:round;
  stroke-linejoin:round;
  stroke-width: 0.479123;
}
.l18{
 fill: #ce0097; fill-opacity: 0.5;
  stroke: #ce0097;
  stroke-linecap:round;
  stroke-linejoin:round;
  stroke-width: 0.479123;
}
.l19{
  fill: none;
  stroke: #d2d46b;
  stroke-linecap:round;
  stroke-linejoin:round;
  stroke-width: 0.479123;
}
.l20{
  fill: none;
  stroke: #ef6158;
  stroke-linecap:round;
  stroke-linejoin:round;
  stroke-width: 0.479123;
}
.l21{
  fill: none;
  stroke: #fdb200;
  stroke-linecap:round;
  stroke-linejoin:round;
  stroke-width: 0.479123;
}
text {font-family: Sans-Serif;}
</style>
<rect class="l0" x="0" y="0" width="900" height="503"/>
<text fill="#ff7777"  xml:space="preserve" font-size="23.0689" transform="translate(36.9432, 47.9669)" >VibroSense Block 00: Bias Generator</text>
<text fill="#ff7777"  xml:space="preserve" font-size="11.5345" transform="translate(36.9432, 64.1116)" >Beta-Multiplier Self-Biased Current Reference  —  SKY130A</text>
<text fill="#ffff00"  xml:space="preserve" font-size="9.22756" transform="translate(36.9432, 84.1986)" >Iref = 500 nA  |  TC &lt; 150 ppm/C  |  VDD = 1.8 V</text>
<text fill="#88dd00"  xml:space="preserve" font-size="9.22756" transform="translate(192.215, 124.126)" >PMOS Current Mirror</text>
<text fill="#ffff00"  xml:space="preserve" font-size="6.92067" transform="translate(170.033, 157.522)" >M3</text>
<text fill="#ffff00"  xml:space="preserve" font-size="5.76723" transform="translate(170.033, 167.121)" >4/4</text>
<text fill="#ffff00"  xml:space="preserve" font-size="6.92067" transform="translate(316.432, 157.522)" >M4</text>
<text fill="#ffff00"  xml:space="preserve" font-size="5.76723" transform="translate(316.432, 167.121)" >4/4</text>
<text fill="#88dd00"  xml:space="preserve" font-size="9.22756" transform="translate(192.215, 274.961)" >NMOS Pair (K=4)</text>
<text fill="#ffff00"  xml:space="preserve" font-size="6.92067" transform="translate(170.033, 308.357)" >M1</text>
<text fill="#ffff00"  xml:space="preserve" font-size="5.76723" transform="translate(170.033, 317.957)" >2/4</text>
<text fill="#ffff00"  xml:space="preserve" font-size="6.92067" transform="translate(316.432, 308.357)" >M2</text>
<text fill="#ffff00"  xml:space="preserve" font-size="5.76723" transform="translate(316.432, 317.957)" >8/4</text>
<text fill="#88dd00"  xml:space="preserve" font-size="9.22756" transform="translate(453.958, 124.126)" >Regulation OTA</text>
<text fill="#ffff00"  xml:space="preserve" font-size="6.92067" transform="translate(453.958, 157.522)" >Mo3</text>
<text fill="#ffff00"  xml:space="preserve" font-size="5.76723" transform="translate(453.958, 167.121)" >2/4</text>
<text fill="#ffff00"  xml:space="preserve" font-size="6.92067" transform="translate(542.685, 157.522)" >Mo4</text>
<text fill="#ffff00"  xml:space="preserve" font-size="5.76723" transform="translate(542.685, 167.121)" >2/4</text>
<text fill="#ffff00"  xml:space="preserve" font-size="6.92067" transform="translate(453.958, 250.684)" >Mo1</text>
<text fill="#ffff00"  xml:space="preserve" font-size="5.76723" transform="translate(453.958, 260.284)" >1/4</text>
<text fill="#ffff00"  xml:space="preserve" font-size="6.92067" transform="translate(542.685, 250.684)" >Mo2</text>
<text fill="#ffff00"  xml:space="preserve" font-size="5.76723" transform="translate(542.685, 260.284)" >1/4</text>
<text fill="#ffff00"  xml:space="preserve" font-size="6.92067" transform="translate(502.758, 317.229)" >Mo5</text>
<text fill="#ffff00"  xml:space="preserve" font-size="5.76723" transform="translate(502.758, 326.829)" >1/4</text>
<text fill="#88dd00"  xml:space="preserve" font-size="9.22756" transform="translate(640.284, 124.126)" >Output Mirror</text>
<text fill="#ffff00"  xml:space="preserve" font-size="6.92067" transform="translate(649.156, 157.522)" >M7</text>
<text fill="#ffff00"  xml:space="preserve" font-size="5.76723" transform="translate(649.156, 167.121)" >4/4</text>
<text fill="#88dd00"  xml:space="preserve" font-size="8.07412" transform="translate(227.705, 384.822)" >TC-Compensated R1</text>
<text fill="#ffff00"  xml:space="preserve" font-size="5.76723" transform="translate(227.705, 407.127)" >R1a: xhigh_po</text>
<text fill="#ffff00"  xml:space="preserve" font-size="5.76723" transform="translate(227.705, 415.999)" >0.35/7.1</text>
<text fill="#ffff00"  xml:space="preserve" font-size="5.76723" transform="translate(227.705, 451.49)" >R1b: iso_pw</text>
<text fill="#ffff00"  xml:space="preserve" font-size="5.76723" transform="translate(227.705, 460.363)" >0.35/6.55</text>
<text fill="#88dd00"  xml:space="preserve" font-size="8.07412" transform="translate(391.849, 384.822)" >Comp Cap</text>
<text fill="#ffff00"  xml:space="preserve" font-size="5.76723" transform="translate(391.849, 407.127)" >C_comp</text>
<text fill="#ffff00"  xml:space="preserve" font-size="5.76723" transform="translate(391.849, 415.999)" >5 pF MIM</text>
<text fill="#88dd00"  xml:space="preserve" font-size="8.07412" transform="translate(631.411, 273.913)" >Anti-Deadlock</text>
<text fill="#ffff00"  xml:space="preserve" font-size="6.92067" transform="translate(649.156, 308.357)" >M6</text>
<text fill="#ffff00"  xml:space="preserve" font-size="5.76723" transform="translate(644.72, 317.957)" >0.5/0.5</text>
<text fill="#88dd00"  xml:space="preserve" font-size="9.22756" transform="translate(746.756, 124.126)" >RC Startup</text>
<text fill="#ffff00"  xml:space="preserve" font-size="5.76723" transform="translate(755.628, 156.474)" >C_gs</text>
<text fill="#ffff00"  xml:space="preserve" font-size="5.76723" transform="translate(751.192, 167.121)" >MIM 25x50</text>
<text fill="#ffff00"  xml:space="preserve" font-size="5.76723" transform="translate(835.482, 307.309)" >R_gs</text>
<text fill="#ffff00"  xml:space="preserve" font-size="5.76723" transform="translate(831.046, 317.957)" >0.35/1360</text>
<text fill="#ffff00"  xml:space="preserve" font-size="6.92067" transform="translate(764.501, 250.684)" >Msw</text>
<text fill="#ffff00"  xml:space="preserve" font-size="5.76723" transform="translate(764.501, 260.284)" >4/0.5</text>
<text fill="#00ccee"  xml:space="preserve" font-size="7.61274" transform="translate(13.1399, 100.755)" >vdd</text>
<text fill="#00ccee"  xml:space="preserve" font-size="7.61274" transform="translate(13.1399, 491.152)" >gnd</text>
<text fill="#00ccee"  xml:space="preserve" font-size="7.61274" transform="translate(728.941, 202.79)" >iref_out</text>
<text fill="#00ccee"  xml:space="preserve" font-size="7.61274" transform="translate(238.869, 225.527)" >vbias</text>
<text fill="#00ccee"  xml:space="preserve" font-size="7.61274" transform="translate(208.851, 265.454)" >nbias</text>
<text fill="#00ccee"  xml:space="preserve" font-size="7.61274" transform="translate(295.541, 265.454)" >out_n</text>
<text fill="#00ccee"  xml:space="preserve" font-size="7.61274" transform="translate(266.523, 385.234)" >src_m2</text>
<text fill="#00ccee"  xml:space="preserve" font-size="7.61274" transform="translate(266.523, 438.47)" >mid_r</text>
<text fill="#00ccee"  xml:space="preserve" font-size="7.61274" transform="translate(439.54, 216.654)" >od1</text>
<text fill="#00ccee"  xml:space="preserve" font-size="7.61274" transform="translate(486.867, 274.326)" >otail</text>
<text fill="#00ccee"  xml:space="preserve" font-size="7.61274" transform="translate(805.41, 220.203)" >gs</text>
<text fill="#00ccee"  xml:space="preserve" font-size="7.61274" transform="translate(457.285, 234.399)" >out_n</text>
<text fill="#00ccee"  xml:space="preserve" font-size="7.61274" transform="translate(536.103, 234.399)" >nbias</text>
<text fill="#00ccee"  xml:space="preserve" font-size="7.61274" transform="translate(492.776, 287.635)" >nbias</text>
<text fill="#00ccee"  xml:space="preserve" font-size="7.61274" transform="translate(661.356, 190.036)" >vbias</text>
<text fill="#00ccee"  xml:space="preserve" font-size="7.61274" transform="translate(651.447, 327.562)" >vbias</text>
<text fill="#00ccee"  xml:space="preserve" font-size="7.61274" transform="translate(785.574, 234.399)" >vbias</text>
<text fill="#00ccee"  xml:space="preserve" font-size="7.61274" transform="translate(775.664, 247.708)" >nbias</text>
<text fill="#cccccc"  xml:space="preserve" font-size="4.61378" transform="translate(188.869, 177.609)" >XM3</text>
<text fill="#ff0000"  xml:space="preserve" font-size="3.46034" transform="translate(206.633, 197.634)" >D</text>
<text fill="#ff0000"  xml:space="preserve" font-size="3.46034" transform="translate(206.633, 178.138)" >S</text>
<text fill="#ff0000"  xml:space="preserve" font-size="3.46034" transform="translate(205.524, 185.434)" >B</text>
<text fill="#ff0000"  xml:space="preserve" font-size="3.46034" transform="translate(189.215, 185.434)" >G</text>
<text fill="#cccccc"  xml:space="preserve" font-size="4.61378" transform="translate(209.96, 181.744)" >pfet_01v8</text>
<text fill="#aaaa00"  xml:space="preserve" font-size="4.61378" transform="translate(210.515, 197.017)" >1 x 4 / 4</text>
<text fill="#aaaa00"  xml:space="preserve" font-size="4.61378" transform="translate(210.515, 191.472)" >nf=1</text>
<text fill="#ff7777"  xml:space="preserve" font-size="1.15345" transform="translate(188.887, 196.648)" >?</text>
<text fill="#cccccc"  xml:space="preserve" font-size="4.61378" transform="translate(327.523, 177.609)" >XM4</text>
<text fill="#ff0000"  xml:space="preserve" font-size="3.46034" transform="translate(316.759, 197.634)" >D</text>
<text fill="#ff0000"  xml:space="preserve" font-size="3.46034" transform="translate(317.759, 178.138)" >S</text>
<text fill="#ff0000"  xml:space="preserve" font-size="3.46034" transform="translate(317.868, 185.434)" >B</text>
<text fill="#ff0000"  xml:space="preserve" font-size="3.46034" transform="translate(334.177, 185.434)" >G</text>
<text fill="#cccccc"  xml:space="preserve" font-size="4.61378" transform="translate(292.432, 181.744)" >pfet_01v8</text>
<text fill="#aaaa00"  xml:space="preserve" font-size="4.61378" transform="translate(297.877, 197.017)" >1 x 4 / 4</text>
<text fill="#aaaa00"  xml:space="preserve" font-size="4.61378" transform="translate(303.877, 191.472)" >nf=1</text>
<text fill="#ff7777"  xml:space="preserve" font-size="1.15345" transform="translate(336.504, 196.648)" >?</text>
<text fill="#cccccc"  xml:space="preserve" font-size="4.61378" transform="translate(188.869, 328.444)" >XM1</text>
<text fill="#ff0000"  xml:space="preserve" font-size="3.46034" transform="translate(206.633, 348.469)" >S</text>
<text fill="#ff0000"  xml:space="preserve" font-size="3.46034" transform="translate(206.633, 328.973)" >D</text>
<text fill="#ff0000"  xml:space="preserve" font-size="3.46034" transform="translate(205.524, 336.269)" >B</text>
<text fill="#ff0000"  xml:space="preserve" font-size="3.46034" transform="translate(189.215, 336.269)" >G</text>
<text fill="#cccccc"  xml:space="preserve" font-size="4.61378" transform="translate(209.96, 332.579)" >nfet_01v8</text>
<text fill="#aaaa00"  xml:space="preserve" font-size="4.61378" transform="translate(210.515, 347.853)" >1 x 2 / 4</text>
<text fill="#aaaa00"  xml:space="preserve" font-size="4.61378" transform="translate(210.515, 342.307)" >nf=1</text>
<text fill="#ff7777"  xml:space="preserve" font-size="1.15345" transform="translate(188.887, 347.483)" >?</text>
<text fill="#cccccc"  xml:space="preserve" font-size="4.61378" transform="translate(327.523, 328.444)" >XM2</text>
<text fill="#ff0000"  xml:space="preserve" font-size="3.46034" transform="translate(317.759, 348.469)" >S</text>
<text fill="#ff0000"  xml:space="preserve" font-size="3.46034" transform="translate(316.759, 328.973)" >D</text>
<text fill="#ff0000"  xml:space="preserve" font-size="3.46034" transform="translate(317.868, 336.269)" >B</text>
<text fill="#ff0000"  xml:space="preserve" font-size="3.46034" transform="translate(334.177, 336.269)" >G</text>
<text fill="#cccccc"  xml:space="preserve" font-size="4.61378" transform="translate(292.432, 332.579)" >nfet_01v8</text>
<text fill="#aaaa00"  xml:space="preserve" font-size="4.61378" transform="translate(297.877, 347.853)" >1 x 8 / 4</text>
<text fill="#aaaa00"  xml:space="preserve" font-size="4.61378" transform="translate(303.877, 342.307)" >nf=1</text>
<text fill="#ff7777"  xml:space="preserve" font-size="1.15345" transform="translate(336.504, 347.483)" >?</text>
<text fill="#cccccc"  xml:space="preserve" font-size="4.61378" transform="translate(269.85, 404.97)" >XR1a</text>
<text fill="#aaaa00"  xml:space="preserve" font-size="4.61378" transform="translate(269.85, 423.27)" >1 * 0.35 / 7.1</text>
<text fill="#cccccc"  xml:space="preserve" font-size="4.61378" transform="translate(269.85, 411.07)" >res_xhigh_po</text>
<text fill="#ff0000"  xml:space="preserve" font-size="3.46034" transform="translate(253.541, 410.577)" >B</text>
<text fill="#aaaa00"  xml:space="preserve" font-size="4.61378" transform="translate(269.85, 417.17)" >R=4.057e+04</text>
<text fill="#ff0000"  xml:space="preserve" font-size="3.46034" transform="translate(253.541, 454.941)" >B</text>
<text fill="#cccccc"  xml:space="preserve" font-size="4.61378" transform="translate(269.85, 449.334)" >XR1b</text>
<text fill="#aaaa00"  xml:space="preserve" font-size="4.61378" transform="translate(269.85, 467.633)" >1 * 0.35 / 6.55</text>
<text fill="#cccccc"  xml:space="preserve" font-size="4.61378" transform="translate(269.85, 455.434)" >res_iso_pw</text>
<text fill="#aaaa00"  xml:space="preserve" font-size="4.61378" transform="translate(269.85, 461.533)" >R=7.141e+04</text>
<text fill="#cccccc"  xml:space="preserve" font-size="4.61378" transform="translate(452.049, 177.609)" >XMo3</text>
<text fill="#ff0000"  xml:space="preserve" font-size="3.46034" transform="translate(472.812, 197.634)" >D</text>
<text fill="#ff0000"  xml:space="preserve" font-size="3.46034" transform="translate(472.812, 178.138)" >S</text>
<text fill="#ff0000"  xml:space="preserve" font-size="3.46034" transform="translate(471.703, 185.434)" >B</text>
<text fill="#ff0000"  xml:space="preserve" font-size="3.46034" transform="translate(455.394, 185.434)" >G</text>
<text fill="#cccccc"  xml:space="preserve" font-size="4.61378" transform="translate(476.14, 181.744)" >pfet_01v8</text>
<text fill="#aaaa00"  xml:space="preserve" font-size="4.61378" transform="translate(476.694, 197.017)" >1 x 2 / 4</text>
<text fill="#aaaa00"  xml:space="preserve" font-size="4.61378" transform="translate(476.694, 191.472)" >nf=1</text>
<text fill="#ff7777"  xml:space="preserve" font-size="1.15345" transform="translate(455.067, 196.648)" >?</text>
<text fill="#cccccc"  xml:space="preserve" font-size="4.61378" transform="translate(549.339, 177.609)" >XMo4</text>
<text fill="#ff0000"  xml:space="preserve" font-size="3.46034" transform="translate(538.576, 197.634)" >D</text>
<text fill="#ff0000"  xml:space="preserve" font-size="3.46034" transform="translate(539.576, 178.138)" >S</text>
<text fill="#ff0000"  xml:space="preserve" font-size="3.46034" transform="translate(539.685, 185.434)" >B</text>
<text fill="#ff0000"  xml:space="preserve" font-size="3.46034" transform="translate(555.994, 185.434)" >G</text>
<text fill="#cccccc"  xml:space="preserve" font-size="4.61378" transform="translate(514.248, 181.744)" >pfet_01v8</text>
<text fill="#aaaa00"  xml:space="preserve" font-size="4.61378" transform="translate(519.694, 197.017)" >1 x 2 / 4</text>
<text fill="#aaaa00"  xml:space="preserve" font-size="4.61378" transform="translate(525.694, 191.472)" >nf=1</text>
<text fill="#ff7777"  xml:space="preserve" font-size="1.15345" transform="translate(558.321, 196.648)" >?</text>
<text fill="#cccccc"  xml:space="preserve" font-size="4.61378" transform="translate(452.049, 221.972)" >XMo1</text>
<text fill="#ff0000"  xml:space="preserve" font-size="3.46034" transform="translate(472.812, 241.997)" >S</text>
<text fill="#ff0000"  xml:space="preserve" font-size="3.46034" transform="translate(472.812, 222.501)" >D</text>
<text fill="#ff0000"  xml:space="preserve" font-size="3.46034" transform="translate(471.703, 229.797)" >B</text>
<text fill="#ff0000"  xml:space="preserve" font-size="3.46034" transform="translate(455.394, 229.797)" >G</text>
<text fill="#cccccc"  xml:space="preserve" font-size="4.61378" transform="translate(476.14, 226.107)" >nfet_01v8</text>
<text fill="#aaaa00"  xml:space="preserve" font-size="4.61378" transform="translate(476.694, 241.381)" >1 x 1 / 4</text>
<text fill="#aaaa00"  xml:space="preserve" font-size="4.61378" transform="translate(476.694, 235.835)" >nf=1</text>
<text fill="#ff7777"  xml:space="preserve" font-size="1.15345" transform="translate(455.067, 241.011)" >?</text>
<text fill="#cccccc"  xml:space="preserve" font-size="4.61378" transform="translate(549.339, 221.972)" >XMo2</text>
<text fill="#ff0000"  xml:space="preserve" font-size="3.46034" transform="translate(539.576, 241.997)" >S</text>
<text fill="#ff0000"  xml:space="preserve" font-size="3.46034" transform="translate(538.576, 222.501)" >D</text>
<text fill="#ff0000"  xml:space="preserve" font-size="3.46034" transform="translate(539.685, 229.797)" >B</text>
<text fill="#ff0000"  xml:space="preserve" font-size="3.46034" transform="translate(555.994, 229.797)" >G</text>
<text fill="#cccccc"  xml:space="preserve" font-size="4.61378" transform="translate(514.248, 226.107)" >nfet_01v8</text>
<text fill="#aaaa00"  xml:space="preserve" font-size="4.61378" transform="translate(519.694, 241.381)" >1 x 1 / 4</text>
<text fill="#aaaa00"  xml:space="preserve" font-size="4.61378" transform="translate(525.694, 235.835)" >nf=1</text>
<text fill="#ff7777"  xml:space="preserve" font-size="1.15345" transform="translate(558.321, 241.011)" >?</text>
<text fill="#cccccc"  xml:space="preserve" font-size="4.61378" transform="translate(487.539, 275.208)" >XMo5</text>
<text fill="#ff0000"  xml:space="preserve" font-size="3.46034" transform="translate(508.303, 295.233)" >S</text>
<text fill="#ff0000"  xml:space="preserve" font-size="3.46034" transform="translate(508.303, 275.737)" >D</text>
<text fill="#ff0000"  xml:space="preserve" font-size="3.46034" transform="translate(507.194, 283.033)" >B</text>
<text fill="#ff0000"  xml:space="preserve" font-size="3.46034" transform="translate(490.885, 283.033)" >G</text>
<text fill="#cccccc"  xml:space="preserve" font-size="4.61378" transform="translate(511.63, 279.343)" >nfet_01v8</text>
<text fill="#aaaa00"  xml:space="preserve" font-size="4.61378" transform="translate(512.185, 294.617)" >1 x 1 / 4</text>
<text fill="#aaaa00"  xml:space="preserve" font-size="4.61378" transform="translate(512.185, 289.071)" >nf=1</text>
<text fill="#ff7777"  xml:space="preserve" font-size="1.15345" transform="translate(490.558, 294.247)" >?</text>
<text fill="#ff0000"  xml:space="preserve" font-size="3.46034" transform="translate(411.813, 421.668)" >c0</text>
<text fill="#ff0000"  xml:space="preserve" font-size="3.46034" transform="translate(411.813, 442.186)" >c1</text>
<text fill="#aaaa00"  xml:space="preserve" font-size="4.61378" transform="translate(417.358, 443.234)" >MF=1</text>
<text fill="#cccccc"  xml:space="preserve" font-size="4.61378" transform="translate(416.249, 422.161)" >XC_comp</text>
<text fill="#aaaa00"  xml:space="preserve" font-size="4.61378" transform="translate(416.249, 437.688)" >50 / 50</text>
<text fill="#cccccc"  xml:space="preserve" font-size="4.61378" transform="translate(416.249, 429.925)" >cap_mim_m3_1</text>
<text fill="#aaaa00"  xml:space="preserve" font-size="4.61378" transform="translate(375.268, 438.797)" >C=5.038e-12</text>
<text fill="#cccccc"  xml:space="preserve" font-size="4.61378" transform="translate(659.12, 177.609)" >XM7</text>
<text fill="#ff0000"  xml:space="preserve" font-size="3.46034" transform="translate(676.884, 197.634)" >D</text>
<text fill="#ff0000"  xml:space="preserve" font-size="3.46034" transform="translate(676.884, 178.138)" >S</text>
<text fill="#ff0000"  xml:space="preserve" font-size="3.46034" transform="translate(675.774, 185.434)" >B</text>
<text fill="#ff0000"  xml:space="preserve" font-size="3.46034" transform="translate(659.465, 185.434)" >G</text>
<text fill="#cccccc"  xml:space="preserve" font-size="4.61378" transform="translate(680.211, 181.744)" >pfet_01v8</text>
<text fill="#aaaa00"  xml:space="preserve" font-size="4.61378" transform="translate(680.765, 197.017)" >1 x 4 / 4</text>
<text fill="#aaaa00"  xml:space="preserve" font-size="4.61378" transform="translate(680.765, 191.472)" >nf=1</text>
<text fill="#ff7777"  xml:space="preserve" font-size="1.15345" transform="translate(659.138, 196.648)" >?</text>
<text fill="#cccccc"  xml:space="preserve" font-size="4.61378" transform="translate(659.12, 328.444)" >XM6</text>
<text fill="#ff0000"  xml:space="preserve" font-size="3.46034" transform="translate(676.884, 348.469)" >S</text>
<text fill="#ff0000"  xml:space="preserve" font-size="3.46034" transform="translate(676.884, 328.973)" >D</text>
<text fill="#ff0000"  xml:space="preserve" font-size="3.46034" transform="translate(675.774, 336.269)" >B</text>
<text fill="#ff0000"  xml:space="preserve" font-size="3.46034" transform="translate(659.465, 336.269)" >G</text>
<text fill="#cccccc"  xml:space="preserve" font-size="4.61378" transform="translate(680.211, 332.579)" >nfet_01v8</text>
<text fill="#aaaa00"  xml:space="preserve" font-size="4.61378" transform="translate(680.765, 347.853)" >1 x 0.5 / 0.5</text>
<text fill="#aaaa00"  xml:space="preserve" font-size="4.61378" transform="translate(680.765, 342.307)" >nf=1</text>
<text fill="#ff7777"  xml:space="preserve" font-size="1.15345" transform="translate(659.138, 347.483)" >?</text>
<text fill="#ff0000"  xml:space="preserve" font-size="3.46034" transform="translate(793.337, 168.798)" >c0</text>
<text fill="#ff0000"  xml:space="preserve" font-size="3.46034" transform="translate(793.337, 189.316)" >c1</text>
<text fill="#aaaa00"  xml:space="preserve" font-size="4.61378" transform="translate(798.883, 190.363)" >MF=1</text>
<text fill="#cccccc"  xml:space="preserve" font-size="4.61378" transform="translate(797.773, 169.29)" >XC_gs</text>
<text fill="#aaaa00"  xml:space="preserve" font-size="4.61378" transform="translate(797.773, 184.818)" >25 / 50</text>
<text fill="#cccccc"  xml:space="preserve" font-size="4.61378" transform="translate(797.773, 177.054)" >cap_mim_m3_1</text>
<text fill="#aaaa00"  xml:space="preserve" font-size="4.61378" transform="translate(756.792, 185.927)" >C=2.529e-12</text>
<text fill="#cccccc"  xml:space="preserve" font-size="4.61378" transform="translate(851.009, 329.553)" >XR_gs</text>
<text fill="#aaaa00"  xml:space="preserve" font-size="4.61378" transform="translate(851.009, 347.853)" >1 * 0.35 / 1360</text>
<text fill="#cccccc"  xml:space="preserve" font-size="4.61378" transform="translate(851.009, 335.653)" >res_xhigh_po</text>
<text fill="#ff0000"  xml:space="preserve" font-size="3.46034" transform="translate(834.7, 335.16)" >B</text>
<text fill="#aaaa00"  xml:space="preserve" font-size="4.61378" transform="translate(851.009, 341.753)" >R=7.771e+06</text>
<text fill="#cccccc"  xml:space="preserve" font-size="4.61378" transform="translate(780.337, 221.972)" >XMsw</text>
<text fill="#ff0000"  xml:space="preserve" font-size="3.46034" transform="translate(801.101, 241.997)" >S</text>
<text fill="#ff0000"  xml:space="preserve" font-size="3.46034" transform="translate(801.101, 222.501)" >D</text>
<text fill="#ff0000"  xml:space="preserve" font-size="3.46034" transform="translate(799.992, 229.797)" >B</text>
<text fill="#ff0000"  xml:space="preserve" font-size="3.46034" transform="translate(783.683, 229.797)" >G</text>
<text fill="#cccccc"  xml:space="preserve" font-size="4.61378" transform="translate(804.428, 226.107)" >nfet_01v8</text>
<text fill="#aaaa00"  xml:space="preserve" font-size="4.61378" transform="translate(804.982, 241.381)" >1 x 4 / 0.5</text>
<text fill="#aaaa00"  xml:space="preserve" font-size="4.61378" transform="translate(804.982, 235.835)" >nf=1</text>
<text fill="#ff7777"  xml:space="preserve" font-size="1.15345" transform="translate(783.355, 241.011)" >?</text>
<path class="l4" d="M199.978 176.746L199.978 196.71"/>
<path class="l4" d="M205.524 173.419L205.524 178.965"/>
<path class="l4" d="M205.524 194.492L205.524 200.037"/>
<path class="l4" d="M197.76 180.074L197.76 193.383"/>
<path class="l4" d="M199.978 194.492L205.524 194.492"/>
<path class="l4" d="M202.196 178.965L205.524 178.965"/>
<path class="l4" d="M187.778 186.728L193.324 186.728"/>
<path class="l4" d="M202.196 177.856L199.978 178.965L202.196 180.074L202.196 177.856"/>
<circle class="l4" cx="195.542" cy="186.728" r="2.21816" style="fill:none;"/>
<path class="l4" d="M326.414 176.746L326.414 196.71"/>
<path class="l4" d="M320.868 173.419L320.868 178.965"/>
<path class="l4" d="M320.868 194.492L320.868 200.037"/>
<path class="l4" d="M328.632 180.074L328.632 193.383"/>
<path class="l4" d="M320.868 194.492L326.414 194.492"/>
<path class="l4" d="M320.868 178.965L324.195 178.965"/>
<path class="l4" d="M333.068 186.728L338.614 186.728"/>
<path class="l4" d="M324.195 177.856L326.414 178.965L324.195 180.074L324.195 177.856"/>
<circle class="l4" cx="330.85" cy="186.728" r="2.21816" style="fill:none;"/>
<path class="l4" d="M199.978 327.582L199.978 347.545"/>
<path class="l4" d="M187.778 337.563L197.76 337.563"/>
<path class="l4" d="M205.524 324.254L205.524 329.8"/>
<path class="l4" d="M205.524 345.327L205.524 350.872"/>
<path class="l4" d="M197.76 330.909L197.76 344.218"/>
<path class="l4" d="M199.978 329.8L205.524 329.8"/>
<path class="l4" d="M199.978 345.327L203.306 345.327"/>
<path class="l4" d="M203.306 344.218L205.524 345.327L203.306 346.436L203.306 344.218"/>
<path class="l4" d="M326.414 327.582L326.414 347.545"/>
<path class="l4" d="M328.632 337.563L338.614 337.563"/>
<path class="l4" d="M320.868 324.254L320.868 329.8"/>
<path class="l4" d="M320.868 345.327L320.868 350.872"/>
<path class="l4" d="M328.632 330.909L328.632 344.218"/>
<path class="l4" d="M320.868 329.8L326.414 329.8"/>
<path class="l4" d="M323.086 345.327L326.414 345.327"/>
<path class="l4" d="M323.086 344.218L320.868 345.327L323.086 346.436L323.086 344.218"/>
<path class="l4" d="M263.196 421.854L263.196 426.29"/>
<path class="l4" d="M263.196 421.854L266.523 420.744"/>
<path class="l4" d="M259.869 418.526L266.523 420.744"/>
<path class="l4" d="M259.869 418.526L266.523 416.308"/>
<path class="l4" d="M259.869 414.09L266.523 416.308"/>
<path class="l4" d="M259.869 414.09L266.523 411.872"/>
<path class="l4" d="M259.869 409.654L266.523 411.872"/>
<path class="l4" d="M259.869 409.654L266.523 407.435"/>
<path class="l4" d="M259.869 405.217L266.523 407.435"/>
<path class="l4" d="M259.869 405.217L263.196 404.108"/>
<path class="l4" d="M263.196 399.672L263.196 404.108"/>
<path class="l4" d="M263.196 466.217L263.196 470.653"/>
<path class="l4" d="M263.196 466.217L266.523 465.108"/>
<path class="l4" d="M259.869 462.89L266.523 465.108"/>
<path class="l4" d="M259.869 462.89L266.523 460.671"/>
<path class="l4" d="M259.869 458.453L266.523 460.671"/>
<path class="l4" d="M259.869 458.453L266.523 456.235"/>
<path class="l4" d="M259.869 454.017L266.523 456.235"/>
<path class="l4" d="M259.869 454.017L266.523 451.799"/>
<path class="l4" d="M259.869 449.581L266.523 451.799"/>
<path class="l4" d="M259.869 449.581L263.196 448.472"/>
<path class="l4" d="M263.196 444.035L263.196 448.472"/>
<path class="l4" d="M466.158 176.746L466.158 196.71"/>
<path class="l4" d="M471.703 173.419L471.703 178.965"/>
<path class="l4" d="M471.703 194.492L471.703 200.037"/>
<path class="l4" d="M463.94 180.074L463.94 193.383"/>
<path class="l4" d="M466.158 194.492L471.703 194.492"/>
<path class="l4" d="M468.376 178.965L471.703 178.965"/>
<path class="l4" d="M453.958 186.728L459.503 186.728"/>
<path class="l4" d="M468.376 177.856L466.158 178.965L468.376 180.074L468.376 177.856"/>
<circle class="l4" cx="461.722" cy="186.728" r="2.21816" style="fill:none;"/>
<path class="l4" d="M548.23 176.746L548.23 196.71"/>
<path class="l4" d="M542.685 173.419L542.685 178.965"/>
<path class="l4" d="M542.685 194.492L542.685 200.037"/>
<path class="l4" d="M550.448 180.074L550.448 193.383"/>
<path class="l4" d="M542.685 194.492L548.23 194.492"/>
<path class="l4" d="M542.685 178.965L546.012 178.965"/>
<path class="l4" d="M554.885 186.728L560.43 186.728"/>
<path class="l4" d="M546.012 177.856L548.23 178.965L546.012 180.074L546.012 177.856"/>
<circle class="l4" cx="552.666" cy="186.728" r="2.21816" style="fill:none;"/>
<path class="l4" d="M466.158 221.11L466.158 241.073"/>
<path class="l4" d="M453.958 231.091L463.94 231.091"/>
<path class="l4" d="M471.703 217.782L471.703 223.328"/>
<path class="l4" d="M471.703 238.855L471.703 244.4"/>
<path class="l4" d="M463.94 224.437L463.94 237.746"/>
<path class="l4" d="M466.158 223.328L471.703 223.328"/>
<path class="l4" d="M466.158 238.855L469.485 238.855"/>
<path class="l4" d="M469.485 237.746L471.703 238.855L469.485 239.964L469.485 237.746"/>
<path class="l4" d="M548.23 221.11L548.23 241.073"/>
<path class="l4" d="M550.448 231.091L560.43 231.091"/>
<path class="l4" d="M542.685 217.782L542.685 223.328"/>
<path class="l4" d="M542.685 238.855L542.685 244.4"/>
<path class="l4" d="M550.448 224.437L550.448 237.746"/>
<path class="l4" d="M542.685 223.328L548.23 223.328"/>
<path class="l4" d="M544.903 238.855L548.23 238.855"/>
<path class="l4" d="M544.903 237.746L542.685 238.855L544.903 239.964L544.903 237.746"/>
<path class="l4" d="M501.649 274.346L501.649 294.309"/>
<path class="l4" d="M489.449 284.327L499.43 284.327"/>
<path class="l4" d="M507.194 271.018L507.194 276.564"/>
<path class="l4" d="M507.194 292.091L507.194 297.636"/>
<path class="l4" d="M499.43 277.673L499.43 290.982"/>
<path class="l4" d="M501.649 276.564L507.194 276.564"/>
<path class="l4" d="M501.649 292.091L504.976 292.091"/>
<path class="l4" d="M504.976 290.982L507.194 292.091L504.976 293.2L504.976 290.982"/>
<path class="l4" d="M409.595 431.835L409.595 444.035"/>
<path class="l4" d="M409.595 417.417L409.595 428.508"/>
<path class="l4" d="M405.158 428.508L414.031 428.508"/>
<path class="l4" style="fill:none;" d="M414.031 432.944 A9.4272 9.4272 0 0 0 405.158 432.944"/>
<path class="l4" d="M670.229 176.746L670.229 196.71"/>
<path class="l4" d="M675.774 173.419L675.774 178.965"/>
<path class="l4" d="M675.774 194.492L675.774 200.037"/>
<path class="l4" d="M668.011 180.074L668.011 193.383"/>
<path class="l4" d="M670.229 194.492L675.774 194.492"/>
<path class="l4" d="M672.447 178.965L675.774 178.965"/>
<path class="l4" d="M658.029 186.728L663.575 186.728"/>
<path class="l4" d="M672.447 177.856L670.229 178.965L672.447 180.074L672.447 177.856"/>
<circle class="l4" cx="665.793" cy="186.728" r="2.21816" style="fill:none;"/>
<path class="l4" d="M670.229 327.582L670.229 347.545"/>
<path class="l4" d="M658.029 337.563L668.011 337.563"/>
<path class="l4" d="M675.774 324.254L675.774 329.8"/>
<path class="l4" d="M675.774 345.327L675.774 350.872"/>
<path class="l4" d="M668.011 330.909L668.011 344.218"/>
<path class="l4" d="M670.229 329.8L675.774 329.8"/>
<path class="l4" d="M670.229 345.327L673.556 345.327"/>
<path class="l4" d="M673.556 344.218L675.774 345.327L673.556 346.436L673.556 344.218"/>
<path class="l4" d="M791.119 178.965L791.119 191.165"/>
<path class="l4" d="M791.119 164.547L791.119 175.637"/>
<path class="l4" d="M786.683 175.637L795.555 175.637"/>
<path class="l4" style="fill:none;" d="M795.555 180.074 A9.4272 9.4272 0 0 0 786.683 180.074"/>
<path class="l4" d="M844.355 346.436L844.355 350.872"/>
<path class="l4" d="M844.355 346.436L847.682 345.327"/>
<path class="l4" d="M841.028 343.109L847.682 345.327"/>
<path class="l4" d="M841.028 343.109L847.682 340.891"/>
<path class="l4" d="M841.028 338.672L847.682 340.891"/>
<path class="l4" d="M841.028 338.672L847.682 336.454"/>
<path class="l4" d="M841.028 334.236L847.682 336.454"/>
<path class="l4" d="M841.028 334.236L847.682 332.018"/>
<path class="l4" d="M841.028 329.8L847.682 332.018"/>
<path class="l4" d="M841.028 329.8L844.355 328.691"/>
<path class="l4" d="M844.355 324.254L844.355 328.691"/>
<path class="l4" d="M794.446 221.11L794.446 241.073"/>
<path class="l4" d="M782.246 231.091L792.228 231.091"/>
<path class="l4" d="M799.992 217.782L799.992 223.328"/>
<path class="l4" d="M799.992 238.855L799.992 244.4"/>
<path class="l4" d="M792.228 224.437L792.228 237.746"/>
<path class="l4" d="M794.446 223.328L799.992 223.328"/>
<path class="l4" d="M794.446 238.855L797.773 238.855"/>
<path class="l4" d="M797.773 237.746L799.992 238.855L797.773 239.964L797.773 237.746"/>
<path class="l5" d="M203.306 185.619L205.524 186.728L203.306 187.837L203.306 185.619"/>
<path class="l5" d="M204.415 198.928L206.633 198.928L206.633 201.146L204.415 201.146L204.415 198.928z"/>
<path class="l5" d="M186.669 185.619L188.887 185.619L188.887 187.837L186.669 187.837L186.669 185.619z"/>
<path class="l5" d="M204.415 172.31L206.633 172.31L206.633 174.528L204.415 174.528L204.415 172.31z"/>
<path class="l5" d="M205.489 186.694L205.558 186.694L205.558 186.763L205.489 186.763L205.489 186.694z"/>
<path class="l5" d="M323.086 185.619L320.868 186.728L323.086 187.837L323.086 185.619"/>
<path class="l5" d="M319.759 198.928L321.977 198.928L321.977 201.146L319.759 201.146L319.759 198.928z"/>
<path class="l5" d="M337.504 185.619L339.723 185.619L339.723 187.837L337.504 187.837L337.504 185.619z"/>
<path class="l5" d="M319.759 172.31L321.977 172.31L321.977 174.528L319.759 174.528L319.759 172.31z"/>
<path class="l5" d="M320.834 186.694L320.903 186.694L320.903 186.763L320.834 186.763L320.834 186.694z"/>
<path class="l5" d="M205.524 336.454L203.306 337.563L205.524 338.672L205.524 336.454"/>
<path class="l5" d="M204.415 323.145L206.633 323.145L206.633 325.363L204.415 325.363L204.415 323.145z"/>
<path class="l5" d="M186.669 336.454L188.887 336.454L188.887 338.672L186.669 338.672L186.669 336.454z"/>
<path class="l5" d="M204.415 349.763L206.633 349.763L206.633 351.981L204.415 351.981L204.415 349.763z"/>
<path class="l5" d="M205.489 337.529L205.558 337.529L205.558 337.598L205.489 337.598L205.489 337.529z"/>
<path class="l5" d="M320.868 336.454L323.086 337.563L320.868 338.672L320.868 336.454"/>
<path class="l5" d="M319.759 323.145L321.977 323.145L321.977 325.363L319.759 325.363L319.759 323.145z"/>
<path class="l5" d="M337.504 336.454L339.723 336.454L339.723 338.672L337.504 338.672L337.504 336.454z"/>
<path class="l5" d="M319.759 349.763L321.977 349.763L321.977 351.981L319.759 351.981L319.759 349.763z"/>
<path class="l5" d="M320.834 337.529L320.903 337.529L320.903 337.598L320.834 337.598L320.834 337.529z"/>
<path class="l5" d="M262.087 425.181L264.305 425.181L264.305 427.399L262.087 427.399L262.087 425.181z"/>
<path class="l5" d="M262.087 398.563L264.305 398.563L264.305 400.781L262.087 400.781L262.087 398.563z"/>
<path class="l5" d="M253.214 411.872L255.432 411.872L255.432 414.09L253.214 414.09L253.214 411.872z"/>
<path class="l5" d="M262.087 469.544L264.305 469.544L264.305 471.762L262.087 471.762L262.087 469.544z"/>
<path class="l5" d="M262.087 442.926L264.305 442.926L264.305 445.144L262.087 445.144L262.087 442.926z"/>
<path class="l5" d="M253.214 456.235L255.432 456.235L255.432 458.453L253.214 458.453L253.214 456.235z"/>
<path class="l5" d="M469.485 185.619L471.703 186.728L469.485 187.837L469.485 185.619"/>
<path class="l5" d="M470.594 198.928L472.812 198.928L472.812 201.146L470.594 201.146L470.594 198.928z"/>
<path class="l5" d="M452.849 185.619L455.067 185.619L455.067 187.837L452.849 187.837L452.849 185.619z"/>
<path class="l5" d="M470.594 172.31L472.812 172.31L472.812 174.528L470.594 174.528L470.594 172.31z"/>
<path class="l5" d="M471.669 186.694L471.738 186.694L471.738 186.763L471.669 186.763L471.669 186.694z"/>
<path class="l5" d="M544.903 185.619L542.685 186.728L544.903 187.837L544.903 185.619"/>
<path class="l5" d="M541.576 198.928L543.794 198.928L543.794 201.146L541.576 201.146L541.576 198.928z"/>
<path class="l5" d="M559.321 185.619L561.539 185.619L561.539 187.837L559.321 187.837L559.321 185.619z"/>
<path class="l5" d="M541.576 172.31L543.794 172.31L543.794 174.528L541.576 174.528L541.576 172.31z"/>
<path class="l5" d="M542.65 186.694L542.719 186.694L542.719 186.763L542.65 186.763L542.65 186.694z"/>
<path class="l5" d="M471.703 229.982L469.485 231.091L471.703 232.201L471.703 229.982"/>
<path class="l5" d="M470.594 216.673L472.812 216.673L472.812 218.892L470.594 218.892L470.594 216.673z"/>
<path class="l5" d="M452.849 229.982L455.067 229.982L455.067 232.201L452.849 232.201L452.849 229.982z"/>
<path class="l5" d="M470.594 243.291L472.812 243.291L472.812 245.51L470.594 245.51L470.594 243.291z"/>
<path class="l5" d="M471.669 231.057L471.738 231.057L471.738 231.126L471.669 231.126L471.669 231.057z"/>
<path class="l5" d="M542.685 229.982L544.903 231.091L542.685 232.201L542.685 229.982"/>
<path class="l5" d="M541.576 216.673L543.794 216.673L543.794 218.892L541.576 218.892L541.576 216.673z"/>
<path class="l5" d="M559.321 229.982L561.539 229.982L561.539 232.201L559.321 232.201L559.321 229.982z"/>
<path class="l5" d="M541.576 243.291L543.794 243.291L543.794 245.51L541.576 245.51L541.576 243.291z"/>
<path class="l5" d="M542.65 231.057L542.719 231.057L542.719 231.126L542.65 231.126L542.65 231.057z"/>
<path class="l5" d="M507.194 283.218L504.976 284.327L507.194 285.436L507.194 283.218"/>
<path class="l5" d="M506.085 269.909L508.303 269.909L508.303 272.127L506.085 272.127L506.085 269.909z"/>
<path class="l5" d="M488.34 283.218L490.558 283.218L490.558 285.436L488.34 285.436L488.34 283.218z"/>
<path class="l5" d="M506.085 296.527L508.303 296.527L508.303 298.745L506.085 298.745L506.085 296.527z"/>
<path class="l5" d="M507.159 284.293L507.229 284.293L507.229 284.362L507.159 284.362L507.159 284.293z"/>
<path class="l5" d="M408.486 416.308L410.704 416.308L410.704 418.526L408.486 418.526L408.486 416.308z"/>
<path class="l5" d="M408.486 442.926L410.704 442.926L410.704 445.144L408.486 445.144L408.486 442.926z"/>
<path class="l5" d="M673.556 185.619L675.774 186.728L673.556 187.837L673.556 185.619"/>
<path class="l5" d="M674.665 198.928L676.884 198.928L676.884 201.146L674.665 201.146L674.665 198.928z"/>
<path class="l5" d="M656.92 185.619L659.138 185.619L659.138 187.837L656.92 187.837L656.92 185.619z"/>
<path class="l5" d="M674.665 172.31L676.884 172.31L676.884 174.528L674.665 174.528L674.665 172.31z"/>
<path class="l5" d="M675.74 186.694L675.809 186.694L675.809 186.763L675.74 186.763L675.74 186.694z"/>
<path class="l5" d="M675.774 336.454L673.556 337.563L675.774 338.672L675.774 336.454"/>
<path class="l5" d="M674.665 323.145L676.884 323.145L676.884 325.363L674.665 325.363L674.665 323.145z"/>
<path class="l5" d="M656.92 336.454L659.138 336.454L659.138 338.672L656.92 338.672L656.92 336.454z"/>
<path class="l5" d="M674.665 349.763L676.884 349.763L676.884 351.981L674.665 351.981L674.665 349.763z"/>
<path class="l5" d="M675.74 337.529L675.809 337.529L675.809 337.598L675.74 337.598L675.74 337.529z"/>
<path class="l5" d="M790.01 163.437L792.228 163.437L792.228 165.656L790.01 165.656L790.01 163.437z"/>
<path class="l5" d="M790.01 190.055L792.228 190.055L792.228 192.274L790.01 192.274L790.01 190.055z"/>
<path class="l5" d="M843.246 349.763L845.464 349.763L845.464 351.981L843.246 351.981L843.246 349.763z"/>
<path class="l5" d="M843.246 323.145L845.464 323.145L845.464 325.363L843.246 325.363L843.246 323.145z"/>
<path class="l5" d="M834.373 336.454L836.591 336.454L836.591 338.672L834.373 338.672L834.373 336.454z"/>
<path class="l5" d="M799.992 229.982L797.773 231.091L799.992 232.201L799.992 229.982"/>
<path class="l5" d="M798.883 216.673L801.101 216.673L801.101 218.892L798.883 218.892L798.883 216.673z"/>
<path class="l5" d="M781.137 229.982L783.355 229.982L783.355 232.201L781.137 232.201L781.137 229.982z"/>
<path class="l5" d="M798.883 243.291L801.101 243.291L801.101 245.51L798.883 245.51L798.883 243.291z"/>
<path class="l5" d="M799.957 231.057L800.026 231.057L800.026 231.126L799.957 231.126L799.957 231.057z"/>
<path class="l5" d="M35.5569 98.0016L36.9432 98.0016"/>
<path class="l5" d="M30.8433 100.22L29.1797 98.0016L30.8433 95.7835L33.8933 95.7835L35.5569 98.0016L33.8933 100.22L30.8433 100.22"/>
<path class="l5" d="M36.3887 97.4471L37.4978 97.4471L37.4978 98.5562L36.3887 98.5562L36.3887 97.4471z"/>
<path class="l5" d="M35.5569 488.398L36.9432 488.398"/>
<path class="l5" d="M30.8433 490.617L29.1797 488.398L30.8433 486.18L33.8933 486.18L35.5569 488.398L33.8933 490.617L30.8433 490.617"/>
<path class="l5" d="M36.3887 487.844L37.4978 487.844L37.4978 488.953L36.3887 488.953L36.3887 487.844z"/>
<path class="l5" d="M720.138 200.037L721.524 200.037"/>
<path class="l5" d="M726.238 202.255L727.901 200.037L726.238 197.819L723.188 197.819L721.524 200.037L723.188 202.255L726.238 202.255"/>
<path class="l5" d="M719.583 199.483L720.692 199.483L720.692 200.592L719.583 200.592L719.583 199.483z"/>
<path class="l5" d="M262.641 221.664L263.75 221.664L263.75 222.773L262.641 222.773L262.641 221.664z"/>
<path class="l5" d="M204.969 261.591L206.078 261.591L206.078 262.7L204.969 262.7L204.969 261.591z"/>
<path class="l5" d="M320.314 261.591L321.423 261.591L321.423 262.7L320.314 262.7L320.314 261.591z"/>
<path class="l5" d="M262.641 381.372L263.75 381.372L263.75 382.481L262.641 382.481L262.641 381.372z"/>
<path class="l5" d="M262.641 434.608L263.75 434.608L263.75 435.717L262.641 435.717L262.641 434.608z"/>
<path class="l5" d="M435.658 212.792L436.767 212.792L436.767 213.901L435.658 213.901L435.658 212.792z"/>
<path class="l5" d="M506.639 270.464L507.749 270.464L507.749 271.573L506.639 271.573L506.639 270.464z"/>
<path class="l5" d="M817.182 216.341L818.291 216.341L818.291 217.45L817.182 217.45L817.182 216.341z"/>
<path class="l5" d="M453.404 230.537L454.513 230.537L454.513 231.646L453.404 231.646L453.404 230.537z"/>
<path class="l5" d="M559.875 230.537L560.984 230.537L560.984 231.646L559.875 231.646L559.875 230.537z"/>
<path class="l5" d="M488.894 283.773L490.003 283.773L490.003 284.882L488.894 284.882L488.894 283.773z"/>
<path class="l5" d="M657.475 186.174L658.584 186.174L658.584 187.283L657.475 187.283L657.475 186.174z"/>
<path class="l5" d="M675.22 323.7L676.329 323.7L676.329 324.809L675.22 324.809L675.22 323.7z"/>
<path class="l5" d="M781.692 230.537L782.801 230.537L782.801 231.646L781.692 231.646L781.692 230.537z"/>
<path class="l5" d="M799.437 243.846L800.546 243.846L800.546 244.955L799.437 244.955L799.437 243.846z"/>
<path class="l1" d="M205.524 98.0016L205.524 173.419"/>
<path class="l1" d="M320.868 98.0016L320.868 173.419"/>
<path class="l1" d="M205.524 98.0016L320.868 98.0016"/>
<path class="l1" d="M320.868 98.0016L471.703 98.0016"/>
<path class="l1" d="M471.703 98.0016L471.703 173.419"/>
<path class="l1" d="M471.703 98.0016L542.685 98.0016"/>
<path class="l1" d="M542.685 98.0016L542.685 173.419"/>
<path class="l1" d="M542.685 98.0016L675.774 98.0016"/>
<path class="l1" d="M675.774 98.0016L675.774 173.419"/>
<path class="l1" d="M675.774 98.0016L791.119 98.0016"/>
<path class="l1" d="M791.119 98.0016L791.119 164.547"/>
<path class="l1" d="M36.9432 98.0016L205.524 98.0016"/>
<path class="l1" d="M205.524 200.037L205.524 337.563"/>
<path class="l1" d="M320.868 200.037L320.868 337.563"/>
<path class="l1" d="M134.542 186.728L187.778 186.728"/>
<path class="l1" d="M134.542 186.728L134.542 222.219"/>
<path class="l1" d="M338.614 186.728L382.977 186.728"/>
<path class="l1" d="M382.977 186.728L382.977 222.219"/>
<path class="l1" d="M134.542 222.219L382.977 222.219"/>
<path class="l1" d="M205.524 350.872L205.524 488.398"/>
<path class="l1" d="M320.868 350.872L320.868 364.181"/>
<path class="l1" d="M263.196 364.181L320.868 364.181"/>
<path class="l1" d="M263.196 364.181L263.196 398.785"/>
<path class="l1" d="M263.196 427.177L263.196 443.148"/>
<path class="l1" d="M263.196 471.54L263.196 488.398"/>
<path class="l1" d="M471.703 200.037L471.703 217.782"/>
<path class="l1" d="M471.703 217.782L542.685 217.782"/>
<path class="l1" d="M542.685 186.728L542.685 217.782"/>
<path class="l1" d="M409.595 217.782L471.703 217.782"/>
<path class="l1" d="M409.595 217.782L409.595 416.53"/>
<path class="l1" d="M542.685 200.037L542.685 222.219"/>
<path class="l1" d="M382.977 222.219L542.685 222.219"/>
<path class="l1" d="M471.703 244.4L471.703 271.018"/>
<path class="l1" d="M471.703 271.018L507.194 271.018"/>
<path class="l1" d="M507.194 271.018L542.685 271.018"/>
<path class="l1" d="M542.685 244.4L542.685 271.018"/>
<path class="l1" d="M507.194 271.018L507.194 297.636"/>
<path class="l1" d="M507.194 297.636L507.194 488.398"/>
<path class="l1" d="M409.595 444.922L409.595 488.398"/>
<path class="l1" d="M675.774 200.037L675.774 217.782"/>
<path class="l1" d="M675.774 217.782L720.138 217.782"/>
<path class="l1" d="M720.138 200.037L720.138 217.782"/>
<path class="l1" d="M675.774 350.872L675.774 488.398"/>
<path class="l1" d="M791.119 192.052L791.119 216.895"/>
<path class="l1" d="M791.119 216.895L844.355 216.895"/>
<path class="l1" d="M844.355 216.895L844.355 351.76"/>
<path class="l1" d="M799.992 244.4L799.992 488.398"/>
<path class="l1" d="M844.355 351.76L844.355 488.398"/>
<path class="l1" d="M36.9432 488.398L205.524 488.398"/>
<path class="l1" d="M205.524 488.398L263.196 488.398"/>
<path class="l1" d="M263.196 488.398L409.595 488.398"/>
<path class="l1" d="M409.595 488.398L507.194 488.398"/>
<path class="l1" d="M507.194 488.398L675.774 488.398"/>
<path class="l1" d="M675.774 488.398L799.992 488.398"/>
<path class="l1" d="M799.992 488.398L844.355 488.398"/>
<circle class="l1" cx="382.977" cy="222.219" r="1.77453"/>
<circle class="l1" cx="205.524" cy="98.0016" r="1.77453"/>
<circle class="l1" cx="205.524" cy="98.0016" r="1.77453"/>
<circle class="l1" cx="320.868" cy="98.0016" r="1.77453"/>
<circle class="l1" cx="205.524" cy="98.0016" r="1.77453"/>
<circle class="l1" cx="205.524" cy="488.398" r="1.77453"/>
<circle class="l1" cx="205.524" cy="488.398" r="1.77453"/>
<circle class="l1" cx="263.196" cy="488.398" r="1.77453"/>
<circle class="l1" cx="205.524" cy="488.398" r="1.77453"/>
<circle class="l1" cx="382.977" cy="222.219" r="1.77453"/>
<circle class="l1" cx="382.977" cy="222.219" r="1.77453"/>
<circle class="l1" cx="320.868" cy="98.0016" r="1.77453"/>
<circle class="l1" cx="471.703" cy="98.0016" r="1.77453"/>
<circle class="l1" cx="320.868" cy="98.0016" r="1.77453"/>
<circle class="l1" cx="263.196" cy="488.398" r="1.77453"/>
<circle class="l1" cx="409.595" cy="488.398" r="1.77453"/>
<circle class="l1" cx="263.196" cy="488.398" r="1.77453"/>
<circle class="l1" cx="542.685" cy="200.037" r="1.77453"/>
<circle class="l1" cx="471.703" cy="217.782" r="1.77453"/>
<circle class="l1" cx="542.685" cy="217.782" r="1.77453"/>
<circle class="l1" cx="471.703" cy="217.782" r="1.77453"/>
<circle class="l1" cx="542.685" cy="217.782" r="1.77453"/>
<circle class="l1" cx="471.703" cy="217.782" r="1.77453"/>
<circle class="l1" cx="542.685" cy="98.0016" r="1.77453"/>
<circle class="l1" cx="675.774" cy="98.0016" r="1.77453"/>
<circle class="l1" cx="542.685" cy="98.0016" r="1.77453"/>
<circle class="l1" cx="471.703" cy="98.0016" r="1.77453"/>
<circle class="l1" cx="542.685" cy="98.0016" r="1.77453"/>
<circle class="l1" cx="471.703" cy="98.0016" r="1.77453"/>
<circle class="l1" cx="507.194" cy="488.398" r="1.77453"/>
<circle class="l1" cx="507.194" cy="271.018" r="1.77453"/>
<circle class="l1" cx="507.194" cy="271.018" r="1.77453"/>
<circle class="l1" cx="507.194" cy="271.018" r="1.77453"/>
<circle class="l1" cx="507.194" cy="488.398" r="1.77453"/>
<circle class="l1" cx="675.774" cy="488.398" r="1.77453"/>
<circle class="l1" cx="409.595" cy="488.398" r="1.77453"/>
<circle class="l1" cx="507.194" cy="488.398" r="1.77453"/>
<circle class="l1" cx="409.595" cy="488.398" r="1.77453"/>
<circle class="l1" cx="675.774" cy="98.0016" r="1.77453"/>
<circle class="l1" cx="675.774" cy="98.0016" r="1.77453"/>
<circle class="l1" cx="675.774" cy="488.398" r="1.77453"/>
<circle class="l1" cx="675.774" cy="488.398" r="1.77453"/>
<circle class="l1" cx="799.992" cy="488.398" r="1.77453"/>
<circle class="l1" cx="799.992" cy="488.398" r="1.77453"/>
<circle class="l1" cx="799.992" cy="488.398" r="1.77453"/>
</svg>
