<svg xmlns="http://www.w3.org/2000/svg" xmlns:xlink="http://www.w3.org/1999/xlink" width="900" height="503" version="1.1">
<style type="text/css">
.l0{
 fill: #000000;
  stroke: #000000;
  stroke-linecap:round;
  stroke-linejoin:round;
  stroke-width: 0.270526;
}
.l1{
 fill: #00ccee;
  stroke: #00ccee;
  stroke-linecap:round;
  stroke-linejoin:round;
  stroke-width: 0.270526;
}
.l2{
  fill: none;
  stroke: #3f3f3f;
  stroke-linecap:round;
  stroke-linejoin:round;
  stroke-width: 0.270526;
}
.l3{
 fill: #cccccc; fill-opacity: 0.5;
  stroke: #cccccc;
  stroke-linecap:round;
  stroke-linejoin:round;
  stroke-width: 0.270526;
}
.l4{
 fill: #88dd00;
  stroke: #88dd00;
  stroke-linecap:round;
  stroke-linejoin:round;
  stroke-width: 0.270526;
}
.l5{
 fill: #bb2200;
  stroke: #bb2200;
  stroke-linecap:round;
  stroke-linejoin:round;
  stroke-width: 0.270526;
}
.l6{
 fill: #00ccee; fill-opacity: 0.5;
  stroke: #00ccee;
  stroke-linecap:round;
  stroke-linejoin:round;
  stroke-width: 0.270526;
}
.l7{
 fill: #ff0000; fill-opacity: 0.5;
  stroke: #ff0000;
  stroke-linecap:round;
  stroke-linejoin:round;
  stroke-width: 0.270526;
}
.l8{
 fill: #ffff00; fill-opacity: 0.5;
  stroke: #ffff00;
  stroke-linecap:round;
  stroke-linejoin:round;
  stroke-width: 0.270526;
}
.l9{
 fill: #ffffff; fill-opacity: 0.5;
  stroke: #ffffff;
  stroke-linecap:round;
  stroke-linejoin:round;
  stroke-width: 0.270526;
}
.l10{
 fill: #ff00ff;
  stroke: #ff00ff;
  stroke-linecap:round;
  stroke-linejoin:round;
  stroke-width: 0.270526;
}
.l11{
 fill: #00ff00; fill-opacity: 0.5;
  stroke: #00ff00;
  stroke-linecap:round;
  stroke-linejoin:round;
  stroke-width: 0.270526;
}
.l12{
 fill: #0044dd; fill-opacity: 0.5;
  stroke: #0044dd;
  stroke-linecap:round;
  stroke-linejoin:round;
  stroke-width: 0.270526;
}
.l13{
 fill: #aaaa00; fill-opacity: 0.5;
  stroke: #aaaa00;
  stroke-linecap:round;
  stroke-linejoin:round;
  stroke-width: 0.270526;
}
.l14{
  fill: none;
  stroke: #aaccaa;
  stroke-linecap:round;
  stroke-linejoin:round;
  stroke-width: 0.270526;
}
.l15{
 fill: #ff7777; fill-opacity: 0.5;
  stroke: #ff7777;
  stroke-linecap:round;
  stroke-linejoin:round;
  stroke-width: 0.270526;
}
.l16{
 fill: #bfff81; fill-opacity: 0.5;
  stroke: #bfff81;
  stroke-linecap:round;
  stroke-linejoin:round;
  stroke-width: 0.270526;
}
.l17{
  fill: none;
  stroke: #00ffcc;
  stroke-linecap:round;
  stroke-linejoin:round;
  stroke-width: 0.270526;
}
.l18{
 fill: #ce0097; fill-opacity: 0.5;
  stroke: #ce0097;
  stroke-linecap:round;
  stroke-linejoin:round;
  stroke-width: 0.270526;
}
.l19{
  fill: none;
  stroke: #d2d46b;
  stroke-linecap:round;
  stroke-linejoin:round;
  stroke-width: 0.270526;
}
.l20{
  fill: none;
  stroke: #ef6158;
  stroke-linecap:round;
  stroke-linejoin:round;
  stroke-width: 0.270526;
}
.l21{
  fill: none;
  stroke: #fdb200;
  stroke-linecap:round;
  stroke-linejoin:round;
  stroke-width: 0.270526;
}
text {font-family: Sans-Serif;}
</style>
<rect class="l0" x="0" y="0" width="900" height="503"/>
<text fill="#cccccc"  xml:space="preserve" font-size="7.8152" transform="translate(28.7406, 14.6412)" >VibroSense Folded-Cascode OTA</text>
<text fill="#ffff00"  xml:space="preserve" font-size="4.55887" transform="translate(28.7406, 24.2088)" >SKY130A - 13 Transistors</text>
<text fill="#00ccee"  xml:space="preserve" font-size="4.29836" transform="translate(85.7155, 138.648) rotate(270)" >fold_p</text>
<text fill="#00ccee"  xml:space="preserve" font-size="4.29836" transform="translate(65.6875, 109.608)" >vbp</text>
<text fill="#00ccee"  xml:space="preserve" font-size="4.29836" transform="translate(84.8557, 90.832) rotate(270)" >vdd</text>
<text fill="#00ccee"  xml:space="preserve" font-size="4.29836" transform="translate(77.9789, 109.608)" >vdd</text>
<text fill="#00ccee"  xml:space="preserve" font-size="4.29836" transform="translate(148.337, 138.648) rotate(270)" >fold_p</text>
<text fill="#00ccee"  xml:space="preserve" font-size="4.29836" transform="translate(128.309, 109.608)" >vbp</text>
<text fill="#00ccee"  xml:space="preserve" font-size="4.29836" transform="translate(147.477, 90.832) rotate(270)" >vdd</text>
<text fill="#00ccee"  xml:space="preserve" font-size="4.29836" transform="translate(140.601, 109.608)" >vdd</text>
<text fill="#00ccee"  xml:space="preserve" font-size="4.29836" transform="translate(323.678, 138.648) rotate(270)" >fold_n</text>
<text fill="#00ccee"  xml:space="preserve" font-size="4.29836" transform="translate(303.65, 109.608)" >vbp</text>
<text fill="#00ccee"  xml:space="preserve" font-size="4.29836" transform="translate(322.819, 90.832) rotate(270)" >vdd</text>
<text fill="#00ccee"  xml:space="preserve" font-size="4.29836" transform="translate(315.942, 109.608)" >vdd</text>
<text fill="#00ccee"  xml:space="preserve" font-size="4.29836" transform="translate(373.776, 138.648) rotate(270)" >fold_n</text>
<text fill="#00ccee"  xml:space="preserve" font-size="4.29836" transform="translate(353.748, 109.608)" >vbp</text>
<text fill="#00ccee"  xml:space="preserve" font-size="4.29836" transform="translate(372.916, 90.832) rotate(270)" >vdd</text>
<text fill="#00ccee"  xml:space="preserve" font-size="4.29836" transform="translate(366.039, 109.608)" >vdd</text>
<text fill="#00ccee"  xml:space="preserve" font-size="4.29836" transform="translate(110.764, 236.843) rotate(270)" >cas_p</text>
<text fill="#00ccee"  xml:space="preserve" font-size="4.29836" transform="translate(90.7362, 209.802)" >vbcp</text>
<text fill="#00ccee"  xml:space="preserve" font-size="4.29836" transform="translate(109.904, 191.027) rotate(270)" >fold_p</text>
<text fill="#00ccee"  xml:space="preserve" font-size="4.29836" transform="translate(103.028, 209.802)" >vdd</text>
<text fill="#00ccee"  xml:space="preserve" font-size="4.29836" transform="translate(361.251, 235.843) rotate(270)" >vout</text>
<text fill="#00ccee"  xml:space="preserve" font-size="4.29836" transform="translate(341.223, 209.802)" >vbcp</text>
<text fill="#00ccee"  xml:space="preserve" font-size="4.29836" transform="translate(360.392, 191.027) rotate(270)" >fold_n</text>
<text fill="#00ccee"  xml:space="preserve" font-size="4.29836" transform="translate(353.515, 209.802)" >vdd</text>
<text fill="#00ccee"  xml:space="preserve" font-size="4.29836" transform="translate(109.904, 291.222) rotate(270)" >cas_p</text>
<text fill="#00ccee"  xml:space="preserve" font-size="4.29836" transform="translate(90.7362, 309.997)" >vbcn</text>
<text fill="#00ccee"  xml:space="preserve" font-size="4.29836" transform="translate(110.764, 334.038) rotate(270)" >src7</text>
<text fill="#00ccee"  xml:space="preserve" font-size="4.29836" transform="translate(104.028, 309.997)" >vss</text>
<text fill="#00ccee"  xml:space="preserve" font-size="4.29836" transform="translate(360.392, 291.222) rotate(270)" >vout</text>
<text fill="#00ccee"  xml:space="preserve" font-size="4.29836" transform="translate(341.223, 309.997)" >vbcn</text>
<text fill="#00ccee"  xml:space="preserve" font-size="4.29836" transform="translate(361.251, 334.038) rotate(270)" >src8</text>
<text fill="#00ccee"  xml:space="preserve" font-size="4.29836" transform="translate(354.515, 309.997)" >vss</text>
<text fill="#00ccee"  xml:space="preserve" font-size="4.29836" transform="translate(109.904, 391.417) rotate(270)" >src7</text>
<text fill="#00ccee"  xml:space="preserve" font-size="4.29836" transform="translate(90.7362, 410.192)" >vbn</text>
<text fill="#00ccee"  xml:space="preserve" font-size="4.29836" transform="translate(110.764, 433.232) rotate(270)" >vss</text>
<text fill="#00ccee"  xml:space="preserve" font-size="4.29836" transform="translate(104.028, 410.192)" >vss</text>
<text fill="#00ccee"  xml:space="preserve" font-size="4.29836" transform="translate(360.392, 391.417) rotate(270)" >src8</text>
<text fill="#00ccee"  xml:space="preserve" font-size="4.29836" transform="translate(341.223, 410.192)" >vbn</text>
<text fill="#00ccee"  xml:space="preserve" font-size="4.29836" transform="translate(361.251, 433.232) rotate(270)" >vss</text>
<text fill="#00ccee"  xml:space="preserve" font-size="4.29836" transform="translate(354.515, 410.192)" >vss</text>
<text fill="#00ccee"  xml:space="preserve" font-size="4.29836" transform="translate(187.555, 241.124) rotate(270)" >fold_p</text>
<text fill="#00ccee"  xml:space="preserve" font-size="4.29836" transform="translate(194.708, 259.9)" >vinp</text>
<text fill="#00ccee"  xml:space="preserve" font-size="4.29836" transform="translate(188.415, 281.94) rotate(270)" >tail</text>
<text fill="#00ccee"  xml:space="preserve" font-size="4.29836" transform="translate(183.416, 259.9)" >vss</text>
<text fill="#00ccee"  xml:space="preserve" font-size="4.29836" transform="translate(272.721, 241.124) rotate(270)" >fold_n</text>
<text fill="#00ccee"  xml:space="preserve" font-size="4.29836" transform="translate(253.553, 259.9)" >vinn</text>
<text fill="#00ccee"  xml:space="preserve" font-size="4.29836" transform="translate(273.581, 281.94) rotate(270)" >tail</text>
<text fill="#00ccee"  xml:space="preserve" font-size="4.29836" transform="translate(266.844, 259.9)" >vss</text>
<text fill="#00ccee"  xml:space="preserve" font-size="4.29836" transform="translate(235.148, 341.319) rotate(270)" >tail</text>
<text fill="#00ccee"  xml:space="preserve" font-size="4.29836" transform="translate(215.98, 360.095)" >vbn</text>
<text fill="#00ccee"  xml:space="preserve" font-size="4.29836" transform="translate(236.008, 383.135) rotate(270)" >vss</text>
<text fill="#00ccee"  xml:space="preserve" font-size="4.29836" transform="translate(229.271, 360.095)" >vss</text>
<text fill="#00ccee"  xml:space="preserve" font-size="4.29836" transform="translate(391.593, 259.9)" >vout</text>
<text fill="#00ccee"  xml:space="preserve" font-size="4.29836" transform="translate(139.014, 259.353)" >vinp</text>
<text fill="#00ccee"  xml:space="preserve" font-size="4.29836" transform="translate(289.306, 259.353)" >vinn</text>
<text fill="#00ccee"  xml:space="preserve" font-size="4.29836" transform="translate(421.966, 259.587)" >vout</text>
<text fill="#00ccee"  xml:space="preserve" font-size="4.29836" transform="translate(230.685, 40.1475) rotate(270)" >vdd</text>
<text fill="#00ccee"  xml:space="preserve" font-size="4.29836" transform="translate(230.451, 496.441) rotate(270)" >vss</text>
<text fill="#00ccee"  xml:space="preserve" font-size="4.29836" transform="translate(14.77, 384.597)" >vbn</text>
<text fill="#00ccee"  xml:space="preserve" font-size="4.29836" transform="translate(12.77, 309.451)" >vbcn</text>
<text fill="#00ccee"  xml:space="preserve" font-size="4.29836" transform="translate(14.77, 109.061)" >vbp</text>
<text fill="#00ccee"  xml:space="preserve" font-size="4.29836" transform="translate(12.77, 209.256)" >vbcp</text>
<text fill="#cccccc"  xml:space="preserve" font-size="2.60507" transform="translate(76.0905, 102.591)" >M3</text>
<text fill="#ff0000"  xml:space="preserve" font-size="1.9538" transform="translate(84.474, 113.897)" >D</text>
<text fill="#ff0000"  xml:space="preserve" font-size="1.9538" transform="translate(84.474, 102.889)" >S</text>
<text fill="#ff0000"  xml:space="preserve" font-size="1.9538" transform="translate(83.8478, 107.009)" >B</text>
<text fill="#ff0000"  xml:space="preserve" font-size="1.9538" transform="translate(74.3332, 107.009)" >G</text>
<text fill="#cccccc"  xml:space="preserve" font-size="2.60507" transform="translate(86.3527, 104.926)" >pfet_01v8</text>
<text fill="#aaaa00"  xml:space="preserve" font-size="2.60507" transform="translate(86.6658, 113.549)" >1 x 6u / 14u</text>
<text fill="#aaaa00"  xml:space="preserve" font-size="2.60507" transform="translate(86.6658, 110.418)" >nf=1</text>
<text fill="#cccccc"  xml:space="preserve" font-size="2.60507" transform="translate(136.712, 102.591)" >M12</text>
<text fill="#ff0000"  xml:space="preserve" font-size="1.9538" transform="translate(147.096, 113.897)" >D</text>
<text fill="#ff0000"  xml:space="preserve" font-size="1.9538" transform="translate(147.096, 102.889)" >S</text>
<text fill="#ff0000"  xml:space="preserve" font-size="1.9538" transform="translate(146.47, 107.009)" >B</text>
<text fill="#ff0000"  xml:space="preserve" font-size="1.9538" transform="translate(136.955, 107.009)" >G</text>
<text fill="#cccccc"  xml:space="preserve" font-size="2.60507" transform="translate(148.974, 104.926)" >pfet_01v8</text>
<text fill="#aaaa00"  xml:space="preserve" font-size="2.60507" transform="translate(149.288, 113.549)" >1 x 0.42u / 20u</text>
<text fill="#aaaa00"  xml:space="preserve" font-size="2.60507" transform="translate(149.288, 110.418)" >nf=1</text>
<text fill="#cccccc"  xml:space="preserve" font-size="2.60507" transform="translate(314.053, 102.591)" >M4</text>
<text fill="#ff0000"  xml:space="preserve" font-size="1.9538" transform="translate(322.437, 113.897)" >D</text>
<text fill="#ff0000"  xml:space="preserve" font-size="1.9538" transform="translate(322.437, 102.889)" >S</text>
<text fill="#ff0000"  xml:space="preserve" font-size="1.9538" transform="translate(321.811, 107.009)" >B</text>
<text fill="#ff0000"  xml:space="preserve" font-size="1.9538" transform="translate(312.296, 107.009)" >G</text>
<text fill="#cccccc"  xml:space="preserve" font-size="2.60507" transform="translate(324.316, 104.926)" >pfet_01v8</text>
<text fill="#aaaa00"  xml:space="preserve" font-size="2.60507" transform="translate(324.629, 113.549)" >1 x 6u / 14u</text>
<text fill="#aaaa00"  xml:space="preserve" font-size="2.60507" transform="translate(324.629, 110.418)" >nf=1</text>
<text fill="#cccccc"  xml:space="preserve" font-size="2.60507" transform="translate(362.151, 102.591)" >M13</text>
<text fill="#ff0000"  xml:space="preserve" font-size="1.9538" transform="translate(372.534, 113.897)" >D</text>
<text fill="#ff0000"  xml:space="preserve" font-size="1.9538" transform="translate(372.534, 102.889)" >S</text>
<text fill="#ff0000"  xml:space="preserve" font-size="1.9538" transform="translate(371.908, 107.009)" >B</text>
<text fill="#ff0000"  xml:space="preserve" font-size="1.9538" transform="translate(362.393, 107.009)" >G</text>
<text fill="#cccccc"  xml:space="preserve" font-size="2.60507" transform="translate(374.413, 104.926)" >pfet_01v8</text>
<text fill="#aaaa00"  xml:space="preserve" font-size="2.60507" transform="translate(374.726, 113.549)" >1 x 0.42u / 20u</text>
<text fill="#aaaa00"  xml:space="preserve" font-size="2.60507" transform="translate(374.726, 110.418)" >nf=1</text>
<text fill="#cccccc"  xml:space="preserve" font-size="2.60507" transform="translate(101.139, 202.786)" >M5</text>
<text fill="#ff0000"  xml:space="preserve" font-size="1.9538" transform="translate(109.523, 214.092)" >D</text>
<text fill="#ff0000"  xml:space="preserve" font-size="1.9538" transform="translate(109.523, 203.084)" >S</text>
<text fill="#ff0000"  xml:space="preserve" font-size="1.9538" transform="translate(108.897, 207.204)" >B</text>
<text fill="#ff0000"  xml:space="preserve" font-size="1.9538" transform="translate(99.3819, 207.204)" >G</text>
<text fill="#cccccc"  xml:space="preserve" font-size="2.60507" transform="translate(111.401, 205.12)" >pfet_01v8</text>
<text fill="#aaaa00"  xml:space="preserve" font-size="2.60507" transform="translate(111.714, 213.744)" >1 x 0.42u / 2u</text>
<text fill="#aaaa00"  xml:space="preserve" font-size="2.60507" transform="translate(111.714, 210.613)" >nf=1</text>
<text fill="#cccccc"  xml:space="preserve" font-size="2.60507" transform="translate(351.626, 202.786)" >M6</text>
<text fill="#ff0000"  xml:space="preserve" font-size="1.9538" transform="translate(360.01, 214.092)" >D</text>
<text fill="#ff0000"  xml:space="preserve" font-size="1.9538" transform="translate(360.01, 203.084)" >S</text>
<text fill="#ff0000"  xml:space="preserve" font-size="1.9538" transform="translate(359.384, 207.204)" >B</text>
<text fill="#ff0000"  xml:space="preserve" font-size="1.9538" transform="translate(349.869, 207.204)" >G</text>
<text fill="#cccccc"  xml:space="preserve" font-size="2.60507" transform="translate(361.889, 205.12)" >pfet_01v8</text>
<text fill="#aaaa00"  xml:space="preserve" font-size="2.60507" transform="translate(362.202, 213.744)" >1 x 0.42u / 2u</text>
<text fill="#aaaa00"  xml:space="preserve" font-size="2.60507" transform="translate(362.202, 210.613)" >nf=1</text>
<text fill="#cccccc"  xml:space="preserve" font-size="2.60507" transform="translate(101.139, 302.98)" >M7</text>
<text fill="#ff0000"  xml:space="preserve" font-size="1.9538" transform="translate(109.523, 314.287)" >S</text>
<text fill="#ff0000"  xml:space="preserve" font-size="1.9538" transform="translate(109.523, 303.279)" >D</text>
<text fill="#ff0000"  xml:space="preserve" font-size="1.9538" transform="translate(108.897, 307.399)" >B</text>
<text fill="#ff0000"  xml:space="preserve" font-size="1.9538" transform="translate(99.3819, 307.399)" >G</text>
<text fill="#cccccc"  xml:space="preserve" font-size="2.60507" transform="translate(111.401, 305.315)" >nfet_01v8</text>
<text fill="#aaaa00"  xml:space="preserve" font-size="2.60507" transform="translate(111.714, 313.939)" >1 x 0.36u / 1u</text>
<text fill="#aaaa00"  xml:space="preserve" font-size="2.60507" transform="translate(111.714, 310.808)" >nf=1</text>
<text fill="#cccccc"  xml:space="preserve" font-size="2.60507" transform="translate(351.626, 302.98)" >M8</text>
<text fill="#ff0000"  xml:space="preserve" font-size="1.9538" transform="translate(360.01, 314.287)" >S</text>
<text fill="#ff0000"  xml:space="preserve" font-size="1.9538" transform="translate(360.01, 303.279)" >D</text>
<text fill="#ff0000"  xml:space="preserve" font-size="1.9538" transform="translate(359.384, 307.399)" >B</text>
<text fill="#ff0000"  xml:space="preserve" font-size="1.9538" transform="translate(349.869, 307.399)" >G</text>
<text fill="#cccccc"  xml:space="preserve" font-size="2.60507" transform="translate(361.889, 305.315)" >nfet_01v8</text>
<text fill="#aaaa00"  xml:space="preserve" font-size="2.60507" transform="translate(362.202, 313.939)" >1 x 0.36u / 1u</text>
<text fill="#aaaa00"  xml:space="preserve" font-size="2.60507" transform="translate(362.202, 310.808)" >nf=1</text>
<text fill="#cccccc"  xml:space="preserve" font-size="2.60507" transform="translate(101.139, 403.175)" >M9</text>
<text fill="#ff0000"  xml:space="preserve" font-size="1.9538" transform="translate(109.523, 414.482)" >S</text>
<text fill="#ff0000"  xml:space="preserve" font-size="1.9538" transform="translate(109.523, 403.474)" >D</text>
<text fill="#ff0000"  xml:space="preserve" font-size="1.9538" transform="translate(108.897, 407.594)" >B</text>
<text fill="#ff0000"  xml:space="preserve" font-size="1.9538" transform="translate(99.3819, 407.594)" >G</text>
<text fill="#cccccc"  xml:space="preserve" font-size="2.60507" transform="translate(111.401, 405.51)" >nfet_01v8</text>
<text fill="#aaaa00"  xml:space="preserve" font-size="2.60507" transform="translate(111.714, 414.134)" >1 x 6u / 11u</text>
<text fill="#aaaa00"  xml:space="preserve" font-size="2.60507" transform="translate(111.714, 411.003)" >nf=1</text>
<text fill="#cccccc"  xml:space="preserve" font-size="2.60507" transform="translate(349.626, 403.175)" >M10</text>
<text fill="#ff0000"  xml:space="preserve" font-size="1.9538" transform="translate(360.01, 414.482)" >S</text>
<text fill="#ff0000"  xml:space="preserve" font-size="1.9538" transform="translate(360.01, 403.474)" >D</text>
<text fill="#ff0000"  xml:space="preserve" font-size="1.9538" transform="translate(359.384, 407.594)" >B</text>
<text fill="#ff0000"  xml:space="preserve" font-size="1.9538" transform="translate(349.869, 407.594)" >G</text>
<text fill="#cccccc"  xml:space="preserve" font-size="2.60507" transform="translate(361.889, 405.51)" >nfet_01v8</text>
<text fill="#aaaa00"  xml:space="preserve" font-size="2.60507" transform="translate(362.202, 414.134)" >1 x 6u / 11u</text>
<text fill="#aaaa00"  xml:space="preserve" font-size="2.60507" transform="translate(362.202, 411.003)" >nf=1</text>
<text fill="#cccccc"  xml:space="preserve" font-size="2.60507" transform="translate(190.305, 252.883)" >M1</text>
<text fill="#ff0000"  xml:space="preserve" font-size="1.9538" transform="translate(183.921, 264.19)" >S</text>
<text fill="#ff0000"  xml:space="preserve" font-size="1.9538" transform="translate(183.921, 253.182)" >D</text>
<text fill="#ff0000"  xml:space="preserve" font-size="1.9538" transform="translate(184.548, 257.301)" >B</text>
<text fill="#ff0000"  xml:space="preserve" font-size="1.9538" transform="translate(194.062, 257.301)" >G</text>
<text fill="#cccccc"  xml:space="preserve" font-size="2.60507" transform="translate(169.043, 255.218)" >nfet_01v8</text>
<text fill="#aaaa00"  xml:space="preserve" font-size="2.60507" transform="translate(164.73, 263.842)" >1 x 5u / 14u</text>
<text fill="#aaaa00"  xml:space="preserve" font-size="2.60507" transform="translate(176.73, 260.711)" >nf=1</text>
<text fill="#cccccc"  xml:space="preserve" font-size="2.60507" transform="translate(263.956, 252.883)" >M2</text>
<text fill="#ff0000"  xml:space="preserve" font-size="1.9538" transform="translate(272.339, 264.19)" >S</text>
<text fill="#ff0000"  xml:space="preserve" font-size="1.9538" transform="translate(272.339, 253.182)" >D</text>
<text fill="#ff0000"  xml:space="preserve" font-size="1.9538" transform="translate(271.713, 257.301)" >B</text>
<text fill="#ff0000"  xml:space="preserve" font-size="1.9538" transform="translate(262.199, 257.301)" >G</text>
<text fill="#cccccc"  xml:space="preserve" font-size="2.60507" transform="translate(274.218, 255.218)" >nfet_01v8</text>
<text fill="#aaaa00"  xml:space="preserve" font-size="2.60507" transform="translate(274.531, 263.842)" >1 x 5u / 14u</text>
<text fill="#aaaa00"  xml:space="preserve" font-size="2.60507" transform="translate(274.531, 260.711)" >nf=1</text>
<text fill="#cccccc"  xml:space="preserve" font-size="2.60507" transform="translate(224.383, 353.078)" >M11</text>
<text fill="#ff0000"  xml:space="preserve" font-size="1.9538" transform="translate(234.766, 364.385)" >S</text>
<text fill="#ff0000"  xml:space="preserve" font-size="1.9538" transform="translate(234.766, 353.377)" >D</text>
<text fill="#ff0000"  xml:space="preserve" font-size="1.9538" transform="translate(234.14, 357.496)" >B</text>
<text fill="#ff0000"  xml:space="preserve" font-size="1.9538" transform="translate(224.626, 357.496)" >G</text>
<text fill="#cccccc"  xml:space="preserve" font-size="2.60507" transform="translate(236.645, 355.413)" >nfet_01v8</text>
<text fill="#aaaa00"  xml:space="preserve" font-size="2.60507" transform="translate(236.958, 364.037)" >1 x 3.8u / 4u</text>
<text fill="#aaaa00"  xml:space="preserve" font-size="2.60507" transform="translate(236.958, 360.906)" >nf=1</text>
<path class="l4" d="M80.7167 102.104L80.7167 113.376"/>
<path class="l4" d="M83.8478 100.225L83.8478 103.356"/>
<path class="l4" d="M83.8478 112.123L83.8478 115.255"/>
<path class="l4" d="M79.4643 103.983L79.4643 111.497"/>
<path class="l4" d="M80.7167 112.123L83.8478 112.123"/>
<path class="l4" d="M81.9691 103.356L83.8478 103.356"/>
<path class="l4" d="M73.8283 107.74L76.9594 107.74"/>
<path class="l4" d="M81.9691 102.73L80.7167 103.356L81.9691 103.983L81.9691 102.73"/>
<circle class="l4" cx="78.2118" cy="107.74" r="1.25244" style="fill:none;"/>
<path class="l4" d="M143.339 102.104L143.339 113.376"/>
<path class="l4" d="M146.47 100.225L146.47 103.356"/>
<path class="l4" d="M146.47 112.123L146.47 115.255"/>
<path class="l4" d="M142.086 103.983L142.086 111.497"/>
<path class="l4" d="M143.339 112.123L146.47 112.123"/>
<path class="l4" d="M144.591 103.356L146.47 103.356"/>
<path class="l4" d="M136.45 107.74L139.581 107.74"/>
<path class="l4" d="M144.591 102.73L143.339 103.356L144.591 103.983L144.591 102.73"/>
<circle class="l4" cx="140.834" cy="107.74" r="1.25244" style="fill:none;"/>
<path class="l4" d="M318.68 102.104L318.68 113.376"/>
<path class="l4" d="M321.811 100.225L321.811 103.356"/>
<path class="l4" d="M321.811 112.123L321.811 115.255"/>
<path class="l4" d="M317.427 103.983L317.427 111.497"/>
<path class="l4" d="M318.68 112.123L321.811 112.123"/>
<path class="l4" d="M319.932 103.356L321.811 103.356"/>
<path class="l4" d="M311.791 107.74L314.922 107.74"/>
<path class="l4" d="M319.932 102.73L318.68 103.356L319.932 103.983L319.932 102.73"/>
<circle class="l4" cx="316.175" cy="107.74" r="1.25244" style="fill:none;"/>
<path class="l4" d="M368.777 102.104L368.777 113.376"/>
<path class="l4" d="M371.908 100.225L371.908 103.356"/>
<path class="l4" d="M371.908 112.123L371.908 115.255"/>
<path class="l4" d="M367.525 103.983L367.525 111.497"/>
<path class="l4" d="M368.777 112.123L371.908 112.123"/>
<path class="l4" d="M370.029 103.356L371.908 103.356"/>
<path class="l4" d="M361.889 107.74L365.02 107.74"/>
<path class="l4" d="M370.029 102.73L368.777 103.356L370.029 103.983L370.029 102.73"/>
<circle class="l4" cx="366.272" cy="107.74" r="1.25244" style="fill:none;"/>
<path class="l4" d="M105.765 202.299L105.765 213.571"/>
<path class="l4" d="M108.897 200.42L108.897 203.551"/>
<path class="l4" d="M108.897 212.318L108.897 215.449"/>
<path class="l4" d="M104.513 204.177L104.513 211.692"/>
<path class="l4" d="M105.765 212.318L108.897 212.318"/>
<path class="l4" d="M107.018 203.551L108.897 203.551"/>
<path class="l4" d="M98.877 207.935L102.008 207.935"/>
<path class="l4" d="M107.018 202.925L105.765 203.551L107.018 204.177L107.018 202.925"/>
<circle class="l4" cx="103.261" cy="207.935" r="1.25244" style="fill:none;"/>
<path class="l4" d="M356.253 202.299L356.253 213.571"/>
<path class="l4" d="M359.384 200.42L359.384 203.551"/>
<path class="l4" d="M359.384 212.318L359.384 215.449"/>
<path class="l4" d="M355 204.177L355 211.692"/>
<path class="l4" d="M356.253 212.318L359.384 212.318"/>
<path class="l4" d="M357.505 203.551L359.384 203.551"/>
<path class="l4" d="M349.364 207.935L352.495 207.935"/>
<path class="l4" d="M357.505 202.925L356.253 203.551L357.505 204.177L357.505 202.925"/>
<circle class="l4" cx="353.748" cy="207.935" r="1.25244" style="fill:none;"/>
<path class="l4" d="M105.765 302.494L105.765 313.766"/>
<path class="l4" d="M98.877 308.13L104.513 308.13"/>
<path class="l4" d="M108.897 300.615L108.897 303.746"/>
<path class="l4" d="M108.897 312.513L108.897 315.644"/>
<path class="l4" d="M104.513 304.372L104.513 311.887"/>
<path class="l4" d="M105.765 303.746L108.897 303.746"/>
<path class="l4" d="M105.765 312.513L107.644 312.513"/>
<path class="l4" d="M107.644 311.887L108.897 312.513L107.644 313.139L107.644 311.887"/>
<path class="l4" d="M356.253 302.494L356.253 313.766"/>
<path class="l4" d="M349.364 308.13L355 308.13"/>
<path class="l4" d="M359.384 300.615L359.384 303.746"/>
<path class="l4" d="M359.384 312.513L359.384 315.644"/>
<path class="l4" d="M355 304.372L355 311.887"/>
<path class="l4" d="M356.253 303.746L359.384 303.746"/>
<path class="l4" d="M356.253 312.513L358.131 312.513"/>
<path class="l4" d="M358.131 311.887L359.384 312.513L358.131 313.139L358.131 311.887"/>
<path class="l4" d="M105.765 402.689L105.765 413.961"/>
<path class="l4" d="M98.877 408.325L104.513 408.325"/>
<path class="l4" d="M108.897 400.81L108.897 403.941"/>
<path class="l4" d="M108.897 412.708L108.897 415.839"/>
<path class="l4" d="M104.513 404.567L104.513 412.082"/>
<path class="l4" d="M105.765 403.941L108.897 403.941"/>
<path class="l4" d="M105.765 412.708L107.644 412.708"/>
<path class="l4" d="M107.644 412.082L108.897 412.708L107.644 413.334L107.644 412.082"/>
<path class="l4" d="M356.253 402.689L356.253 413.961"/>
<path class="l4" d="M349.364 408.325L355 408.325"/>
<path class="l4" d="M359.384 400.81L359.384 403.941"/>
<path class="l4" d="M359.384 412.708L359.384 415.839"/>
<path class="l4" d="M355 404.567L355 412.082"/>
<path class="l4" d="M356.253 403.941L359.384 403.941"/>
<path class="l4" d="M356.253 412.708L358.131 412.708"/>
<path class="l4" d="M358.131 412.082L359.384 412.708L358.131 413.334L358.131 412.082"/>
<path class="l4" d="M189.679 252.396L189.679 263.668"/>
<path class="l4" d="M190.931 258.032L196.567 258.032"/>
<path class="l4" d="M186.548 250.518L186.548 253.649"/>
<path class="l4" d="M186.548 262.416L186.548 265.547"/>
<path class="l4" d="M190.931 254.275L190.931 261.79"/>
<path class="l4" d="M186.548 253.649L189.679 253.649"/>
<path class="l4" d="M187.8 262.416L189.679 262.416"/>
<path class="l4" d="M187.8 261.79L186.548 262.416L187.8 263.042L187.8 261.79"/>
<path class="l4" d="M268.582 252.396L268.582 263.668"/>
<path class="l4" d="M261.694 258.032L267.33 258.032"/>
<path class="l4" d="M271.713 250.518L271.713 253.649"/>
<path class="l4" d="M271.713 262.416L271.713 265.547"/>
<path class="l4" d="M267.33 254.275L267.33 261.79"/>
<path class="l4" d="M268.582 253.649L271.713 253.649"/>
<path class="l4" d="M268.582 262.416L270.461 262.416"/>
<path class="l4" d="M270.461 261.79L271.713 262.416L270.461 263.042L270.461 261.79"/>
<path class="l4" d="M231.009 352.591L231.009 363.863"/>
<path class="l4" d="M224.121 358.227L229.757 358.227"/>
<path class="l4" d="M234.14 350.713L234.14 353.844"/>
<path class="l4" d="M234.14 362.611L234.14 365.742"/>
<path class="l4" d="M229.757 354.47L229.757 361.984"/>
<path class="l4" d="M231.009 353.844L234.14 353.844"/>
<path class="l4" d="M231.009 362.611L232.888 362.611"/>
<path class="l4" d="M232.888 361.984L234.14 362.611L232.888 363.237L232.888 361.984"/>
<path class="l5" d="M82.5953 107.114L83.8478 107.74L82.5953 108.366L82.5953 107.114"/>
<path class="l5" d="M83.2216 114.628L84.474 114.628L84.474 115.881L83.2216 115.881L83.2216 114.628z"/>
<path class="l5" d="M73.2021 107.114L74.4545 107.114L74.4545 108.366L73.2021 108.366L73.2021 107.114z"/>
<path class="l5" d="M83.2216 99.5991L84.474 99.5991L84.474 100.851L83.2216 100.851L83.2216 99.5991z"/>
<path class="l5" d="M83.8282 107.72L83.8674 107.72L83.8674 107.759L83.8282 107.759L83.8282 107.72z"/>
<path class="l5" d="M83.5347 122.456L84.1609 122.456L84.1609 123.082L83.5347 123.082L83.5347 122.456z"/>
<path class="l5" d="M63.4957 107.427L64.1219 107.427L64.1219 108.053L63.4957 108.053L63.4957 107.427z"/>
<path class="l5" d="M83.5347 92.3975L84.1609 92.3975L84.1609 93.0238L83.5347 93.0238L83.5347 92.3975z"/>
<path class="l5" d="M88.5444 107.427L89.1706 107.427L89.1706 108.053L88.5444 108.053L88.5444 107.427z"/>
<path class="l5" d="M145.217 107.114L146.47 107.74L145.217 108.366L145.217 107.114"/>
<path class="l5" d="M145.843 114.628L147.096 114.628L147.096 115.881L145.843 115.881L145.843 114.628z"/>
<path class="l5" d="M135.824 107.114L137.076 107.114L137.076 108.366L135.824 108.366L135.824 107.114z"/>
<path class="l5" d="M145.843 99.5991L147.096 99.5991L147.096 100.851L145.843 100.851L145.843 99.5991z"/>
<path class="l5" d="M146.45 107.72L146.489 107.72L146.489 107.759L146.45 107.759L146.45 107.72z"/>
<path class="l5" d="M146.156 122.456L146.783 122.456L146.783 123.082L146.156 123.082L146.156 122.456z"/>
<path class="l5" d="M126.118 107.427L126.744 107.427L126.744 108.053L126.118 108.053L126.118 107.427z"/>
<path class="l5" d="M146.156 92.3975L146.783 92.3975L146.783 93.0238L146.156 93.0238L146.156 92.3975z"/>
<path class="l5" d="M151.166 107.427L151.792 107.427L151.792 108.053L151.166 108.053L151.166 107.427z"/>
<path class="l5" d="M320.558 107.114L321.811 107.74L320.558 108.366L320.558 107.114"/>
<path class="l5" d="M321.184 114.628L322.437 114.628L322.437 115.881L321.184 115.881L321.184 114.628z"/>
<path class="l5" d="M311.165 107.114L312.417 107.114L312.417 108.366L311.165 108.366L311.165 107.114z"/>
<path class="l5" d="M321.184 99.5991L322.437 99.5991L322.437 100.851L321.184 100.851L321.184 99.5991z"/>
<path class="l5" d="M321.791 107.72L321.83 107.72L321.83 107.759L321.791 107.759L321.791 107.72z"/>
<path class="l5" d="M321.498 122.456L322.124 122.456L322.124 123.082L321.498 123.082L321.498 122.456z"/>
<path class="l5" d="M301.459 107.427L302.085 107.427L302.085 108.053L301.459 108.053L301.459 107.427z"/>
<path class="l5" d="M321.498 92.3975L322.124 92.3975L322.124 93.0238L321.498 93.0238L321.498 92.3975z"/>
<path class="l5" d="M326.507 107.427L327.134 107.427L327.134 108.053L326.507 108.053L326.507 107.427z"/>
<path class="l5" d="M370.656 107.114L371.908 107.74L370.656 108.366L370.656 107.114"/>
<path class="l5" d="M371.282 114.628L372.534 114.628L372.534 115.881L371.282 115.881L371.282 114.628z"/>
<path class="l5" d="M361.262 107.114L362.515 107.114L362.515 108.366L361.262 108.366L361.262 107.114z"/>
<path class="l5" d="M371.282 99.5991L372.534 99.5991L372.534 100.851L371.282 100.851L371.282 99.5991z"/>
<path class="l5" d="M371.889 107.72L371.928 107.72L371.928 107.759L371.889 107.759L371.889 107.72z"/>
<path class="l5" d="M371.595 122.456L372.221 122.456L372.221 123.082L371.595 123.082L371.595 122.456z"/>
<path class="l5" d="M351.556 107.427L352.182 107.427L352.182 108.053L351.556 108.053L351.556 107.427z"/>
<path class="l5" d="M371.595 92.3975L372.221 92.3975L372.221 93.0238L371.595 93.0238L371.595 92.3975z"/>
<path class="l5" d="M376.605 107.427L377.231 107.427L377.231 108.053L376.605 108.053L376.605 107.427z"/>
<path class="l5" d="M107.644 207.309L108.897 207.935L107.644 208.561L107.644 207.309"/>
<path class="l5" d="M108.27 214.823L109.523 214.823L109.523 216.076L108.27 216.076L108.27 214.823z"/>
<path class="l5" d="M98.2508 207.309L99.5032 207.309L99.5032 208.561L98.2508 208.561L98.2508 207.309z"/>
<path class="l5" d="M108.27 199.794L109.523 199.794L109.523 201.046L108.27 201.046L108.27 199.794z"/>
<path class="l5" d="M108.877 207.915L108.916 207.915L108.916 207.954L108.877 207.954L108.877 207.915z"/>
<path class="l5" d="M108.583 222.651L109.21 222.651L109.21 223.277L108.583 223.277L108.583 222.651z"/>
<path class="l5" d="M88.5444 207.622L89.1706 207.622L89.1706 208.248L88.5444 208.248L88.5444 207.622z"/>
<path class="l5" d="M108.583 192.592L109.21 192.592L109.21 193.219L108.583 193.219L108.583 192.592z"/>
<path class="l5" d="M113.593 207.622L114.219 207.622L114.219 208.248L113.593 208.248L113.593 207.622z"/>
<path class="l5" d="M358.131 207.309L359.384 207.935L358.131 208.561L358.131 207.309"/>
<path class="l5" d="M358.758 214.823L360.01 214.823L360.01 216.076L358.758 216.076L358.758 214.823z"/>
<path class="l5" d="M348.738 207.309L349.99 207.309L349.99 208.561L348.738 208.561L348.738 207.309z"/>
<path class="l5" d="M358.758 199.794L360.01 199.794L360.01 201.046L358.758 201.046L358.758 199.794z"/>
<path class="l5" d="M359.364 207.915L359.403 207.915L359.403 207.954L359.364 207.954L359.364 207.915z"/>
<path class="l5" d="M359.071 222.651L359.697 222.651L359.697 223.277L359.071 223.277L359.071 222.651z"/>
<path class="l5" d="M339.032 207.622L339.658 207.622L339.658 208.248L339.032 208.248L339.032 207.622z"/>
<path class="l5" d="M359.071 192.592L359.697 192.592L359.697 193.219L359.071 193.219L359.071 192.592z"/>
<path class="l5" d="M364.08 207.622L364.707 207.622L364.707 208.248L364.08 208.248L364.08 207.622z"/>
<path class="l5" d="M108.897 307.503L107.644 308.13L108.897 308.756L108.897 307.503"/>
<path class="l5" d="M108.27 299.989L109.523 299.989L109.523 301.241L108.27 301.241L108.27 299.989z"/>
<path class="l5" d="M98.2508 307.503L99.5032 307.503L99.5032 308.756L98.2508 308.756L98.2508 307.503z"/>
<path class="l5" d="M108.27 315.018L109.523 315.018L109.523 316.271L108.27 316.271L108.27 315.018z"/>
<path class="l5" d="M108.877 308.11L108.916 308.11L108.916 308.149L108.877 308.149L108.877 308.11z"/>
<path class="l5" d="M108.583 292.787L109.21 292.787L109.21 293.414L108.583 293.414L108.583 292.787z"/>
<path class="l5" d="M88.5444 307.817L89.1706 307.817L89.1706 308.443L88.5444 308.443L88.5444 307.817z"/>
<path class="l5" d="M108.583 322.846L109.21 322.846L109.21 323.472L108.583 323.472L108.583 322.846z"/>
<path class="l5" d="M113.593 307.817L114.219 307.817L114.219 308.443L113.593 308.443L113.593 307.817z"/>
<path class="l5" d="M359.384 307.503L358.131 308.13L359.384 308.756L359.384 307.503"/>
<path class="l5" d="M358.758 299.989L360.01 299.989L360.01 301.241L358.758 301.241L358.758 299.989z"/>
<path class="l5" d="M348.738 307.503L349.99 307.503L349.99 308.756L348.738 308.756L348.738 307.503z"/>
<path class="l5" d="M358.758 315.018L360.01 315.018L360.01 316.271L358.758 316.271L358.758 315.018z"/>
<path class="l5" d="M359.364 308.11L359.403 308.11L359.403 308.149L359.364 308.149L359.364 308.11z"/>
<path class="l5" d="M359.071 292.787L359.697 292.787L359.697 293.414L359.071 293.414L359.071 292.787z"/>
<path class="l5" d="M339.032 307.817L339.658 307.817L339.658 308.443L339.032 308.443L339.032 307.817z"/>
<path class="l5" d="M359.071 322.846L359.697 322.846L359.697 323.472L359.071 323.472L359.071 322.846z"/>
<path class="l5" d="M364.08 307.817L364.707 307.817L364.707 308.443L364.08 308.443L364.08 307.817z"/>
<path class="l5" d="M108.897 407.698L107.644 408.325L108.897 408.951L108.897 407.698"/>
<path class="l5" d="M108.27 400.184L109.523 400.184L109.523 401.436L108.27 401.436L108.27 400.184z"/>
<path class="l5" d="M98.2508 407.698L99.5032 407.698L99.5032 408.951L98.2508 408.951L98.2508 407.698z"/>
<path class="l5" d="M108.27 415.213L109.523 415.213L109.523 416.465L108.27 416.465L108.27 415.213z"/>
<path class="l5" d="M108.877 408.305L108.916 408.305L108.916 408.344L108.877 408.344L108.877 408.305z"/>
<path class="l5" d="M108.583 392.982L109.21 392.982L109.21 393.608L108.583 393.608L108.583 392.982z"/>
<path class="l5" d="M88.5444 408.011L89.1706 408.011L89.1706 408.638L88.5444 408.638L88.5444 408.011z"/>
<path class="l5" d="M108.583 423.041L109.21 423.041L109.21 423.667L108.583 423.667L108.583 423.041z"/>
<path class="l5" d="M113.593 408.011L114.219 408.011L114.219 408.638L113.593 408.638L113.593 408.011z"/>
<path class="l5" d="M359.384 407.698L358.131 408.325L359.384 408.951L359.384 407.698"/>
<path class="l5" d="M358.758 400.184L360.01 400.184L360.01 401.436L358.758 401.436L358.758 400.184z"/>
<path class="l5" d="M348.738 407.698L349.99 407.698L349.99 408.951L348.738 408.951L348.738 407.698z"/>
<path class="l5" d="M358.758 415.213L360.01 415.213L360.01 416.465L358.758 416.465L358.758 415.213z"/>
<path class="l5" d="M359.364 408.305L359.403 408.305L359.403 408.344L359.364 408.344L359.364 408.305z"/>
<path class="l5" d="M359.071 392.982L359.697 392.982L359.697 393.608L359.071 393.608L359.071 392.982z"/>
<path class="l5" d="M339.032 408.011L339.658 408.011L339.658 408.638L339.032 408.638L339.032 408.011z"/>
<path class="l5" d="M359.071 423.041L359.697 423.041L359.697 423.667L359.071 423.667L359.071 423.041z"/>
<path class="l5" d="M364.08 408.011L364.707 408.011L364.707 408.638L364.08 408.638L364.08 408.011z"/>
<path class="l5" d="M186.548 257.406L187.8 258.032L186.548 258.658L186.548 257.406"/>
<path class="l5" d="M185.921 249.891L187.174 249.891L187.174 251.144L185.921 251.144L185.921 249.891z"/>
<path class="l5" d="M195.941 257.406L197.193 257.406L197.193 258.658L195.941 258.658L195.941 257.406z"/>
<path class="l5" d="M185.921 264.921L187.174 264.921L187.174 266.173L185.921 266.173L185.921 264.921z"/>
<path class="l5" d="M186.528 258.013L186.567 258.013L186.567 258.052L186.528 258.052L186.528 258.013z"/>
<path class="l5" d="M186.234 242.69L186.861 242.69L186.861 243.316L186.234 243.316L186.234 242.69z"/>
<path class="l5" d="M206.273 257.719L206.9 257.719L206.9 258.345L206.273 258.345L206.273 257.719z"/>
<path class="l5" d="M186.234 272.748L186.861 272.748L186.861 273.375L186.234 273.375L186.234 272.748z"/>
<path class="l5" d="M181.225 257.719L181.851 257.719L181.851 258.345L181.225 258.345L181.225 257.719z"/>
<path class="l5" d="M271.713 257.406L270.461 258.032L271.713 258.658L271.713 257.406"/>
<path class="l5" d="M271.087 249.891L272.339 249.891L272.339 251.144L271.087 251.144L271.087 249.891z"/>
<path class="l5" d="M261.068 257.406L262.32 257.406L262.32 258.658L261.068 258.658L261.068 257.406z"/>
<path class="l5" d="M271.087 264.921L272.339 264.921L272.339 266.173L271.087 266.173L271.087 264.921z"/>
<path class="l5" d="M271.694 258.013L271.733 258.013L271.733 258.052L271.694 258.052L271.694 258.013z"/>
<path class="l5" d="M271.4 242.69L272.026 242.69L272.026 243.316L271.4 243.316L271.4 242.69z"/>
<path class="l5" d="M251.361 257.719L251.987 257.719L251.987 258.345L251.361 258.345L251.361 257.719z"/>
<path class="l5" d="M271.4 272.748L272.026 272.748L272.026 273.375L271.4 273.375L271.4 272.748z"/>
<path class="l5" d="M276.41 257.719L277.036 257.719L277.036 258.345L276.41 258.345L276.41 257.719z"/>
<path class="l5" d="M234.14 357.601L232.888 358.227L234.14 358.853L234.14 357.601"/>
<path class="l5" d="M233.514 350.086L234.766 350.086L234.766 351.339L233.514 351.339L233.514 350.086z"/>
<path class="l5" d="M223.494 357.601L224.747 357.601L224.747 358.853L223.494 358.853L223.494 357.601z"/>
<path class="l5" d="M233.514 365.116L234.766 365.116L234.766 366.368L233.514 366.368L233.514 365.116z"/>
<path class="l5" d="M234.121 358.208L234.16 358.208L234.16 358.247L234.121 358.247L234.121 358.208z"/>
<path class="l5" d="M233.827 342.885L234.453 342.885L234.453 343.511L233.827 343.511L233.827 342.885z"/>
<path class="l5" d="M213.788 357.914L214.414 357.914L214.414 358.54L213.788 358.54L213.788 357.914z"/>
<path class="l5" d="M233.827 372.943L234.453 372.943L234.453 373.569L233.827 373.569L233.827 372.943z"/>
<path class="l5" d="M238.837 357.914L239.463 357.914L239.463 358.54L238.837 358.54L238.837 357.914z"/>
<path class="l5" d="M404.158 257.719L404.785 257.719L404.785 258.345L404.158 258.345L404.158 257.719z"/>
<path class="l5" d="M153.201 258.032L153.984 258.032"/>
<path class="l5" d="M150.54 256.78L149.601 258.032L150.54 259.285L152.262 259.285L153.201 258.032L152.262 256.78L150.54 256.78"/>
<path class="l5" d="M153.671 257.719L154.297 257.719L154.297 258.345L153.671 258.345L153.671 257.719z"/>
<path class="l5" d="M303.494 258.032L304.277 258.032"/>
<path class="l5" d="M300.832 256.78L299.893 258.032L300.832 259.285L302.554 259.285L303.494 258.032L302.554 256.78L300.832 256.78"/>
<path class="l5" d="M303.963 257.719L304.59 257.719L304.59 258.345L303.963 258.345L303.963 257.719z"/>
<path class="l5" d="M416.996 258.032L417.779 258.032"/>
<path class="l5" d="M420.44 259.285L421.379 258.032L420.44 256.78L418.718 256.78L417.779 258.032L418.718 259.285L420.44 259.285"/>
<path class="l5" d="M416.683 257.719L417.309 257.719L417.309 258.345L416.683 258.345L416.683 257.719z"/>
<path class="l5" d="M229.13 44.3353L229.13 45.1181"/>
<path class="l5" d="M230.383 41.6739L229.13 40.7346L227.878 41.6739L227.878 43.396L229.13 44.3353L230.383 43.396L230.383 41.6739"/>
<path class="l5" d="M228.817 44.805L229.443 44.805L229.443 45.4312L228.817 45.4312L228.817 44.805z"/>
<path class="l5" d="M229.13 483.471L229.13 484.254"/>
<path class="l5" d="M227.878 486.915L229.13 487.854L230.383 486.915L230.383 485.193L229.13 484.254L227.878 485.193L227.878 486.915"/>
<path class="l5" d="M228.817 483.158L229.443 483.158L229.443 483.784L228.817 483.784L228.817 483.158z"/>
<path class="l5" d="M27.9578 383.276L28.7406 383.276"/>
<path class="l5" d="M25.2964 382.023L24.3571 383.276L25.2964 384.528L27.0185 384.528L27.9578 383.276L27.0185 382.023L25.2964 382.023"/>
<path class="l5" d="M28.4275 382.963L29.0537 382.963L29.0537 383.589L28.4275 383.589L28.4275 382.963z"/>
<path class="l5" d="M27.9578 308.13L28.7406 308.13"/>
<path class="l5" d="M25.2964 306.877L24.3571 308.13L25.2964 309.382L27.0185 309.382L27.9578 308.13L27.0185 306.877L25.2964 306.877"/>
<path class="l5" d="M28.4275 307.817L29.0537 307.817L29.0537 308.443L28.4275 308.443L28.4275 307.817z"/>
<path class="l5" d="M27.9578 107.74L28.7406 107.74"/>
<path class="l5" d="M25.2964 106.487L24.3571 107.74L25.2964 108.992L27.0185 108.992L27.9578 107.74L27.0185 106.487L25.2964 106.487"/>
<path class="l5" d="M28.4275 107.427L29.0537 107.427L29.0537 108.053L28.4275 108.053L28.4275 107.427z"/>
<path class="l5" d="M27.9578 207.935L28.7406 207.935"/>
<path class="l5" d="M25.2964 206.682L24.3571 207.935L25.2964 209.187L27.0185 209.187L27.9578 207.935L27.0185 206.682L25.2964 206.682"/>
<path class="l5" d="M28.4275 207.622L29.0537 207.622L29.0537 208.248L28.4275 208.248L28.4275 207.622z"/>
<path class="l1" d="M83.8478 115.255L83.8478 122.769"/>
<path class="l1" d="M63.8088 107.74L73.8283 107.74"/>
<path class="l1" d="M83.8478 92.7107L83.8478 100.225"/>
<path class="l1" d="M83.8478 107.74L88.8575 107.74"/>
<path class="l1" d="M146.47 115.255L146.47 122.769"/>
<path class="l1" d="M126.431 107.74L136.45 107.74"/>
<path class="l1" d="M146.47 92.7107L146.47 100.225"/>
<path class="l1" d="M146.47 107.74L151.479 107.74"/>
<path class="l1" d="M321.811 115.255L321.811 122.769"/>
<path class="l1" d="M301.772 107.74L311.791 107.74"/>
<path class="l1" d="M321.811 92.7107L321.811 100.225"/>
<path class="l1" d="M321.811 107.74L326.82 107.74"/>
<path class="l1" d="M371.908 115.255L371.908 122.769"/>
<path class="l1" d="M351.869 107.74L361.889 107.74"/>
<path class="l1" d="M371.908 92.7107L371.908 100.225"/>
<path class="l1" d="M371.908 107.74L376.918 107.74"/>
<path class="l1" d="M108.897 215.449L108.897 222.964"/>
<path class="l1" d="M88.8575 207.935L98.877 207.935"/>
<path class="l1" d="M108.897 192.906L108.897 200.42"/>
<path class="l1" d="M108.897 207.935L113.906 207.935"/>
<path class="l1" d="M359.384 215.449L359.384 222.964"/>
<path class="l1" d="M339.345 207.935L349.364 207.935"/>
<path class="l1" d="M359.384 192.906L359.384 200.42"/>
<path class="l1" d="M359.384 207.935L364.393 207.935"/>
<path class="l1" d="M108.897 293.1L108.897 300.615"/>
<path class="l1" d="M88.8575 308.13L98.877 308.13"/>
<path class="l1" d="M108.897 315.644L108.897 323.159"/>
<path class="l1" d="M108.897 308.13L113.906 308.13"/>
<path class="l1" d="M359.384 293.1L359.384 300.615"/>
<path class="l1" d="M339.345 308.13L349.364 308.13"/>
<path class="l1" d="M359.384 315.644L359.384 323.159"/>
<path class="l1" d="M359.384 308.13L364.393 308.13"/>
<path class="l1" d="M108.897 393.295L108.897 400.81"/>
<path class="l1" d="M88.8575 408.325L98.877 408.325"/>
<path class="l1" d="M108.897 415.839L108.897 423.354"/>
<path class="l1" d="M108.897 408.325L113.906 408.325"/>
<path class="l1" d="M359.384 393.295L359.384 400.81"/>
<path class="l1" d="M339.345 408.325L349.364 408.325"/>
<path class="l1" d="M359.384 415.839L359.384 423.354"/>
<path class="l1" d="M359.384 408.325L364.393 408.325"/>
<path class="l1" d="M186.548 243.003L186.548 250.518"/>
<path class="l1" d="M196.567 258.032L206.587 258.032"/>
<path class="l1" d="M186.548 265.547L186.548 273.061"/>
<path class="l1" d="M181.538 258.032L186.548 258.032"/>
<path class="l1" d="M271.713 243.003L271.713 250.518"/>
<path class="l1" d="M251.674 258.032L261.694 258.032"/>
<path class="l1" d="M271.713 265.547L271.713 273.061"/>
<path class="l1" d="M271.713 258.032L276.723 258.032"/>
<path class="l1" d="M234.14 343.198L234.14 350.713"/>
<path class="l1" d="M214.101 358.227L224.121 358.227"/>
<path class="l1" d="M234.14 365.742L234.14 373.256"/>
<path class="l1" d="M234.14 358.227L239.15 358.227"/>
<path class="l1" d="M83.8478 115.255L83.8478 157.837"/>
<path class="l1" d="M146.47 115.255L146.47 157.837"/>
<path class="l1" d="M83.8478 157.837L146.47 157.837"/>
<path class="l1" d="M108.897 157.837L108.897 200.42"/>
<path class="l1" d="M321.811 115.255L321.811 157.837"/>
<path class="l1" d="M371.908 115.255L371.908 157.837"/>
<path class="l1" d="M321.811 157.837L371.908 157.837"/>
<path class="l1" d="M359.384 157.837L359.384 200.42"/>
<path class="l1" d="M108.897 215.449L108.897 300.615"/>
<path class="l1" d="M359.384 215.449L359.384 300.615"/>
<path class="l1" d="M108.897 315.644L108.897 400.81"/>
<path class="l1" d="M359.384 315.644L359.384 400.81"/>
<path class="l1" d="M186.548 265.547L186.548 333.178"/>
<path class="l1" d="M271.713 265.547L271.713 333.178"/>
<path class="l1" d="M186.548 333.178L271.713 333.178"/>
<path class="l1" d="M234.14 333.178L234.14 350.713"/>
<path class="l1" d="M186.548 243.003L186.548 250.518"/>
<path class="l1" d="M271.713 243.003L271.713 250.518"/>
<path class="l1" d="M53.7893 57.6424L404.471 57.6424"/>
<path class="l1" d="M83.8478 57.6424L83.8478 100.225"/>
<path class="l1" d="M146.47 57.6424L146.47 100.225"/>
<path class="l1" d="M321.811 57.6424L321.811 100.225"/>
<path class="l1" d="M371.908 57.6424L371.908 100.225"/>
<path class="l1" d="M53.7893 470.946L404.471 470.946"/>
<path class="l1" d="M108.897 415.839L108.897 470.946"/>
<path class="l1" d="M359.384 415.839L359.384 470.946"/>
<path class="l1" d="M234.14 365.742L234.14 470.946"/>
<path class="l1" d="M359.384 258.032L404.471 258.032"/>
<path class="l1" d="M229.13 45.1181L229.13 57.6424"/>
<path class="l1" d="M229.13 470.946L229.13 483.471"/>
<path class="l1" d="M153.984 258.032L181.538 258.032"/>
<path class="l1" d="M276.723 258.032L304.277 258.032"/>
<path class="l1" d="M28.7406 383.276L88.8575 383.276"/>
<path class="l1" d="M88.8575 383.276L88.8575 408.325"/>
<path class="l1" d="M28.7406 308.13L93.8673 308.13"/>
<path class="l1" d="M28.7406 107.74L68.8186 107.74"/>
<path class="l1" d="M28.7406 207.935L93.8673 207.935"/>
<circle class="l1" cx="68.8186" cy="107.74" r="1.00195"/>
<circle class="l1" cx="83.8478" cy="57.6424" r="1.00195"/>
<circle class="l1" cx="83.8478" cy="92.7107" r="1.00195"/>
<circle class="l1" cx="63.8088" cy="107.74" r="1.00195"/>
<circle class="l1" cx="83.8478" cy="122.769" r="1.00195"/>
<circle class="l1" cx="93.8673" cy="207.935" r="1.00195"/>
<circle class="l1" cx="108.897" cy="157.837" r="1.00195"/>
<circle class="l1" cx="108.897" cy="192.906" r="1.00195"/>
<circle class="l1" cx="88.8575" cy="207.935" r="1.00195"/>
<circle class="l1" cx="108.897" cy="222.964" r="1.00195"/>
<circle class="l1" cx="93.8673" cy="308.13" r="1.00195"/>
<circle class="l1" cx="108.897" cy="323.159" r="1.00195"/>
<circle class="l1" cx="88.8575" cy="308.13" r="1.00195"/>
<circle class="l1" cx="108.897" cy="293.1" r="1.00195"/>
<circle class="l1" cx="108.897" cy="470.946" r="1.00195"/>
<circle class="l1" cx="108.897" cy="423.354" r="1.00195"/>
<circle class="l1" cx="108.897" cy="393.295" r="1.00195"/>
<circle class="l1" cx="146.47" cy="57.6424" r="1.00195"/>
<circle class="l1" cx="146.47" cy="92.7107" r="1.00195"/>
<circle class="l1" cx="146.47" cy="122.769" r="1.00195"/>
<circle class="l1" cx="186.548" cy="273.061" r="1.00195"/>
<circle class="l1" cx="229.13" cy="57.6424" r="1.00195"/>
<circle class="l1" cx="321.811" cy="57.6424" r="1.00195"/>
<circle class="l1" cx="321.811" cy="92.7107" r="1.00195"/>
<circle class="l1" cx="321.811" cy="122.769" r="1.00195"/>
<circle class="l1" cx="234.14" cy="333.178" r="1.00195"/>
<circle class="l1" cx="234.14" cy="343.198" r="1.00195"/>
<circle class="l1" cx="271.713" cy="273.061" r="1.00195"/>
<circle class="l1" cx="234.14" cy="470.946" r="1.00195"/>
<circle class="l1" cx="234.14" cy="373.256" r="1.00195"/>
<circle class="l1" cx="229.13" cy="470.946" r="1.00195"/>
<circle class="l1" cx="371.908" cy="57.6424" r="1.00195"/>
<circle class="l1" cx="371.908" cy="92.7107" r="1.00195"/>
<circle class="l1" cx="371.908" cy="122.769" r="1.00195"/>
<circle class="l1" cx="359.384" cy="157.837" r="1.00195"/>
<circle class="l1" cx="359.384" cy="192.906" r="1.00195"/>
<circle class="l1" cx="359.384" cy="222.964" r="1.00195"/>
<circle class="l1" cx="359.384" cy="258.032" r="1.00195"/>
<circle class="l1" cx="359.384" cy="323.159" r="1.00195"/>
<circle class="l1" cx="359.384" cy="293.1" r="1.00195"/>
<circle class="l1" cx="359.384" cy="470.946" r="1.00195"/>
<circle class="l1" cx="359.384" cy="423.354" r="1.00195"/>
<circle class="l1" cx="359.384" cy="393.295" r="1.00195"/>
</svg>
