<svg xmlns="http://www.w3.org/2000/svg" width="1600" height="1000" viewBox="0 0 1600 1000" style="background:#0d1117">
<style>
  text { font-family: "Cascadia Code", "JetBrains Mono", "Fira Code", monospace; }
  .wire { stroke: #58a6ff; stroke-width: 1.5; fill: none; }
  .wireh { stroke: #58a6ff; stroke-width: 2; fill: none; }
  .comp { stroke: #7ee787; stroke-width: 1.8; fill: none; }
  .box  { stroke: #484f58; stroke-width: 1; fill: none; stroke-dasharray: 8,4; }
  .sbox { stroke: #7ee787; stroke-width: 1.5; fill: rgba(126,231,135,0.06); }
  .title { fill: #f0f6fc; }
  .sub  { fill: #8b949e; }
  .lbl  { fill: #7ee787; }
  .note { fill: #e3b341; }
  .pin  { fill: #ff7b72; font-weight: bold; }
  .dim  { fill: #6e7681; }
</style>
<text x="30" y="32" class="title" font-size="20" font-weight="bold">VibroSense Block 02 — Programmable Gain Amplifier (PGA)</text>
<text x="30" y="52" class="sub" font-size="12">Capacitive-Feedback  |  4-Gain (1x / 4x / 16x / 64x)  |  SKY130A  |  49 Transistors</text>
<text x="30" y="70" class="note" font-size="11">Gain err &lt;0.15 dB  |  BW = 27 kHz @ 16x  |  THD = 0.19%  |  P = 9.94 µW</text>
<line x1="20" y1="90" x2="1580" y2="90" class="wireh"/>
<line x1="20" y1="950" x2="1580" y2="950" class="wireh"/>
<text x="25" y="86" class="lbl" font-size="11">VDD = 1.8 V</text>
<text x="25" y="964" class="lbl" font-size="11">VSS = 0 V</text>
<rect x="25" y="105" width="390" height="830" class="box"/>
<rect x="435" y="105" width="520" height="830" class="box"/>
<rect x="975" y="105" width="600" height="830" class="box"/>
<text x="35" y="125" class="lbl" font-size="14" font-weight="bold">2-to-4 CMOS Decoder</text>
<text x="35" y="142" class="dim" font-size="10">28 transistors | Static CMOS | &lt;40 nW</text>
<text x="445" y="125" class="lbl" font-size="14" font-weight="bold">Switched Capacitor Network</text>
<text x="985" y="125" class="lbl" font-size="14" font-weight="bold">OTA + Feedback</text>
<text x="32" y="175" class="pin" font-size="13">g1</text>
<text x="32" y="205" class="pin" font-size="13">g0</text>
<line x1="55" y1="170" x2="100" y2="170" class="wire"/>
<line x1="55" y1="200" x2="100" y2="200" class="wire"/>
<rect x="110" y="155" width="80" height="55" class="sbox" rx="4"/>
<text x="118" y="175" class="note" font-size="11">INV</text>
<text x="118" y="195" class="dim" font-size="9">g1 → g1b</text>
<line x1="190" y1="182" x2="215" y2="182" class="wire"/>
<text x="192" y="175" class="lbl" font-size="9">g1b</text>
<rect x="250" y="155" width="80" height="55" class="sbox" rx="4"/>
<text x="258" y="175" class="note" font-size="11">INV</text>
<text x="258" y="195" class="dim" font-size="9">g0 → g0b</text>
<line x1="330" y1="182" x2="355" y2="182" class="wire"/>
<text x="332" y="175" class="lbl" font-size="9">g0b</text>
<line x1="100" y1="170" x2="100" y2="182" class="wire"/>
<line x1="100" y1="182" x2="110" y2="182" class="wire"/>
<line x1="100" y1="200" x2="240" y2="200" class="wire"/>
<line x1="240" y1="200" x2="240" y2="182" class="wire"/>
<line x1="240" y1="182" x2="250" y2="182" class="wire"/>
<rect x="55" y="260" width="115" height="50" class="sbox" rx="4"/>
<text x="63" y="280" class="note" font-size="11">NAND2</text>
<text x="63" y="298" class="dim" font-size="9">(g1b, g0b)</text>
<rect x="200" y="265" width="55" height="40" class="sbox" rx="4"/>
<text x="210" y="290" class="note" font-size="11">INV</text>
<line x1="170" y1="285" x2="200" y2="285" class="wire"/>
<line x1="255" y1="285" x2="400" y2="285" class="wire"/>
<text x="270" y="280" class="lbl" font-size="12" font-weight="bold">sel0</text>
<text x="310" y="280" class="dim" font-size="10">(1x)</text>
<text x="35" y="278" class="dim" font-size="8">g1b</text>
<text x="35" y="298" class="dim" font-size="8">g0b</text>
<rect x="55" y="410" width="115" height="50" class="sbox" rx="4"/>
<text x="63" y="430" class="note" font-size="11">NAND2</text>
<text x="63" y="448" class="dim" font-size="9">(g1b, g0)</text>
<rect x="200" y="415" width="55" height="40" class="sbox" rx="4"/>
<text x="210" y="440" class="note" font-size="11">INV</text>
<line x1="170" y1="435" x2="200" y2="435" class="wire"/>
<line x1="255" y1="435" x2="400" y2="435" class="wire"/>
<text x="270" y="430" class="lbl" font-size="12" font-weight="bold">sel1</text>
<text x="310" y="430" class="dim" font-size="10">(4x)</text>
<text x="35" y="428" class="dim" font-size="8">g1b</text>
<text x="35" y="448" class="dim" font-size="8">g0</text>
<rect x="55" y="560" width="115" height="50" class="sbox" rx="4"/>
<text x="63" y="580" class="note" font-size="11">NAND2</text>
<text x="63" y="598" class="dim" font-size="9">(g1, g0b)</text>
<rect x="200" y="565" width="55" height="40" class="sbox" rx="4"/>
<text x="210" y="590" class="note" font-size="11">INV</text>
<line x1="170" y1="585" x2="200" y2="585" class="wire"/>
<line x1="255" y1="585" x2="400" y2="585" class="wire"/>
<text x="270" y="580" class="lbl" font-size="12" font-weight="bold">sel2</text>
<text x="310" y="580" class="dim" font-size="10">(16x)</text>
<text x="35" y="578" class="dim" font-size="8">g1</text>
<text x="35" y="598" class="dim" font-size="8">g0b</text>
<rect x="55" y="710" width="115" height="50" class="sbox" rx="4"/>
<text x="63" y="730" class="note" font-size="11">NAND2</text>
<text x="63" y="748" class="dim" font-size="9">(g1, g0)</text>
<rect x="200" y="715" width="55" height="40" class="sbox" rx="4"/>
<text x="210" y="740" class="note" font-size="11">INV</text>
<line x1="170" y1="735" x2="200" y2="735" class="wire"/>
<line x1="255" y1="735" x2="400" y2="735" class="wire"/>
<text x="270" y="730" class="lbl" font-size="12" font-weight="bold">sel3</text>
<text x="310" y="730" class="dim" font-size="10">(64x)</text>
<text x="35" y="728" class="dim" font-size="8">g1</text>
<text x="35" y="748" class="dim" font-size="8">g0</text>
<text x="40" y="870" class="dim" font-size="9">NAND: P 0.84/0.15, N 0.84/0.15</text>
<text x="40" y="885" class="dim" font-size="9">Out INV: P 0.84/0.15, N 0.42/0.15</text>
<text x="40" y="900" class="dim" font-size="9">Transistor-level: pga_real.spice</text>
<text x="448" y="175" class="pin" font-size="13">vin</text>
<line x1="500" y1="170" x2="500" y2="860" class="wire"/>
<line x1="870" y1="170" x2="870" y2="860" class="wire"/>
<text x="875" y="530" class="note" font-size="10" transform="rotate(-90,875,530)">inn (virtual ground)</text>
<line x1="500" y1="210" x2="580" y2="210" class="wire"/>
<line x1="580" y1="198" x2="580" y2="222" class="comp" stroke-width="2.5"/>
<line x1="590" y1="198" x2="590" y2="222" class="comp" stroke-width="2.5"/>
<text x="555" y="192" class="lbl" font-size="11">Cin1</text>
<text x="555" y="240" class="dim" font-size="8">1 pF (22.4×22.4)</text>
<line x1="590" y1="210" x2="660" y2="210" class="wire"/>
<circle cx="660" cy="210" r="3" fill="#58a6ff"/>
<text x="650" y="202" class="dim" font-size="8">mid1</text>
<rect x="680" y="195" width="50" height="30" class="sbox" rx="3"/>
<text x="688" y="215" class="note" font-size="10">XS1</text>
<text x="685" y="232" class="dim" font-size="7">W=0.42/L=0.15</text>
<text x="690" y="190" class="lbl" font-size="8">sel0</text>
<line x1="730" y1="210" x2="870" y2="210" class="wire"/>
<line x1="400" y1="210" x2="440" y2="210" class="wire" stroke-dasharray="4,3" stroke="#7ee787" stroke-width="1"/>
<line x1="500" y1="380" x2="580" y2="380" class="wire"/>
<line x1="580" y1="368" x2="580" y2="392" class="comp" stroke-width="2.5"/>
<line x1="590" y1="368" x2="590" y2="392" class="comp" stroke-width="2.5"/>
<text x="555" y="362" class="lbl" font-size="11">Cin2</text>
<text x="555" y="410" class="dim" font-size="8">4 pF (44.7×44.7)</text>
<line x1="590" y1="380" x2="660" y2="380" class="wire"/>
<circle cx="660" cy="380" r="3" fill="#58a6ff"/>
<text x="650" y="372" class="dim" font-size="8">mid2</text>
<rect x="680" y="365" width="50" height="30" class="sbox" rx="3"/>
<text x="688" y="385" class="note" font-size="10">XS2</text>
<text x="685" y="402" class="dim" font-size="7">W=0.42/L=0.15</text>
<text x="690" y="360" class="lbl" font-size="8">sel1</text>
<line x1="730" y1="380" x2="870" y2="380" class="wire"/>
<line x1="400" y1="380" x2="440" y2="380" class="wire" stroke-dasharray="4,3" stroke="#7ee787" stroke-width="1"/>
<line x1="500" y1="550" x2="580" y2="550" class="wire"/>
<line x1="580" y1="538" x2="580" y2="562" class="comp" stroke-width="2.5"/>
<line x1="590" y1="538" x2="590" y2="562" class="comp" stroke-width="2.5"/>
<text x="555" y="532" class="lbl" font-size="11">Cin3</text>
<text x="555" y="580" class="dim" font-size="8">16 pF (89.4×89.4)</text>
<line x1="590" y1="550" x2="660" y2="550" class="wire"/>
<circle cx="660" cy="550" r="3" fill="#58a6ff"/>
<text x="650" y="542" class="dim" font-size="8">mid3</text>
<rect x="680" y="535" width="50" height="30" class="sbox" rx="3"/>
<text x="688" y="555" class="note" font-size="10">XS3</text>
<text x="685" y="572" class="dim" font-size="7">W=1/L=0.15</text>
<text x="690" y="530" class="lbl" font-size="8">sel2</text>
<line x1="730" y1="550" x2="870" y2="550" class="wire"/>
<line x1="400" y1="550" x2="440" y2="550" class="wire" stroke-dasharray="4,3" stroke="#7ee787" stroke-width="1"/>
<line x1="500" y1="720" x2="580" y2="720" class="wire"/>
<line x1="580" y1="708" x2="580" y2="732" class="comp" stroke-width="2.5"/>
<line x1="590" y1="708" x2="590" y2="732" class="comp" stroke-width="2.5"/>
<text x="555" y="702" class="lbl" font-size="11">Cin4</text>
<text x="555" y="750" class="dim" font-size="8">64 pF (178.9×178.9)</text>
<line x1="590" y1="720" x2="660" y2="720" class="wire"/>
<circle cx="660" cy="720" r="3" fill="#58a6ff"/>
<text x="650" y="712" class="dim" font-size="8">mid4</text>
<rect x="680" y="705" width="50" height="30" class="sbox" rx="3"/>
<text x="688" y="725" class="note" font-size="10">XS4</text>
<text x="685" y="742" class="dim" font-size="7">W=5/L=0.15</text>
<text x="690" y="700" class="lbl" font-size="8">sel3</text>
<line x1="730" y1="720" x2="870" y2="720" class="wire"/>
<line x1="400" y1="720" x2="440" y2="720" class="wire" stroke-dasharray="4,3" stroke="#7ee787" stroke-width="1"/>
<text x="450" y="870" class="dim" font-size="9">Mid-node pseudo-R: 4× back-to-back PMOS 0.42/10</text>
<text x="450" y="885" class="dim" font-size="9">~100 GΩ to Vcm  |  bulk=VDD  |  8 transistors</text>
<polygon points="1170,450 1170,610 1330,530" class="comp" fill="rgba(126,231,135,0.04)"/>
<text x="1215" y="536" class="note" font-size="16" font-weight="bold">OTA</text>
<text x="1180" y="500" class="lbl" font-size="16">−</text>
<text x="1180" y="570" class="lbl" font-size="16">+</text>
<text x="1180" y="635" class="note" font-size="10">ota_pga_v2</text>
<text x="1180" y="652" class="dim" font-size="9">2-stage Miller compensated</text>
<text x="1180" y="667" class="dim" font-size="9">UGB = 422 kHz  |  Av = 60 dB</text>
<text x="1180" y="682" class="dim" font-size="9">7 MOSFETs (subcircuit)</text>
<line x1="870" y1="500" x2="990" y2="500" class="wire"/>
<line x1="990" y1="500" x2="990" y2="490" class="wire"/>
<line x1="990" y1="490" x2="1170" y2="490" class="wire"/>
<text x="990" y="574" class="pin" font-size="11">vcm</text>
<line x1="1030" y1="570" x2="1170" y2="570" class="wire"/>
<line x1="1330" y1="530" x2="1530" y2="530" class="wire"/>
<text x="1500" y="520" class="pin" font-size="13">vout</text>
<circle cx="1480" cy="530" r="3" fill="#58a6ff"/>
<line x1="1250" y1="450" x2="1250" y2="90" class="wire" stroke-dasharray="4,3"/>
<line x1="1250" y1="610" x2="1250" y2="950" class="wire" stroke-dasharray="4,3"/>
<line x1="990" y1="490" x2="990" y2="250" class="wire"/>
<line x1="990" y1="250" x2="1095" y2="250" class="wire"/>
<line x1="1095" y1="238" x2="1095" y2="262" class="comp" stroke-width="2.5"/>
<line x1="1105" y1="238" x2="1105" y2="262" class="comp" stroke-width="2.5"/>
<text x="1080" y="232" class="lbl" font-size="12" font-weight="bold">Cf = 1 pF</text>
<text x="1080" y="280" class="dim" font-size="8">22.4×22.4 MIM</text>
<line x1="1105" y1="250" x2="1480" y2="250" class="wire"/>
<line x1="1480" y1="250" x2="1480" y2="530" class="wire"/>
<rect x="1220" y="235" width="70" height="30" class="sbox" rx="4"/>
<text x="1228" y="255" class="note" font-size="10">Pseudo-R</text>
<text x="1235" y="275" class="dim" font-size="8">PMOS 0.42/10 ×2</text>
<text x="1475" y="560" class="dim" font-size="9">CL = 10 pF (ext)</text>
<text x="990" y="820" class="lbl" font-size="10">OTA bias:</text>
<text x="990" y="838" class="pin" font-size="9">vbn</text>
<text x="1045" y="838" class="dim" font-size="9">= 0.65V</text>
<text x="990" y="854" class="pin" font-size="9">vbcn</text>
<text x="1045" y="854" class="dim" font-size="9">= 0.88V</text>
<text x="990" y="870" class="pin" font-size="9">vbp</text>
<text x="1045" y="870" class="dim" font-size="9">= 0.73V</text>
<text x="990" y="886" class="pin" font-size="9">vbcp</text>
<text x="1045" y="886" class="dim" font-size="9">= 0.475V</text>
<text x="990" y="185" class="note" font-size="11">Gain = Cin(sel) / Cf</text>
<text x="990" y="205" class="dim" font-size="9">1x: 1/1  |  4x: 4/1  |  16x: 16/1  |  64x: 64/1</text>
</svg>