<svg xmlns="http://www.w3.org/2000/svg" xmlns:xlink="http://www.w3.org/1999/xlink" width="1000" height="700" version="1.1">
<style type="text/css">
.l0{
 fill: #000000;
  stroke: #000000;
  stroke-linecap:round;
  stroke-linejoin:round;
  stroke-width: 0.480953;
}
.l1{
 fill: #00ccee;
  stroke: #00ccee;
  stroke-linecap:round;
  stroke-linejoin:round;
  stroke-width: 0.480953;
}
.l2{
  fill: none;
  stroke: #3f3f3f;
  stroke-linecap:round;
  stroke-linejoin:round;
  stroke-width: 0.480953;
}
.l3{
 fill: #cccccc; fill-opacity: 0.5;
  stroke: #cccccc;
  stroke-linecap:round;
  stroke-linejoin:round;
  stroke-width: 0.480953;
}
.l4{
 fill: #88dd00;
  stroke: #88dd00;
  stroke-linecap:round;
  stroke-linejoin:round;
  stroke-width: 0.480953;
}
.l5{
 fill: #bb2200;
  stroke: #bb2200;
  stroke-linecap:round;
  stroke-linejoin:round;
  stroke-width: 0.480953;
}
.l6{
 fill: #00ccee; fill-opacity: 0.5;
  stroke: #00ccee;
  stroke-linecap:round;
  stroke-linejoin:round;
  stroke-width: 0.480953;
}
.l7{
 fill: #ff0000; fill-opacity: 0.5;
  stroke: #ff0000;
  stroke-linecap:round;
  stroke-linejoin:round;
  stroke-width: 0.480953;
}
.l8{
 fill: #ffff00; fill-opacity: 0.5;
  stroke: #ffff00;
  stroke-linecap:round;
  stroke-linejoin:round;
  stroke-width: 0.480953;
}
.l9{
 fill: #ffffff; fill-opacity: 0.5;
  stroke: #ffffff;
  stroke-linecap:round;
  stroke-linejoin:round;
  stroke-width: 0.480953;
}
.l10{
 fill: #ff00ff;
  stroke: #ff00ff;
  stroke-linecap:round;
  stroke-linejoin:round;
  stroke-width: 0.480953;
}
.l11{
 fill: #00ff00; fill-opacity: 0.5;
  stroke: #00ff00;
  stroke-linecap:round;
  stroke-linejoin:round;
  stroke-width: 0.480953;
}
.l12{
 fill: #0044dd; fill-opacity: 0.5;
  stroke: #0044dd;
  stroke-linecap:round;
  stroke-linejoin:round;
  stroke-width: 0.480953;
}
.l13{
 fill: #aaaa00; fill-opacity: 0.5;
  stroke: #aaaa00;
  stroke-linecap:round;
  stroke-linejoin:round;
  stroke-width: 0.480953;
}
.l14{
  fill: none;
  stroke: #aaccaa;
  stroke-linecap:round;
  stroke-linejoin:round;
  stroke-width: 0.480953;
}
.l15{
 fill: #ff7777; fill-opacity: 0.5;
  stroke: #ff7777;
  stroke-linecap:round;
  stroke-linejoin:round;
  stroke-width: 0.480953;
}
.l16{
 fill: #bfff81; fill-opacity: 0.5;
  stroke: #bfff81;
  stroke-linecap:round;
  stroke-linejoin:round;
  stroke-width: 0.480953;
}
.l17{
  fill: none;
  stroke: #00ffcc;
  stroke-linecap:round;
  stroke-linejoin:round;
  stroke-width: 0.480953;
}
.l18{
 fill: #ce0097; fill-opacity: 0.5;
  stroke: #ce0097;
  stroke-linecap:round;
  stroke-linejoin:round;
  stroke-width: 0.480953;
}
.l19{
  fill: none;
  stroke: #d2d46b;
  stroke-linecap:round;
  stroke-linejoin:round;
  stroke-width: 0.480953;
}
.l20{
  fill: none;
  stroke: #ef6158;
  stroke-linecap:round;
  stroke-linejoin:round;
  stroke-width: 0.480953;
}
.l21{
  fill: none;
  stroke: #fdb200;
  stroke-linecap:round;
  stroke-linejoin:round;
  stroke-width: 0.480953;
}
text {font-family: Sans-Serif;}
</style>
<rect class="l0" x="0" y="0" width="1000" height="700"/>
<text fill="#88dd00"  xml:space="preserve" font-size="6.94711" transform="translate(62.5048, 7.6231)" >VDD = 1.8 V</text>
<text fill="#88dd00"  xml:space="preserve" font-size="6.94711" transform="translate(62.5048, 695.654)" >VSS = 0 V</text>
<text fill="#88dd00"  xml:space="preserve" font-size="10.4207" transform="translate(40.2384, 46.4033)" >2-to-4 CMOS Decoder</text>
<text fill="#ffff00"  xml:space="preserve" font-size="6.94711" transform="translate(40.2384, 61.0624)" >28 transistors  |  Static CMOS  |  &lt; 40 nW</text>
<text fill="#ffff00"  xml:space="preserve" font-size="5.09454" transform="translate(191.65, 110.593)" >INV0: g0 → g0b</text>
<text fill="#ffff00"  xml:space="preserve" font-size="4.6314" transform="translate(231.729, 121.306)" >0.84/0.15</text>
<text fill="#ffff00"  xml:space="preserve" font-size="4.6314" transform="translate(231.729, 156.932)" >0.42/0.15</text>
<text fill="#ffff00"  xml:space="preserve" font-size="5.09454" transform="translate(80.3178, 92.7798)" >INV1: g1 → g1b</text>
<text fill="#ffff00"  xml:space="preserve" font-size="4.6314" transform="translate(120.397, 121.306)" >0.84/0.15</text>
<text fill="#ffff00"  xml:space="preserve" font-size="4.6314" transform="translate(120.397, 156.932)" >0.42/0.15</text>
<text fill="#ffff00"  xml:space="preserve" font-size="5.78925" transform="translate(58.0515, 210.532)" >NAND2</text>
<text fill="#ffff00"  xml:space="preserve" font-size="4.6314" transform="translate(58.0515, 219.278)" >(g1b,g0b)</text>
<text fill="#ffff00"  xml:space="preserve" font-size="5.09454" transform="translate(129.304, 213.018)" >INV</text>
<text fill="#88dd00"  xml:space="preserve" font-size="5.09454" transform="translate(153.797, 214.354)" >→ sel0 (1x)</text>
<text fill="#ffff00"  xml:space="preserve" font-size="3.47355" transform="translate(58.0515, 226.242)" >P: 0.84/0.15  N: 0.84/0.15</text>
<text fill="#ffff00"  xml:space="preserve" font-size="5.78925" transform="translate(58.0515, 299.597)" >NAND2</text>
<text fill="#ffff00"  xml:space="preserve" font-size="4.6314" transform="translate(58.0515, 308.343)" >(g1b,g0)</text>
<text fill="#ffff00"  xml:space="preserve" font-size="5.09454" transform="translate(129.304, 302.084)" >INV</text>
<text fill="#88dd00"  xml:space="preserve" font-size="5.09454" transform="translate(153.797, 303.42)" >→ sel1 (4x)</text>
<text fill="#ffff00"  xml:space="preserve" font-size="3.47355" transform="translate(58.0515, 315.308)" >P: 0.84/0.15  N: 0.84/0.15</text>
<text fill="#ffff00"  xml:space="preserve" font-size="5.78925" transform="translate(58.0515, 388.663)" >NAND2</text>
<text fill="#ffff00"  xml:space="preserve" font-size="4.6314" transform="translate(58.0515, 397.408)" >(g1,g0b)</text>
<text fill="#ffff00"  xml:space="preserve" font-size="5.09454" transform="translate(129.304, 391.149)" >INV</text>
<text fill="#88dd00"  xml:space="preserve" font-size="5.09454" transform="translate(153.797, 392.485)" >→ sel2 (16x)</text>
<text fill="#ffff00"  xml:space="preserve" font-size="3.47355" transform="translate(58.0515, 404.373)" >P: 0.84/0.15  N: 0.84/0.15</text>
<text fill="#ffff00"  xml:space="preserve" font-size="5.78925" transform="translate(58.0515, 477.728)" >NAND2</text>
<text fill="#ffff00"  xml:space="preserve" font-size="4.6314" transform="translate(58.0515, 486.474)" >(g1,g0)</text>
<text fill="#ffff00"  xml:space="preserve" font-size="5.09454" transform="translate(129.304, 480.215)" >INV</text>
<text fill="#88dd00"  xml:space="preserve" font-size="5.09454" transform="translate(153.797, 481.551)" >→ sel3 (64x)</text>
<text fill="#ffff00"  xml:space="preserve" font-size="3.47355" transform="translate(58.0515, 493.438)" >P: 0.84/0.15  N: 0.84/0.15</text>
<text fill="#ffff00"  xml:space="preserve" font-size="5.09454" transform="translate(53.5982, 569.28)" >Output INVs: P 0.84/0.15, N 0.42/0.15</text>
<text fill="#88dd00"  xml:space="preserve" font-size="10.4207" transform="translate(396.5, 46.4033)" >Switched Capacitor Network</text>
<text fill="#ffff00"  xml:space="preserve" font-size="5.09454" transform="translate(636.977, 326.577)" >inn (virtual ground)</text>
<text fill="#88dd00"  xml:space="preserve" font-size="5.78925" transform="translate(405.407, 64.4643)" >1x: 1 pF</text>
<text fill="#ffff00"  xml:space="preserve" font-size="4.16826" transform="translate(565.725, 94.1654)" >W=0.42/L=0.15</text>
<text fill="#88dd00"  xml:space="preserve" font-size="5.78925" transform="translate(405.407, 198.063)" >4x: 4 pF</text>
<text fill="#ffff00"  xml:space="preserve" font-size="4.16826" transform="translate(565.725, 227.764)" >W=0.42/L=0.15</text>
<text fill="#88dd00"  xml:space="preserve" font-size="5.78925" transform="translate(405.407, 331.661)" >16x: 16 pF</text>
<text fill="#ffff00"  xml:space="preserve" font-size="4.16826" transform="translate(565.725, 361.362)" >W=1/L=0.15</text>
<text fill="#88dd00"  xml:space="preserve" font-size="5.78925" transform="translate(405.407, 465.259)" >64x: 64 pF</text>
<text fill="#ffff00"  xml:space="preserve" font-size="4.16826" transform="translate(565.725, 494.96)" >W=5/L=0.15</text>
<text fill="#88dd00"  xml:space="preserve" font-size="5.78925" transform="translate(396.5, 612.217)" >Mid-node pseudo-R (×4 pairs)</text>
<text fill="#ffff00"  xml:space="preserve" font-size="4.6314" transform="translate(396.5, 620.072)" >Back-to-back PMOS W=0.42/L=10, bulk=VDD</text>
<text fill="#ffff00"  xml:space="preserve" font-size="4.6314" transform="translate(396.5, 626.752)" >~100 GΩ from each mid node to Vcm</text>
<text fill="#ffff00"  xml:space="preserve" font-size="4.6314" transform="translate(396.5, 633.432)" >8 transistors total</text>
<text fill="#88dd00"  xml:space="preserve" font-size="10.4207" transform="translate(708.229, 46.4033)" >OTA + Feedback Network</text>
<text fill="#ffff00"  xml:space="preserve" font-size="8.10496" transform="translate(761.669, 328.419)" >OTA</text>
<text fill="#ffff00"  xml:space="preserve" font-size="5.09454" transform="translate(754.989, 336.374)" >ota_pga_v2</text>
<text fill="#ffff00"  xml:space="preserve" font-size="5.09454" transform="translate(730.496, 371.109)" >2-stage Miller</text>
<text fill="#ffff00"  xml:space="preserve" font-size="5.09454" transform="translate(730.496, 380.016)" >UGB = 422 kHz</text>
<text fill="#ffff00"  xml:space="preserve" font-size="5.09454" transform="translate(730.496, 388.922)" >Av = 60 dB</text>
<text fill="#ffff00"  xml:space="preserve" font-size="5.09454" transform="translate(730.496, 397.829)" >7 MOSFETs</text>
<text fill="#88dd00"  xml:space="preserve" font-size="9.26281" transform="translate(743.856, 311.658)" >−</text>
<text fill="#88dd00"  xml:space="preserve" font-size="9.26281" transform="translate(743.856, 347.284)" >+</text>
<text fill="#88dd00"  xml:space="preserve" font-size="6.48397" transform="translate(792.842, 174.2)" >Cf = 1 pF</text>
<text fill="#ffff00"  xml:space="preserve" font-size="4.6314" transform="translate(792.842, 181.425)" >22.4 × 22.4 MIM</text>
<text fill="#88dd00"  xml:space="preserve" font-size="5.78925" transform="translate(855.187, 142.397)" >Feedback pseudo-R</text>
<text fill="#ffff00"  xml:space="preserve" font-size="4.6314" transform="translate(855.187, 150.252)" >Back-to-back PMOS</text>
<text fill="#ffff00"  xml:space="preserve" font-size="4.6314" transform="translate(855.187, 156.932)" >W=0.42/L=10, bulk=VDD</text>
<text fill="#ffff00"  xml:space="preserve" font-size="5.78925" transform="translate(917.533, 349.474)" >CL = 10 pF</text>
<text fill="#ffff00"  xml:space="preserve" font-size="4.6314" transform="translate(917.533, 357.329)" >(external load)</text>
<text fill="#88dd00"  xml:space="preserve" font-size="5.09454" transform="translate(730.496, 589.32)" >OTA bias:</text>
<text fill="#ffff00"  xml:space="preserve" font-size="4.6314" transform="translate(730.496, 597.806)" >vbn = 0.65 V</text>
<text fill="#ffff00"  xml:space="preserve" font-size="4.6314" transform="translate(730.496, 611.166)" >vbcn = 0.88 V</text>
<text fill="#ffff00"  xml:space="preserve" font-size="4.6314" transform="translate(730.496, 624.525)" >vbp = 0.73 V</text>
<text fill="#ffff00"  xml:space="preserve" font-size="4.6314" transform="translate(730.496, 637.885)" >vbcp = 0.475 V</text>
<text fill="#00ccee"  xml:space="preserve" font-size="7.64182" transform="translate(6.1564, 17.4388)" >VDD</text>
<text fill="#00ccee"  xml:space="preserve" font-size="7.64182" transform="translate(6.1564, 685.43)" >VSS</text>
<text fill="#00ccee"  xml:space="preserve" font-size="7.64182" transform="translate(5.66486, 79.7846)" >g1</text>
<text fill="#00ccee"  xml:space="preserve" font-size="7.64182" transform="translate(5.66486, 97.5977)" >g0</text>
<text fill="#00ccee"  xml:space="preserve" font-size="7.64182" transform="translate(212.051, 142.687)" >g0b</text>
<text fill="#00ccee"  xml:space="preserve" font-size="7.64182" transform="translate(100.719, 142.687)" >g1b</text>
<text fill="#00ccee"  xml:space="preserve" font-size="7.64182" transform="translate(48.0316, 211.713)" >g1b</text>
<text fill="#00ccee"  xml:space="preserve" font-size="7.64182" transform="translate(48.0316, 222.846)" >g0b</text>
<text fill="#00ccee"  xml:space="preserve" font-size="7.64182" transform="translate(141.29, 218.393)" >sel0</text>
<text fill="#00ccee"  xml:space="preserve" font-size="7.64182" transform="translate(48.0316, 300.778)" >g1b</text>
<text fill="#00ccee"  xml:space="preserve" font-size="7.64182" transform="translate(48.0316, 311.911)" >g0</text>
<text fill="#00ccee"  xml:space="preserve" font-size="7.64182" transform="translate(141.29, 307.458)" >sel1</text>
<text fill="#00ccee"  xml:space="preserve" font-size="7.64182" transform="translate(48.0316, 389.844)" >g1</text>
<text fill="#00ccee"  xml:space="preserve" font-size="7.64182" transform="translate(48.0316, 400.977)" >g0b</text>
<text fill="#00ccee"  xml:space="preserve" font-size="7.64182" transform="translate(141.29, 396.524)" >sel2</text>
<text fill="#00ccee"  xml:space="preserve" font-size="7.64182" transform="translate(48.0316, 478.909)" >g1</text>
<text fill="#00ccee"  xml:space="preserve" font-size="7.64182" transform="translate(48.0316, 490.042)" >g0</text>
<text fill="#00ccee"  xml:space="preserve" font-size="7.64182" transform="translate(141.29, 485.589)" >sel3</text>
<text fill="#00ccee"  xml:space="preserve" font-size="7.64182" transform="translate(353.512, 329.168)" >vin</text>
<text fill="#00ccee"  xml:space="preserve" font-size="7.64182" transform="translate(603.939, 329.725)" >inn</text>
<text fill="#00ccee"  xml:space="preserve" font-size="7.64182" transform="translate(421.846, 99.045)" >mid1</text>
<text fill="#00ccee"  xml:space="preserve" font-size="7.64182" transform="translate(537.892, 99.045)" >sel0</text>
<text fill="#00ccee"  xml:space="preserve" font-size="7.64182" transform="translate(421.846, 232.643)" >mid2</text>
<text fill="#00ccee"  xml:space="preserve" font-size="7.64182" transform="translate(537.892, 232.643)" >sel1</text>
<text fill="#00ccee"  xml:space="preserve" font-size="7.64182" transform="translate(421.846, 366.241)" >mid3</text>
<text fill="#00ccee"  xml:space="preserve" font-size="7.64182" transform="translate(537.892, 366.241)" >sel2</text>
<text fill="#00ccee"  xml:space="preserve" font-size="7.64182" transform="translate(421.846, 499.84)" >mid4</text>
<text fill="#00ccee"  xml:space="preserve" font-size="7.64182" transform="translate(537.892, 499.84)" >sel3</text>
<text fill="#00ccee"  xml:space="preserve" font-size="7.64182" transform="translate(674.147, 346.981)" >vcm</text>
<text fill="#00ccee"  xml:space="preserve" font-size="7.64182" transform="translate(939.73, 329.168)" >vout</text>
<text fill="#00ccee"  xml:space="preserve" font-size="7.64182" transform="translate(889.44, 316.365)" >vout</text>
<text fill="#00ccee"  xml:space="preserve" font-size="7.64182" transform="translate(683.054, 596.364)" >vbn</text>
<text fill="#00ccee"  xml:space="preserve" font-size="7.64182" transform="translate(674.639, 609.724)" >vbcn</text>
<text fill="#00ccee"  xml:space="preserve" font-size="7.64182" transform="translate(683.054, 623.084)" >vbp</text>
<text fill="#00ccee"  xml:space="preserve" font-size="7.64182" transform="translate(674.639, 636.444)" >vbcp</text>
<path class="l3" stroke-dasharray="2.49383,2.49383" d="M31.3318 28.0348L316.341 28.0348"/>
<path class="l3" stroke-dasharray="2.49383,2.49383" d="M316.341 28.0348L316.341 624.773"/>
<path class="l3" stroke-dasharray="2.49383,2.49383" d="M31.3318 624.773L316.341 624.773"/>
<path class="l3" stroke-dasharray="2.49383,2.49383" d="M31.3318 28.0348L31.3318 624.773"/>
<path class="l3" stroke-dasharray="2.49383,2.49383" d="M387.594 28.0348L694.87 28.0348"/>
<path class="l3" stroke-dasharray="2.49383,2.49383" d="M694.87 28.0348L694.87 624.773"/>
<path class="l3" stroke-dasharray="2.49383,2.49383" d="M387.594 624.773L694.87 624.773"/>
<path class="l3" stroke-dasharray="2.49383,2.49383" d="M387.594 28.0348L387.594 624.773"/>
<path class="l3" stroke-dasharray="2.49383,2.49383" d="M699.323 28.0348L975.426 28.0348"/>
<path class="l3" stroke-dasharray="2.49383,2.49383" d="M975.426 28.0348L975.426 624.773"/>
<path class="l3" stroke-dasharray="2.49383,2.49383" d="M699.323 624.773L975.426 624.773"/>
<path class="l3" stroke-dasharray="2.49383,2.49383" d="M699.323 28.0348L699.323 624.773"/>
<text fill="#cccccc"  xml:space="preserve" font-size="4.6314" transform="translate(184.896, 112.399)" >XP_inv0</text>
<text fill="#ff0000"  xml:space="preserve" font-size="3.47355" transform="translate(228.389, 132.501)" >D</text>
<text fill="#ff0000"  xml:space="preserve" font-size="3.47355" transform="translate(228.389, 112.93)" >S</text>
<text fill="#ff0000"  xml:space="preserve" font-size="3.47355" transform="translate(227.276, 120.254)" >B</text>
<text fill="#ff0000"  xml:space="preserve" font-size="3.47355" transform="translate(210.091, 120.254)" >G</text>
<text fill="#cccccc"  xml:space="preserve" font-size="4.6314" transform="translate(231.729, 116.55)" >pfet_01v8</text>
<text fill="#aaaa00"  xml:space="preserve" font-size="4.6314" transform="translate(232.286, 131.882)" >1 x 0.84 / 0.15</text>
<text fill="#aaaa00"  xml:space="preserve" font-size="4.6314" transform="translate(232.286, 126.315)" >nf=1</text>
<text fill="#cccccc"  xml:space="preserve" font-size="4.6314" transform="translate(184.896, 148.025)" >XN_inv0</text>
<text fill="#ff0000"  xml:space="preserve" font-size="3.47355" transform="translate(228.389, 168.127)" >S</text>
<text fill="#ff0000"  xml:space="preserve" font-size="3.47355" transform="translate(228.389, 148.556)" >D</text>
<text fill="#ff0000"  xml:space="preserve" font-size="3.47355" transform="translate(227.276, 155.88)" >B</text>
<text fill="#ff0000"  xml:space="preserve" font-size="3.47355" transform="translate(210.091, 155.88)" >G</text>
<text fill="#cccccc"  xml:space="preserve" font-size="4.6314" transform="translate(231.729, 152.176)" >nfet_01v8</text>
<text fill="#aaaa00"  xml:space="preserve" font-size="4.6314" transform="translate(232.286, 167.508)" >1 x 0.42 / 0.15</text>
<text fill="#aaaa00"  xml:space="preserve" font-size="4.6314" transform="translate(232.286, 161.942)" >nf=1</text>
<text fill="#cccccc"  xml:space="preserve" font-size="4.6314" transform="translate(73.5641, 112.399)" >XP_inv1</text>
<text fill="#ff0000"  xml:space="preserve" font-size="3.47355" transform="translate(117.057, 132.501)" >D</text>
<text fill="#ff0000"  xml:space="preserve" font-size="3.47355" transform="translate(117.057, 112.93)" >S</text>
<text fill="#ff0000"  xml:space="preserve" font-size="3.47355" transform="translate(115.944, 120.254)" >B</text>
<text fill="#ff0000"  xml:space="preserve" font-size="3.47355" transform="translate(98.7592, 120.254)" >G</text>
<text fill="#cccccc"  xml:space="preserve" font-size="4.6314" transform="translate(120.397, 116.55)" >pfet_01v8</text>
<text fill="#aaaa00"  xml:space="preserve" font-size="4.6314" transform="translate(120.954, 131.882)" >1 x 0.84 / 0.15</text>
<text fill="#aaaa00"  xml:space="preserve" font-size="4.6314" transform="translate(120.954, 126.315)" >nf=1</text>
<text fill="#cccccc"  xml:space="preserve" font-size="4.6314" transform="translate(73.5641, 148.025)" >XN_inv1</text>
<text fill="#ff0000"  xml:space="preserve" font-size="3.47355" transform="translate(117.057, 168.127)" >S</text>
<text fill="#ff0000"  xml:space="preserve" font-size="3.47355" transform="translate(117.057, 148.556)" >D</text>
<text fill="#ff0000"  xml:space="preserve" font-size="3.47355" transform="translate(115.944, 155.88)" >B</text>
<text fill="#ff0000"  xml:space="preserve" font-size="3.47355" transform="translate(98.7592, 155.88)" >G</text>
<text fill="#cccccc"  xml:space="preserve" font-size="4.6314" transform="translate(120.397, 152.176)" >nfet_01v8</text>
<text fill="#aaaa00"  xml:space="preserve" font-size="4.6314" transform="translate(120.954, 167.508)" >1 x 0.42 / 0.15</text>
<text fill="#aaaa00"  xml:space="preserve" font-size="4.6314" transform="translate(120.954, 161.942)" >nf=1</text>
<text fill="#ff0000"  xml:space="preserve" font-size="3.47355" transform="translate(443.26, 72.3815)" >c0</text>
<text fill="#ff0000"  xml:space="preserve" font-size="3.47355" transform="translate(443.26, 92.9779)" >c1</text>
<text fill="#aaaa00"  xml:space="preserve" font-size="4.6314" transform="translate(448.826, 94.0292)" >MF=1</text>
<text fill="#cccccc"  xml:space="preserve" font-size="4.6314" transform="translate(447.713, 72.8762)" >XCin1</text>
<text fill="#aaaa00"  xml:space="preserve" font-size="4.6314" transform="translate(447.713, 88.4626)" >22.4 / 22.4</text>
<text fill="#cccccc"  xml:space="preserve" font-size="4.6314" transform="translate(447.713, 80.6694)" >cap_mim_m3_1</text>
<text fill="#aaaa00"  xml:space="preserve" font-size="4.6314" transform="translate(381.593, 89.576)" >C=1.021e-12</text>
<text fill="#cccccc"  xml:space="preserve" font-size="4.6314" transform="translate(539.291, 86.57)" >XS1</text>
<text fill="#ff0000"  xml:space="preserve" font-size="3.47355" transform="translate(562.385, 106.672)" >S</text>
<text fill="#ff0000"  xml:space="preserve" font-size="3.47355" transform="translate(562.385, 87.1011)" >D</text>
<text fill="#ff0000"  xml:space="preserve" font-size="3.47355" transform="translate(561.271, 94.4252)" >B</text>
<text fill="#ff0000"  xml:space="preserve" font-size="3.47355" transform="translate(544.087, 94.4252)" >G</text>
<text fill="#cccccc"  xml:space="preserve" font-size="4.6314" transform="translate(565.725, 90.721)" >nfet_01v8</text>
<text fill="#aaaa00"  xml:space="preserve" font-size="4.6314" transform="translate(566.281, 106.053)" >1 x 0.42 / 0.15</text>
<text fill="#aaaa00"  xml:space="preserve" font-size="4.6314" transform="translate(566.281, 100.486)" >nf=1</text>
<text fill="#ff0000"  xml:space="preserve" font-size="3.47355" transform="translate(443.26, 205.98)" >c0</text>
<text fill="#ff0000"  xml:space="preserve" font-size="3.47355" transform="translate(443.26, 226.576)" >c1</text>
<text fill="#aaaa00"  xml:space="preserve" font-size="4.6314" transform="translate(448.826, 227.627)" >MF=1</text>
<text fill="#cccccc"  xml:space="preserve" font-size="4.6314" transform="translate(447.713, 206.474)" >XCin2</text>
<text fill="#aaaa00"  xml:space="preserve" font-size="4.6314" transform="translate(447.713, 222.061)" >44.7 / 44.7</text>
<text fill="#cccccc"  xml:space="preserve" font-size="4.6314" transform="translate(447.713, 214.268)" >cap_mim_m3_1</text>
<text fill="#aaaa00"  xml:space="preserve" font-size="4.6314" transform="translate(386.693, 223.174)" >C=4.03e-12</text>
<text fill="#cccccc"  xml:space="preserve" font-size="4.6314" transform="translate(539.291, 220.168)" >XS2</text>
<text fill="#ff0000"  xml:space="preserve" font-size="3.47355" transform="translate(562.385, 240.27)" >S</text>
<text fill="#ff0000"  xml:space="preserve" font-size="3.47355" transform="translate(562.385, 220.699)" >D</text>
<text fill="#ff0000"  xml:space="preserve" font-size="3.47355" transform="translate(561.271, 228.023)" >B</text>
<text fill="#ff0000"  xml:space="preserve" font-size="3.47355" transform="translate(544.087, 228.023)" >G</text>
<text fill="#cccccc"  xml:space="preserve" font-size="4.6314" transform="translate(565.725, 224.319)" >nfet_01v8</text>
<text fill="#aaaa00"  xml:space="preserve" font-size="4.6314" transform="translate(566.281, 239.651)" >1 x 0.42 / 0.15</text>
<text fill="#aaaa00"  xml:space="preserve" font-size="4.6314" transform="translate(566.281, 234.085)" >nf=1</text>
<text fill="#ff0000"  xml:space="preserve" font-size="3.47355" transform="translate(443.26, 339.578)" >c0</text>
<text fill="#ff0000"  xml:space="preserve" font-size="3.47355" transform="translate(443.26, 360.174)" >c1</text>
<text fill="#aaaa00"  xml:space="preserve" font-size="4.6314" transform="translate(448.826, 361.226)" >MF=1</text>
<text fill="#cccccc"  xml:space="preserve" font-size="4.6314" transform="translate(447.713, 340.073)" >XCin3</text>
<text fill="#aaaa00"  xml:space="preserve" font-size="4.6314" transform="translate(447.713, 355.659)" >89.4 / 89.4</text>
<text fill="#cccccc"  xml:space="preserve" font-size="4.6314" transform="translate(447.713, 347.866)" >cap_mim_m3_1</text>
<text fill="#aaaa00"  xml:space="preserve" font-size="4.6314" transform="translate(381.593, 356.772)" >C=1.605e-11</text>
<text fill="#cccccc"  xml:space="preserve" font-size="4.6314" transform="translate(539.291, 353.766)" >XS3</text>
<text fill="#ff0000"  xml:space="preserve" font-size="3.47355" transform="translate(562.385, 373.868)" >S</text>
<text fill="#ff0000"  xml:space="preserve" font-size="3.47355" transform="translate(562.385, 354.297)" >D</text>
<text fill="#ff0000"  xml:space="preserve" font-size="3.47355" transform="translate(561.271, 361.622)" >B</text>
<text fill="#ff0000"  xml:space="preserve" font-size="3.47355" transform="translate(544.087, 361.622)" >G</text>
<text fill="#cccccc"  xml:space="preserve" font-size="4.6314" transform="translate(565.725, 357.917)" >nfet_01v8</text>
<text fill="#aaaa00"  xml:space="preserve" font-size="4.6314" transform="translate(566.281, 373.249)" >1 x 1 / 0.15</text>
<text fill="#aaaa00"  xml:space="preserve" font-size="4.6314" transform="translate(566.281, 367.683)" >nf=1</text>
<text fill="#ff0000"  xml:space="preserve" font-size="3.47355" transform="translate(443.26, 473.176)" >c0</text>
<text fill="#ff0000"  xml:space="preserve" font-size="3.47355" transform="translate(443.26, 493.772)" >c1</text>
<text fill="#aaaa00"  xml:space="preserve" font-size="4.6314" transform="translate(448.826, 494.824)" >MF=1</text>
<text fill="#cccccc"  xml:space="preserve" font-size="4.6314" transform="translate(447.713, 473.671)" >XCin4</text>
<text fill="#aaaa00"  xml:space="preserve" font-size="4.6314" transform="translate(447.713, 489.257)" >178.9 / 178.9</text>
<text fill="#cccccc"  xml:space="preserve" font-size="4.6314" transform="translate(447.713, 481.464)" >cap_mim_m3_1</text>
<text fill="#aaaa00"  xml:space="preserve" font-size="4.6314" transform="translate(381.593, 490.371)" >C=6.415e-11</text>
<text fill="#cccccc"  xml:space="preserve" font-size="4.6314" transform="translate(539.291, 487.365)" >XS4</text>
<text fill="#ff0000"  xml:space="preserve" font-size="3.47355" transform="translate(562.385, 507.466)" >S</text>
<text fill="#ff0000"  xml:space="preserve" font-size="3.47355" transform="translate(562.385, 487.896)" >D</text>
<text fill="#ff0000"  xml:space="preserve" font-size="3.47355" transform="translate(561.271, 495.22)" >B</text>
<text fill="#ff0000"  xml:space="preserve" font-size="3.47355" transform="translate(544.087, 495.22)" >G</text>
<text fill="#cccccc"  xml:space="preserve" font-size="4.6314" transform="translate(565.725, 491.516)" >nfet_01v8</text>
<text fill="#aaaa00"  xml:space="preserve" font-size="4.6314" transform="translate(566.281, 506.848)" >1 x 5 / 0.15</text>
<text fill="#aaaa00"  xml:space="preserve" font-size="4.6314" transform="translate(566.281, 501.281)" >nf=1</text>
<text fill="#ff0000"  xml:space="preserve" font-size="3.47355" transform="translate(821.788, 183.713)" >c0</text>
<text fill="#ff0000"  xml:space="preserve" font-size="3.47355" transform="translate(821.788, 204.31)" >c1</text>
<text fill="#aaaa00"  xml:space="preserve" font-size="4.6314" transform="translate(827.354, 205.361)" >MF=1</text>
<text fill="#cccccc"  xml:space="preserve" font-size="4.6314" transform="translate(826.241, 184.208)" >XCf</text>
<text fill="#aaaa00"  xml:space="preserve" font-size="4.6314" transform="translate(826.241, 199.794)" >22.4 / 22.4</text>
<text fill="#cccccc"  xml:space="preserve" font-size="4.6314" transform="translate(826.241, 192.001)" >cap_mim_m3_1</text>
<text fill="#aaaa00"  xml:space="preserve" font-size="4.6314" transform="translate(760.121, 200.908)" >C=1.021e-12</text>
<text fill="#cccccc"  xml:space="preserve" font-size="4.6314" transform="translate(863.087, 152.478)" >XMpr1</text>
<text fill="#ff0000"  xml:space="preserve" font-size="3.47355" transform="translate(896.38, 172.58)" >D</text>
<text fill="#ff0000"  xml:space="preserve" font-size="3.47355" transform="translate(896.38, 153.01)" >S</text>
<text fill="#ff0000"  xml:space="preserve" font-size="3.47355" transform="translate(895.267, 160.334)" >B</text>
<text fill="#ff0000"  xml:space="preserve" font-size="3.47355" transform="translate(878.082, 160.334)" >G</text>
<text fill="#cccccc"  xml:space="preserve" font-size="4.6314" transform="translate(899.72, 156.629)" >pfet_01v8</text>
<text fill="#aaaa00"  xml:space="preserve" font-size="4.6314" transform="translate(900.277, 171.962)" >1 x 0.42 / 10</text>
<text fill="#aaaa00"  xml:space="preserve" font-size="4.6314" transform="translate(900.277, 166.395)" >nf=1</text>
<text fill="#cccccc"  xml:space="preserve" font-size="4.6314" transform="translate(863.087, 210.371)" >XMpr2</text>
<text fill="#ff0000"  xml:space="preserve" font-size="3.47355" transform="translate(896.38, 230.473)" >D</text>
<text fill="#ff0000"  xml:space="preserve" font-size="3.47355" transform="translate(896.38, 210.902)" >S</text>
<text fill="#ff0000"  xml:space="preserve" font-size="3.47355" transform="translate(895.267, 218.226)" >B</text>
<text fill="#ff0000"  xml:space="preserve" font-size="3.47355" transform="translate(878.082, 218.226)" >G</text>
<text fill="#cccccc"  xml:space="preserve" font-size="4.6314" transform="translate(899.72, 214.522)" >pfet_01v8</text>
<text fill="#aaaa00"  xml:space="preserve" font-size="4.6314" transform="translate(900.277, 229.854)" >1 x 0.42 / 10</text>
<text fill="#aaaa00"  xml:space="preserve" font-size="4.6314" transform="translate(900.277, 224.287)" >nf=1</text>
<path class="l4" d="M221.709 111.534L221.709 131.573"/>
<path class="l4" d="M227.276 108.194L227.276 113.76"/>
<path class="l4" d="M227.276 129.347L227.276 134.913"/>
<path class="l4" d="M219.483 114.874L219.483 128.233"/>
<path class="l4" d="M221.709 129.347L227.276 129.347"/>
<path class="l4" d="M223.936 113.76L227.276 113.76"/>
<path class="l4" d="M209.463 121.553L215.029 121.553"/>
<path class="l4" d="M223.936 112.647L221.709 113.76L223.936 114.874L223.936 112.647"/>
<circle class="l4" cx="217.256" cy="121.553" r="2.22664" style="fill:none;"/>
<path class="l4" d="M221.709 147.16L221.709 167.2"/>
<path class="l4" d="M209.463 157.18L219.483 157.18"/>
<path class="l4" d="M227.276 143.82L227.276 149.386"/>
<path class="l4" d="M227.276 164.973L227.276 170.539"/>
<path class="l4" d="M219.483 150.5L219.483 163.86"/>
<path class="l4" d="M221.709 149.386L227.276 149.386"/>
<path class="l4" d="M221.709 164.973L225.049 164.973"/>
<path class="l4" d="M225.049 163.86L227.276 164.973L225.049 166.086L225.049 163.86"/>
<path class="l4" d="M110.377 111.534L110.377 131.573"/>
<path class="l4" d="M115.944 108.194L115.944 113.76"/>
<path class="l4" d="M115.944 129.347L115.944 134.913"/>
<path class="l4" d="M108.151 114.874L108.151 128.233"/>
<path class="l4" d="M110.377 129.347L115.944 129.347"/>
<path class="l4" d="M112.604 113.76L115.944 113.76"/>
<path class="l4" d="M98.1309 121.553L103.698 121.553"/>
<path class="l4" d="M112.604 112.647L110.377 113.76L112.604 114.874L112.604 112.647"/>
<circle class="l4" cx="105.924" cy="121.553" r="2.22664" style="fill:none;"/>
<path class="l4" d="M110.377 147.16L110.377 167.2"/>
<path class="l4" d="M98.1309 157.18L108.151 157.18"/>
<path class="l4" d="M115.944 143.82L115.944 149.386"/>
<path class="l4" d="M115.944 164.973L115.944 170.539"/>
<path class="l4" d="M108.151 150.5L108.151 163.86"/>
<path class="l4" d="M110.377 149.386L115.944 149.386"/>
<path class="l4" d="M110.377 164.973L113.717 164.973"/>
<path class="l4" d="M113.717 163.86L115.944 164.973L113.717 166.086L113.717 163.86"/>
<path class="l4" d="M441.033 82.5874L441.033 94.8339"/>
<path class="l4" d="M441.033 68.1142L441.033 79.2474"/>
<path class="l4" d="M436.58 79.2474L445.486 79.2474"/>
<path class="l4" style="fill:none;" d="M445.486 83.7007 A9.46321 9.46321 0 0 0 436.58 83.7007"/>
<path class="l4" d="M555.705 85.7046L555.705 105.744"/>
<path class="l4" d="M543.458 95.7245L553.478 95.7245"/>
<path class="l4" d="M561.271 82.3647L561.271 87.9313"/>
<path class="l4" d="M561.271 103.518L561.271 109.084"/>
<path class="l4" d="M553.478 89.0446L553.478 102.404"/>
<path class="l4" d="M555.705 87.9313L561.271 87.9313"/>
<path class="l4" d="M555.705 103.518L559.045 103.518"/>
<path class="l4" d="M559.045 102.404L561.271 103.518L559.045 104.631L559.045 102.404"/>
<path class="l4" d="M441.033 216.186L441.033 228.432"/>
<path class="l4" d="M441.033 201.712L441.033 212.846"/>
<path class="l4" d="M436.58 212.846L445.486 212.846"/>
<path class="l4" style="fill:none;" d="M445.486 217.299 A9.46321 9.46321 0 0 0 436.58 217.299"/>
<path class="l4" d="M555.705 219.303L555.705 239.343"/>
<path class="l4" d="M543.458 229.323L553.478 229.323"/>
<path class="l4" d="M561.271 215.963L561.271 221.529"/>
<path class="l4" d="M561.271 237.116L561.271 242.683"/>
<path class="l4" d="M553.478 222.643L553.478 236.003"/>
<path class="l4" d="M555.705 221.529L561.271 221.529"/>
<path class="l4" d="M555.705 237.116L559.045 237.116"/>
<path class="l4" d="M559.045 236.003L561.271 237.116L559.045 238.229L559.045 236.003"/>
<path class="l4" d="M441.033 349.784L441.033 362.03"/>
<path class="l4" d="M441.033 335.311L441.033 346.444"/>
<path class="l4" d="M436.58 346.444L445.486 346.444"/>
<path class="l4" style="fill:none;" d="M445.486 350.897 A9.46321 9.46321 0 0 0 436.58 350.897"/>
<path class="l4" d="M555.705 352.901L555.705 372.941"/>
<path class="l4" d="M543.458 362.921L553.478 362.921"/>
<path class="l4" d="M561.271 349.561L561.271 355.128"/>
<path class="l4" d="M561.271 370.714L561.271 376.281"/>
<path class="l4" d="M553.478 356.241L553.478 369.601"/>
<path class="l4" d="M555.705 355.128L561.271 355.128"/>
<path class="l4" d="M555.705 370.714L559.045 370.714"/>
<path class="l4" d="M559.045 369.601L561.271 370.714L559.045 371.827L559.045 369.601"/>
<path class="l4" d="M441.033 483.382L441.033 495.628"/>
<path class="l4" d="M441.033 468.909L441.033 480.042"/>
<path class="l4" d="M436.58 480.042L445.486 480.042"/>
<path class="l4" style="fill:none;" d="M445.486 484.495 A9.46321 9.46321 0 0 0 436.58 484.495"/>
<path class="l4" d="M555.705 486.499L555.705 506.539"/>
<path class="l4" d="M543.458 496.519L553.478 496.519"/>
<path class="l4" d="M561.271 483.159L561.271 488.726"/>
<path class="l4" d="M561.271 504.312L561.271 509.879"/>
<path class="l4" d="M553.478 489.839L553.478 503.199"/>
<path class="l4" d="M555.705 488.726L561.271 488.726"/>
<path class="l4" d="M555.705 504.312L559.045 504.312"/>
<path class="l4" d="M559.045 503.199L561.271 504.312L559.045 505.426L559.045 503.199"/>
<path class="l4" d="M819.561 193.919L819.561 206.166"/>
<path class="l4" d="M819.561 179.446L819.561 190.579"/>
<path class="l4" d="M815.108 190.579L824.014 190.579"/>
<path class="l4" style="fill:none;" d="M824.014 195.033 A9.46321 9.46321 0 0 0 815.108 195.033"/>
<path class="l4" d="M889.7 151.613L889.7 171.653"/>
<path class="l4" d="M895.267 148.273L895.267 153.84"/>
<path class="l4" d="M895.267 169.426L895.267 174.993"/>
<path class="l4" d="M887.474 154.953L887.474 168.313"/>
<path class="l4" d="M889.7 169.426L895.267 169.426"/>
<path class="l4" d="M891.927 153.84L895.267 153.84"/>
<path class="l4" d="M877.454 161.633L883.02 161.633"/>
<path class="l4" d="M891.927 152.726L889.7 153.84L891.927 154.953L891.927 152.726"/>
<circle class="l4" cx="885.247" cy="161.633" r="2.22664" style="fill:none;"/>
<path class="l4" d="M889.7 209.506L889.7 229.545"/>
<path class="l4" d="M895.267 206.166L895.267 211.732"/>
<path class="l4" d="M895.267 227.319L895.267 232.885"/>
<path class="l4" d="M887.474 212.846L887.474 226.205"/>
<path class="l4" d="M889.7 227.319L895.267 227.319"/>
<path class="l4" d="M891.927 211.732L895.267 211.732"/>
<path class="l4" d="M877.454 219.526L883.02 219.526"/>
<path class="l4" d="M891.927 210.619L889.7 211.732L891.927 212.846L891.927 210.619"/>
<circle class="l4" cx="885.247" cy="219.526" r="2.22664" style="fill:none;"/>
<path class="l5" d="M38.8467 14.6749L40.2384 14.6749"/>
<path class="l5" d="M34.1151 16.9016L32.4452 14.6749L34.1151 12.4483L37.1768 12.4483L38.8467 14.6749L37.1768 16.9016L34.1151 16.9016"/>
<path class="l5" d="M39.6817 14.1183L40.795 14.1183L40.795 15.2316L39.6817 15.2316L39.6817 14.1183z"/>
<path class="l5" d="M38.8467 682.666L40.2384 682.666"/>
<path class="l5" d="M34.1151 684.893L32.4452 682.666L34.1151 680.439L37.1768 680.439L38.8467 682.666L37.1768 684.893L34.1151 684.893"/>
<path class="l5" d="M39.6817 682.109L40.795 682.109L40.795 683.223L39.6817 683.223L39.6817 682.109z"/>
<path class="l5" d="M29.9402 77.0208L31.3318 77.0208"/>
<path class="l5" d="M25.2086 79.2474L23.5386 77.0208L25.2086 74.7941L28.2702 74.7941L29.9402 77.0208L28.2702 79.2474L25.2086 79.2474"/>
<path class="l5" d="M30.7752 76.4641L31.8885 76.4641L31.8885 77.5774L30.7752 77.5774L30.7752 76.4641z"/>
<path class="l5" d="M29.9402 94.8339L31.3318 94.8339"/>
<path class="l5" d="M25.2086 97.0605L23.5386 94.8339L25.2086 92.6072L28.2702 92.6072L29.9402 94.8339L28.2702 97.0605L25.2086 97.0605"/>
<path class="l5" d="M30.7752 94.2772L31.8885 94.2772L31.8885 95.3905L30.7752 95.3905L30.7752 94.2772z"/>
<path class="l5" d="M225.049 120.44L227.276 121.553L225.049 122.667L225.049 120.44"/>
<path class="l5" d="M226.163 133.8L228.389 133.8L228.389 136.027L226.163 136.027L226.163 133.8z"/>
<path class="l5" d="M208.349 120.44L210.576 120.44L210.576 122.667L208.349 122.667L208.349 120.44z"/>
<path class="l5" d="M226.163 107.08L228.389 107.08L228.389 109.307L226.163 109.307L226.163 107.08z"/>
<path class="l5" d="M227.241 121.519L227.311 121.519L227.311 121.588L227.241 121.588L227.241 121.519z"/>
<path class="l5" d="M227.276 156.066L225.049 157.18L227.276 158.293L227.276 156.066"/>
<path class="l5" d="M226.163 142.707L228.389 142.707L228.389 144.933L226.163 144.933L226.163 142.707z"/>
<path class="l5" d="M208.349 156.066L210.576 156.066L210.576 158.293L208.349 158.293L208.349 156.066z"/>
<path class="l5" d="M226.163 169.426L228.389 169.426L228.389 171.653L226.163 171.653L226.163 169.426z"/>
<path class="l5" d="M227.241 157.145L227.311 157.145L227.311 157.214L227.241 157.214L227.241 157.145z"/>
<path class="l5" d="M240.079 138.81L241.192 138.81L241.192 139.923L240.079 139.923L240.079 138.81z"/>
<path class="l5" d="M113.717 120.44L115.944 121.553L113.717 122.667L113.717 120.44"/>
<path class="l5" d="M114.831 133.8L117.057 133.8L117.057 136.027L114.831 136.027L114.831 133.8z"/>
<path class="l5" d="M97.0176 120.44L99.2443 120.44L99.2443 122.667L97.0176 122.667L97.0176 120.44z"/>
<path class="l5" d="M114.831 107.08L117.057 107.08L117.057 109.307L114.831 109.307L114.831 107.08z"/>
<path class="l5" d="M115.909 121.519L115.979 121.519L115.979 121.588L115.909 121.588L115.909 121.519z"/>
<path class="l5" d="M115.944 156.066L113.717 157.18L115.944 158.293L115.944 156.066"/>
<path class="l5" d="M114.831 142.707L117.057 142.707L117.057 144.933L114.831 144.933L114.831 142.707z"/>
<path class="l5" d="M97.0176 156.066L99.2443 156.066L99.2443 158.293L97.0176 158.293L97.0176 156.066z"/>
<path class="l5" d="M114.831 169.426L117.057 169.426L117.057 171.653L114.831 171.653L114.831 169.426z"/>
<path class="l5" d="M115.909 157.145L115.979 157.145L115.979 157.214L115.909 157.214L115.909 157.145z"/>
<path class="l5" d="M128.747 138.81L129.861 138.81L129.861 139.923L128.747 139.923L128.747 138.81z"/>
<path class="l5" d="M44.135 207.836L45.2483 207.836L45.2483 208.949L44.135 208.949L44.135 207.836z"/>
<path class="l5" d="M44.135 218.969L45.2483 218.969L45.2483 220.082L44.135 220.082L44.135 218.969z"/>
<path class="l5" d="M177.733 214.516L178.847 214.516L178.847 215.629L177.733 215.629L177.733 214.516z"/>
<path class="l5" d="M44.135 296.901L45.2483 296.901L45.2483 298.014L44.135 298.014L44.135 296.901z"/>
<path class="l5" d="M44.135 308.034L45.2483 308.034L45.2483 309.148L44.135 309.148L44.135 308.034z"/>
<path class="l5" d="M177.733 303.581L178.847 303.581L178.847 304.694L177.733 304.694L177.733 303.581z"/>
<path class="l5" d="M44.135 385.967L45.2483 385.967L45.2483 387.08L44.135 387.08L44.135 385.967z"/>
<path class="l5" d="M44.135 397.1L45.2483 397.1L45.2483 398.213L44.135 398.213L44.135 397.1z"/>
<path class="l5" d="M177.733 392.646L178.847 392.646L178.847 393.76L177.733 393.76L177.733 392.646z"/>
<path class="l5" d="M44.135 475.032L45.2483 475.032L45.2483 476.145L44.135 476.145L44.135 475.032z"/>
<path class="l5" d="M44.135 486.165L45.2483 486.165L45.2483 487.279L44.135 487.279L44.135 486.165z"/>
<path class="l5" d="M177.733 481.712L178.847 481.712L178.847 482.825L177.733 482.825L177.733 481.712z"/>
<path class="l5" d="M386.202 326.404L387.594 326.404"/>
<path class="l5" d="M381.47 328.631L379.8 326.404L381.47 324.177L384.532 324.177L386.202 326.404L384.532 328.631L381.47 328.631"/>
<path class="l5" d="M387.037 325.847L388.15 325.847L388.15 326.961L387.037 326.961L387.037 325.847z"/>
<path class="l5" d="M631.967 325.847L633.08 325.847L633.08 326.961L631.967 326.961L631.967 325.847z"/>
<path class="l5" d="M439.92 67.0009L442.146 67.0009L442.146 69.2275L439.92 69.2275L439.92 67.0009z"/>
<path class="l5" d="M439.92 93.7205L442.146 93.7205L442.146 95.9472L439.92 95.9472L439.92 93.7205z"/>
<path class="l5" d="M458.289 95.1679L459.403 95.1679L459.403 96.2812L458.289 96.2812L458.289 95.1679z"/>
<path class="l5" d="M561.271 94.6112L559.045 95.7245L561.271 96.8378L561.271 94.6112"/>
<path class="l5" d="M560.158 81.2514L562.385 81.2514L562.385 83.478L560.158 83.478L560.158 81.2514z"/>
<path class="l5" d="M542.345 94.6112L544.572 94.6112L544.572 96.8378L542.345 96.8378L542.345 94.6112z"/>
<path class="l5" d="M560.158 107.971L562.385 107.971L562.385 110.198L560.158 110.198L560.158 107.971z"/>
<path class="l5" d="M561.237 95.6897L561.306 95.6897L561.306 95.7593L561.237 95.7593L561.237 95.6897z"/>
<path class="l5" d="M533.995 95.1679L535.108 95.1679L535.108 96.2812L533.995 96.2812L533.995 95.1679z"/>
<path class="l5" d="M439.92 200.599L442.146 200.599L442.146 202.826L439.92 202.826L439.92 200.599z"/>
<path class="l5" d="M439.92 227.319L442.146 227.319L442.146 229.545L439.92 229.545L439.92 227.319z"/>
<path class="l5" d="M458.289 228.766L459.403 228.766L459.403 229.879L458.289 229.879L458.289 228.766z"/>
<path class="l5" d="M561.271 228.209L559.045 229.323L561.271 230.436L561.271 228.209"/>
<path class="l5" d="M560.158 214.85L562.385 214.85L562.385 217.076L560.158 217.076L560.158 214.85z"/>
<path class="l5" d="M542.345 228.209L544.572 228.209L544.572 230.436L542.345 230.436L542.345 228.209z"/>
<path class="l5" d="M560.158 241.569L562.385 241.569L562.385 243.796L560.158 243.796L560.158 241.569z"/>
<path class="l5" d="M561.237 229.288L561.306 229.288L561.306 229.357L561.237 229.357L561.237 229.288z"/>
<path class="l5" d="M533.995 228.766L535.108 228.766L535.108 229.879L533.995 229.879L533.995 228.766z"/>
<path class="l5" d="M439.92 334.197L442.146 334.197L442.146 336.424L439.92 336.424L439.92 334.197z"/>
<path class="l5" d="M439.92 360.917L442.146 360.917L442.146 363.144L439.92 363.144L439.92 360.917z"/>
<path class="l5" d="M458.289 362.364L459.403 362.364L459.403 363.478L458.289 363.478L458.289 362.364z"/>
<path class="l5" d="M561.271 361.808L559.045 362.921L561.271 364.034L561.271 361.808"/>
<path class="l5" d="M560.158 348.448L562.385 348.448L562.385 350.674L560.158 350.674L560.158 348.448z"/>
<path class="l5" d="M542.345 361.808L544.572 361.808L544.572 364.034L542.345 364.034L542.345 361.808z"/>
<path class="l5" d="M560.158 375.167L562.385 375.167L562.385 377.394L560.158 377.394L560.158 375.167z"/>
<path class="l5" d="M561.237 362.886L561.306 362.886L561.306 362.956L561.237 362.956L561.237 362.886z"/>
<path class="l5" d="M533.995 362.364L535.108 362.364L535.108 363.478L533.995 363.478L533.995 362.364z"/>
<path class="l5" d="M439.92 467.795L442.146 467.795L442.146 470.022L439.92 470.022L439.92 467.795z"/>
<path class="l5" d="M439.92 494.515L442.146 494.515L442.146 496.742L439.92 496.742L439.92 494.515z"/>
<path class="l5" d="M458.289 495.962L459.403 495.962L459.403 497.076L458.289 497.076L458.289 495.962z"/>
<path class="l5" d="M561.271 495.406L559.045 496.519L561.271 497.632L561.271 495.406"/>
<path class="l5" d="M560.158 482.046L562.385 482.046L562.385 484.273L560.158 484.273L560.158 482.046z"/>
<path class="l5" d="M542.345 495.406L544.572 495.406L544.572 497.632L542.345 497.632L542.345 495.406z"/>
<path class="l5" d="M560.158 508.766L562.385 508.766L562.385 510.992L560.158 510.992L560.158 508.766z"/>
<path class="l5" d="M561.237 496.484L561.306 496.484L561.306 496.554L561.237 496.554L561.237 496.484z"/>
<path class="l5" d="M533.995 495.962L535.108 495.962L535.108 497.076L533.995 497.076L533.995 495.962z"/>
<path class="l5" d="M706.838 344.217L708.229 344.217"/>
<path class="l5" d="M702.106 346.444L700.436 344.217L702.106 341.991L705.168 341.991L706.838 344.217L705.168 346.444L702.106 346.444"/>
<path class="l5" d="M707.673 343.66L708.786 343.66L708.786 344.774L707.673 344.774L707.673 343.66z"/>
<path class="l5" d="M930.893 326.404L932.285 326.404"/>
<path class="l5" d="M937.016 328.631L938.686 326.404L937.016 324.177L933.955 324.177L932.285 326.404L933.955 328.631L937.016 328.631"/>
<path class="l5" d="M930.336 325.847L931.45 325.847L931.45 326.961L930.336 326.961L930.336 325.847z"/>
<path class="l5" d="M925.883 312.488L926.996 312.488L926.996 313.601L925.883 313.601L925.883 312.488z"/>
<path class="l5" d="M818.448 178.333L820.674 178.333L820.674 180.559L818.448 180.559L818.448 178.333z"/>
<path class="l5" d="M818.448 205.052L820.674 205.052L820.674 207.279L818.448 207.279L818.448 205.052z"/>
<path class="l5" d="M893.04 160.52L895.267 161.633L893.04 162.746L893.04 160.52"/>
<path class="l5" d="M894.153 173.879L896.38 173.879L896.38 176.106L894.153 176.106L894.153 173.879z"/>
<path class="l5" d="M876.34 160.52L878.567 160.52L878.567 162.746L876.34 162.746L876.34 160.52z"/>
<path class="l5" d="M894.153 147.16L896.38 147.16L896.38 149.386L894.153 149.386L894.153 147.16z"/>
<path class="l5" d="M895.232 161.598L895.302 161.598L895.302 161.668L895.232 161.668L895.232 161.598z"/>
<path class="l5" d="M893.04 218.412L895.267 219.526L893.04 220.639L893.04 218.412"/>
<path class="l5" d="M894.153 231.772L896.38 231.772L896.38 233.999L894.153 233.999L894.153 231.772z"/>
<path class="l5" d="M876.34 218.412L878.567 218.412L878.567 220.639L876.34 220.639L876.34 218.412z"/>
<path class="l5" d="M894.153 205.052L896.38 205.052L896.38 207.279L894.153 207.279L894.153 205.052z"/>
<path class="l5" d="M895.232 219.491L895.302 219.491L895.302 219.56L895.232 219.56L895.232 219.491z"/>
<path class="l5" d="M715.744 593.6L717.136 593.6"/>
<path class="l5" d="M711.013 595.827L709.343 593.6L711.013 591.374L714.074 591.374L715.744 593.6L714.074 595.827L711.013 595.827"/>
<path class="l5" d="M716.579 593.044L717.693 593.044L717.693 594.157L716.579 594.157L716.579 593.044z"/>
<path class="l5" d="M715.744 606.96L717.136 606.96"/>
<path class="l5" d="M711.013 609.187L709.343 606.96L711.013 604.734L714.074 604.734L715.744 606.96L714.074 609.187L711.013 609.187"/>
<path class="l5" d="M716.579 606.404L717.693 606.404L717.693 607.517L716.579 607.517L716.579 606.404z"/>
<path class="l5" d="M715.744 620.32L717.136 620.32"/>
<path class="l5" d="M711.013 622.547L709.343 620.32L711.013 618.093L714.074 618.093L715.744 620.32L714.074 622.547L711.013 622.547"/>
<path class="l5" d="M716.579 619.763L717.693 619.763L717.693 620.877L716.579 620.877L716.579 619.763z"/>
<path class="l5" d="M715.744 633.68L717.136 633.68"/>
<path class="l5" d="M711.013 635.907L709.343 633.68L711.013 631.453L714.074 631.453L715.744 633.68L714.074 635.907L711.013 635.907"/>
<path class="l5" d="M716.579 633.123L717.693 633.123L717.693 634.237L716.579 634.237L716.579 633.123z"/>
<path class="l7" d="M53.5982 201.712L107.037 201.712"/>
<path class="l7" d="M107.037 201.712L107.037 228.432"/>
<path class="l7" d="M53.5982 228.432L107.037 228.432"/>
<path class="l7" d="M53.5982 201.712L53.5982 228.432"/>
<path class="l7" d="M124.851 203.939L151.57 203.939"/>
<path class="l7" d="M151.57 203.939L151.57 226.205"/>
<path class="l7" d="M124.851 226.205L151.57 226.205"/>
<path class="l7" d="M124.851 203.939L124.851 226.205"/>
<path class="l7" d="M53.5982 290.778L107.037 290.778"/>
<path class="l7" d="M107.037 290.778L107.037 317.498"/>
<path class="l7" d="M53.5982 317.498L107.037 317.498"/>
<path class="l7" d="M53.5982 290.778L53.5982 317.498"/>
<path class="l7" d="M124.851 293.005L151.57 293.005"/>
<path class="l7" d="M151.57 293.005L151.57 315.271"/>
<path class="l7" d="M124.851 315.271L151.57 315.271"/>
<path class="l7" d="M124.851 293.005L124.851 315.271"/>
<path class="l7" d="M53.5982 379.843L107.037 379.843"/>
<path class="l7" d="M107.037 379.843L107.037 406.563"/>
<path class="l7" d="M53.5982 406.563L107.037 406.563"/>
<path class="l7" d="M53.5982 379.843L53.5982 406.563"/>
<path class="l7" d="M124.851 382.07L151.57 382.07"/>
<path class="l7" d="M151.57 382.07L151.57 404.336"/>
<path class="l7" d="M124.851 404.336L151.57 404.336"/>
<path class="l7" d="M124.851 382.07L124.851 404.336"/>
<path class="l7" d="M53.5982 468.909L107.037 468.909"/>
<path class="l7" d="M107.037 468.909L107.037 495.628"/>
<path class="l7" d="M53.5982 495.628L107.037 495.628"/>
<path class="l7" d="M53.5982 468.909L53.5982 495.628"/>
<path class="l7" d="M124.851 471.135L151.57 471.135"/>
<path class="l7" d="M151.57 471.135L151.57 493.402"/>
<path class="l7" d="M124.851 493.402L151.57 493.402"/>
<path class="l7" d="M124.851 471.135L124.851 493.402"/>
<path class="l7" d="M739.402 290.778L739.402 362.03"/>
<path class="l7" d="M739.402 290.778L810.655 326.404"/>
<path class="l7" d="M739.402 362.03L810.655 326.404"/>
<path class="l1" d="M40.2384 14.6749L975.426 14.6749"/>
<path class="l1" d="M40.2384 682.666L975.426 682.666"/>
<path class="l1" d="M31.3318 77.0208L107.037 77.0208"/>
<path class="l1" d="M31.3318 94.8339L218.369 94.8339"/>
<path class="l1" d="M200.556 121.553L209.463 121.553"/>
<path class="l1" d="M200.556 121.553L200.556 157.18"/>
<path class="l1" d="M200.556 157.18L209.463 157.18"/>
<path class="l1" d="M200.556 94.8339L200.556 121.553"/>
<path class="l1" d="M227.276 14.6749L227.276 108.194"/>
<path class="l1" d="M227.276 170.539L227.276 682.666"/>
<path class="l1" d="M227.276 134.913L227.276 143.82"/>
<path class="l1" d="M227.276 139.367L240.636 139.367"/>
<path class="l1" d="M89.2244 121.553L98.1309 121.553"/>
<path class="l1" d="M89.2244 121.553L89.2244 157.18"/>
<path class="l1" d="M89.2244 157.18L98.1309 157.18"/>
<path class="l1" d="M89.2244 77.0208L89.2244 121.553"/>
<path class="l1" d="M115.944 14.6749L115.944 108.194"/>
<path class="l1" d="M115.944 170.539L115.944 682.666"/>
<path class="l1" d="M115.944 134.913L115.944 143.82"/>
<path class="l1" d="M115.944 139.367L129.304 139.367"/>
<path class="l1" d="M44.6917 208.392L53.5982 208.392"/>
<path class="l1" d="M44.6917 219.526L53.5982 219.526"/>
<path class="l1" d="M107.037 215.072L124.851 215.072"/>
<path class="l1" d="M151.57 215.072L178.29 215.072"/>
<path class="l1" d="M44.6917 297.458L53.5982 297.458"/>
<path class="l1" d="M44.6917 308.591L53.5982 308.591"/>
<path class="l1" d="M107.037 304.138L124.851 304.138"/>
<path class="l1" d="M151.57 304.138L178.29 304.138"/>
<path class="l1" d="M44.6917 386.523L53.5982 386.523"/>
<path class="l1" d="M44.6917 397.656L53.5982 397.656"/>
<path class="l1" d="M107.037 393.203L124.851 393.203"/>
<path class="l1" d="M151.57 393.203L178.29 393.203"/>
<path class="l1" d="M44.6917 475.589L53.5982 475.589"/>
<path class="l1" d="M44.6917 486.722L53.5982 486.722"/>
<path class="l1" d="M107.037 482.269L124.851 482.269"/>
<path class="l1" d="M151.57 482.269L178.29 482.269"/>
<path class="l1" d="M387.594 326.404L414.313 326.404"/>
<path class="l1" d="M414.313 77.0208L414.313 593.6"/>
<path class="l1" d="M619.164 77.0208L619.164 593.6"/>
<path class="l1" d="M414.313 68.1142L441.033 68.1142"/>
<path class="l1" d="M441.033 95.7245L458.846 95.7245"/>
<path class="l1" d="M458.846 95.7245L543.458 95.7245"/>
<path class="l1" d="M561.271 109.084L619.164 109.084"/>
<path class="l1" d="M619.164 95.7245L619.164 109.084"/>
<path class="l1" d="M534.552 95.7245L543.458 95.7245"/>
<path class="l1" d="M561.271 72.5675L561.271 82.3647"/>
<path class="l1" d="M414.313 201.712L441.033 201.712"/>
<path class="l1" d="M441.033 229.323L458.846 229.323"/>
<path class="l1" d="M458.846 229.323L543.458 229.323"/>
<path class="l1" d="M561.271 242.683L619.164 242.683"/>
<path class="l1" d="M619.164 229.323L619.164 242.683"/>
<path class="l1" d="M534.552 229.323L543.458 229.323"/>
<path class="l1" d="M561.271 206.166L561.271 215.963"/>
<path class="l1" d="M414.313 335.311L441.033 335.311"/>
<path class="l1" d="M441.033 362.921L458.846 362.921"/>
<path class="l1" d="M458.846 362.921L543.458 362.921"/>
<path class="l1" d="M561.271 376.281L619.164 376.281"/>
<path class="l1" d="M619.164 362.921L619.164 376.281"/>
<path class="l1" d="M534.552 362.921L543.458 362.921"/>
<path class="l1" d="M561.271 339.764L561.271 349.561"/>
<path class="l1" d="M414.313 468.909L441.033 468.909"/>
<path class="l1" d="M441.033 496.519L458.846 496.519"/>
<path class="l1" d="M458.846 496.519L543.458 496.519"/>
<path class="l1" d="M561.271 509.879L619.164 509.879"/>
<path class="l1" d="M619.164 496.519L619.164 509.879"/>
<path class="l1" d="M534.552 496.519L543.458 496.519"/>
<path class="l1" d="M561.271 473.362L561.271 483.159"/>
<path class="l1" d="M619.164 326.404L717.136 326.404"/>
<path class="l1" d="M717.136 308.591L717.136 326.404"/>
<path class="l1" d="M717.136 308.591L739.402 308.591"/>
<path class="l1" d="M708.229 344.217L739.402 344.217"/>
<path class="l1" d="M810.655 326.404L930.893 326.404"/>
<path class="l1" d="M775.028 14.6749L775.028 290.778"/>
<path class="l1" d="M775.028 362.03L775.028 682.666"/>
<path class="l1" d="M717.136 179.446L717.136 308.591"/>
<path class="l1" d="M717.136 179.446L819.561 179.446"/>
<path class="l1" d="M819.561 207.056L819.561 326.404"/>
<path class="l1" d="M895.267 148.273L895.267 166.086"/>
<path class="l1" d="M734.949 166.086L895.267 166.086"/>
<path class="l1" d="M734.949 166.086L734.949 179.446"/>
<path class="l1" d="M868.547 161.633L877.454 161.633"/>
<path class="l1" d="M868.547 161.633L868.547 166.086"/>
<path class="l1" d="M895.267 174.993L895.267 206.166"/>
<path class="l1" d="M895.267 232.885L895.267 326.404"/>
<path class="l1" d="M895.267 326.404L930.893 326.404"/>
<path class="l1" d="M868.547 219.526L877.454 219.526"/>
<path class="l1" d="M868.547 219.526L868.547 326.404"/>
<circle class="l1" cx="115.944" cy="14.6749" r="1.78131"/>
<circle class="l1" cx="89.2244" cy="77.0208" r="1.78131"/>
<circle class="l1" cx="89.2244" cy="121.553" r="1.78131"/>
<circle class="l1" cx="227.276" cy="14.6749" r="1.78131"/>
<circle class="l1" cx="200.556" cy="94.8339" r="1.78131"/>
<circle class="l1" cx="200.556" cy="121.553" r="1.78131"/>
<circle class="l1" cx="115.944" cy="139.367" r="1.78131"/>
<circle class="l1" cx="115.944" cy="682.666" r="1.78131"/>
<circle class="l1" cx="89.2244" cy="121.553" r="1.78131"/>
<circle class="l1" cx="89.2244" cy="121.553" r="1.78131"/>
<circle class="l1" cx="227.276" cy="139.367" r="1.78131"/>
<circle class="l1" cx="227.276" cy="682.666" r="1.78131"/>
<circle class="l1" cx="200.556" cy="121.553" r="1.78131"/>
<circle class="l1" cx="200.556" cy="121.553" r="1.78131"/>
<circle class="l1" cx="414.313" cy="201.712" r="1.78131"/>
<circle class="l1" cx="414.313" cy="335.311" r="1.78131"/>
<circle class="l1" cx="414.313" cy="326.404" r="1.78131"/>
<circle class="l1" cx="414.313" cy="468.909" r="1.78131"/>
<circle class="l1" cx="534.552" cy="95.7245" r="1.78131"/>
<circle class="l1" cx="534.552" cy="229.323" r="1.78131"/>
<circle class="l1" cx="619.164" cy="242.683" r="1.78131"/>
<circle class="l1" cx="619.164" cy="109.084" r="1.78131"/>
<circle class="l1" cx="534.552" cy="362.921" r="1.78131"/>
<circle class="l1" cx="619.164" cy="376.281" r="1.78131"/>
<circle class="l1" cx="534.552" cy="496.519" r="1.78131"/>
<circle class="l1" cx="619.164" cy="509.879" r="1.78131"/>
<circle class="l1" cx="775.028" cy="14.6749" r="1.78131"/>
<circle class="l1" cx="619.164" cy="95.7245" r="1.78131"/>
<circle class="l1" cx="619.164" cy="109.084" r="1.78131"/>
<circle class="l1" cx="734.949" cy="179.446" r="1.78131"/>
<circle class="l1" cx="717.136" cy="308.591" r="1.78131"/>
<circle class="l1" cx="619.164" cy="229.323" r="1.78131"/>
<circle class="l1" cx="619.164" cy="242.683" r="1.78131"/>
<circle class="l1" cx="775.028" cy="682.666" r="1.78131"/>
<circle class="l1" cx="717.136" cy="308.591" r="1.78131"/>
<circle class="l1" cx="717.136" cy="308.591" r="1.78131"/>
<circle class="l1" cx="619.164" cy="326.404" r="1.78131"/>
<circle class="l1" cx="619.164" cy="362.921" r="1.78131"/>
<circle class="l1" cx="619.164" cy="376.281" r="1.78131"/>
<circle class="l1" cx="619.164" cy="496.519" r="1.78131"/>
<circle class="l1" cx="619.164" cy="509.879" r="1.78131"/>
<circle class="l1" cx="868.547" cy="326.404" r="1.78131"/>
<circle class="l1" cx="895.267" cy="326.404" r="1.78131"/>
<circle class="l1" cx="868.547" cy="166.086" r="1.78131"/>
<circle class="l1" cx="819.561" cy="326.404" r="1.78131"/>
<circle class="l1" cx="895.267" cy="326.404" r="1.78131"/>
</svg>
