<svg xmlns="http://www.w3.org/2000/svg" xmlns:xlink="http://www.w3.org/1999/xlink" width="1300" height="700" version="1.1">
<style type="text/css">
.l0{
 fill: #000000;
  stroke: #000000;
  stroke-linecap:round;
  stroke-linejoin:round;
  stroke-width: 0.496787;
}
.l1{
 fill: #00ccee;
  stroke: #00ccee;
  stroke-linecap:round;
  stroke-linejoin:round;
  stroke-width: 0.496787;
}
.l2{
  fill: none;
  stroke: #3f3f3f;
  stroke-linecap:round;
  stroke-linejoin:round;
  stroke-width: 0.496787;
}
.l3{
 fill: #cccccc; fill-opacity: 0.5;
  stroke: #cccccc;
  stroke-linecap:round;
  stroke-linejoin:round;
  stroke-width: 0.496787;
}
.l4{
 fill: #88dd00;
  stroke: #88dd00;
  stroke-linecap:round;
  stroke-linejoin:round;
  stroke-width: 0.496787;
}
.l5{
 fill: #bb2200;
  stroke: #bb2200;
  stroke-linecap:round;
  stroke-linejoin:round;
  stroke-width: 0.496787;
}
.l6{
 fill: #00ccee; fill-opacity: 0.5;
  stroke: #00ccee;
  stroke-linecap:round;
  stroke-linejoin:round;
  stroke-width: 0.496787;
}
.l7{
 fill: #ff0000; fill-opacity: 0.5;
  stroke: #ff0000;
  stroke-linecap:round;
  stroke-linejoin:round;
  stroke-width: 0.496787;
}
.l8{
 fill: #ffff00; fill-opacity: 0.5;
  stroke: #ffff00;
  stroke-linecap:round;
  stroke-linejoin:round;
  stroke-width: 0.496787;
}
.l9{
 fill: #ffffff; fill-opacity: 0.5;
  stroke: #ffffff;
  stroke-linecap:round;
  stroke-linejoin:round;
  stroke-width: 0.496787;
}
.l10{
 fill: #ff00ff;
  stroke: #ff00ff;
  stroke-linecap:round;
  stroke-linejoin:round;
  stroke-width: 0.496787;
}
.l11{
 fill: #00ff00; fill-opacity: 0.5;
  stroke: #00ff00;
  stroke-linecap:round;
  stroke-linejoin:round;
  stroke-width: 0.496787;
}
.l12{
 fill: #0044dd; fill-opacity: 0.5;
  stroke: #0044dd;
  stroke-linecap:round;
  stroke-linejoin:round;
  stroke-width: 0.496787;
}
.l13{
 fill: #aaaa00; fill-opacity: 0.5;
  stroke: #aaaa00;
  stroke-linecap:round;
  stroke-linejoin:round;
  stroke-width: 0.496787;
}
.l14{
  fill: none;
  stroke: #aaccaa;
  stroke-linecap:round;
  stroke-linejoin:round;
  stroke-width: 0.496787;
}
.l15{
 fill: #ff7777; fill-opacity: 0.5;
  stroke: #ff7777;
  stroke-linecap:round;
  stroke-linejoin:round;
  stroke-width: 0.496787;
}
.l16{
 fill: #bfff81; fill-opacity: 0.5;
  stroke: #bfff81;
  stroke-linecap:round;
  stroke-linejoin:round;
  stroke-width: 0.496787;
}
.l17{
  fill: none;
  stroke: #00ffcc;
  stroke-linecap:round;
  stroke-linejoin:round;
  stroke-width: 0.496787;
}
.l18{
 fill: #ce0097; fill-opacity: 0.5;
  stroke: #ce0097;
  stroke-linecap:round;
  stroke-linejoin:round;
  stroke-width: 0.496787;
}
.l19{
  fill: none;
  stroke: #d2d46b;
  stroke-linecap:round;
  stroke-linejoin:round;
  stroke-width: 0.496787;
}
.l20{
  fill: none;
  stroke: #ef6158;
  stroke-linecap:round;
  stroke-linejoin:round;
  stroke-width: 0.496787;
}
.l21{
  fill: none;
  stroke: #fdb200;
  stroke-linecap:round;
  stroke-linejoin:round;
  stroke-width: 0.496787;
}
text {font-family: Sans-Serif;}
</style>
<rect class="l0" x="0" y="0" width="1300" height="700"/>
<text fill="#cccccc"  xml:space="preserve" font-size="8.37179" transform="translate(116.197, 1.50712)" >Supply: vdd_comp = 1.8 V    |    Threshold: PVDD &lt; 4.3 V    |    uv_flag = HIGH when undervoltage</text>
<text fill="#cccccc"  xml:space="preserve" font-size="7.17582" transform="translate(116.197, 23.4206)" >Date: 2026-03-28</text>
<text fill="#aaaa00"  xml:space="preserve" font-size="7.17582" transform="translate(116.197, 41.8201)" >.subckt uv_comparator  pvdd  vref  uv_flag  vdd_comp  gnd  en</text>
<text fill="#88dd00"  xml:space="preserve" font-size="11.9597" transform="translate(116.197, 87.5629)" >RESISTIVE DIVIDER</text>
<text fill="#cccccc"  xml:space="preserve" font-size="7.17582" transform="translate(116.197, 101.619)" >Scales PVDD down to ~1.226 V</text>
<text fill="#cccccc"  xml:space="preserve" font-size="7.17582" transform="translate(116.197, 115.418)" >at threshold crossing</text>
<text fill="#ff0000"  xml:space="preserve" font-size="9.56776" transform="translate(125.397, 149.789)" >pvdd</text>
<text fill="#ffff00"  xml:space="preserve" font-size="8.37179" transform="translate(203.595, 226.901)" >mid_uv</text>
<text fill="#88dd00"  xml:space="preserve" font-size="10.7637" transform="translate(244.994, 86.4769)" >HYSTERESIS</text>
<text fill="#ff0000"  xml:space="preserve" font-size="7.17582" transform="translate(244.994, 101.619)" >R_hyst = 2.5 Meg</text>
<text fill="#cccccc"  xml:space="preserve" font-size="7.17582" transform="translate(244.994, 115.418)" >Feedback: out_n to mid_uv</text>
<text fill="#bb2200"  xml:space="preserve" font-size="5.97985" transform="translate(244.994, 128.132)" >Positive feedback for clean switching</text>
<text fill="#ffff00"  xml:space="preserve" font-size="7.17582" transform="translate(318.592, 253.415)" >out_n</text>
<text fill="#88dd00"  xml:space="preserve" font-size="10.7637" transform="translate(346.192, 86.4769)" >BIAS</text>
<text fill="#cccccc"  xml:space="preserve" font-size="7.17582" transform="translate(346.192, 101.619)" >~1 uA self-biased</text>
<text fill="#ffff00"  xml:space="preserve" font-size="7.17582" transform="translate(350.792, 110.818)" >vdd_comp</text>
<text fill="#ffff00"  xml:space="preserve" font-size="7.17582" transform="translate(392.19, 189.016)" >bias_n</text>
<text fill="#88dd00"  xml:space="preserve" font-size="11.9597" transform="translate(484.188, 87.5629)" >NMOS DIFFERENTIAL PAIR</text>
<text fill="#88dd00"  xml:space="preserve" font-size="10.7637" transform="translate(484.188, 104.876)" >+ PMOS CURRENT MIRROR LOAD</text>
<text fill="#ffff00"  xml:space="preserve" font-size="7.17582" transform="translate(534.787, 138.418)" >vdd_comp</text>
<text fill="#aaaa00"  xml:space="preserve" font-size="5.97985" transform="translate(534.787, 185.631)" >out_p</text>
<text fill="#ffff00"  xml:space="preserve" font-size="7.17582" transform="translate(649.784, 138.418)" >vdd_comp</text>
<text fill="#ff0000"  xml:space="preserve" font-size="8.37179" transform="translate(649.784, 187.802)" >out_n</text>
<text fill="#ffff00"  xml:space="preserve" font-size="8.37179" transform="translate(465.789, 254.501)" >mid_uv</text>
<text fill="#ffff00"  xml:space="preserve" font-size="8.37179" transform="translate(589.986, 254.501)" >vref</text>
<text fill="#aaaa00"  xml:space="preserve" font-size="7.17582" transform="translate(592.285, 283.314)" >tail</text>
<text fill="#ffff00"  xml:space="preserve" font-size="7.17582" transform="translate(523.287, 317.813)" >bias_n</text>
<text fill="#88dd00"  xml:space="preserve" font-size="11.9597" transform="translate(737.182, 87.5629)" >ENABLE + NOR OUTPUT</text>
<text fill="#aaaa00"  xml:space="preserve" font-size="8.37179" transform="translate(737.182, 102.705)" >uv_flag = NOR(out_n, en_bar)</text>
<text fill="#bb2200"  xml:space="preserve" font-size="7.17582" transform="translate(737.182, 115.418)" >HIGH when PVDD &lt; threshold</text>
<text fill="#ffff00"  xml:space="preserve" font-size="8.37179" transform="translate(709.582, 185.502)" >en</text>
<text fill="#aaaa00"  xml:space="preserve" font-size="7.17582" transform="translate(783.181, 186.716)" >en_bar</text>
<text fill="#ffff00"  xml:space="preserve" font-size="5.97985" transform="translate(773.981, 137.332)" >vdd_comp</text>
<text fill="#ffff00"  xml:space="preserve" font-size="7.17582" transform="translate(787.781, 175.217)" >out_n</text>
<text fill="#ffff00"  xml:space="preserve" font-size="5.97985" transform="translate(856.779, 146.532)" >vdd_comp</text>
<text fill="#ffff00"  xml:space="preserve" font-size="7.17582" transform="translate(787.781, 216.616)" >en_bar</text>
<text fill="#ffff00"  xml:space="preserve" font-size="5.97985" transform="translate(773.981, 270.728)" >out_n</text>
<text fill="#ffff00"  xml:space="preserve" font-size="5.97985" transform="translate(819.98, 270.728)" >en_bar</text>
<text fill="#88dd00"  xml:space="preserve" font-size="11.9597" transform="translate(953.376, 239.359)" >uv_flag</text>
<text fill="#cccccc"  xml:space="preserve" font-size="7.17582" transform="translate(953.376, 253.415)" >HIGH when PVDD &lt; 4.3 V</text>
<text fill="#88dd00"  xml:space="preserve" font-size="11.9597" transform="translate(116.197, 455.554)" >CHARACTERIZATION</text>
<text fill="#ff0000"  xml:space="preserve" font-size="7.17582" transform="translate(116.197, 478.809)" >UV threshold (falling, TT 27C)   =  4.289 V       spec 4.0 - 4.5 V       PASS</text>
<text fill="#ff0000"  xml:space="preserve" font-size="7.17582" transform="translate(116.197, 497.209)" >UV hysteresis                     =  63.5 mV       spec 50 - 150 mV        PASS</text>
<text fill="#ff0000"  xml:space="preserve" font-size="7.17582" transform="translate(116.197, 515.608)" >UV de-assertion (rising)          =  4.353 V       within spec window       PASS</text>
<text fill="#ff0000"  xml:space="preserve" font-size="7.17582" transform="translate(116.197, 534.008)" >Response time                     =  &lt; 0.01 us     spec &lt;= 5 us             PASS</text>
<text fill="#ff0000"  xml:space="preserve" font-size="7.17582" transform="translate(116.197, 552.407)" >Power (from vdd_comp)             =  2.71 uA       spec &lt;= 5 uA             PASS</text>
<text fill="#ff0000"  xml:space="preserve" font-size="7.17582" transform="translate(116.197, 570.807)" >Output rail-to-rail               =  YES            0 / 1.8 V               PASS</text>
<text fill="#ff0000"  xml:space="preserve" font-size="7.17582" transform="translate(116.197, 589.206)" >Threshold error                   =  5.2 mV        spec &lt;= 200 mV           PASS</text>
<text fill="#88dd00"  xml:space="preserve" font-size="10.7637" transform="translate(116.197, 624.663)" >All 13/13 specs PASS</text>
<text fill="#00ccee"  xml:space="preserve" font-size="7.8934" transform="translate(165.051, 141.174) rotate(270)" >pvdd</text>
<text fill="#00ccee"  xml:space="preserve" font-size="4.78388" transform="translate(165.646, 294.942)" >GND</text>
<text fill="#00ccee"  xml:space="preserve" font-size="4.78388" transform="translate(381.841, 239.743)" >GND</text>
<text fill="#00ccee"  xml:space="preserve" font-size="4.78388" transform="translate(591.135, 350.14)" >GND</text>
<text fill="#00ccee"  xml:space="preserve" font-size="4.78388" transform="translate(772.831, 235.143)" >GND</text>
<text fill="#00ccee"  xml:space="preserve" font-size="4.78388" transform="translate(841.829, 304.142)" >GND</text>
<text fill="#00ccee"  xml:space="preserve" font-size="4.78388" transform="translate(892.428, 304.142)" >GND</text>
<text fill="#00ccee"  xml:space="preserve" font-size="7.8934" transform="translate(957.904, 245.154)" >uv_flag</text>
<text fill="#cccccc"  xml:space="preserve" font-size="4.78388" transform="translate(129.796, 180.52)" >R_top</text>
<text fill="#cccccc"  xml:space="preserve" font-size="4.78388" transform="translate(169.096, 185.12)" >500k</text>
<text fill="#aaaa00"  xml:space="preserve" font-size="4.78388" transform="translate(152.496, 174.77)" >1</text>
<text fill="#aaaa00"  xml:space="preserve" font-size="4.78388" transform="translate(152.496, 194.319)" >2</text>
<text fill="#cccccc"  xml:space="preserve" font-size="4.78388" transform="translate(139.996, 187.42)" >m=1</text>
<text fill="#cccccc"  xml:space="preserve" font-size="4.78388" transform="translate(129.796, 254.118)" >R_bot</text>
<text fill="#cccccc"  xml:space="preserve" font-size="4.78388" transform="translate(169.096, 258.718)" >199.4k</text>
<text fill="#aaaa00"  xml:space="preserve" font-size="4.78388" transform="translate(152.496, 248.368)" >1</text>
<text fill="#aaaa00"  xml:space="preserve" font-size="4.78388" transform="translate(152.496, 267.917)" >2</text>
<text fill="#cccccc"  xml:space="preserve" font-size="4.78388" transform="translate(139.996, 261.018)" >m=1</text>
<text fill="#cccccc"  xml:space="preserve" font-size="4.78388" transform="translate(239.694, 235.718)" >R_hyst</text>
<text fill="#cccccc"  xml:space="preserve" font-size="4.78388" transform="translate(284.093, 240.318)" >2.5M</text>
<text fill="#aaaa00"  xml:space="preserve" font-size="4.78388" transform="translate(267.494, 229.968)" >1</text>
<text fill="#aaaa00"  xml:space="preserve" font-size="4.78388" transform="translate(267.494, 249.518)" >2</text>
<text fill="#cccccc"  xml:space="preserve" font-size="4.78388" transform="translate(254.994, 242.618)" >m=1</text>
<text fill="#cccccc"  xml:space="preserve" font-size="4.78388" transform="translate(340.891, 143.721)" >R_bias</text>
<text fill="#cccccc"  xml:space="preserve" font-size="4.78388" transform="translate(385.291, 148.321)" >800k</text>
<text fill="#aaaa00"  xml:space="preserve" font-size="4.78388" transform="translate(368.691, 137.971)" >1</text>
<text fill="#aaaa00"  xml:space="preserve" font-size="4.78388" transform="translate(368.691, 157.52)" >2</text>
<text fill="#cccccc"  xml:space="preserve" font-size="4.78388" transform="translate(356.191, 150.62)" >m=1</text>
<text fill="#cccccc"  xml:space="preserve" font-size="4.78388" transform="translate(372.641, 196.619)" >1u/4u/1</text>
<text fill="#cccccc"  xml:space="preserve" font-size="4.78388" transform="translate(372.641, 208.694)" >XXMbias</text>
<text fill="#cccccc"  xml:space="preserve" font-size="3.58791" transform="translate(380.691, 191.508)" >D</text>
<text fill="#cccccc"  xml:space="preserve" font-size="4.78388" transform="translate(524.437, 164.995)" >2u/1u/1</text>
<text fill="#cccccc"  xml:space="preserve" font-size="4.78388" transform="translate(524.437, 176.495)" >XXM3</text>
<text fill="#cccccc"  xml:space="preserve" font-size="3.58791" transform="translate(532.487, 181.159)" >D</text>
<text fill="#cccccc"  xml:space="preserve" font-size="4.78388" transform="translate(639.434, 164.995)" >2u/1u/1</text>
<text fill="#cccccc"  xml:space="preserve" font-size="4.78388" transform="translate(639.434, 176.495)" >XXM4</text>
<text fill="#cccccc"  xml:space="preserve" font-size="3.58791" transform="translate(647.484, 181.159)" >D</text>
<text fill="#cccccc"  xml:space="preserve" font-size="4.78388" transform="translate(524.437, 247.218)" >2u/1u/1</text>
<text fill="#cccccc"  xml:space="preserve" font-size="4.78388" transform="translate(524.437, 259.293)" >XXM1</text>
<text fill="#cccccc"  xml:space="preserve" font-size="3.58791" transform="translate(532.487, 242.107)" >D</text>
<text fill="#cccccc"  xml:space="preserve" font-size="4.78388" transform="translate(639.434, 247.218)" >2u/1u/1</text>
<text fill="#cccccc"  xml:space="preserve" font-size="4.78388" transform="translate(639.434, 259.293)" >XXM2</text>
<text fill="#cccccc"  xml:space="preserve" font-size="3.58791" transform="translate(647.484, 242.107)" >D</text>
<text fill="#cccccc"  xml:space="preserve" font-size="4.78388" transform="translate(581.936, 311.616)" >1u/4u/1</text>
<text fill="#cccccc"  xml:space="preserve" font-size="4.78388" transform="translate(581.936, 323.691)" >XXMtail</text>
<text fill="#cccccc"  xml:space="preserve" font-size="3.58791" transform="translate(589.986, 306.506)" >D</text>
<text fill="#cccccc"  xml:space="preserve" font-size="4.78388" transform="translate(763.631, 160.395)" >0.84u/0.15u/1</text>
<text fill="#cccccc"  xml:space="preserve" font-size="4.78388" transform="translate(763.631, 171.895)" >XXMen_p</text>
<text fill="#cccccc"  xml:space="preserve" font-size="3.58791" transform="translate(771.681, 176.559)" >D</text>
<text fill="#cccccc"  xml:space="preserve" font-size="4.78388" transform="translate(763.631, 196.619)" >0.42u/0.15u/1</text>
<text fill="#cccccc"  xml:space="preserve" font-size="4.78388" transform="translate(763.631, 208.694)" >XXMen_n</text>
<text fill="#cccccc"  xml:space="preserve" font-size="3.58791" transform="translate(771.681, 191.508)" >D</text>
<text fill="#cccccc"  xml:space="preserve" font-size="4.78388" transform="translate(846.429, 169.595)" >4u/0.15u/1</text>
<text fill="#cccccc"  xml:space="preserve" font-size="4.78388" transform="translate(846.429, 181.095)" >XXMnor_p1</text>
<text fill="#cccccc"  xml:space="preserve" font-size="3.58791" transform="translate(854.479, 185.759)" >D</text>
<text fill="#cccccc"  xml:space="preserve" font-size="4.78388" transform="translate(846.429, 210.994)" >4u/0.15u/1</text>
<text fill="#cccccc"  xml:space="preserve" font-size="4.78388" transform="translate(846.429, 222.494)" >XXMnor_p2</text>
<text fill="#cccccc"  xml:space="preserve" font-size="3.58791" transform="translate(854.479, 227.158)" >D</text>
<text fill="#cccccc"  xml:space="preserve" font-size="4.78388" transform="translate(832.629, 265.618)" >1u/0.15u/1</text>
<text fill="#cccccc"  xml:space="preserve" font-size="4.78388" transform="translate(832.629, 277.692)" >XXMnor_n1</text>
<text fill="#cccccc"  xml:space="preserve" font-size="3.58791" transform="translate(840.679, 260.507)" >D</text>
<text fill="#cccccc"  xml:space="preserve" font-size="4.78388" transform="translate(883.228, 265.618)" >1u/0.15u/1</text>
<text fill="#cccccc"  xml:space="preserve" font-size="4.78388" transform="translate(883.228, 277.692)" >XXMnor_n2</text>
<text fill="#cccccc"  xml:space="preserve" font-size="3.58791" transform="translate(891.278, 260.507)" >D</text>
<text fill="#cccccc"  xml:space="preserve" font-size="9.56776" transform="translate(196.695, 685.676)" >         /home/ubuntu/analog-ai-chips/pvdd_regulator/05_uv_ov_comparators/uv_comparator.sch</text>
<text fill="#cccccc"  xml:space="preserve" font-size="9.56776" transform="translate(196.695, 671.876)" >Block 05: UV Comparator -- Analog AI Chips PVDD LDO Regulator</text>
<text fill="#cccccc"  xml:space="preserve" font-size="9.56776" transform="translate(353.786, 671.876)" >2026-03-28  11:37:10</text>
<text fill="#cccccc"  xml:space="preserve" font-size="23.9194" transform="translate(90.8981, 684.907)" >SCHEM</text>
<path class="l4" d="M162.196 191.701L162.196 196.3"/>
<path class="l4" d="M162.196 191.701L165.646 190.551"/>
<path class="l4" d="M158.746 188.251L165.646 190.551"/>
<path class="l4" d="M158.746 188.251L165.646 185.951"/>
<path class="l4" d="M158.746 183.651L165.646 185.951"/>
<path class="l4" d="M158.746 183.651L165.646 181.351"/>
<path class="l4" d="M158.746 179.051L165.646 181.351"/>
<path class="l4" d="M158.746 179.051L165.646 176.751"/>
<path class="l4" d="M158.746 174.451L165.646 176.751"/>
<path class="l4" d="M158.746 174.451L162.196 173.301"/>
<path class="l4" d="M162.196 168.701L162.196 173.301"/>
<path class="l4" d="M163.346 172.151L165.646 172.151"/>
<path class="l4" d="M164.496 171.001L164.496 173.301"/>
<path class="l4" d="M162.196 265.299L162.196 269.899"/>
<path class="l4" d="M162.196 265.299L165.646 264.149"/>
<path class="l4" d="M158.746 261.849L165.646 264.149"/>
<path class="l4" d="M158.746 261.849L165.646 259.549"/>
<path class="l4" d="M158.746 257.249L165.646 259.549"/>
<path class="l4" d="M158.746 257.249L165.646 254.949"/>
<path class="l4" d="M158.746 252.649L165.646 254.949"/>
<path class="l4" d="M158.746 252.649L165.646 250.349"/>
<path class="l4" d="M158.746 248.049L165.646 250.349"/>
<path class="l4" d="M158.746 248.049L162.196 246.899"/>
<path class="l4" d="M162.196 242.299L162.196 246.899"/>
<path class="l4" d="M163.346 245.749L165.646 245.749"/>
<path class="l4" d="M164.496 244.599L164.496 246.899"/>
<path class="l4" d="M162.196 288.298L162.196 294.048"/>
<path class="l4" d="M159.896 294.048L164.496 294.048"/>
<path class="l4" d="M162.196 296.348L164.496 294.048"/>
<path class="l4" d="M159.896 294.048L162.196 296.348"/>
<path class="l4" d="M277.193 246.899L277.193 251.499"/>
<path class="l4" d="M277.193 246.899L280.643 245.749"/>
<path class="l4" d="M273.743 243.449L280.643 245.749"/>
<path class="l4" d="M273.743 243.449L280.643 241.149"/>
<path class="l4" d="M273.743 238.849L280.643 241.149"/>
<path class="l4" d="M273.743 238.849L280.643 236.549"/>
<path class="l4" d="M273.743 234.249L280.643 236.549"/>
<path class="l4" d="M273.743 234.249L280.643 231.95"/>
<path class="l4" d="M273.743 229.65L280.643 231.95"/>
<path class="l4" d="M273.743 229.65L277.193 228.5"/>
<path class="l4" d="M277.193 223.9L277.193 228.5"/>
<path class="l4" d="M278.343 227.35L280.643 227.35"/>
<path class="l4" d="M279.493 226.2L279.493 228.5"/>
<path class="l4" d="M378.391 154.901L378.391 159.501"/>
<path class="l4" d="M378.391 154.901L381.841 153.752"/>
<path class="l4" d="M374.941 151.452L381.841 153.752"/>
<path class="l4" d="M374.941 151.452L381.841 149.152"/>
<path class="l4" d="M374.941 146.852L381.841 149.152"/>
<path class="l4" d="M374.941 146.852L381.841 144.552"/>
<path class="l4" d="M374.941 142.252L381.841 144.552"/>
<path class="l4" d="M374.941 142.252L381.841 139.952"/>
<path class="l4" d="M374.941 137.652L381.841 139.952"/>
<path class="l4" d="M374.941 137.652L378.391 136.502"/>
<path class="l4" d="M378.391 131.902L378.391 136.502"/>
<path class="l4" d="M379.541 135.352L381.841 135.352"/>
<path class="l4" d="M380.691 134.202L380.691 136.502"/>
<path class="l4" d="M371.491 187.101L371.491 214.7"/>
<path class="l4" d="M371.491 191.701L378.391 191.701"/>
<path class="l4" d="M378.391 187.101L378.391 191.701"/>
<path class="l4" d="M371.491 210.1L378.391 210.1"/>
<path class="l4" d="M378.391 210.1L378.391 214.7"/>
<path class="l4" d="M366.891 194L366.891 207.8"/>
<path class="l4" d="M366.891 200.9L366.891 203.2"/>
<path class="l4" d="M359.991 200.9L363.441 200.9"/>
<path class="l4" d="M359.991 200.9L366.891 200.9"/>
<path class="l4" d="M373.791 200.9L378.391 200.9"/>
<path class="l4" d="M371.491 198.6L373.791 200.9"/>
<path class="l4" d="M371.491 203.2L373.791 200.9"/>
<path class="l4" d="M378.391 233.1L378.391 238.849"/>
<path class="l4" d="M376.091 238.849L380.691 238.849"/>
<path class="l4" d="M378.391 241.149L380.691 238.849"/>
<path class="l4" d="M376.091 238.849L378.391 241.149"/>
<path class="l4" d="M523.287 154.901L523.287 182.501"/>
<path class="l4" d="M523.287 177.901L530.187 177.901"/>
<path class="l4" d="M530.187 177.901L530.187 182.501"/>
<path class="l4" d="M523.287 159.501L530.187 159.501"/>
<path class="l4" d="M530.187 154.901L530.187 159.501"/>
<path class="l4" d="M518.687 161.801L518.687 175.601"/>
<path class="l4" d="M518.687 166.401L518.687 168.701"/>
<path class="l4" d="M517.537 166.401L518.687 167.551"/>
<path class="l4" d="M516.387 166.401L517.537 166.401"/>
<path class="l4" d="M515.237 167.551L516.387 166.401"/>
<path class="l4" d="M515.237 167.551L515.237 169.851"/>
<path class="l4" d="M515.237 169.851L516.387 171.001"/>
<path class="l4" d="M516.387 171.001L517.537 171.001"/>
<path class="l4" d="M517.537 171.001L518.687 169.851"/>
<path class="l4" d="M511.787 168.701L515.237 168.701"/>
<path class="l4" d="M525.587 168.701L530.187 168.701"/>
<path class="l4" d="M523.287 166.401L525.587 168.701"/>
<path class="l4" d="M523.287 171.001L525.587 168.701"/>
<path class="l4" d="M638.284 154.901L638.284 182.501"/>
<path class="l4" d="M638.284 177.901L645.184 177.901"/>
<path class="l4" d="M645.184 177.901L645.184 182.501"/>
<path class="l4" d="M638.284 159.501L645.184 159.501"/>
<path class="l4" d="M645.184 154.901L645.184 159.501"/>
<path class="l4" d="M633.684 161.801L633.684 175.601"/>
<path class="l4" d="M633.684 166.401L633.684 168.701"/>
<path class="l4" d="M632.534 166.401L633.684 167.551"/>
<path class="l4" d="M631.384 166.401L632.534 166.401"/>
<path class="l4" d="M630.234 167.551L631.384 166.401"/>
<path class="l4" d="M630.234 167.551L630.234 169.851"/>
<path class="l4" d="M630.234 169.851L631.384 171.001"/>
<path class="l4" d="M631.384 171.001L632.534 171.001"/>
<path class="l4" d="M632.534 171.001L633.684 169.851"/>
<path class="l4" d="M626.785 168.701L630.234 168.701"/>
<path class="l4" d="M640.584 168.701L645.184 168.701"/>
<path class="l4" d="M638.284 166.401L640.584 168.701"/>
<path class="l4" d="M638.284 171.001L640.584 168.701"/>
<path class="l4" d="M523.287 237.699L523.287 265.299"/>
<path class="l4" d="M523.287 242.299L530.187 242.299"/>
<path class="l4" d="M530.187 237.699L530.187 242.299"/>
<path class="l4" d="M523.287 260.699L530.187 260.699"/>
<path class="l4" d="M530.187 260.699L530.187 265.299"/>
<path class="l4" d="M518.687 244.599L518.687 258.399"/>
<path class="l4" d="M518.687 251.499L518.687 253.799"/>
<path class="l4" d="M511.787 251.499L515.237 251.499"/>
<path class="l4" d="M511.787 251.499L518.687 251.499"/>
<path class="l4" d="M525.587 251.499L530.187 251.499"/>
<path class="l4" d="M523.287 249.199L525.587 251.499"/>
<path class="l4" d="M523.287 253.799L525.587 251.499"/>
<path class="l4" d="M638.284 237.699L638.284 265.299"/>
<path class="l4" d="M638.284 242.299L645.184 242.299"/>
<path class="l4" d="M645.184 237.699L645.184 242.299"/>
<path class="l4" d="M638.284 260.699L645.184 260.699"/>
<path class="l4" d="M645.184 260.699L645.184 265.299"/>
<path class="l4" d="M633.684 244.599L633.684 258.399"/>
<path class="l4" d="M633.684 251.499L633.684 253.799"/>
<path class="l4" d="M626.785 251.499L630.234 251.499"/>
<path class="l4" d="M626.785 251.499L633.684 251.499"/>
<path class="l4" d="M640.584 251.499L645.184 251.499"/>
<path class="l4" d="M638.284 249.199L640.584 251.499"/>
<path class="l4" d="M638.284 253.799L640.584 251.499"/>
<path class="l4" d="M580.786 302.098L580.786 329.697"/>
<path class="l4" d="M580.786 306.698L587.686 306.698"/>
<path class="l4" d="M587.686 302.098L587.686 306.698"/>
<path class="l4" d="M580.786 325.097L587.686 325.097"/>
<path class="l4" d="M587.686 325.097L587.686 329.697"/>
<path class="l4" d="M576.186 308.998L576.186 322.797"/>
<path class="l4" d="M576.186 315.897L576.186 318.197"/>
<path class="l4" d="M569.286 315.897L572.736 315.897"/>
<path class="l4" d="M569.286 315.897L576.186 315.897"/>
<path class="l4" d="M583.086 315.897L587.686 315.897"/>
<path class="l4" d="M580.786 313.597L583.086 315.897"/>
<path class="l4" d="M580.786 318.197L583.086 315.897"/>
<path class="l4" d="M587.686 343.497L587.686 349.247"/>
<path class="l4" d="M585.386 349.247L589.986 349.247"/>
<path class="l4" d="M587.686 351.547L589.986 349.247"/>
<path class="l4" d="M585.386 349.247L587.686 351.547"/>
<path class="l4" d="M762.481 150.302L762.481 177.901"/>
<path class="l4" d="M762.481 173.301L769.381 173.301"/>
<path class="l4" d="M769.381 173.301L769.381 177.901"/>
<path class="l4" d="M762.481 154.901L769.381 154.901"/>
<path class="l4" d="M769.381 150.302L769.381 154.901"/>
<path class="l4" d="M757.881 157.201L757.881 171.001"/>
<path class="l4" d="M757.881 161.801L757.881 164.101"/>
<path class="l4" d="M756.731 161.801L757.881 162.951"/>
<path class="l4" d="M755.581 161.801L756.731 161.801"/>
<path class="l4" d="M754.431 162.951L755.581 161.801"/>
<path class="l4" d="M754.431 162.951L754.431 165.251"/>
<path class="l4" d="M754.431 165.251L755.581 166.401"/>
<path class="l4" d="M755.581 166.401L756.731 166.401"/>
<path class="l4" d="M756.731 166.401L757.881 165.251"/>
<path class="l4" d="M750.981 164.101L754.431 164.101"/>
<path class="l4" d="M764.781 164.101L769.381 164.101"/>
<path class="l4" d="M762.481 161.801L764.781 164.101"/>
<path class="l4" d="M762.481 166.401L764.781 164.101"/>
<path class="l4" d="M762.481 187.101L762.481 214.7"/>
<path class="l4" d="M762.481 191.701L769.381 191.701"/>
<path class="l4" d="M769.381 187.101L769.381 191.701"/>
<path class="l4" d="M762.481 210.1L769.381 210.1"/>
<path class="l4" d="M769.381 210.1L769.381 214.7"/>
<path class="l4" d="M757.881 194L757.881 207.8"/>
<path class="l4" d="M757.881 200.9L757.881 203.2"/>
<path class="l4" d="M750.981 200.9L754.431 200.9"/>
<path class="l4" d="M750.981 200.9L757.881 200.9"/>
<path class="l4" d="M764.781 200.9L769.381 200.9"/>
<path class="l4" d="M762.481 198.6L764.781 200.9"/>
<path class="l4" d="M762.481 203.2L764.781 200.9"/>
<path class="l4" d="M769.381 228.5L769.381 234.249"/>
<path class="l4" d="M767.081 234.249L771.681 234.249"/>
<path class="l4" d="M769.381 236.549L771.681 234.249"/>
<path class="l4" d="M767.081 234.249L769.381 236.549"/>
<path class="l4" d="M845.279 159.501L845.279 187.101"/>
<path class="l4" d="M845.279 182.501L852.179 182.501"/>
<path class="l4" d="M852.179 182.501L852.179 187.101"/>
<path class="l4" d="M845.279 164.101L852.179 164.101"/>
<path class="l4" d="M852.179 159.501L852.179 164.101"/>
<path class="l4" d="M840.679 166.401L840.679 180.201"/>
<path class="l4" d="M840.679 171.001L840.679 173.301"/>
<path class="l4" d="M839.529 171.001L840.679 172.151"/>
<path class="l4" d="M838.379 171.001L839.529 171.001"/>
<path class="l4" d="M837.229 172.151L838.379 171.001"/>
<path class="l4" d="M837.229 172.151L837.229 174.451"/>
<path class="l4" d="M837.229 174.451L838.379 175.601"/>
<path class="l4" d="M838.379 175.601L839.529 175.601"/>
<path class="l4" d="M839.529 175.601L840.679 174.451"/>
<path class="l4" d="M833.779 173.301L837.229 173.301"/>
<path class="l4" d="M847.579 173.301L852.179 173.301"/>
<path class="l4" d="M845.279 171.001L847.579 173.301"/>
<path class="l4" d="M845.279 175.601L847.579 173.301"/>
<path class="l4" d="M845.279 200.9L845.279 228.5"/>
<path class="l4" d="M845.279 223.9L852.179 223.9"/>
<path class="l4" d="M852.179 223.9L852.179 228.5"/>
<path class="l4" d="M845.279 205.5L852.179 205.5"/>
<path class="l4" d="M852.179 200.9L852.179 205.5"/>
<path class="l4" d="M840.679 207.8L840.679 221.6"/>
<path class="l4" d="M840.679 212.4L840.679 214.7"/>
<path class="l4" d="M839.529 212.4L840.679 213.55"/>
<path class="l4" d="M838.379 212.4L839.529 212.4"/>
<path class="l4" d="M837.229 213.55L838.379 212.4"/>
<path class="l4" d="M837.229 213.55L837.229 215.85"/>
<path class="l4" d="M837.229 215.85L838.379 217"/>
<path class="l4" d="M838.379 217L839.529 217"/>
<path class="l4" d="M839.529 217L840.679 215.85"/>
<path class="l4" d="M833.779 214.7L837.229 214.7"/>
<path class="l4" d="M847.579 214.7L852.179 214.7"/>
<path class="l4" d="M845.279 212.4L847.579 214.7"/>
<path class="l4" d="M845.279 217L847.579 214.7"/>
<path class="l4" d="M831.479 256.099L831.479 283.698"/>
<path class="l4" d="M831.479 260.699L838.379 260.699"/>
<path class="l4" d="M838.379 256.099L838.379 260.699"/>
<path class="l4" d="M831.479 279.098L838.379 279.098"/>
<path class="l4" d="M838.379 279.098L838.379 283.698"/>
<path class="l4" d="M826.88 262.999L826.88 276.798"/>
<path class="l4" d="M826.88 269.899L826.88 272.199"/>
<path class="l4" d="M819.98 269.899L823.43 269.899"/>
<path class="l4" d="M819.98 269.899L826.88 269.899"/>
<path class="l4" d="M833.779 269.899L838.379 269.899"/>
<path class="l4" d="M831.479 267.599L833.779 269.899"/>
<path class="l4" d="M831.479 272.199L833.779 269.899"/>
<path class="l4" d="M838.379 297.498L838.379 303.248"/>
<path class="l4" d="M836.079 303.248L840.679 303.248"/>
<path class="l4" d="M838.379 305.548L840.679 303.248"/>
<path class="l4" d="M836.079 303.248L838.379 305.548"/>
<path class="l4" d="M882.078 256.099L882.078 283.698"/>
<path class="l4" d="M882.078 260.699L888.978 260.699"/>
<path class="l4" d="M888.978 256.099L888.978 260.699"/>
<path class="l4" d="M882.078 279.098L888.978 279.098"/>
<path class="l4" d="M888.978 279.098L888.978 283.698"/>
<path class="l4" d="M877.478 262.999L877.478 276.798"/>
<path class="l4" d="M877.478 269.899L877.478 272.199"/>
<path class="l4" d="M870.578 269.899L874.028 269.899"/>
<path class="l4" d="M870.578 269.899L877.478 269.899"/>
<path class="l4" d="M884.378 269.899L888.978 269.899"/>
<path class="l4" d="M882.078 267.599L884.378 269.899"/>
<path class="l4" d="M882.078 272.199L884.378 269.899"/>
<path class="l4" d="M888.978 297.498L888.978 303.248"/>
<path class="l4" d="M886.678 303.248L891.278 303.248"/>
<path class="l4" d="M888.978 305.548L891.278 303.248"/>
<path class="l4" d="M886.678 303.248L888.978 305.548"/>
<path class="l5" d="M161.046 167.551L163.346 167.551L163.346 169.851L161.046 169.851L161.046 167.551z"/>
<path class="l5" d="M161.046 195.15L163.346 195.15L163.346 197.45L161.046 197.45L161.046 195.15z"/>
<path class="l5" d="M162.196 148.864L162.196 150.302"/>
<path class="l5" d="M164.496 143.977L162.196 142.252L159.896 143.977L159.896 147.139L162.196 148.864L164.496 147.139L164.496 143.977"/>
<path class="l5" d="M161.621 149.727L162.771 149.727L162.771 150.877L161.621 150.877L161.621 149.727z"/>
<path class="l5" d="M161.046 241.149L163.346 241.149L163.346 243.449L161.046 243.449L161.046 241.149z"/>
<path class="l5" d="M161.046 268.749L163.346 268.749L163.346 271.049L161.046 271.049L161.046 268.749z"/>
<path class="l5" d="M161.046 287.148L163.346 287.148L163.346 289.448L161.046 289.448L161.046 287.148z"/>
<path class="l5" d="M276.043 222.75L278.343 222.75L278.343 225.05L276.043 225.05L276.043 222.75z"/>
<path class="l5" d="M276.043 250.349L278.343 250.349L278.343 252.649L276.043 252.649L276.043 250.349z"/>
<path class="l5" d="M377.241 130.752L379.541 130.752L379.541 133.052L377.241 133.052L377.241 130.752z"/>
<path class="l5" d="M377.241 158.351L379.541 158.351L379.541 160.651L377.241 160.651L377.241 158.351z"/>
<path class="l5" d="M377.241 185.951L379.541 185.951L379.541 188.251L377.241 188.251L377.241 185.951z"/>
<path class="l5" d="M358.841 199.75L361.141 199.75L361.141 202.05L358.841 202.05L358.841 199.75z"/>
<path class="l5" d="M377.241 213.55L379.541 213.55L379.541 215.85L377.241 215.85L377.241 213.55z"/>
<path class="l5" d="M377.241 199.75L379.541 199.75L379.541 202.05L377.241 202.05L377.241 199.75z"/>
<path class="l5" d="M377.241 231.95L379.541 231.95L379.541 234.249L377.241 234.249L377.241 231.95z"/>
<path class="l5" d="M529.037 181.351L531.337 181.351L531.337 183.651L529.037 183.651L529.037 181.351z"/>
<path class="l5" d="M510.638 167.551L512.937 167.551L512.937 169.851L510.638 169.851L510.638 167.551z"/>
<path class="l5" d="M529.037 153.752L531.337 153.752L531.337 156.051L529.037 156.051L529.037 153.752z"/>
<path class="l5" d="M529.037 167.551L531.337 167.551L531.337 169.851L529.037 169.851L529.037 167.551z"/>
<path class="l5" d="M644.034 181.351L646.334 181.351L646.334 183.651L644.034 183.651L644.034 181.351z"/>
<path class="l5" d="M625.635 167.551L627.935 167.551L627.935 169.851L625.635 169.851L625.635 167.551z"/>
<path class="l5" d="M644.034 153.752L646.334 153.752L646.334 156.051L644.034 156.051L644.034 153.752z"/>
<path class="l5" d="M644.034 167.551L646.334 167.551L646.334 169.851L644.034 169.851L644.034 167.551z"/>
<path class="l5" d="M529.037 236.549L531.337 236.549L531.337 238.849L529.037 238.849L529.037 236.549z"/>
<path class="l5" d="M510.638 250.349L512.937 250.349L512.937 252.649L510.638 252.649L510.638 250.349z"/>
<path class="l5" d="M529.037 264.149L531.337 264.149L531.337 266.449L529.037 266.449L529.037 264.149z"/>
<path class="l5" d="M529.037 250.349L531.337 250.349L531.337 252.649L529.037 252.649L529.037 250.349z"/>
<path class="l5" d="M644.034 236.549L646.334 236.549L646.334 238.849L644.034 238.849L644.034 236.549z"/>
<path class="l5" d="M625.635 250.349L627.935 250.349L627.935 252.649L625.635 252.649L625.635 250.349z"/>
<path class="l5" d="M644.034 264.149L646.334 264.149L646.334 266.449L644.034 266.449L644.034 264.149z"/>
<path class="l5" d="M644.034 250.349L646.334 250.349L646.334 252.649L644.034 252.649L644.034 250.349z"/>
<path class="l5" d="M586.536 300.948L588.836 300.948L588.836 303.248L586.536 303.248L586.536 300.948z"/>
<path class="l5" d="M568.136 314.747L570.436 314.747L570.436 317.047L568.136 317.047L568.136 314.747z"/>
<path class="l5" d="M586.536 328.547L588.836 328.547L588.836 330.847L586.536 330.847L586.536 328.547z"/>
<path class="l5" d="M586.536 314.747L588.836 314.747L588.836 317.047L586.536 317.047L586.536 314.747z"/>
<path class="l5" d="M586.536 342.347L588.836 342.347L588.836 344.647L586.536 344.647L586.536 342.347z"/>
<path class="l5" d="M768.231 176.751L770.531 176.751L770.531 179.051L768.231 179.051L768.231 176.751z"/>
<path class="l5" d="M749.831 162.951L752.131 162.951L752.131 165.251L749.831 165.251L749.831 162.951z"/>
<path class="l5" d="M768.231 149.152L770.531 149.152L770.531 151.452L768.231 151.452L768.231 149.152z"/>
<path class="l5" d="M768.231 162.951L770.531 162.951L770.531 165.251L768.231 165.251L768.231 162.951z"/>
<path class="l5" d="M768.231 185.951L770.531 185.951L770.531 188.251L768.231 188.251L768.231 185.951z"/>
<path class="l5" d="M749.831 199.75L752.131 199.75L752.131 202.05L749.831 202.05L749.831 199.75z"/>
<path class="l5" d="M768.231 213.55L770.531 213.55L770.531 215.85L768.231 215.85L768.231 213.55z"/>
<path class="l5" d="M768.231 199.75L770.531 199.75L770.531 202.05L768.231 202.05L768.231 199.75z"/>
<path class="l5" d="M768.231 227.35L770.531 227.35L770.531 229.65L768.231 229.65L768.231 227.35z"/>
<path class="l5" d="M851.029 185.951L853.329 185.951L853.329 188.251L851.029 188.251L851.029 185.951z"/>
<path class="l5" d="M832.629 172.151L834.929 172.151L834.929 174.451L832.629 174.451L832.629 172.151z"/>
<path class="l5" d="M851.029 158.351L853.329 158.351L853.329 160.651L851.029 160.651L851.029 158.351z"/>
<path class="l5" d="M851.029 172.151L853.329 172.151L853.329 174.451L851.029 174.451L851.029 172.151z"/>
<path class="l5" d="M851.029 227.35L853.329 227.35L853.329 229.65L851.029 229.65L851.029 227.35z"/>
<path class="l5" d="M832.629 213.55L834.929 213.55L834.929 215.85L832.629 215.85L832.629 213.55z"/>
<path class="l5" d="M851.029 199.75L853.329 199.75L853.329 202.05L851.029 202.05L851.029 199.75z"/>
<path class="l5" d="M851.029 213.55L853.329 213.55L853.329 215.85L851.029 215.85L851.029 213.55z"/>
<path class="l5" d="M837.229 254.949L839.529 254.949L839.529 257.249L837.229 257.249L837.229 254.949z"/>
<path class="l5" d="M818.83 268.749L821.13 268.749L821.13 271.049L818.83 271.049L818.83 268.749z"/>
<path class="l5" d="M837.229 282.548L839.529 282.548L839.529 284.848L837.229 284.848L837.229 282.548z"/>
<path class="l5" d="M837.229 268.749L839.529 268.749L839.529 271.049L837.229 271.049L837.229 268.749z"/>
<path class="l5" d="M837.229 296.348L839.529 296.348L839.529 298.648L837.229 298.648L837.229 296.348z"/>
<path class="l5" d="M887.828 254.949L890.128 254.949L890.128 257.249L887.828 257.249L887.828 254.949z"/>
<path class="l5" d="M869.428 268.749L871.728 268.749L871.728 271.049L869.428 271.049L869.428 268.749z"/>
<path class="l5" d="M887.828 282.548L890.128 282.548L890.128 284.848L887.828 284.848L887.828 282.548z"/>
<path class="l5" d="M887.828 268.749L890.128 268.749L890.128 271.049L887.828 271.049L887.828 268.749z"/>
<path class="l5" d="M887.828 296.348L890.128 296.348L890.128 298.648L887.828 298.648L887.828 296.348z"/>
<path class="l5" d="M948.776 242.299L950.214 242.299"/>
<path class="l5" d="M955.101 244.599L956.826 242.299L955.101 239.999L951.939 239.999L950.214 242.299L951.939 244.599L955.101 244.599"/>
<path class="l5" d="M948.201 241.724L949.351 241.724L949.351 242.874L948.201 242.874L948.201 241.724z"/>
<path class="l5" d="M90.8981 660.889L77.0984 674.688L90.8981 688.488L81.6983 688.488L72.4986 679.288L63.2988 688.488L54.099 688.488L67.8987 674.688L54.099 660.889L63.2988 660.889L72.4986 670.088L81.6983 660.889L90.8981 660.889"/>
<path class="l6" d="M192.096 674.688L557.786 674.688"/>
<path class="l6" d="M15 674.688L44.8992 674.688"/>
<path class="l1" d="M162.196 150.302L162.196 168.701"/>
<path class="l1" d="M162.196 196.3L162.196 223.9"/>
<path class="l1" d="M162.196 223.9L198.995 223.9"/>
<path class="l1" d="M162.196 223.9L162.196 242.299"/>
<path class="l1" d="M162.196 269.899L162.196 288.298"/>
<path class="l1" d="M198.995 223.9L277.193 223.9"/>
<path class="l1" d="M277.193 251.499L313.992 251.499"/>
<path class="l1" d="M378.391 113.503L378.391 131.902"/>
<path class="l1" d="M378.391 159.501L378.391 187.101"/>
<path class="l1" d="M359.991 187.101L359.991 200.9"/>
<path class="l1" d="M359.991 187.101L378.391 187.101"/>
<path class="l1" d="M378.391 214.7L378.391 233.1"/>
<path class="l1" d="M530.187 136.502L530.187 154.901"/>
<path class="l1" d="M502.588 168.701L511.787 168.701"/>
<path class="l1" d="M502.588 168.701L502.588 182.501"/>
<path class="l1" d="M502.588 182.501L530.187 182.501"/>
<path class="l1" d="M530.187 168.701L539.387 168.701"/>
<path class="l1" d="M539.387 136.502L539.387 168.701"/>
<path class="l1" d="M645.184 136.502L645.184 154.901"/>
<path class="l1" d="M502.588 168.701L626.785 168.701"/>
<path class="l1" d="M645.184 168.701L654.384 168.701"/>
<path class="l1" d="M654.384 136.502L654.384 168.701"/>
<path class="l1" d="M530.187 182.501L530.187 237.699"/>
<path class="l1" d="M474.988 251.499L511.787 251.499"/>
<path class="l1" d="M530.187 265.299L530.187 279.098"/>
<path class="l1" d="M530.187 251.499L539.387 251.499"/>
<path class="l1" d="M645.184 182.501L645.184 237.699"/>
<path class="l1" d="M599.185 251.499L626.785 251.499"/>
<path class="l1" d="M645.184 265.299L645.184 279.098"/>
<path class="l1" d="M645.184 251.499L654.384 251.499"/>
<path class="l1" d="M530.187 279.098L645.184 279.098"/>
<path class="l1" d="M587.686 279.098L587.686 292.898"/>
<path class="l1" d="M587.686 292.898L587.686 302.098"/>
<path class="l1" d="M550.886 315.897L569.286 315.897"/>
<path class="l1" d="M587.686 329.697L587.686 343.497"/>
<path class="l1" d="M750.981 164.101L750.981 200.9"/>
<path class="l1" d="M732.582 182.501L750.981 182.501"/>
<path class="l1" d="M769.381 177.901L769.381 187.101"/>
<path class="l1" d="M769.381 182.501L783.181 182.501"/>
<path class="l1" d="M769.381 136.502L769.381 150.302"/>
<path class="l1" d="M769.381 164.101L778.581 164.101"/>
<path class="l1" d="M778.581 136.502L778.581 164.101"/>
<path class="l1" d="M769.381 214.7L769.381 228.5"/>
<path class="l1" d="M769.381 200.9L778.581 200.9"/>
<path class="l1" d="M778.581 200.9L778.581 228.5"/>
<path class="l1" d="M815.38 173.301L833.779 173.301"/>
<path class="l1" d="M852.179 145.702L852.179 159.501"/>
<path class="l1" d="M852.179 173.301L861.379 173.301"/>
<path class="l1" d="M861.379 145.702L861.379 173.301"/>
<path class="l1" d="M815.38 214.7L833.779 214.7"/>
<path class="l1" d="M852.179 187.101L852.179 200.9"/>
<path class="l1" d="M852.179 187.101L852.179 214.7"/>
<path class="l1" d="M801.58 269.899L819.98 269.899"/>
<path class="l1" d="M838.379 283.698L838.379 297.498"/>
<path class="l1" d="M838.379 269.899L847.579 269.899"/>
<path class="l1" d="M847.579 269.899L847.579 297.498"/>
<path class="l1" d="M852.179 269.899L870.578 269.899"/>
<path class="l1" d="M888.978 283.698L888.978 297.498"/>
<path class="l1" d="M888.978 269.899L898.178 269.899"/>
<path class="l1" d="M898.178 269.899L898.178 297.498"/>
<path class="l1" d="M838.379 242.299L838.379 256.099"/>
<path class="l1" d="M888.978 242.299L888.978 256.099"/>
<path class="l1" d="M838.379 242.299L888.978 242.299"/>
<path class="l1" d="M852.179 242.299L863.679 242.299"/>
<path class="l1" d="M852.179 228.5L852.179 242.299"/>
<path class="l1" d="M888.978 242.299L948.776 242.299"/>
<circle class="l1" cx="162.196" cy="223.9" r="1.83995"/>
<circle class="l1" cx="162.196" cy="223.9" r="1.83995"/>
<circle class="l1" cx="162.196" cy="223.9" r="1.83995"/>
<circle class="l1" cx="502.588" cy="168.701" r="1.83995"/>
<circle class="l1" cx="539.387" cy="168.701" r="1.83995"/>
<circle class="l1" cx="530.187" cy="168.701" r="1.83995"/>
<circle class="l1" cx="539.387" cy="168.701" r="1.83995"/>
<circle class="l1" cx="502.588" cy="168.701" r="1.83995"/>
<circle class="l1" cx="502.588" cy="168.701" r="1.83995"/>
<circle class="l1" cx="511.787" cy="168.701" r="1.83995"/>
<circle class="l1" cx="750.981" cy="182.501" r="1.83995"/>
<circle class="l1" cx="587.686" cy="279.098" r="1.83995"/>
<circle class="l1" cx="852.179" cy="200.9" r="1.83995"/>
<circle class="l1" cx="769.381" cy="182.501" r="1.83995"/>
<circle class="l1" cx="888.978" cy="242.299" r="1.83995"/>
<circle class="l1" cx="852.179" cy="242.299" r="1.83995"/>
<circle class="l1" cx="852.179" cy="242.299" r="1.83995"/>
<circle class="l1" cx="863.679" cy="242.299" r="1.83995"/>
<circle class="l1" cx="888.978" cy="242.299" r="1.83995"/>
<circle class="l1" cx="888.978" cy="242.299" r="1.83995"/>
</svg>
