<svg xmlns="http://www.w3.org/2000/svg" width="1712" height="624" viewBox="-24 -24 1712 624" font-family="Segoe UI, Arial, sans-serif">
<style>line,circle,ellipse,rect,path{stroke:#1b1b1b;stroke-width:2;fill:none}circle.dot{fill:#1b1b1b !important;stroke:none !important}path.gnd{fill:#1b1b1b !important;stroke:none !important}text{stroke:none;fill:#222;font-size:14px}.flag{fill:#0b4ea2;font-weight:600}.nm{font-weight:600}.val{fill:#666;font-size:12px}</style>
<rect x="-24" y="-24" width="1712" height="624" fill="white" stroke="none"/>
<line x1="112" y1="456" x2="112" y2="416"/>
<line x1="112" y1="416" x2="136" y2="416"/>
<line x1="136" y1="416" x2="136" y2="424"/>
<line x1="424" y1="120" x2="424" y2="160"/>
<line x1="504" y1="120" x2="504" y2="160"/>
<line x1="584" y1="120" x2="584" y2="160"/>
<line x1="424" y1="160" x2="584" y2="160"/>
<line x1="760" y1="376" x2="760" y2="392"/>
<line x1="840" y1="376" x2="840" y2="392"/>
<line x1="800" y1="392" x2="800" y2="424"/>
<line x1="760" y1="392" x2="840" y2="392"/>
<line x1="760" y1="264" x2="760" y2="312"/>
<line x1="840" y1="264" x2="840" y2="312"/>
<line x1="736" y1="232" x2="736" y2="272"/>
<line x1="816" y1="232" x2="816" y2="272"/>
<line x1="736" y1="272" x2="816" y2="272"/>
<line x1="760" y1="272" x2="760" y2="264"/>
<line x1="280" y1="424" x2="280" y2="376"/>
<line x1="280" y1="312" x2="280" y2="264"/>
<line x1="968" y1="424" x2="968" y2="272"/>
<line x1="968" y1="272" x2="760" y2="272"/>
<line x1="1296" y1="424" x2="1296" y2="152"/>
<line x1="1440" y1="368" x2="1440" y2="376"/>
<line x1="1440" y1="376" x2="1296" y2="376"/>
<line x1="528" y1="152" x2="528" y2="192"/>
<line x1="528" y1="192" x2="280" y2="192"/>
<line x1="280" y1="192" x2="280" y2="200"/>
<line x1="736" y1="344" x2="528" y2="344"/>
<line x1="528" y1="344" x2="528" y2="192"/>
<line x1="840" y1="264" x2="840" y2="304"/>
<line x1="840" y1="304" x2="416" y2="304"/>
<line x1="416" y1="304" x2="416" y2="160"/>
<line x1="416" y1="160" x2="424" y2="160"/>
<line x1="1152" y1="424" x2="1152" y2="304"/>
<line x1="1152" y1="304" x2="840" y2="304"/>
<line x1="1408" y1="344" x2="1152" y2="344"/>
<circle class="dot" cx="424" cy="160" r="4"/>
<circle class="dot" cx="504" cy="160" r="4"/>
<circle class="dot" cx="800" cy="392" r="4"/>
<circle class="dot" cx="816" cy="272" r="4"/>
<circle class="dot" cx="760" cy="272" r="4"/>
<circle class="dot" cx="1296" cy="376" r="4"/>
<circle class="dot" cx="528" cy="192" r="4"/>
<circle class="dot" cx="840" cy="304" r="4"/>
<circle class="dot" cx="1152" cy="344" r="4"/>
<text class="flag" x="452" y="148">nbias</text>
<text class="flag" x="140" y="420">nbias</text>
<text class="flag" x="260" y="228">nbias</text>
<text class="flag" x="868" y="340">nbias</text>
<text class="flag" x="780" y="452">nbias</text>
<text class="flag" x="1476" y="340">nbias</text>
<text class="flag" x="452" y="84">vdd</text>
<text class="flag" x="476" y="116">vdd</text>
<text class="flag" x="532" y="84">vdd</text>
<text class="flag" x="556" y="116">vdd</text>
<text class="flag" x="764" y="196">vdd</text>
<text class="flag" x="788" y="228">vdd</text>
<text class="flag" x="844" y="196">vdd</text>
<text class="flag" x="868" y="228">vdd</text>
<text class="flag" x="612" y="84">vdd</text>
<text class="flag" x="636" y="116">vdd</text>
<text class="flag" x="1300" y="84">vdd</text>
<path class="gnd" d="M 126 490 L 146 490 L 136 500 Z"/>
<line x1="136" y1="488" x2="136" y2="490"/>
<path class="gnd" d="M 150 458 L 170 458 L 160 468 Z"/>
<line x1="160" y1="456" x2="160" y2="458"/>
<path class="gnd" d="M 294 234 L 314 234 L 304 244 Z"/>
<line x1="304" y1="232" x2="304" y2="234"/>
<path class="gnd" d="M 286 346 L 306 346 L 296 356 Z"/>
<line x1="296" y1="344" x2="296" y2="346"/>
<path class="gnd" d="M 270 490 L 290 490 L 280 500 Z"/>
<line x1="280" y1="488" x2="280" y2="490"/>
<path class="gnd" d="M 286 458 L 306 458 L 296 468 Z"/>
<line x1="296" y1="456" x2="296" y2="458"/>
<path class="gnd" d="M 774 346 L 794 346 L 784 356 Z"/>
<line x1="784" y1="344" x2="784" y2="346"/>
<path class="gnd" d="M 806 346 L 826 346 L 816 356 Z"/>
<line x1="816" y1="344" x2="816" y2="346"/>
<path class="gnd" d="M 790 490 L 810 490 L 800 500 Z"/>
<line x1="800" y1="488" x2="800" y2="490"/>
<path class="gnd" d="M 814 458 L 834 458 L 824 468 Z"/>
<line x1="824" y1="456" x2="824" y2="458"/>
<path class="gnd" d="M 958 490 L 978 490 L 968 500 Z"/>
<line x1="968" y1="488" x2="968" y2="490"/>
<path class="gnd" d="M 974 458 L 994 458 L 984 468 Z"/>
<line x1="984" y1="456" x2="984" y2="458"/>
<path class="gnd" d="M 1118 458 L 1138 458 L 1128 468 Z"/>
<line x1="1128" y1="456" x2="1128" y2="458"/>
<path class="gnd" d="M 1142 490 L 1162 490 L 1152 500 Z"/>
<line x1="1152" y1="488" x2="1152" y2="490"/>
<path class="gnd" d="M 1166 458 L 1186 458 L 1176 468 Z"/>
<line x1="1176" y1="456" x2="1176" y2="458"/>
<path class="gnd" d="M 1302 122 L 1322 122 L 1312 132 Z"/>
<line x1="1312" y1="120" x2="1312" y2="122"/>
<path class="gnd" d="M 1286 490 L 1306 490 L 1296 500 Z"/>
<line x1="1296" y1="488" x2="1296" y2="490"/>
<path class="gnd" d="M 1302 458 L 1322 458 L 1312 468 Z"/>
<line x1="1312" y1="456" x2="1312" y2="458"/>
<path class="gnd" d="M 1430 322 L 1450 322 L 1440 332 Z"/>
<line x1="1440" y1="320" x2="1440" y2="322"/>
<text class="flag" x="612" y="148">iref_out</text>
<g transform="translate(448 120)">
<line x1="0" y1="-32" x2="0" y2="-13"/>
<line x1="0" y1="-13" x2="-11" y2="-13"/>
<line x1="0" y1="32" x2="0" y2="13"/>
<line x1="0" y1="13" x2="-11" y2="13"/>
<line x1="-11" y1="-14" x2="-11" y2="14"/>
<line x1="-17" y1="-10" x2="-17" y2="10"/>
<line x1="-24" y1="0" x2="-19" y2="0"/>
<line x1="-11" y1="0" x2="24" y2="0"/>
<line x1="4" y1="-3" x2="11" y2="0"/>
<line x1="4" y1="3" x2="11" y2="0"/>
</g>
<text class="nm" x="478" y="110">XM3</text>
<text class="val" x="478" y="128">sky130_fd_pr__pfet_01v8 w=4 l=4</text>
<g transform="translate(528 120)">
<line x1="0" y1="-32" x2="0" y2="-13"/>
<line x1="0" y1="-13" x2="-11" y2="-13"/>
<line x1="0" y1="32" x2="0" y2="13"/>
<line x1="0" y1="13" x2="-11" y2="13"/>
<line x1="-11" y1="-14" x2="-11" y2="14"/>
<line x1="-17" y1="-10" x2="-17" y2="10"/>
<line x1="-24" y1="0" x2="-19" y2="0"/>
<line x1="-11" y1="0" x2="24" y2="0"/>
<line x1="4" y1="-3" x2="11" y2="0"/>
<line x1="4" y1="3" x2="11" y2="0"/>
</g>
<text class="nm" x="558" y="110">XM4</text>
<text class="val" x="558" y="128">sky130_fd_pr__pfet_01v8 w=4 l=4</text>
<g transform="translate(136 456)">
<line x1="0" y1="-32" x2="0" y2="-13"/>
<line x1="0" y1="-13" x2="-11" y2="-13"/>
<line x1="0" y1="32" x2="0" y2="13"/>
<line x1="0" y1="13" x2="-11" y2="13"/>
<line x1="-11" y1="-14" x2="-11" y2="14"/>
<line x1="-17" y1="-10" x2="-17" y2="10"/>
<line x1="-24" y1="0" x2="-17" y2="0"/>
<line x1="-11" y1="0" x2="24" y2="0"/>
<line x1="-11" y1="0" x2="-4" y2="-3"/>
<line x1="-11" y1="0" x2="-4" y2="3"/>
</g>
<text class="nm" x="166" y="446">XM1</text>
<text class="val" x="166" y="464">sky130_fd_pr__nfet_01v8 w=2 l=4</text>
<g transform="translate(280 232)">
<line x1="0" y1="-32" x2="0" y2="-13"/>
<line x1="0" y1="-13" x2="-11" y2="-13"/>
<line x1="0" y1="32" x2="0" y2="13"/>
<line x1="0" y1="13" x2="-11" y2="13"/>
<line x1="-11" y1="-14" x2="-11" y2="14"/>
<line x1="-17" y1="-10" x2="-17" y2="10"/>
<line x1="-24" y1="0" x2="-17" y2="0"/>
<line x1="-11" y1="0" x2="24" y2="0"/>
<line x1="-11" y1="0" x2="-4" y2="-3"/>
<line x1="-11" y1="0" x2="-4" y2="3"/>
</g>
<text class="nm" x="310" y="222">XM2</text>
<text class="val" x="310" y="240">sky130_fd_pr__nfet_01v8 w=8 l=4</text>
<g transform="translate(280 344)">
<line x1="0" y1="-32" x2="0" y2="-17"/>
<line x1="0" y1="-17" x2="6" y2="-14"/>
<line x1="6" y1="-14" x2="-6" y2="-8"/>
<line x1="-6" y1="-8" x2="6" y2="-2"/>
<line x1="6" y1="-2" x2="-6" y2="4"/>
<line x1="-6" y1="4" x2="6" y2="10"/>
<line x1="6" y1="10" x2="0" y2="14"/>
<line x1="0" y1="14" x2="0" y2="32"/>
</g>
<text class="nm" x="310" y="334">XR1a</text>
<text class="val" x="310" y="352">sky130_fd_pr__res_xhigh_po w=0.35 l=7.09</text>
<g transform="translate(280 456)">
<line x1="0" y1="-32" x2="0" y2="-17"/>
<line x1="0" y1="-17" x2="6" y2="-14"/>
<line x1="6" y1="-14" x2="-6" y2="-8"/>
<line x1="-6" y1="-8" x2="6" y2="-2"/>
<line x1="6" y1="-2" x2="-6" y2="4"/>
<line x1="-6" y1="4" x2="6" y2="10"/>
<line x1="6" y1="10" x2="0" y2="14"/>
<line x1="0" y1="14" x2="0" y2="32"/>
</g>
<text class="nm" x="310" y="446">XR1b</text>
<text class="val" x="310" y="464">sky130_fd_pr__res_iso_pw w=0.35 l=6.56</text>
<g transform="translate(760 344)">
<line x1="0" y1="-32" x2="0" y2="-13"/>
<line x1="0" y1="-13" x2="-11" y2="-13"/>
<line x1="0" y1="32" x2="0" y2="13"/>
<line x1="0" y1="13" x2="-11" y2="13"/>
<line x1="-11" y1="-14" x2="-11" y2="14"/>
<line x1="-17" y1="-10" x2="-17" y2="10"/>
<line x1="-24" y1="0" x2="-17" y2="0"/>
<line x1="-11" y1="0" x2="24" y2="0"/>
<line x1="-11" y1="0" x2="-4" y2="-3"/>
<line x1="-11" y1="0" x2="-4" y2="3"/>
</g>
<text class="nm" x="790" y="334">XMo1</text>
<text class="val" x="790" y="352">sky130_fd_pr__nfet_01v8 w=1 l=4</text>
<g transform="translate(840 344) scale(-1 1)">
<line x1="0" y1="-32" x2="0" y2="-13"/>
<line x1="0" y1="-13" x2="-11" y2="-13"/>
<line x1="0" y1="32" x2="0" y2="13"/>
<line x1="0" y1="13" x2="-11" y2="13"/>
<line x1="-11" y1="-14" x2="-11" y2="14"/>
<line x1="-17" y1="-10" x2="-17" y2="10"/>
<line x1="-24" y1="0" x2="-17" y2="0"/>
<line x1="-11" y1="0" x2="24" y2="0"/>
<line x1="-11" y1="0" x2="-4" y2="-3"/>
<line x1="-11" y1="0" x2="-4" y2="3"/>
</g>
<text class="nm" x="870" y="334">XMo2</text>
<text class="val" x="870" y="352">sky130_fd_pr__nfet_01v8 w=1 l=4</text>
<g transform="translate(760 232)">
<line x1="0" y1="-32" x2="0" y2="-13"/>
<line x1="0" y1="-13" x2="-11" y2="-13"/>
<line x1="0" y1="32" x2="0" y2="13"/>
<line x1="0" y1="13" x2="-11" y2="13"/>
<line x1="-11" y1="-14" x2="-11" y2="14"/>
<line x1="-17" y1="-10" x2="-17" y2="10"/>
<line x1="-24" y1="0" x2="-19" y2="0"/>
<line x1="-11" y1="0" x2="24" y2="0"/>
<line x1="4" y1="-3" x2="11" y2="0"/>
<line x1="4" y1="3" x2="11" y2="0"/>
</g>
<text class="nm" x="790" y="222">XMo3</text>
<text class="val" x="790" y="240">sky130_fd_pr__pfet_01v8 w=2 l=4</text>
<g transform="translate(840 232)">
<line x1="0" y1="-32" x2="0" y2="-13"/>
<line x1="0" y1="-13" x2="-11" y2="-13"/>
<line x1="0" y1="32" x2="0" y2="13"/>
<line x1="0" y1="13" x2="-11" y2="13"/>
<line x1="-11" y1="-14" x2="-11" y2="14"/>
<line x1="-17" y1="-10" x2="-17" y2="10"/>
<line x1="-24" y1="0" x2="-19" y2="0"/>
<line x1="-11" y1="0" x2="24" y2="0"/>
<line x1="4" y1="-3" x2="11" y2="0"/>
<line x1="4" y1="3" x2="11" y2="0"/>
</g>
<text class="nm" x="870" y="222">XMo4</text>
<text class="val" x="870" y="240">sky130_fd_pr__pfet_01v8 w=2 l=4</text>
<g transform="translate(800 456)">
<line x1="0" y1="-32" x2="0" y2="-13"/>
<line x1="0" y1="-13" x2="-11" y2="-13"/>
<line x1="0" y1="32" x2="0" y2="13"/>
<line x1="0" y1="13" x2="-11" y2="13"/>
<line x1="-11" y1="-14" x2="-11" y2="14"/>
<line x1="-17" y1="-10" x2="-17" y2="10"/>
<line x1="-24" y1="0" x2="-17" y2="0"/>
<line x1="-11" y1="0" x2="24" y2="0"/>
<line x1="-11" y1="0" x2="-4" y2="-3"/>
<line x1="-11" y1="0" x2="-4" y2="3"/>
</g>
<text class="nm" x="830" y="446">XMo5</text>
<text class="val" x="830" y="464">sky130_fd_pr__nfet_01v8 w=1 l=4</text>
<g transform="translate(968 456)">
<line x1="0" y1="-32" x2="0" y2="-4"/>
<line x1="-11" y1="-4" x2="11" y2="-4"/>
<line x1="-11" y1="4" x2="11" y2="4"/>
<line x1="0" y1="4" x2="0" y2="32"/>
</g>
<text class="nm" x="998" y="446">XC_comp</text>
<text class="val" x="998" y="464">sky130_fd_pr__cap_mim_m3_1 w=50 l=50</text>
<g transform="translate(608 120)">
<line x1="0" y1="-32" x2="0" y2="-13"/>
<line x1="0" y1="-13" x2="-11" y2="-13"/>
<line x1="0" y1="32" x2="0" y2="13"/>
<line x1="0" y1="13" x2="-11" y2="13"/>
<line x1="-11" y1="-14" x2="-11" y2="14"/>
<line x1="-17" y1="-10" x2="-17" y2="10"/>
<line x1="-24" y1="0" x2="-19" y2="0"/>
<line x1="-11" y1="0" x2="24" y2="0"/>
<line x1="4" y1="-3" x2="11" y2="0"/>
<line x1="4" y1="3" x2="11" y2="0"/>
</g>
<text class="nm" x="638" y="110">XM7</text>
<text class="val" x="638" y="128">sky130_fd_pr__pfet_01v8 w=4 l=4</text>
<g transform="translate(1152 456)">
<line x1="0" y1="-32" x2="0" y2="-13"/>
<line x1="0" y1="-13" x2="-11" y2="-13"/>
<line x1="0" y1="32" x2="0" y2="13"/>
<line x1="0" y1="13" x2="-11" y2="13"/>
<line x1="-11" y1="-14" x2="-11" y2="14"/>
<line x1="-17" y1="-10" x2="-17" y2="10"/>
<line x1="-24" y1="0" x2="-17" y2="0"/>
<line x1="-11" y1="0" x2="24" y2="0"/>
<line x1="-11" y1="0" x2="-4" y2="-3"/>
<line x1="-11" y1="0" x2="-4" y2="3"/>
</g>
<text class="nm" x="1182" y="446">XM6</text>
<text class="val" x="1182" y="464">sky130_fd_pr__nfet_01v8 w=0.5 l=0.5</text>
<g transform="translate(1296 120)">
<line x1="0" y1="-32" x2="0" y2="-4"/>
<line x1="-11" y1="-4" x2="11" y2="-4"/>
<line x1="-11" y1="4" x2="11" y2="4"/>
<line x1="0" y1="4" x2="0" y2="32"/>
</g>
<text class="nm" x="1326" y="110">XC_gs</text>
<text class="val" x="1326" y="128">sky130_fd_pr__cap_mim_m3_1 w=25 l=50</text>
<g transform="translate(1296 456)">
<line x1="0" y1="-32" x2="0" y2="-17"/>
<line x1="0" y1="-17" x2="6" y2="-14"/>
<line x1="6" y1="-14" x2="-6" y2="-8"/>
<line x1="-6" y1="-8" x2="6" y2="-2"/>
<line x1="6" y1="-2" x2="-6" y2="4"/>
<line x1="-6" y1="4" x2="6" y2="10"/>
<line x1="6" y1="10" x2="0" y2="14"/>
<line x1="0" y1="14" x2="0" y2="32"/>
</g>
<text class="nm" x="1326" y="446">XR_gs</text>
<text class="val" x="1326" y="464">sky130_fd_pr__res_xhigh_po w=0.35 l=1360</text>
<g transform="translate(1440 344) rotate(-90)">
<line x1="0" y1="-32" x2="0" y2="-13"/>
<line x1="0" y1="-13" x2="-11" y2="-13"/>
<line x1="0" y1="32" x2="0" y2="13"/>
<line x1="0" y1="13" x2="-11" y2="13"/>
<line x1="-11" y1="-14" x2="-11" y2="14"/>
<line x1="-17" y1="-10" x2="-17" y2="10"/>
<line x1="-24" y1="0" x2="-17" y2="0"/>
<line x1="-11" y1="0" x2="24" y2="0"/>
<line x1="-11" y1="0" x2="-4" y2="-3"/>
<line x1="-11" y1="0" x2="-4" y2="3"/>
</g>
<text class="nm" x="1470" y="334">XMsw</text>
<text class="val" x="1470" y="352">sky130_fd_pr__nfet_01v8 w=4 l=0.5</text>
<text x="64" y="568" class="val">bias_generator — exported by SpiceGlass (grid 1mm = 8u)</text>
</svg>