<svg xmlns="http://www.w3.org/2000/svg" width="2070" height="760" viewBox="0 0 2070 760" font-family="Segoe UI, Arial, sans-serif">
<style>
 line, polyline, path, rect, circle { stroke: #111111; stroke-width: 1.8; }
 .wire { stroke: #1b1b1b; stroke-width: 1.6; }
 text { stroke: none; fill: #222; font-size: 11px; }
 .name { font-weight: 600; font-size: 11px; }
 .param { fill: #666; font-size: 9.5px; }
 .pin { font-size: 9px; fill: #333; }
 .sym { font-size: 11px; font-weight: 700; }
 .boxmodel { font-size: 9.5px; fill: #555; font-style: italic; }
 .rail { font-size: 9px; fill: #444444; font-weight: 600; }
 .netlabel { font-size: 10.5px; fill: #a14d00; font-style: italic; }
 .port { font-size: 10.5px; fill: #0b4ea2; font-weight: 700; }
 .sectitle { font-size: 11px; fill: #8a7340; font-weight: 600; }
 .title { font-size: 16px; font-weight: 700; }
 .meta { font-size: 10px; fill: #555; }
</style>
<rect x="0" y="0" width="2070" height="760" fill="white" stroke="none"/>
<rect x="78" y="88" width="344" height="124" rx="10" fill="#fff3df" stroke="none" opacity="0.7"/>
<text x="84" y="82" class="sectitle">PMOS Current Mirror (gate = vbias from OTA)</text>
<rect x="488" y="228" width="324" height="404" rx="10" fill="#e8f3e6" stroke="none" opacity="0.7"/>
<text x="494" y="222" class="sectitle">NMOS Pair (K = W2/W1 = 4)</text>
<rect x="668" y="368" width="144" height="264" rx="10" fill="#e6ecf7" stroke="none" opacity="0.7"/>
<text x="674" y="362" class="sectitle">R1: TC-compensated resistor</text>
<rect x="878" y="228" width="244" height="404" rx="10" fill="#f7e6ee" stroke="none" opacity="0.7"/>
<text x="884" y="222" class="sectitle">Swapped OTA: forces V(out_n) = V(nbias)</text>
<rect x="1188" y="508" width="144" height="124" rx="10" fill="#eef7e6" stroke="none" opacity="0.7"/>
<text x="1194" y="502" class="sectitle">Dominant-Pole Compensation</text>
<rect x="1418" y="508" width="144" height="124" rx="10" fill="#f3e6f7" stroke="none" opacity="0.7"/>
<text x="1424" y="502" class="sectitle">Anti-Deadlock Leaker</text>
<rect x="1648" y="88" width="324" height="544" rx="10" fill="#e6f5f7" stroke="none" opacity="0.7"/>
<text x="1654" y="82" class="sectitle">RC Startup Circuit</text>
<line class="wire" x1="950" y1="470" x2="950" y2="490" stroke="#1b1b1b" stroke-width="1.6"/><line class="wire" x1="1050" y1="470" x2="1050" y2="490" stroke="#1b1b1b" stroke-width="1.6"/><line class="wire" x1="1000" y1="490" x2="1000" y2="530" stroke="#1b1b1b" stroke-width="1.6"/><line class="wire" x1="950" y1="490" x2="1050" y2="490" stroke="#1b1b1b" stroke-width="1.6"/><line class="wire" x1="950" y1="330" x2="950" y2="390" stroke="#1b1b1b" stroke-width="1.6"/><line class="wire" x1="1050" y1="330" x2="1050" y2="390" stroke="#1b1b1b" stroke-width="1.6"/><line class="wire" x1="920" y1="290" x2="920" y2="340" stroke="#1b1b1b" stroke-width="1.6"/><line class="wire" x1="1020" y1="290" x2="1020" y2="340" stroke="#1b1b1b" stroke-width="1.6"/><line class="wire" x1="920" y1="340" x2="1020" y2="340" stroke="#1b1b1b" stroke-width="1.6"/><line class="wire" x1="950" y1="340" x2="950" y2="330" stroke="#1b1b1b" stroke-width="1.6"/><line class="wire" x1="120" y1="150" x2="120" y2="200" stroke="#1b1b1b" stroke-width="1.6"/><line class="wire" x1="220" y1="150" x2="220" y2="200" stroke="#1b1b1b" stroke-width="1.6"/><line class="wire" x1="320" y1="150" x2="320" y2="200" stroke="#1b1b1b" stroke-width="1.6"/><line class="wire" x1="120" y1="200" x2="320" y2="200" stroke="#1b1b1b" stroke-width="1.6"/><line class="wire" x1="530" y1="570" x2="530" y2="520" stroke="#1b1b1b" stroke-width="1.6"/><line class="wire" x1="530" y1="520" x2="560" y2="520" stroke="#1b1b1b" stroke-width="1.6"/><line class="wire" x1="560" y1="520" x2="560" y2="530" stroke="#1b1b1b" stroke-width="1.6"/><line class="wire" x1="740" y1="530" x2="740" y2="470" stroke="#1b1b1b" stroke-width="1.6"/><line class="wire" x1="740" y1="390" x2="740" y2="330" stroke="#1b1b1b" stroke-width="1.6"/><line class="wire" x1="1260" y1="530" x2="1260" y2="340" stroke="#1b1b1b" stroke-width="1.6"/><line class="wire" x1="1260" y1="340" x2="950" y2="340" stroke="#1b1b1b" stroke-width="1.6"/><line class="wire" x1="1720" y1="530" x2="1720" y2="190" stroke="#1b1b1b" stroke-width="1.6"/><line class="wire" x1="1900" y1="460" x2="1900" y2="470" stroke="#1b1b1b" stroke-width="1.6"/><line class="wire" x1="1900" y1="470" x2="1720" y2="470" stroke="#1b1b1b" stroke-width="1.6"/><line class="wire" x1="740" y1="250" x2="740" y2="240" stroke="#1b1b1b" stroke-width="1.6"/><line class="wire" x1="740" y1="240" x2="250" y2="240" stroke="#1b1b1b" stroke-width="1.6"/><line class="wire" x1="250" y1="240" x2="250" y2="190" stroke="#1b1b1b" stroke-width="1.6"/><line class="wire" x1="920" y1="430" x2="780" y2="430" stroke="#1b1b1b" stroke-width="1.6"/><line class="wire" x1="780" y1="430" x2="780" y2="240" stroke="#1b1b1b" stroke-width="1.6"/><line class="wire" x1="780" y1="240" x2="740" y2="240" stroke="#1b1b1b" stroke-width="1.6"/><line class="wire" x1="1050" y1="330" x2="1050" y2="380" stroke="#1b1b1b" stroke-width="1.6"/><line class="wire" x1="1050" y1="380" x2="110" y2="380" stroke="#1b1b1b" stroke-width="1.6"/><line class="wire" x1="110" y1="380" x2="110" y2="200" stroke="#1b1b1b" stroke-width="1.6"/><line class="wire" x1="110" y1="200" x2="120" y2="200" stroke="#1b1b1b" stroke-width="1.6"/><line class="wire" x1="1490" y1="530" x2="1490" y2="380" stroke="#1b1b1b" stroke-width="1.6"/><line class="wire" x1="1490" y1="380" x2="1050" y2="380" stroke="#1b1b1b" stroke-width="1.6"/><line class="wire" x1="1860" y1="430" x2="1490" y2="430" stroke="#1b1b1b" stroke-width="1.6"/><circle cx="1000" cy="490" r="3" fill="#1b1b1b" stroke="none"/><circle cx="1020" cy="340" r="3" fill="#1b1b1b" stroke="none"/><circle cx="1020" cy="340" r="3" fill="#1b1b1b" stroke="none"/><circle cx="950" cy="340" r="3" fill="#1b1b1b" stroke="none"/><circle cx="950" cy="340" r="3" fill="#1b1b1b" stroke="none"/><circle cx="950" cy="340" r="3" fill="#1b1b1b" stroke="none"/><circle cx="950" cy="340" r="3" fill="#1b1b1b" stroke="none"/><circle cx="220" cy="200" r="3" fill="#1b1b1b" stroke="none"/><circle cx="1050" cy="380" r="3" fill="#1b1b1b" stroke="none"/><circle cx="1050" cy="380" r="3" fill="#1b1b1b" stroke="none"/><circle cx="1050" cy="380" r="3" fill="#1b1b1b" stroke="none"/><circle cx="1490" cy="430" r="3" fill="#1b1b1b" stroke="none"/><circle cx="1720" cy="470" r="3" fill="#1b1b1b" stroke="none"/>
<line x1="150" y1="190" x2="172" y2="190"/><text x="176" y="194" text-anchor="start" class="netlabel">nbias</text><line x1="560" y1="530" x2="582" y2="530"/><text x="586" y="534" text-anchor="start" class="netlabel">nbias</text><line x1="710" y1="290" x2="688" y2="290"/><text x="684" y="294" text-anchor="end" class="netlabel">nbias</text><line x1="1080" y1="430" x2="1102" y2="430"/><text x="1106" y="434" text-anchor="start" class="netlabel">nbias</text><line x1="970" y1="570" x2="948" y2="570"/><text x="944" y="574" text-anchor="end" class="netlabel">nbias</text><line x1="1940" y1="430" x2="1962" y2="430"/><text x="1966" y="434" text-anchor="start" class="netlabel">nbias</text><line x1="150" y1="110" x2="150" y2="96"/><line x1="141" y1="96" x2="159" y2="96" stroke-width="2.4"/><text x="150" y="91" text-anchor="middle" class="rail">VDD</text><line x1="180" y1="150" x2="192" y2="150"/><line x1="192" y1="150" x2="192" y2="140"/><line x1="187" y1="140" x2="197" y2="140" stroke-width="2.4"/><line x1="250" y1="110" x2="250" y2="96"/><line x1="241" y1="96" x2="259" y2="96" stroke-width="2.4"/><text x="250" y="91" text-anchor="middle" class="rail">VDD</text><line x1="280" y1="150" x2="292" y2="150"/><line x1="292" y1="150" x2="292" y2="140"/><line x1="287" y1="140" x2="297" y2="140" stroke-width="2.4"/><line x1="950" y1="250" x2="950" y2="236"/><line x1="941" y1="236" x2="959" y2="236" stroke-width="2.4"/><text x="950" y="231" text-anchor="middle" class="rail">VDD</text><line x1="980" y1="290" x2="992" y2="290"/><line x1="992" y1="290" x2="992" y2="280"/><line x1="987" y1="280" x2="997" y2="280" stroke-width="2.4"/><line x1="1050" y1="250" x2="1050" y2="236"/><line x1="1041" y1="236" x2="1059" y2="236" stroke-width="2.4"/><text x="1050" y="231" text-anchor="middle" class="rail">VDD</text><line x1="1080" y1="290" x2="1092" y2="290"/><line x1="1092" y1="290" x2="1092" y2="280"/><line x1="1087" y1="280" x2="1097" y2="280" stroke-width="2.4"/><line x1="350" y1="110" x2="350" y2="96"/><line x1="341" y1="96" x2="359" y2="96" stroke-width="2.4"/><text x="350" y="91" text-anchor="middle" class="rail">VDD</text><line x1="380" y1="150" x2="392" y2="150"/><line x1="392" y1="150" x2="392" y2="140"/><line x1="387" y1="140" x2="397" y2="140" stroke-width="2.4"/><line x1="1720" y1="110" x2="1720" y2="96"/><line x1="1711" y1="96" x2="1729" y2="96" stroke-width="2.4"/><text x="1720" y="91" text-anchor="middle" class="rail">VDD</text><line x1="560" y1="610" x2="560" y2="622"/><line x1="551" y1="622" x2="569" y2="622" stroke-width="2"/><line x1="554" y1="626" x2="566" y2="626" stroke-width="2"/><line x1="557" y1="630" x2="563" y2="630" stroke-width="2"/><line x1="590" y1="570" x2="602" y2="570"/><line x1="602" y1="570" x2="602" y2="582"/><line x1="597" y1="582" x2="607" y2="582" stroke-width="2"/><line x1="599" y1="586" x2="605" y2="586" stroke-width="2"/><line x1="770" y1="290" x2="782" y2="290"/><line x1="782" y1="290" x2="782" y2="302"/><line x1="777" y1="302" x2="787" y2="302" stroke-width="2"/><line x1="779" y1="306" x2="785" y2="306" stroke-width="2"/><line x1="760" y1="430" x2="772" y2="430"/><line x1="772" y1="430" x2="772" y2="442"/><line x1="767" y1="442" x2="777" y2="442" stroke-width="2"/><line x1="769" y1="446" x2="775" y2="446" stroke-width="2"/><line x1="740" y1="610" x2="740" y2="622"/><line x1="731" y1="622" x2="749" y2="622" stroke-width="2"/><line x1="734" y1="626" x2="746" y2="626" stroke-width="2"/><line x1="737" y1="630" x2="743" y2="630" stroke-width="2"/><line x1="760" y1="570" x2="772" y2="570"/><line x1="772" y1="570" x2="772" y2="582"/><line x1="767" y1="582" x2="777" y2="582" stroke-width="2"/><line x1="769" y1="586" x2="775" y2="586" stroke-width="2"/><line x1="980" y1="430" x2="992" y2="430"/><line x1="992" y1="430" x2="992" y2="442"/><line x1="987" y1="442" x2="997" y2="442" stroke-width="2"/><line x1="989" y1="446" x2="995" y2="446" stroke-width="2"/><line x1="1020" y1="430" x2="1032" y2="430"/><line x1="1032" y1="430" x2="1032" y2="442"/><line x1="1027" y1="442" x2="1037" y2="442" stroke-width="2"/><line x1="1029" y1="446" x2="1035" y2="446" stroke-width="2"/><line x1="1000" y1="610" x2="1000" y2="622"/><line x1="991" y1="622" x2="1009" y2="622" stroke-width="2"/><line x1="994" y1="626" x2="1006" y2="626" stroke-width="2"/><line x1="997" y1="630" x2="1003" y2="630" stroke-width="2"/><line x1="1030" y1="570" x2="1042" y2="570"/><line x1="1042" y1="570" x2="1042" y2="582"/><line x1="1037" y1="582" x2="1047" y2="582" stroke-width="2"/><line x1="1039" y1="586" x2="1045" y2="586" stroke-width="2"/><line x1="1260" y1="610" x2="1260" y2="622"/><line x1="1251" y1="622" x2="1269" y2="622" stroke-width="2"/><line x1="1254" y1="626" x2="1266" y2="626" stroke-width="2"/><line x1="1257" y1="630" x2="1263" y2="630" stroke-width="2"/><line x1="1280" y1="570" x2="1292" y2="570"/><line x1="1292" y1="570" x2="1292" y2="582"/><line x1="1287" y1="582" x2="1297" y2="582" stroke-width="2"/><line x1="1289" y1="586" x2="1295" y2="586" stroke-width="2"/><line x1="1460" y1="570" x2="1472" y2="570"/><line x1="1472" y1="570" x2="1472" y2="582"/><line x1="1463" y1="582" x2="1481" y2="582" stroke-width="2"/><line x1="1466" y1="586" x2="1478" y2="586" stroke-width="2"/><line x1="1469" y1="590" x2="1475" y2="590" stroke-width="2"/><line x1="1490" y1="610" x2="1490" y2="622"/><line x1="1481" y1="622" x2="1499" y2="622" stroke-width="2"/><line x1="1484" y1="626" x2="1496" y2="626" stroke-width="2"/><line x1="1487" y1="630" x2="1493" y2="630" stroke-width="2"/><line x1="1520" y1="570" x2="1532" y2="570"/><line x1="1532" y1="570" x2="1532" y2="582"/><line x1="1527" y1="582" x2="1537" y2="582" stroke-width="2"/><line x1="1529" y1="586" x2="1535" y2="586" stroke-width="2"/><line x1="1740" y1="150" x2="1752" y2="150"/><line x1="1752" y1="150" x2="1752" y2="162"/><line x1="1747" y1="162" x2="1757" y2="162" stroke-width="2"/><line x1="1749" y1="166" x2="1755" y2="166" stroke-width="2"/><line x1="1720" y1="610" x2="1720" y2="622"/><line x1="1711" y1="622" x2="1729" y2="622" stroke-width="2"/><line x1="1714" y1="626" x2="1726" y2="626" stroke-width="2"/><line x1="1717" y1="630" x2="1723" y2="630" stroke-width="2"/><line x1="1740" y1="570" x2="1752" y2="570"/><line x1="1752" y1="570" x2="1752" y2="582"/><line x1="1747" y1="582" x2="1757" y2="582" stroke-width="2"/><line x1="1749" y1="586" x2="1755" y2="586" stroke-width="2"/><line x1="1900" y1="400" x2="1912" y2="400"/><line x1="1912" y1="400" x2="1912" y2="412"/><line x1="1907" y1="412" x2="1917" y2="412" stroke-width="2"/><line x1="1909" y1="416" x2="1915" y2="416" stroke-width="2"/><line x1="350" y1="190" x2="372" y2="190"/><rect x="372" y="181" width="56" height="18" rx="3" fill="white" stroke="#0b4ea2" stroke-width="1.4"/><text x="400.0" y="194" text-anchor="middle" class="port">iref_out</text>
<g transform="translate(150 150)" fill="none">
<line x1="0" y1="-40" x2="0" y2="-16"/>
<line x1="0" y1="-16" x2="-14" y2="-16"/>
<line x1="0" y1="40" x2="0" y2="16"/>
<line x1="0" y1="16" x2="-14" y2="16"/>
<line x1="-14" y1="-17" x2="-14" y2="17" stroke-width="2.6"/>
<line x1="-21" y1="-13" x2="-21" y2="13" stroke-width="2.6"/>
<circle cx="-25.6" cy="0" r="4.3" fill="white" stroke-width="1.5"/>
<line x1="-14" y1="0" x2="30" y2="0"/>
<path d="M 6 0 L -2 -3.6 L -2 3.6 Z" fill="#111111" stroke="none"/>
</g>
<text x="116" y="104" class="name">XM3</text>
<text x="172" y="208" class="param" text-anchor="start">pfet_01v8  w=4  l=4</text>
<g transform="translate(250 150)" fill="none">
<line x1="0" y1="-40" x2="0" y2="-16"/>
<line x1="0" y1="-16" x2="-14" y2="-16"/>
<line x1="0" y1="40" x2="0" y2="16"/>
<line x1="0" y1="16" x2="-14" y2="16"/>
<line x1="-14" y1="-17" x2="-14" y2="17" stroke-width="2.6"/>
<line x1="-21" y1="-13" x2="-21" y2="13" stroke-width="2.6"/>
<circle cx="-25.6" cy="0" r="4.3" fill="white" stroke-width="1.5"/>
<line x1="-14" y1="0" x2="30" y2="0"/>
<path d="M 6 0 L -2 -3.6 L -2 3.6 Z" fill="#111111" stroke="none"/>
</g>
<text x="216" y="104" class="name">XM4</text>
<text x="272" y="208" class="param" text-anchor="start">pfet_01v8  w=4  l=4</text>
<g transform="translate(560 570)" fill="none">
<line x1="0" y1="-40" x2="0" y2="-16"/>
<line x1="0" y1="-16" x2="-14" y2="-16"/>
<line x1="0" y1="40" x2="0" y2="16"/>
<line x1="0" y1="16" x2="-14" y2="16"/>
<line x1="-14" y1="-17" x2="-14" y2="17" stroke-width="2.6"/>
<line x1="-21" y1="-13" x2="-21" y2="13" stroke-width="2.6"/>
<line x1="-30" y1="0" x2="-21" y2="0"/>
<line x1="-14" y1="0" x2="30" y2="0"/>
<path d="M -12.5 0 L -4 -3.6 L -4 3.6 Z" fill="#111111" stroke="none"/>
</g>
<text x="526" y="524" class="name">XM1</text>
<text x="582" y="628" class="param" text-anchor="start">nfet_01v8  w=2  l=4</text>
<g transform="translate(740 290)" fill="none">
<line x1="0" y1="-40" x2="0" y2="-16"/>
<line x1="0" y1="-16" x2="-14" y2="-16"/>
<line x1="0" y1="40" x2="0" y2="16"/>
<line x1="0" y1="16" x2="-14" y2="16"/>
<line x1="-14" y1="-17" x2="-14" y2="17" stroke-width="2.6"/>
<line x1="-21" y1="-13" x2="-21" y2="13" stroke-width="2.6"/>
<line x1="-30" y1="0" x2="-21" y2="0"/>
<line x1="-14" y1="0" x2="30" y2="0"/>
<path d="M -12.5 0 L -4 -3.6 L -4 3.6 Z" fill="#111111" stroke="none"/>
</g>
<text x="706" y="244" class="name">XM2</text>
<text x="762" y="348" class="param" text-anchor="start">nfet_01v8  w=8  l=4</text>
<g transform="translate(740 430)" fill="none">
<line x1="0" y1="-40" x2="0" y2="-21"/>
<line x1="0" y1="21" x2="0" y2="40"/>
<polyline points="0,-21 8,-17.5 -8,-10.5 8,-3.5 -8,3.5 8,10.5 -8,17.5 0,21" fill="none" stroke-width="2"/>
<line x1="0" y1="0" x2="20" y2="0" stroke-dasharray="3 2"/>
</g>
<text x="706" y="384" class="name">XR1a</text>
<text x="762" y="488" class="param" text-anchor="start">res_xhigh_po  w=0.35  l=7.09</text>
<g transform="translate(740 570)" fill="none">
<line x1="0" y1="-40" x2="0" y2="-21"/>
<line x1="0" y1="21" x2="0" y2="40"/>
<polyline points="0,-21 8,-17.5 -8,-10.5 8,-3.5 -8,3.5 8,10.5 -8,17.5 0,21" fill="none" stroke-width="2"/>
<line x1="0" y1="0" x2="20" y2="0" stroke-dasharray="3 2"/>
</g>
<text x="706" y="524" class="name">XR1b</text>
<text x="762" y="628" class="param" text-anchor="start">res_iso_pw  w=0.35  l=6.56</text>
<g transform="translate(950 430)" fill="none">
<line x1="0" y1="-40" x2="0" y2="-16"/>
<line x1="0" y1="-16" x2="-14" y2="-16"/>
<line x1="0" y1="40" x2="0" y2="16"/>
<line x1="0" y1="16" x2="-14" y2="16"/>
<line x1="-14" y1="-17" x2="-14" y2="17" stroke-width="2.6"/>
<line x1="-21" y1="-13" x2="-21" y2="13" stroke-width="2.6"/>
<line x1="-30" y1="0" x2="-21" y2="0"/>
<line x1="-14" y1="0" x2="30" y2="0"/>
<path d="M -12.5 0 L -4 -3.6 L -4 3.6 Z" fill="#111111" stroke="none"/>
</g>
<text x="916" y="384" class="name">XMo1</text>
<text x="972" y="488" class="param" text-anchor="start">nfet_01v8  w=1  l=4</text>
<g transform="translate(1050 430) scale(-1 1)" fill="none">
<line x1="0" y1="-40" x2="0" y2="-16"/>
<line x1="0" y1="-16" x2="-14" y2="-16"/>
<line x1="0" y1="40" x2="0" y2="16"/>
<line x1="0" y1="16" x2="-14" y2="16"/>
<line x1="-14" y1="-17" x2="-14" y2="17" stroke-width="2.6"/>
<line x1="-21" y1="-13" x2="-21" y2="13" stroke-width="2.6"/>
<line x1="-30" y1="0" x2="-21" y2="0"/>
<line x1="-14" y1="0" x2="30" y2="0"/>
<path d="M -12.5 0 L -4 -3.6 L -4 3.6 Z" fill="#111111" stroke="none"/>
</g>
<text x="1016" y="384" class="name">XMo2</text>
<text x="1072" y="488" class="param" text-anchor="start">nfet_01v8  w=1  l=4</text>
<g transform="translate(950 290)" fill="none">
<line x1="0" y1="-40" x2="0" y2="-16"/>
<line x1="0" y1="-16" x2="-14" y2="-16"/>
<line x1="0" y1="40" x2="0" y2="16"/>
<line x1="0" y1="16" x2="-14" y2="16"/>
<line x1="-14" y1="-17" x2="-14" y2="17" stroke-width="2.6"/>
<line x1="-21" y1="-13" x2="-21" y2="13" stroke-width="2.6"/>
<circle cx="-25.6" cy="0" r="4.3" fill="white" stroke-width="1.5"/>
<line x1="-14" y1="0" x2="30" y2="0"/>
<path d="M 6 0 L -2 -3.6 L -2 3.6 Z" fill="#111111" stroke="none"/>
</g>
<text x="916" y="244" class="name">XMo3</text>
<text x="972" y="348" class="param" text-anchor="start">pfet_01v8  w=2  l=4</text>
<g transform="translate(1050 290)" fill="none">
<line x1="0" y1="-40" x2="0" y2="-16"/>
<line x1="0" y1="-16" x2="-14" y2="-16"/>
<line x1="0" y1="40" x2="0" y2="16"/>
<line x1="0" y1="16" x2="-14" y2="16"/>
<line x1="-14" y1="-17" x2="-14" y2="17" stroke-width="2.6"/>
<line x1="-21" y1="-13" x2="-21" y2="13" stroke-width="2.6"/>
<circle cx="-25.6" cy="0" r="4.3" fill="white" stroke-width="1.5"/>
<line x1="-14" y1="0" x2="30" y2="0"/>
<path d="M 6 0 L -2 -3.6 L -2 3.6 Z" fill="#111111" stroke="none"/>
</g>
<text x="1016" y="244" class="name">XMo4</text>
<text x="1072" y="348" class="param" text-anchor="start">pfet_01v8  w=2  l=4</text>
<g transform="translate(1000 570)" fill="none">
<line x1="0" y1="-40" x2="0" y2="-16"/>
<line x1="0" y1="-16" x2="-14" y2="-16"/>
<line x1="0" y1="40" x2="0" y2="16"/>
<line x1="0" y1="16" x2="-14" y2="16"/>
<line x1="-14" y1="-17" x2="-14" y2="17" stroke-width="2.6"/>
<line x1="-21" y1="-13" x2="-21" y2="13" stroke-width="2.6"/>
<line x1="-30" y1="0" x2="-21" y2="0"/>
<line x1="-14" y1="0" x2="30" y2="0"/>
<path d="M -12.5 0 L -4 -3.6 L -4 3.6 Z" fill="#111111" stroke="none"/>
</g>
<text x="966" y="524" class="name">XMo5</text>
<text x="1022" y="628" class="param" text-anchor="start">nfet_01v8  w=1  l=4</text>
<g transform="translate(1260 570)" fill="none">
<line x1="0" y1="-40" x2="0" y2="-5"/>
<line x1="0" y1="5" x2="0" y2="40"/>
<line x1="-14" y1="-5" x2="14" y2="-5" stroke-width="2.6"/>
<line x1="-14" y1="5" x2="14" y2="5" stroke-width="2.6"/>
<line x1="0" y1="5" x2="20" y2="5" stroke-dasharray="3 2"/>
<line x1="20" y1="5" x2="20" y2="0"/>
</g>
<text x="1226" y="524" class="name">XC_comp</text>
<text x="1282" y="628" class="param" text-anchor="start">cap_mim_m3_1  w=50  l=50</text>
<g transform="translate(350 150)" fill="none">
<line x1="0" y1="-40" x2="0" y2="-16"/>
<line x1="0" y1="-16" x2="-14" y2="-16"/>
<line x1="0" y1="40" x2="0" y2="16"/>
<line x1="0" y1="16" x2="-14" y2="16"/>
<line x1="-14" y1="-17" x2="-14" y2="17" stroke-width="2.6"/>
<line x1="-21" y1="-13" x2="-21" y2="13" stroke-width="2.6"/>
<circle cx="-25.6" cy="0" r="4.3" fill="white" stroke-width="1.5"/>
<line x1="-14" y1="0" x2="30" y2="0"/>
<path d="M 6 0 L -2 -3.6 L -2 3.6 Z" fill="#111111" stroke="none"/>
</g>
<text x="316" y="104" class="name">XM7</text>
<text x="372" y="208" class="param" text-anchor="start">pfet_01v8  w=4  l=4</text>
<g transform="translate(1490 570)" fill="none">
<line x1="0" y1="-40" x2="0" y2="-16"/>
<line x1="0" y1="-16" x2="-14" y2="-16"/>
<line x1="0" y1="40" x2="0" y2="16"/>
<line x1="0" y1="16" x2="-14" y2="16"/>
<line x1="-14" y1="-17" x2="-14" y2="17" stroke-width="2.6"/>
<line x1="-21" y1="-13" x2="-21" y2="13" stroke-width="2.6"/>
<line x1="-30" y1="0" x2="-21" y2="0"/>
<line x1="-14" y1="0" x2="30" y2="0"/>
<path d="M -12.5 0 L -4 -3.6 L -4 3.6 Z" fill="#111111" stroke="none"/>
</g>
<text x="1456" y="524" class="name">XM6</text>
<text x="1512" y="628" class="param" text-anchor="start">nfet_01v8  w=0.5  l=0.5</text>
<g transform="translate(1720 150)" fill="none">
<line x1="0" y1="-40" x2="0" y2="-5"/>
<line x1="0" y1="5" x2="0" y2="40"/>
<line x1="-14" y1="-5" x2="14" y2="-5" stroke-width="2.6"/>
<line x1="-14" y1="5" x2="14" y2="5" stroke-width="2.6"/>
<line x1="0" y1="5" x2="20" y2="5" stroke-dasharray="3 2"/>
<line x1="20" y1="5" x2="20" y2="0"/>
</g>
<text x="1686" y="104" class="name">XC_gs</text>
<text x="1742" y="208" class="param" text-anchor="start">cap_mim_m3_1  w=25  l=50</text>
<g transform="translate(1720 570)" fill="none">
<line x1="0" y1="-40" x2="0" y2="-21"/>
<line x1="0" y1="21" x2="0" y2="40"/>
<polyline points="0,-21 8,-17.5 -8,-10.5 8,-3.5 -8,3.5 8,10.5 -8,17.5 0,21" fill="none" stroke-width="2"/>
<line x1="0" y1="0" x2="20" y2="0" stroke-dasharray="3 2"/>
</g>
<text x="1686" y="524" class="name">XR_gs</text>
<text x="1742" y="628" class="param" text-anchor="start">res_xhigh_po  w=0.35  l=1360</text>
<g transform="translate(1900 430) rotate(-90)" fill="none">
<line x1="0" y1="-40" x2="0" y2="-16"/>
<line x1="0" y1="-16" x2="-14" y2="-16"/>
<line x1="0" y1="40" x2="0" y2="16"/>
<line x1="0" y1="16" x2="-14" y2="16"/>
<line x1="-14" y1="-17" x2="-14" y2="17" stroke-width="2.6"/>
<line x1="-21" y1="-13" x2="-21" y2="13" stroke-width="2.6"/>
<line x1="-30" y1="0" x2="-21" y2="0"/>
<line x1="-14" y1="0" x2="30" y2="0"/>
<path d="M -12.5 0 L -4 -3.6 L -4 3.6 Z" fill="#111111" stroke="none"/>
</g>
<text x="1866" y="384" class="name">XMsw</text>
<text x="1922" y="488" class="param" text-anchor="start">nfet_01v8  w=4  l=0.5</text>
<line x1="20" y1="700" x2="2050" y2="700" stroke="#999" stroke-width="1"/>
<text x="26" y="720" class="title">bias_generator</text>
<text x="26" y="736" class="meta">design.cir — 17 devices — ports: vdd, gnd, iref_out — SpiceGlass — 2026-06-10</text>
<rect x="1920" y="14" width="128" height="30" rx="6" fill="none" stroke="#0a7d28" stroke-width="2.4"/>
<text x="1984" y="34" text-anchor="middle" style="fill:#0a7d28;font-weight:800;font-size:14px">VERIFIED ✓</text>
</svg>