<svg xmlns="http://www.w3.org/2000/svg" width="1010" height="620" viewBox="0 0 1010 620" data-grid-mm="1" font-family="Segoe UI, Arial, sans-serif">
<style>
 line, polyline, path, rect, circle { stroke: #111111; stroke-width: 1.8; }
 .wire { stroke: #1b1b1b; stroke-width: 1.6; }
 text { stroke: none; fill: #222; font-size: 11px; }
 .name { font-weight: 600; font-size: 11px; }
 .param { fill: #666; font-size: 9.5px; }
 .pin { font-size: 9px; fill: #333; }
 .sym { font-size: 11px; font-weight: 700; }
 .boxmodel { font-size: 9.5px; fill: #555; font-style: italic; }
 .rail { font-size: 9px; fill: #444444; font-weight: 600; }
 .netlabel { font-size: 10.5px; fill: #a14d00; font-style: italic; }
 .port { font-size: 10.5px; fill: #0b4ea2; font-weight: 700; }
 .sectitle { font-size: 11px; fill: #8a7340; font-weight: 600; }
 .title { font-size: 16px; font-weight: 700; }
 .meta { font-size: 10px; fill: #555; }
</style>
<rect x="0" y="0" width="1010" height="620" fill="white" stroke="none"/>
<rect x="98" y="88" width="324" height="404" rx="10" fill="#fff3df" stroke="none" opacity="0.7"/>
<text x="104" y="82" class="sectitle">Signal branch</text>
<rect x="508" y="88" width="324" height="404" rx="10" fill="#e8f3e6" stroke="none" opacity="0.7"/>
<text x="514" y="82" class="sectitle">Reference branch</text>
<line class="wire" x1="580" y1="390" x2="580" y2="190" stroke="#1b1b1b" stroke-width="1.6"/><line class="wire" x1="720" y1="290" x2="580" y2="290" stroke="#1b1b1b" stroke-width="1.6"/><line class="wire" x1="170" y1="390" x2="170" y2="190" stroke="#1b1b1b" stroke-width="1.6"/><line class="wire" x1="310" y1="290" x2="170" y2="290" stroke="#1b1b1b" stroke-width="1.6"/><circle cx="580" cy="290" r="3" fill="#1b1b1b" stroke="none"/><circle cx="170" cy="290" r="3" fill="#1b1b1b" stroke="none"/>
<line x1="140" y1="430" x2="118" y2="430"/><rect x="97" y="421" width="21" height="18" rx="3" fill="white" stroke="#0b4ea2" stroke-width="1.4"/><text x="107.5" y="434" text-anchor="middle" class="port">inp</text><line x1="170" y1="470" x2="170" y2="482"/><line x1="161" y1="482" x2="179" y2="482" stroke-width="2"/><line x1="164" y1="486" x2="176" y2="486" stroke-width="2"/><line x1="167" y1="490" x2="173" y2="490" stroke-width="2"/><line x1="200" y1="430" x2="212" y2="430"/><line x1="212" y1="430" x2="212" y2="442"/><line x1="207" y1="442" x2="217" y2="442" stroke-width="2"/><line x1="209" y1="446" x2="215" y2="446" stroke-width="2"/><line x1="580" y1="470" x2="580" y2="482"/><line x1="571" y1="482" x2="589" y2="482" stroke-width="2"/><line x1="574" y1="486" x2="586" y2="486" stroke-width="2"/><line x1="577" y1="490" x2="583" y2="490" stroke-width="2"/><line x1="610" y1="430" x2="622" y2="430"/><line x1="622" y1="430" x2="622" y2="442"/><line x1="617" y1="442" x2="627" y2="442" stroke-width="2"/><line x1="619" y1="446" x2="625" y2="446" stroke-width="2"/><line x1="550" y1="430" x2="528" y2="430"/><rect x="507" y="421" width="21" height="18" rx="3" fill="white" stroke="#0b4ea2" stroke-width="1.4"/><text x="517.5" y="434" text-anchor="middle" class="port">vcm</text><line x1="170" y1="110" x2="170" y2="96"/><line x1="161" y1="96" x2="179" y2="96" stroke-width="2.4"/><text x="170" y="91" text-anchor="middle" class="rail">VDD</text><line x1="580" y1="110" x2="580" y2="96"/><line x1="571" y1="96" x2="589" y2="96" stroke-width="2.4"/><text x="580" y="91" text-anchor="middle" class="rail">VDD</text><line x1="390" y1="290" x2="412" y2="290"/><rect x="412" y="281" width="42" height="18" rx="3" fill="white" stroke="#0b4ea2" stroke-width="1.4"/><text x="433.0" y="294" text-anchor="middle" class="port">sq_sig</text><line x1="800" y1="290" x2="822" y2="290"/><rect x="822" y="281" width="42" height="18" rx="3" fill="white" stroke="#0b4ea2" stroke-width="1.4"/><text x="843.0" y="294" text-anchor="middle" class="port">sq_ref</text>
<g transform="translate(170 430)" fill="none">
<line x1="0" y1="-40" x2="0" y2="-16"/>
<line x1="0" y1="-16" x2="-14" y2="-16"/>
<line x1="0" y1="40" x2="0" y2="16"/>
<line x1="0" y1="16" x2="-14" y2="16"/>
<line x1="-14" y1="-17" x2="-14" y2="17" stroke-width="2.6"/>
<line x1="-21" y1="-13" x2="-21" y2="13" stroke-width="2.6"/>
<line x1="-30" y1="0" x2="-21" y2="0"/>
<line x1="-14" y1="0" x2="30" y2="0"/>
<path d="M -12.5 0 L -4 -3.6 L -4 3.6 Z" fill="#111111" stroke="none"/>
</g>
<text x="136" y="384" class="name">XMs</text>
<text x="192" y="488" class="param" text-anchor="start">nfet_01v8  w=0.84u  l=6u</text>
<g transform="translate(580 430)" fill="none">
<line x1="0" y1="-40" x2="0" y2="-16"/>
<line x1="0" y1="-16" x2="-14" y2="-16"/>
<line x1="0" y1="40" x2="0" y2="16"/>
<line x1="0" y1="16" x2="-14" y2="16"/>
<line x1="-14" y1="-17" x2="-14" y2="17" stroke-width="2.6"/>
<line x1="-21" y1="-13" x2="-21" y2="13" stroke-width="2.6"/>
<line x1="-30" y1="0" x2="-21" y2="0"/>
<line x1="-14" y1="0" x2="30" y2="0"/>
<path d="M -12.5 0 L -4 -3.6 L -4 3.6 Z" fill="#111111" stroke="none"/>
</g>
<text x="546" y="384" class="name">XMr</text>
<text x="602" y="488" class="param" text-anchor="start">nfet_01v8  w=0.84u  l=6u</text>
<g transform="translate(170 150)" fill="none">
<line x1="0" y1="-40" x2="0" y2="-21"/>
<line x1="0" y1="21" x2="0" y2="40"/>
<polyline points="0,-21 8,-17.5 -8,-10.5 8,-3.5 -8,3.5 8,10.5 -8,17.5 0,21" fill="none" stroke-width="2"/>
</g>
<text x="136" y="104" class="name">Rsig</text>
<text x="192" y="208" class="param" text-anchor="start">100k</text>
<g transform="translate(580 150)" fill="none">
<line x1="0" y1="-40" x2="0" y2="-21"/>
<line x1="0" y1="21" x2="0" y2="40"/>
<polyline points="0,-21 8,-17.5 -8,-10.5 8,-3.5 -8,3.5 8,10.5 -8,17.5 0,21" fill="none" stroke-width="2"/>
</g>
<text x="546" y="104" class="name">Rref</text>
<text x="602" y="208" class="param" text-anchor="start">100k</text>
<g transform="translate(350 290) rotate(-90)" fill="none">
<line x1="0" y1="-40" x2="0" y2="-21"/>
<line x1="0" y1="21" x2="0" y2="40"/>
<polyline points="0,-21 8,-17.5 -8,-10.5 8,-3.5 -8,3.5 8,10.5 -8,17.5 0,21" fill="none" stroke-width="2"/>
</g>
<text x="316" y="244" class="name">Riso_s</text>
<text x="372" y="348" class="param" text-anchor="start">1k</text>
<g transform="translate(760 290) rotate(-90)" fill="none">
<line x1="0" y1="-40" x2="0" y2="-21"/>
<line x1="0" y1="21" x2="0" y2="40"/>
<polyline points="0,-21 8,-17.5 -8,-10.5 8,-3.5 -8,3.5 8,10.5 -8,17.5 0,21" fill="none" stroke-width="2"/>
</g>
<text x="726" y="244" class="name">Riso_r</text>
<text x="782" y="348" class="param" text-anchor="start">1k</text>
<line x1="20" y1="560" x2="990" y2="560" stroke="#999" stroke-width="1"/>
<text x="26" y="580" class="title">rms_squarer</text>
<text x="26" y="596" class="meta">design.cir — 6 devices — ports: inp, vcm, sq_sig, sq_ref, vdd, vss — grid 1 mm — sheet 101×55 mm — SpiceGlass — 2026-06-11</text>
<rect x="860" y="14" width="128" height="30" rx="6" fill="none" stroke="#0a7d28" stroke-width="2.4"/>
<text x="924" y="34" text-anchor="middle" style="fill:#0a7d28;font-weight:800;font-size:14px">VERIFIED ✓</text>
</svg>